<svg width="14" height="16" viewBox="0 0 14 16" fill="none" xmlns="http://www.w3.org/2000/svg">
<path fill-rule="evenodd" clip-rule="evenodd" d="M6.39788 0.165426C4.70584 1.36704 2.77193 2.04069 0.808703 2.18638C0.360105 2.21967 -0.00566511 2.58635 6.64535e-05 3.03614C0.131657 13.363 2.79055 14.4207 6.58787 15.9313L6.61489 15.942C6.80922 16.0193 7.02705 16.0193 7.22138 15.942L7.2484 15.9313C11.0457 14.4207 13.7046 13.363 13.8362 3.03614C13.8419 2.58635 13.4762 2.21967 13.0276 2.18638C11.0643 2.04069 9.13043 1.36704 7.43838 0.165426C7.12779 -0.0551421 6.70848 -0.0551421 6.39788 0.165426ZM5.17109 10.8977C5.63984 11.1846 6.20092 11.3281 6.85433 11.3281C7.40263 11.3281 7.8799 11.2286 8.28615 11.0298C8.6924 10.8281 9.01342 10.5496 9.24922 10.1945C9.48501 9.83658 9.62138 9.42607 9.65831 8.963H8.18388C8.13842 9.19879 8.05462 9.39908 7.93246 9.56385C7.8103 9.72862 7.65831 9.85504 7.47649 9.94311C7.29751 10.0283 7.09439 10.071 6.86712 10.071C6.54609 10.071 6.26626 9.98572 6.02763 9.81527C5.79183 9.64197 5.60859 9.39624 5.47791 9.07805C5.34723 8.75703 5.28189 8.37351 5.28189 7.92749C5.28189 7.48714 5.34723 7.1093 5.47791 6.79396C5.61144 6.47862 5.79751 6.23714 6.03615 6.06953C6.27479 5.89908 6.55178 5.81385 6.86712 5.81385C7.23928 5.81385 7.53615 5.92038 7.75774 6.13345C7.98217 6.34368 8.12422 6.60646 8.18388 6.9218H9.65831C9.62422 6.45021 9.48501 6.03828 9.2407 5.68601C8.99638 5.33089 8.66825 5.05675 8.25632 4.86356C7.84723 4.66754 7.37706 4.56953 6.84581 4.56953C6.20661 4.56953 5.65263 4.713 5.18388 4.99993C4.71797 5.28402 4.35717 5.68175 4.10149 6.19311C3.84581 6.70163 3.71797 7.28828 3.71797 7.95305C3.71797 8.61499 3.84297 9.20021 4.09297 9.70874C4.34581 10.2144 4.70518 10.6107 5.17109 10.8977Z" fill="#E81C26"/>
<path d="M6.85433 11.3281C6.20092 11.3281 5.63984 11.1846 5.17109 10.8977C4.70518 10.6107 4.34581 10.2144 4.09297 9.70874C3.84297 9.20021 3.71797 8.61499 3.71797 7.95305C3.71797 7.28828 3.84581 6.70163 4.10149 6.19311C4.35717 5.68175 4.71797 5.28402 5.18388 4.99993C5.65263 4.713 6.20661 4.56953 6.84581 4.56953C7.37706 4.56953 7.84723 4.66754 8.25632 4.86356C8.66825 5.05675 8.99638 5.33089 9.2407 5.68601C9.48501 6.03828 9.62422 6.45021 9.65831 6.9218H8.18388C8.12422 6.60646 7.98217 6.34368 7.75774 6.13345C7.53615 5.92038 7.23928 5.81385 6.86712 5.81385C6.55178 5.81385 6.27479 5.89908 6.03615 6.06953C5.79751 6.23714 5.61144 6.47862 5.47791 6.79396C5.34723 7.1093 5.28189 7.48714 5.28189 7.92749C5.28189 8.37351 5.34723 8.75703 5.47791 9.07805C5.60859 9.39624 5.79183 9.64197 6.02763 9.81527C6.26626 9.98572 6.54609 10.071 6.86712 10.071C7.09439 10.071 7.29751 10.0283 7.47649 9.94311C7.65831 9.85504 7.8103 9.72862 7.93246 9.56385C8.05462 9.39908 8.13842 9.19879 8.18388 8.963H9.65831C9.62138 9.42607 9.48501 9.83658 9.24922 10.1945C9.01342 10.5496 8.6924 10.8281 8.28615 11.0298C7.8799 11.2286 7.40263 11.3281 6.85433 11.3281Z" fill="black"/>
</svg>
