<svg width="13" height="16" viewBox="0 0 13 16" fill="none" xmlns="http://www.w3.org/2000/svg">
<g clip-path="url(#clip0_628_156)">
<path d="M0.0406952 2.45845C2.4877 2.44345 4.6877 1.76445 6.4877 -0.0605469C8.2807 1.74945 10.4877 2.44345 12.9917 2.45145C12.9917 2.95945 12.9777 3.43145 12.9917 3.90345C13.0337 5.54945 13.0337 7.19545 12.7517 8.81945C12.2537 11.7175 10.7767 13.8995 8.1687 15.2385C7.6907 15.4815 7.1837 15.6885 6.6917 15.8965C6.58765 15.9423 6.47071 15.9498 6.3617 15.9175C4.1957 15.1455 2.3817 13.9075 1.2357 11.8175C0.57561 10.6255 0.193424 9.29984 0.117695 7.93945C0.0196953 6.17245 0.0406953 4.39745 0.0126953 2.62245C0.0126953 2.57245 0.0266952 2.52945 0.0406952 2.45845Z" fill="#BB2A31"/>
<path d="M6.68936 11C6.0124 11 5.43155 10.8509 4.94599 10.5542C4.46431 10.2582 4.07689 9.83108 3.82904 9.32292C3.57052 8.79593 3.44043 8.19022 3.44043 7.50414C3.44043 6.81641 3.57301 6.20822 3.83816 5.68123C4.10331 5.15175 4.47618 4.73994 4.95925 4.44579C5.44481 4.14832 6.0182 4 6.68025 4C7.23044 4 7.71766 4.10109 8.14107 4.3041C8.5678 4.50462 8.90752 4.78883 9.16025 5.15672C9.4138 5.52131 9.55797 5.94804 9.5936 6.43608H8.06649C8.01196 6.12323 7.85691 5.8367 7.62485 5.61991C7.39533 5.39867 7.08792 5.28847 6.70262 5.28847C6.37615 5.28847 6.08946 5.37713 5.84171 5.55362C5.59479 5.72763 5.40255 5.97704 5.26335 6.3035C5.12829 6.6308 5.06034 7.0219 5.06034 7.47763C5.06034 7.93999 5.12829 8.33688 5.26335 8.66998C5.39924 8.99893 5.58899 9.25331 5.83342 9.43312C6.08034 9.60961 6.37035 9.69827 6.70262 9.69827C6.93794 9.69827 7.14841 9.65353 7.33401 9.5657C7.52211 9.47455 7.67954 9.34363 7.80632 9.17294C7.93891 8.98782 8.02786 8.77507 8.06649 8.55066H9.5936C9.56396 9.00523 9.41817 9.44459 9.17019 9.82671C8.92077 10.1987 8.57629 10.4971 8.17256 10.6909C7.75163 10.8973 7.25695 11 6.68936 11Z" fill="white"/>
</g>
<defs>
<clipPath id="clip0_628_156">
<rect width="13.005" height="16.001" fill="white"/>
</clipPath>
</defs>
</svg>
