<?xml version="1.0" encoding="utf-8"?>
<svg viewBox="5.987 4.061 13.005 16.001" fill="#F1605D" xmlns="http://www.w3.org/2000/svg">
  <path d="M6.028 6.519c2.447-.015 4.647-.694 6.447-2.519 1.793 1.81 4 2.504 6.504 2.512 0 .508-.014.98 0 1.452.042 1.646.042 3.292-.24 4.916-.498 2.898-1.975 5.08-4.583 6.419-.478.243-.985.45-1.477.658a.48.48 0 01-.33.021c-2.166-.772-3.98-2.01-5.126-4.1A9.042 9.042 0 016.105 12C6.007 10.233 6.028 8.458 6 6.683c0-.05.014-.093.028-.164z"/>
  <path d="M9.711 15V8.455h1.384v2.7h2.81v-2.7h1.38V15h-1.38v-2.704h-2.81V15H9.711z" fill="#fff"/>
</svg>