<svg width="14" height="16" viewBox="0 0 14 16" fill="none" xmlns="http://www.w3.org/2000/svg">
<path d="M0.808703 2.18638C2.77193 2.04069 4.70584 1.36704 6.39788 0.165426C6.70848 -0.0551421 7.12779 -0.0551421 7.43838 0.165426C9.13043 1.36704 11.0643 2.04069 13.0276 2.18638C13.4762 2.21967 13.8419 2.58635 13.8362 3.03614C13.7046 13.363 11.0457 14.4207 7.2484 15.9313L7.22137 15.942C7.02704 16.0193 6.80922 16.0193 6.61489 15.942L6.58787 15.9313C2.79054 14.4207 0.131657 13.363 6.64535e-05 3.03614C-0.00566511 2.58635 0.360105 2.21967 0.808703 2.18638Z" fill="#FFE646"/>
<path d="M4.94275 11.1759V4.66001H6.32039V10.0401H9.11384V11.1759H4.94275Z" fill="black"/>
</svg>
