<svg width="14" height="16" viewBox="0 0 14 16" fill="none" xmlns="http://www.w3.org/2000/svg">
<path d="M0.808703 2.18638C2.77193 2.04069 4.70584 1.36704 6.39788 0.165426C6.70848 -0.0551421 7.12779 -0.0551421 7.43838 0.165426C9.13043 1.36704 11.0643 2.04069 13.0276 2.18638C13.4762 2.21967 13.8419 2.58635 13.8362 3.03614C13.7046 13.363 11.0457 14.4207 7.2484 15.9313L7.22137 15.942C7.02704 16.0193 6.80922 16.0193 6.61489 15.942L6.58787 15.9313C2.79054 14.4207 0.131657 13.363 6.64535e-05 3.03614C-0.00566511 2.58635 0.360105 2.21967 0.808703 2.18638Z" fill="#FF7B00"/>
<path d="M3.34598 4.66001H5.04496L6.83939 9.0379H6.91575L8.71017 4.66001H10.4092V11.1759H9.07288V6.93486H9.01879L7.33254 11.1441H6.4226L4.73634 6.91895H4.68226V11.1759H3.34598V4.66001Z" fill="black"/>
</svg>
