<?xml version="1.0" encoding="utf-8"?>
<svg viewBox="6.493 4 13.014 16.124" fill="#F9AE4D" xmlns="http://www.w3.org/2000/svg">
  <path d="M6.528 6.519c2.447-.015 4.647-.694 6.447-2.519 1.793 1.81 4 2.504 6.504 2.512 0 .508-.014.98 0 1.452.042 1.646.042 3.292-.24 4.916-.498 2.898-1.975 5.08-4.583 6.419-.478.243-.985.45-1.477.658a.48.48 0 01-.33.021c-2.166-.772-3.98-2.01-5.126-4.1A9.042 9.042 0 016.605 12c-.098-1.767-.077-3.542-.105-5.317 0-.05.014-.093.028-.164z"/>
  <path d="M9.451 8.455h1.707l1.802 4.397h.077l1.803-4.397h1.706V15h-1.342v-4.26h-.054l-1.694 4.228h-.914l-1.694-4.244h-.055V15H9.451V8.455z" fill="#fff"/>
</svg>