<svg width="16" height="16" viewBox="0 0 16 16" fill="none" xmlns="http://www.w3.org/2000/svg">
    <path d="M1.89073 2.18736C3.85396 2.04167 5.78787 1.36801 7.47991 0.166403C7.79051 -0.0541656 8.20982 -0.0541656 8.52041 0.166403C10.2125 1.36801 12.1464 2.04167 14.1096 2.18736C14.5582 2.22065 14.924 2.58732 14.9182 3.03712C14.7866 13.364 12.1278 14.4217 8.33043 15.9322L8.30341 15.943C8.10908 16.0203 7.89125 16.0203 7.69692 15.943L7.6699 15.9322C3.87258 14.4217 1.21369 13.364 1.0821 3.03712C1.07637 2.58732 1.44214 2.22065 1.89073 2.18736Z" fill="#FF3B6C"/>
    <path d="M5.22421 11.1769V4.66099H6.60185V7.34945H9.39848V4.66099H10.7729V11.1769H9.39848V8.48528H6.60185V11.1769H5.22421Z" fill="black"/>
</svg>
