<svg width="16" height="16" viewBox="0 0 16 16" fill="none" xmlns="http://www.w3.org/2000/svg">
    <path fill-rule="evenodd" clip-rule="evenodd" d="M0.234315 0.234411C0.546734 -0.0780082 1.05341 -0.0780082 1.36582 0.234411L15.7656 14.6342L15.8203 14.6953C16.0765 15.0096 16.0584 15.4728 15.7656 15.7657C15.4727 16.0585 15.0095 16.0766 14.6953 15.8203L14.6341 15.7657L12.4088 13.5404C11.3189 14.7389 9.92739 15.2972 8.33067 15.9323L8.30332 15.9427C8.109 16.02 7.89087 16.02 7.69655 15.9427L7.66921 15.9323C3.87207 14.4218 1.21356 13.363 1.08197 3.03649C1.07914 2.80958 1.17106 2.60414 1.32025 2.45186L0.234315 1.36592C-0.0781048 1.0535 -0.0781048 0.546831 0.234315 0.234411Z" fill="#6F6F6F"/>
    <path d="M7.47911 0.165401C7.78968 -0.0551507 8.21019 -0.0551166 8.52077 0.165401C10.2128 1.36694 12.1462 2.04183 14.1093 2.18754C14.5578 2.22082 14.9235 2.5868 14.9179 3.03649C14.8743 6.46175 14.549 8.86628 13.9999 10.6068L12.677 9.28259L6.16661 2.77217L4.91661 1.52217C5.81024 1.18932 6.67239 0.738267 7.47911 0.165401Z" fill="#6F6F6F"/>
</svg>
