<svg width="16" height="16" viewBox="0 0 16 16" fill="none" xmlns="http://www.w3.org/2000/svg">
    <circle cx="8" cy="8.00122" r="8" fill="#E70205"/>
    <path fill-rule="evenodd" clip-rule="evenodd" d="M3.85156 7.70171C3.85156 5.60992 5.6723 3.84985 7.99971 3.84985C10.3271 3.84985 12.1479 5.60992 12.1479 7.70171C12.1479 8.66657 11.7656 9.55271 11.1237 10.2349C11.0203 10.3448 10.9627 10.49 10.9627 10.641V12.1461H9.77761V10.9614C9.77761 10.6341 9.51229 10.3688 9.18501 10.3688C8.85773 10.3688 8.59242 10.6341 8.59242 10.9614V12.1461H7.40712V10.9614C7.40712 10.6341 7.14181 10.3688 6.81453 10.3688C6.48725 10.3688 6.22193 10.6341 6.22193 10.9614V12.1461H5.03675V10.641C5.03675 10.4899 4.97909 10.3446 4.87556 10.2347C4.23384 9.55328 3.85156 8.66724 3.85156 7.70171ZM5.384 6.56736C5.60626 6.34509 5.90772 6.22022 6.22205 6.22022C6.53638 6.22022 6.83784 6.34509 7.0601 6.56736C7.28237 6.78962 7.40723 7.09108 7.40723 7.40541C7.40723 7.71974 7.28237 8.0212 7.0601 8.24346C6.83784 8.46573 6.53638 8.59059 6.22205 8.59059C5.90772 8.59059 5.60626 8.46573 5.384 8.24346C5.16173 8.0212 5.03686 7.71974 5.03686 7.40541C5.03686 7.09108 5.16173 6.78962 5.384 6.56736ZM9.77761 6.22022C9.46327 6.22022 9.16182 6.34509 8.93955 6.56736C8.71729 6.78962 8.59242 7.09108 8.59242 7.40541C8.59242 7.71974 8.71729 8.0212 8.93955 8.24346C9.16182 8.46573 9.46327 8.59059 9.77761 8.59059C10.0919 8.59059 10.3934 8.46573 10.6157 8.24346C10.8379 8.0212 10.9628 7.71974 10.9628 7.40541C10.9628 7.09108 10.8379 6.78962 10.6157 6.56736C10.3934 6.34509 10.0919 6.22022 9.77761 6.22022Z" fill="white"/>
</svg>
