<svg width="16" height="16" viewBox="0 0 16 16" fill="none" xmlns="http://www.w3.org/2000/svg">
    <circle cx="8" cy="8.00195" r="8" fill="#D40003"/>
    <path fill-rule="evenodd" clip-rule="evenodd" d="M3.85229 7.70146C3.85229 5.60967 5.67304 3.84961 8.00044 3.84961C10.3279 3.84961 12.1486 5.60967 12.1486 7.70146C12.1486 8.66633 11.7664 9.55247 11.1244 10.2346C11.021 10.3445 10.9634 10.4898 10.9634 10.6407V12.1459H9.77834V10.9612C9.77834 10.6339 9.51302 10.3686 9.18574 10.3686C8.85847 10.3686 8.59315 10.6339 8.59315 10.9612V12.1459H7.40785V10.9612C7.40785 10.6339 7.14254 10.3686 6.81526 10.3686C6.48798 10.3686 6.22267 10.6339 6.22267 10.9612V12.1459H5.03748V10.6407C5.03748 10.4897 4.97982 10.3444 4.87629 10.2344C4.23457 9.55304 3.85229 8.667 3.85229 7.70146ZM5.38473 6.56711C5.60699 6.34485 5.90845 6.21998 6.22278 6.21998C6.53711 6.21998 6.83857 6.34485 7.06083 6.56711C7.2831 6.78938 7.40797 7.09083 7.40797 7.40516C7.40797 7.7195 7.2831 8.02095 7.06083 8.24322C6.83857 8.46548 6.53711 8.59035 6.22278 8.59035C5.90845 8.59035 5.60699 8.46548 5.38473 8.24322C5.16246 8.02095 5.0376 7.7195 5.0376 7.40516C5.0376 7.09083 5.16246 6.78938 5.38473 6.56711ZM9.77834 6.21998C9.46401 6.21998 9.16255 6.34485 8.94028 6.56711C8.71802 6.78938 8.59315 7.09083 8.59315 7.40516C8.59315 7.7195 8.71802 8.02095 8.94028 8.24322C9.16255 8.46548 9.46401 8.59035 9.77834 8.59035C10.0927 8.59035 10.3941 8.46548 10.6164 8.24322C10.8387 8.02095 10.9635 7.7195 10.9635 7.40516C10.9635 7.09083 10.8387 6.78938 10.6164 6.56711C10.3941 6.34485 10.0927 6.21998 9.77834 6.21998Z" fill="white"/>
</svg>
