<svg width="16" height="16" viewBox="0 0 16 16" fill="none" xmlns="http://www.w3.org/2000/svg">
    <path fill-rule="evenodd" clip-rule="evenodd" d="M8.00016 14.3091C6.21472 13.5933 5.1558 13.0919 4.35922 11.8899C3.51794 10.6205 2.84407 8.34695 2.7248 3.73751C4.57068 3.4945 6.37465 2.84161 8.00016 1.78151C9.62567 2.84161 11.4296 3.4945 13.2755 3.73751C13.1563 8.34695 12.4824 10.6205 11.6411 11.8899C10.8445 13.0919 9.7856 13.5933 8.00016 14.3091ZM8.33043 15.9313C12.1277 14.4207 14.7866 13.363 14.9182 3.03614C14.924 2.58635 14.5582 2.21967 14.1096 2.18638C12.1464 2.04069 10.2125 1.36704 8.52041 0.165426C8.20982 -0.0551421 7.79051 -0.0551421 7.47991 0.165426C5.78787 1.36704 3.85396 2.04069 1.89073 2.18638C1.44214 2.21967 1.07637 2.58635 1.0821 3.03614C1.21369 13.363 3.87258 14.4207 7.6699 15.9313L7.69692 15.942C7.89125 16.0193 8.10907 16.0193 8.3034 15.942L8.33043 15.9313Z" fill="#39A42C"/>
    <path d="M11.4864 5.83431C11.174 5.5219 10.6674 5.52189 10.355 5.83431L7.45781 8.73152L6.32593 7.59964C6.01351 7.28722 5.50698 7.28722 5.19456 7.59964C4.88214 7.91206 4.88214 8.41859 5.19456 8.73101L6.87285 10.4093C6.87903 10.4159 6.88535 10.4224 6.8918 10.4289C7.20422 10.7413 7.71075 10.7413 8.02317 10.4289L11.4864 6.96568C11.7988 6.65327 11.7988 6.14673 11.4864 5.83431Z" fill="#39A42C"/>
</svg>
