<svg width="220" height="198" viewBox="0 0 220 198" fill="none" xmlns="http://www.w3.org/2000/svg">
<rect x="0.5" y="0.5" width="219" height="197" rx="5.5" fill="#F7F8FA"/>
<rect x="0.5" y="0.5" width="219" height="197" rx="5.5" stroke="#181818"/>
<path d="M37.5215 25L34.4043 16.5449H35.5117L37.9961 23.6348H38.0898L40.5742 16.5449H41.6816L38.5645 25H37.5215ZM44.8574 25.1113C44.3809 25.1113 43.9805 25.0215 43.6562 24.8418C43.332 24.6582 43.0879 24.3926 42.9238 24.0449C42.7637 23.6934 42.6836 23.2695 42.6836 22.7734V18.6836H43.7031V22.5273C43.7031 23.0938 43.8125 23.5156 44.0312 23.793C44.2539 24.0703 44.6172 24.209 45.1211 24.209C45.3984 24.209 45.6426 24.168 45.8535 24.0859C46.0684 24.0039 46.248 23.8867 46.3926 23.7344C46.5371 23.5781 46.6445 23.3906 46.7148 23.1719C46.7891 22.9492 46.8262 22.6992 46.8262 22.4219V18.6836H47.8457V25H46.8262V24.0566H46.7324C46.6309 24.2793 46.4922 24.4707 46.3164 24.6309C46.1406 24.7871 45.9297 24.9062 45.6836 24.9883C45.4414 25.0703 45.166 25.1113 44.8574 25.1113ZM49.8086 25V16.1758H50.8281V25H49.8086ZM52.7852 25V18.6836H53.8047V19.6328H53.8984C54.0586 19.2969 54.2891 19.0371 54.5898 18.8535C54.8906 18.666 55.2734 18.5723 55.7383 18.5723C56.4492 18.5723 56.9941 18.7754 57.373 19.1816C57.7559 19.584 57.9473 20.1602 57.9473 20.9102V25H56.9277V21.1562C56.9277 20.5859 56.8066 20.1641 56.5645 19.8906C56.3262 19.6133 55.9551 19.4746 55.4512 19.4746C55.1152 19.4746 54.8242 19.5469 54.5781 19.6914C54.332 19.8359 54.1406 20.041 54.0039 20.3066C53.8711 20.5723 53.8047 20.8906 53.8047 21.2617V25H52.7852ZM62.3711 25.1113C61.7695 25.1113 61.252 24.9785 60.8184 24.7129C60.3887 24.4473 60.0566 24.0723 59.8223 23.5879C59.5918 23.0996 59.4766 22.5254 59.4766 21.8652V21.8594C59.4766 21.207 59.5918 20.6348 59.8223 20.1426C60.0566 19.6504 60.3867 19.2656 60.8125 18.9883C61.2383 18.7109 61.7363 18.5723 62.3066 18.5723C62.8809 18.5723 63.373 18.7051 63.7832 18.9707C64.1973 19.2363 64.5137 19.6074 64.7324 20.084C64.9551 20.5566 65.0664 21.1074 65.0664 21.7363V22.1348H60.0039V21.3203H64.5449L64.041 22.0645V21.6602C64.041 21.1641 63.9668 20.7559 63.8184 20.4355C63.6699 20.1152 63.4648 19.877 63.2031 19.7207C62.9414 19.5605 62.6406 19.4805 62.3008 19.4805C61.9609 19.4805 61.6562 19.5645 61.3867 19.7324C61.1211 19.8965 60.9102 20.1406 60.7539 20.4648C60.5977 20.7891 60.5195 21.1875 60.5195 21.6602V22.0645C60.5195 22.5137 60.5957 22.8984 60.748 23.2188C60.9004 23.5352 61.1172 23.7793 61.3984 23.9512C61.6797 24.1191 62.0117 24.2031 62.3945 24.2031C62.6797 24.2031 62.9277 24.1641 63.1387 24.0859C63.3496 24.0078 63.5234 23.9082 63.6602 23.7871C63.7969 23.666 63.8926 23.543 63.9473 23.418L63.9707 23.3652H64.9902L64.9785 23.4121C64.9238 23.627 64.8262 23.8359 64.6855 24.0391C64.5488 24.2383 64.3711 24.4199 64.1523 24.584C63.9336 24.7441 63.6738 24.873 63.373 24.9707C63.0762 25.0645 62.7422 25.1113 62.3711 25.1113ZM66.6484 25V18.6836H67.668V19.6211H67.7617C67.8828 19.2891 68.0879 19.0312 68.377 18.8477C68.666 18.6641 69.0234 18.5723 69.4492 18.5723C69.5469 18.5723 69.6426 18.5781 69.7363 18.5898C69.834 18.5977 69.9082 18.6055 69.959 18.6133V19.6035C69.8535 19.584 69.75 19.5703 69.6484 19.5625C69.5508 19.5508 69.4453 19.5449 69.332 19.5449C69.0078 19.5449 68.7207 19.6094 68.4707 19.7383C68.2207 19.8672 68.0234 20.0469 67.8789 20.2773C67.7383 20.5078 67.668 20.7773 67.668 21.0859V25H66.6484ZM72.9531 25.1113C72.5547 25.1113 72.1953 25.0352 71.875 24.8828C71.5586 24.7305 71.3066 24.5137 71.1191 24.2324C70.9355 23.9512 70.8438 23.6191 70.8438 23.2363V23.2246C70.8438 22.8496 70.9336 22.5293 71.1133 22.2637C71.293 21.9941 71.5547 21.7832 71.8984 21.6309C72.2422 21.4785 72.6582 21.3887 73.1465 21.3613L75.4668 21.2207V22.0352L73.2695 22.1758C72.7891 22.2031 72.4375 22.3027 72.2148 22.4746C71.9961 22.6465 71.8867 22.8887 71.8867 23.2012V23.2129C71.8867 23.5332 72.0078 23.7832 72.25 23.9629C72.4922 24.1387 72.7969 24.2266 73.1641 24.2266C73.5117 24.2266 73.8203 24.1582 74.0898 24.0215C74.3594 23.8809 74.5703 23.6914 74.7227 23.4531C74.8789 23.2148 74.957 22.9453 74.957 22.6445V20.6758C74.957 20.2852 74.8379 19.9883 74.5996 19.7852C74.3652 19.5781 74.0117 19.4746 73.5391 19.4746C73.1602 19.4746 72.8496 19.543 72.6074 19.6797C72.3652 19.8125 72.2031 20.002 72.1211 20.248L72.1152 20.2656H71.0957L71.1016 20.2305C71.1562 19.8984 71.293 19.6094 71.5117 19.3633C71.7344 19.1133 72.0215 18.9199 72.373 18.7832C72.7246 18.6426 73.125 18.5723 73.5742 18.5723C74.0898 18.5723 74.5254 18.6562 74.8809 18.8242C75.2402 18.9922 75.5117 19.2344 75.6953 19.5508C75.8828 19.8633 75.9766 20.2383 75.9766 20.6758V25H74.957V24.0684H74.8633C74.7305 24.291 74.5684 24.4805 74.377 24.6367C74.1895 24.793 73.9766 24.9121 73.7383 24.9941C73.5 25.0723 73.2383 25.1113 72.9531 25.1113ZM80.9805 25.1113C80.6875 25.1113 80.416 25.0664 80.166 24.9766C79.916 24.8867 79.6934 24.7598 79.498 24.5957C79.3027 24.4277 79.1406 24.2266 79.0117 23.9922H78.918V25H77.8984V16.1758H78.918V19.6797H79.0117C79.1289 19.4531 79.2852 19.2578 79.4805 19.0938C79.6797 18.9297 79.9062 18.8027 80.1602 18.7129C80.418 18.6191 80.6914 18.5723 80.9805 18.5723C81.5156 18.5723 81.9805 18.707 82.375 18.9766C82.7734 19.2461 83.082 19.625 83.3008 20.1133C83.5195 20.6016 83.6289 21.1758 83.6289 21.8359V21.8477C83.6289 22.5039 83.5195 23.0781 83.3008 23.5703C83.082 24.0586 82.7734 24.4375 82.375 24.707C81.9805 24.9766 81.5156 25.1113 80.9805 25.1113ZM80.7461 24.209C81.1328 24.209 81.4629 24.1152 81.7363 23.9277C82.0098 23.7363 82.2188 23.4648 82.3633 23.1133C82.5117 22.7578 82.5859 22.3359 82.5859 21.8477V21.8359C82.5859 21.3438 82.5117 20.9219 82.3633 20.5703C82.2188 20.2188 82.0098 19.9492 81.7363 19.7617C81.4629 19.5703 81.1328 19.4746 80.7461 19.4746C80.3633 19.4746 80.0332 19.5703 79.7559 19.7617C79.4785 19.9531 79.2656 20.2246 79.1172 20.5762C78.9688 20.9277 78.8945 21.3477 78.8945 21.8359V21.8477C78.8945 22.332 78.9688 22.752 79.1172 23.1074C79.2656 23.459 79.4785 23.7305 79.7559 23.9219C80.0332 24.1133 80.3633 24.209 80.7461 24.209ZM85.2344 25V18.6836H86.2539V25H85.2344ZM85.75 17.4648C85.5586 17.4648 85.3926 17.3965 85.252 17.2598C85.1152 17.1191 85.0469 16.9531 85.0469 16.7617C85.0469 16.5664 85.1152 16.4004 85.252 16.2637C85.3926 16.127 85.5586 16.0586 85.75 16.0586C85.9453 16.0586 86.1113 16.127 86.248 16.2637C86.3848 16.4004 86.4531 16.5664 86.4531 16.7617C86.4531 16.9531 86.3848 17.1191 86.248 17.2598C86.1113 17.3965 85.9453 17.4648 85.75 17.4648ZM88.2344 25V16.1758H89.2539V25H88.2344ZM91.2344 25V18.6836H92.2539V25H91.2344ZM91.75 17.4648C91.5586 17.4648 91.3926 17.3965 91.252 17.2598C91.1152 17.1191 91.0469 16.9531 91.0469 16.7617C91.0469 16.5664 91.1152 16.4004 91.252 16.2637C91.3926 16.127 91.5586 16.0586 91.75 16.0586C91.9453 16.0586 92.1113 16.127 92.248 16.2637C92.3848 16.4004 92.4531 16.5664 92.4531 16.7617C92.4531 16.9531 92.3848 17.1191 92.248 17.2598C92.1113 17.3965 91.9453 17.4648 91.75 17.4648ZM96.4199 25.0469C95.7715 25.0469 95.3008 24.916 95.0078 24.6543C94.7188 24.3926 94.5742 23.9609 94.5742 23.3594V19.5273H93.5781V18.6836H94.5742V17.0488H95.6289V18.6836H97.0117V19.5273H95.6289V23.1016C95.6289 23.4727 95.6992 23.7402 95.8398 23.9043C95.9805 24.0645 96.2148 24.1445 96.543 24.1445C96.6328 24.1445 96.709 24.1426 96.7715 24.1387C96.8379 24.1348 96.918 24.1289 97.0117 24.1211V24.9883C96.9141 25.0039 96.8164 25.0176 96.7188 25.0293C96.6211 25.041 96.5215 25.0469 96.4199 25.0469ZM99.0742 27.2148C99.0078 27.2148 98.9336 27.2109 98.8516 27.2031C98.7695 27.1992 98.6934 27.1914 98.623 27.1797V26.3418C98.6855 26.3535 98.7539 26.3613 98.8281 26.3652C98.9023 26.3691 98.9746 26.3711 99.0449 26.3711C99.334 26.3711 99.5703 26.2969 99.7539 26.1484C99.9414 26 100.092 25.7441 100.205 25.3809L100.322 25.0059L97.9844 18.6836H99.0742L101.02 24.5195L100.615 23.8809H101.096L100.691 24.5195L102.631 18.6836H103.703L101.236 25.3867C101.064 25.8594 100.883 26.2285 100.691 26.4941C100.5 26.7598 100.275 26.9453 100.018 27.0508C99.7637 27.1602 99.4492 27.2148 99.0742 27.2148ZM110.752 25V17.4941H108.027V16.5449H114.531V17.4941H111.807V25H110.752ZM115.809 27.2148C115.742 27.2148 115.668 27.2109 115.586 27.2031C115.504 27.1992 115.428 27.1914 115.357 27.1797V26.3418C115.42 26.3535 115.488 26.3613 115.562 26.3652C115.637 26.3691 115.709 26.3711 115.779 26.3711C116.068 26.3711 116.305 26.2969 116.488 26.1484C116.676 26 116.826 25.7441 116.939 25.3809L117.057 25.0059L114.719 18.6836H115.809L117.754 24.5195L117.35 23.8809H117.83L117.426 24.5195L119.365 18.6836H120.438L117.971 25.3867C117.799 25.8594 117.617 26.2285 117.426 26.4941C117.234 26.7598 117.01 26.9453 116.752 27.0508C116.498 27.1602 116.184 27.2148 115.809 27.2148ZM121.785 27.1094V18.6836H122.805V19.6914H122.898C123.027 19.457 123.189 19.2578 123.385 19.0938C123.58 18.9258 123.803 18.7969 124.053 18.707C124.303 18.6172 124.574 18.5723 124.867 18.5723C125.402 18.5723 125.867 18.709 126.262 18.9824C126.66 19.252 126.969 19.6309 127.188 20.1191C127.406 20.6074 127.516 21.1797 127.516 21.8359V21.8477C127.516 22.5078 127.406 23.082 127.188 23.5703C126.969 24.0586 126.66 24.4375 126.262 24.707C125.867 24.9766 125.402 25.1113 124.867 25.1113C124.578 25.1113 124.305 25.0664 124.047 24.9766C123.793 24.8828 123.566 24.7539 123.367 24.5898C123.172 24.4258 123.016 24.2305 122.898 24.0039H122.805V27.1094H121.785ZM124.633 24.209C125.02 24.209 125.35 24.1152 125.623 23.9277C125.896 23.7363 126.105 23.4648 126.25 23.1133C126.398 22.7578 126.473 22.3359 126.473 21.8477V21.8359C126.473 21.3438 126.398 20.9219 126.25 20.5703C126.105 20.2188 125.896 19.9492 125.623 19.7617C125.35 19.5703 125.02 19.4746 124.633 19.4746C124.25 19.4746 123.92 19.5703 123.643 19.7617C123.365 19.9531 123.152 20.2246 123.004 20.5762C122.855 20.9277 122.781 21.3477 122.781 21.8359V21.8477C122.781 22.332 122.855 22.752 123.004 23.1074C123.152 23.459 123.365 23.7305 123.643 23.9219C123.92 24.1133 124.25 24.209 124.633 24.209ZM131.688 25.1113C131.086 25.1113 130.568 24.9785 130.135 24.7129C129.705 24.4473 129.373 24.0723 129.139 23.5879C128.908 23.0996 128.793 22.5254 128.793 21.8652V21.8594C128.793 21.207 128.908 20.6348 129.139 20.1426C129.373 19.6504 129.703 19.2656 130.129 18.9883C130.555 18.7109 131.053 18.5723 131.623 18.5723C132.197 18.5723 132.689 18.7051 133.1 18.9707C133.514 19.2363 133.83 19.6074 134.049 20.084C134.271 20.5566 134.383 21.1074 134.383 21.7363V22.1348H129.32V21.3203H133.861L133.357 22.0645V21.6602C133.357 21.1641 133.283 20.7559 133.135 20.4355C132.986 20.1152 132.781 19.877 132.52 19.7207C132.258 19.5605 131.957 19.4805 131.617 19.4805C131.277 19.4805 130.973 19.5645 130.703 19.7324C130.438 19.8965 130.227 20.1406 130.07 20.4648C129.914 20.7891 129.836 21.1875 129.836 21.6602V22.0645C129.836 22.5137 129.912 22.8984 130.064 23.2188C130.217 23.5352 130.434 23.7793 130.715 23.9512C130.996 24.1191 131.328 24.2031 131.711 24.2031C131.996 24.2031 132.244 24.1641 132.455 24.0859C132.666 24.0078 132.84 23.9082 132.977 23.7871C133.113 23.666 133.209 23.543 133.264 23.418L133.287 23.3652H134.307L134.295 23.4121C134.24 23.627 134.143 23.8359 134.002 24.0391C133.865 24.2383 133.688 24.4199 133.469 24.584C133.25 24.7441 132.99 24.873 132.689 24.9707C132.393 25.0645 132.059 25.1113 131.688 25.1113Z" fill="#787C87"/>
<path d="M37.8496 51.1992C37.2324 51.1992 36.6934 51.0996 36.2324 50.9004C35.7754 50.6973 35.4121 50.4199 35.1426 50.0684C34.877 49.7129 34.7227 49.3066 34.6797 48.8496L34.6738 48.7852H35.7285L35.7344 48.8496C35.7617 49.1309 35.8691 49.375 36.0566 49.582C36.248 49.7852 36.502 49.9434 36.8184 50.0566C37.1387 50.1699 37.502 50.2266 37.9082 50.2266C38.291 50.2266 38.6309 50.166 38.9277 50.0449C39.2285 49.9199 39.4648 49.748 39.6367 49.5293C39.8086 49.3105 39.8945 49.0586 39.8945 48.7734V48.7676C39.8945 48.416 39.7656 48.1211 39.5078 47.8828C39.25 47.6406 38.8301 47.4551 38.248 47.3262L37.3105 47.1211C36.4629 46.9336 35.8457 46.6445 35.459 46.2539C35.0762 45.8594 34.8848 45.3555 34.8848 44.7422V44.7363C34.8887 44.2676 35.0156 43.8535 35.2656 43.4941C35.5195 43.1348 35.8691 42.8535 36.3145 42.6504C36.7637 42.4473 37.2793 42.3457 37.8613 42.3457C38.4238 42.3457 38.9219 42.4473 39.3555 42.6504C39.7891 42.8496 40.1328 43.1191 40.3867 43.459C40.6445 43.7988 40.7871 44.1797 40.8145 44.6016L40.8203 44.6836H39.7656L39.7539 44.6074C39.7148 44.3574 39.6133 44.1367 39.4492 43.9453C39.2852 43.75 39.0664 43.5957 38.793 43.4824C38.5195 43.3691 38.1992 43.3145 37.832 43.3184C37.4805 43.3184 37.1641 43.373 36.8828 43.4824C36.6016 43.5918 36.377 43.75 36.209 43.957C36.0449 44.1602 35.9629 44.4102 35.9629 44.707V44.7129C35.9629 45.0488 36.0879 45.332 36.3379 45.5625C36.5879 45.793 37 45.9707 37.5742 46.0957L38.5117 46.3066C39.1016 46.4355 39.5762 46.6035 39.9355 46.8105C40.2949 47.0176 40.5566 47.2715 40.7207 47.5723C40.8887 47.8691 40.9727 48.2207 40.9727 48.627V48.6328C40.9727 49.1602 40.8438 49.6152 40.5859 49.998C40.3281 50.3809 39.9648 50.6777 39.4961 50.8887C39.0273 51.0957 38.4785 51.1992 37.8496 51.1992ZM42.0566 51L45.1738 42.5449H45.9824V43.9102H45.6484L43.1641 51H42.0566ZM43.4688 48.5801L43.7969 47.6836H47.6172L47.9453 48.5801H43.4688ZM48.2266 51L45.7422 43.9102V42.5449H46.2168L49.334 51H48.2266ZM53.5879 51.1992C52.9707 51.1992 52.4316 51.0996 51.9707 50.9004C51.5137 50.6973 51.1504 50.4199 50.8809 50.0684C50.6152 49.7129 50.4609 49.3066 50.418 48.8496L50.4121 48.7852H51.4668L51.4727 48.8496C51.5 49.1309 51.6074 49.375 51.7949 49.582C51.9863 49.7852 52.2402 49.9434 52.5566 50.0566C52.877 50.1699 53.2402 50.2266 53.6465 50.2266C54.0293 50.2266 54.3691 50.166 54.666 50.0449C54.9668 49.9199 55.2031 49.748 55.375 49.5293C55.5469 49.3105 55.6328 49.0586 55.6328 48.7734V48.7676C55.6328 48.416 55.5039 48.1211 55.2461 47.8828C54.9883 47.6406 54.5684 47.4551 53.9863 47.3262L53.0488 47.1211C52.2012 46.9336 51.584 46.6445 51.1973 46.2539C50.8145 45.8594 50.623 45.3555 50.623 44.7422V44.7363C50.627 44.2676 50.7539 43.8535 51.0039 43.4941C51.2578 43.1348 51.6074 42.8535 52.0527 42.6504C52.502 42.4473 53.0176 42.3457 53.5996 42.3457C54.1621 42.3457 54.6602 42.4473 55.0938 42.6504C55.5273 42.8496 55.8711 43.1191 56.125 43.459C56.3828 43.7988 56.5254 44.1797 56.5527 44.6016L56.5586 44.6836H55.5039L55.4922 44.6074C55.4531 44.3574 55.3516 44.1367 55.1875 43.9453C55.0234 43.75 54.8047 43.5957 54.5312 43.4824C54.2578 43.3691 53.9375 43.3145 53.5703 43.3184C53.2188 43.3184 52.9023 43.373 52.6211 43.4824C52.3398 43.5918 52.1152 43.75 51.9473 43.957C51.7832 44.1602 51.7012 44.4102 51.7012 44.707V44.7129C51.7012 45.0488 51.8262 45.332 52.0762 45.5625C52.3262 45.793 52.7383 45.9707 53.3125 46.0957L54.25 46.3066C54.8398 46.4355 55.3145 46.6035 55.6738 46.8105C56.0332 47.0176 56.2949 47.2715 56.459 47.5723C56.627 47.8691 56.7109 48.2207 56.7109 48.627V48.6328C56.7109 49.1602 56.582 49.6152 56.3242 49.998C56.0664 50.3809 55.7031 50.6777 55.2344 50.8887C54.7656 51.0957 54.2168 51.1992 53.5879 51.1992ZM60.666 51V43.4941H57.9414V42.5449H64.4453V43.4941H61.7207V51H60.666Z" fill="black"/>
<path d="M37.8496 77.1992C37.2324 77.1992 36.6934 77.0996 36.2324 76.9004C35.7754 76.6973 35.4121 76.4199 35.1426 76.0684C34.877 75.7129 34.7227 75.3066 34.6797 74.8496L34.6738 74.7852H35.7285L35.7344 74.8496C35.7617 75.1309 35.8691 75.375 36.0566 75.582C36.248 75.7852 36.502 75.9434 36.8184 76.0566C37.1387 76.1699 37.502 76.2266 37.9082 76.2266C38.291 76.2266 38.6309 76.166 38.9277 76.0449C39.2285 75.9199 39.4648 75.748 39.6367 75.5293C39.8086 75.3105 39.8945 75.0586 39.8945 74.7734V74.7676C39.8945 74.416 39.7656 74.1211 39.5078 73.8828C39.25 73.6406 38.8301 73.4551 38.248 73.3262L37.3105 73.1211C36.4629 72.9336 35.8457 72.6445 35.459 72.2539C35.0762 71.8594 34.8848 71.3555 34.8848 70.7422V70.7363C34.8887 70.2676 35.0156 69.8535 35.2656 69.4941C35.5195 69.1348 35.8691 68.8535 36.3145 68.6504C36.7637 68.4473 37.2793 68.3457 37.8613 68.3457C38.4238 68.3457 38.9219 68.4473 39.3555 68.6504C39.7891 68.8496 40.1328 69.1191 40.3867 69.459C40.6445 69.7988 40.7871 70.1797 40.8145 70.6016L40.8203 70.6836H39.7656L39.7539 70.6074C39.7148 70.3574 39.6133 70.1367 39.4492 69.9453C39.2852 69.75 39.0664 69.5957 38.793 69.4824C38.5195 69.3691 38.1992 69.3145 37.832 69.3184C37.4805 69.3184 37.1641 69.373 36.8828 69.4824C36.6016 69.5918 36.377 69.75 36.209 69.957C36.0449 70.1602 35.9629 70.4102 35.9629 70.707V70.7129C35.9629 71.0488 36.0879 71.332 36.3379 71.5625C36.5879 71.793 37 71.9707 37.5742 72.0957L38.5117 72.3066C39.1016 72.4355 39.5762 72.6035 39.9355 72.8105C40.2949 73.0176 40.5566 73.2715 40.7207 73.5723C40.8887 73.8691 40.9727 74.2207 40.9727 74.627V74.6328C40.9727 75.1602 40.8438 75.6152 40.5859 75.998C40.3281 76.3809 39.9648 76.6777 39.4961 76.8887C39.0273 77.0957 38.4785 77.1992 37.8496 77.1992ZM46.1348 77.1992C45.3691 77.1992 44.707 77.0195 44.1484 76.6602C43.5898 76.3008 43.1582 75.791 42.8535 75.1309C42.5527 74.4707 42.4023 73.6875 42.4023 72.7812V72.7695C42.4023 71.8594 42.5527 71.0742 42.8535 70.4141C43.1582 69.7539 43.5879 69.2441 44.1426 68.8848C44.7012 68.5254 45.3633 68.3457 46.1289 68.3457C46.7227 68.3457 47.2617 68.4629 47.7461 68.6973C48.2344 68.9277 48.6367 69.25 48.9531 69.6641C49.2695 70.0742 49.4688 70.5488 49.5508 71.0879L49.5449 71.0996H48.4844L48.4785 71.0879C48.3848 70.7246 48.2266 70.4121 48.0039 70.1504C47.7812 69.8848 47.5098 69.6797 47.1895 69.5352C46.873 69.3906 46.5195 69.3184 46.1289 69.3184C45.5898 69.3184 45.1211 69.459 44.7227 69.7402C44.3281 70.0215 44.0234 70.4199 43.8086 70.9355C43.5938 71.4512 43.4863 72.0625 43.4863 72.7695V72.7812C43.4863 73.4844 43.5938 74.0938 43.8086 74.6094C44.0234 75.125 44.3281 75.5234 44.7227 75.8047C45.1211 76.0859 45.5918 76.2266 46.1348 76.2266C46.5293 76.2266 46.8867 76.1641 47.207 76.0391C47.5273 75.9102 47.7969 75.7285 48.0156 75.4941C48.2344 75.2559 48.3867 74.9746 48.4727 74.6504L48.4844 74.6387H49.5508V74.6504C49.457 75.166 49.2539 75.6152 48.9414 75.998C48.6289 76.377 48.2324 76.6719 47.752 76.8828C47.2754 77.0938 46.7363 77.1992 46.1348 77.1992ZM50.4121 77L53.5293 68.5449H54.3379V69.9102H54.0039L51.5195 77H50.4121ZM51.8242 74.5801L52.1523 73.6836H55.9727L56.3008 74.5801H51.8242ZM56.582 77L54.0977 69.9102V68.5449H54.5723L57.6895 77H56.582Z" fill="black"/>
<path d="M37.8496 103.199C37.2324 103.199 36.6934 103.1 36.2324 102.9C35.7754 102.697 35.4121 102.42 35.1426 102.068C34.877 101.713 34.7227 101.307 34.6797 100.85L34.6738 100.785H35.7285L35.7344 100.85C35.7617 101.131 35.8691 101.375 36.0566 101.582C36.248 101.785 36.502 101.943 36.8184 102.057C37.1387 102.17 37.502 102.227 37.9082 102.227C38.291 102.227 38.6309 102.166 38.9277 102.045C39.2285 101.92 39.4648 101.748 39.6367 101.529C39.8086 101.311 39.8945 101.059 39.8945 100.773V100.768C39.8945 100.416 39.7656 100.121 39.5078 99.8828C39.25 99.6406 38.8301 99.4551 38.248 99.3262L37.3105 99.1211C36.4629 98.9336 35.8457 98.6445 35.459 98.2539C35.0762 97.8594 34.8848 97.3555 34.8848 96.7422V96.7363C34.8887 96.2676 35.0156 95.8535 35.2656 95.4941C35.5195 95.1348 35.8691 94.8535 36.3145 94.6504C36.7637 94.4473 37.2793 94.3457 37.8613 94.3457C38.4238 94.3457 38.9219 94.4473 39.3555 94.6504C39.7891 94.8496 40.1328 95.1191 40.3867 95.459C40.6445 95.7988 40.7871 96.1797 40.8145 96.6016L40.8203 96.6836H39.7656L39.7539 96.6074C39.7148 96.3574 39.6133 96.1367 39.4492 95.9453C39.2852 95.75 39.0664 95.5957 38.793 95.4824C38.5195 95.3691 38.1992 95.3145 37.832 95.3184C37.4805 95.3184 37.1641 95.373 36.8828 95.4824C36.6016 95.5918 36.377 95.75 36.209 95.957C36.0449 96.1602 35.9629 96.4102 35.9629 96.707V96.7129C35.9629 97.0488 36.0879 97.332 36.3379 97.5625C36.5879 97.793 37 97.9707 37.5742 98.0957L38.5117 98.3066C39.1016 98.4355 39.5762 98.6035 39.9355 98.8105C40.2949 99.0176 40.5566 99.2715 40.7207 99.5723C40.8887 99.8691 40.9727 100.221 40.9727 100.627V100.633C40.9727 101.16 40.8438 101.615 40.5859 101.998C40.3281 102.381 39.9648 102.678 39.4961 102.889C39.0273 103.096 38.4785 103.199 37.8496 103.199ZM45.1797 103.111C44.5781 103.111 44.0605 102.979 43.627 102.713C43.1973 102.447 42.8652 102.072 42.6309 101.588C42.4004 101.1 42.2852 100.525 42.2852 99.8652V99.8594C42.2852 99.207 42.4004 98.6348 42.6309 98.1426C42.8652 97.6504 43.1953 97.2656 43.6211 96.9883C44.0469 96.7109 44.5449 96.5723 45.1152 96.5723C45.6895 96.5723 46.1816 96.7051 46.5918 96.9707C47.0059 97.2363 47.3223 97.6074 47.541 98.084C47.7637 98.5566 47.875 99.1074 47.875 99.7363V100.135H42.8125V99.3203H47.3535L46.8496 100.064V99.6602C46.8496 99.1641 46.7754 98.7559 46.627 98.4355C46.4785 98.1152 46.2734 97.877 46.0117 97.7207C45.75 97.5605 45.4492 97.4805 45.1094 97.4805C44.7695 97.4805 44.4648 97.5645 44.1953 97.7324C43.9297 97.8965 43.7188 98.1406 43.5625 98.4648C43.4062 98.7891 43.3281 99.1875 43.3281 99.6602V100.064C43.3281 100.514 43.4043 100.898 43.5566 101.219C43.709 101.535 43.9258 101.779 44.207 101.951C44.4883 102.119 44.8203 102.203 45.2031 102.203C45.4883 102.203 45.7363 102.164 45.9473 102.086C46.1582 102.008 46.332 101.908 46.4688 101.787C46.6055 101.666 46.7012 101.543 46.7559 101.418L46.7793 101.365H47.7988L47.7871 101.412C47.7324 101.627 47.6348 101.836 47.4941 102.039C47.3574 102.238 47.1797 102.42 46.9609 102.584C46.7422 102.744 46.4824 102.873 46.1816 102.971C45.8848 103.064 45.5508 103.111 45.1797 103.111ZM52.041 103.111C51.4512 103.111 50.9395 102.977 50.5059 102.707C50.0723 102.438 49.7363 102.057 49.498 101.564C49.2598 101.072 49.1406 100.492 49.1406 99.8242V99.8125C49.1406 99.1562 49.2578 98.5859 49.4922 98.1016C49.7305 97.6172 50.0664 97.2422 50.5 96.9766C50.9336 96.707 51.4453 96.5723 52.0352 96.5723C52.5469 96.5723 52.9883 96.6621 53.3594 96.8418C53.7305 97.0215 54.0273 97.2637 54.25 97.5684C54.4727 97.8691 54.6152 98.207 54.6777 98.582L54.6836 98.6172H53.6699L53.6641 98.5996C53.5859 98.2871 53.4082 98.0215 53.1309 97.8027C52.8535 97.584 52.4883 97.4746 52.0352 97.4746C51.6562 97.4746 51.3281 97.5703 51.0508 97.7617C50.7734 97.9531 50.5586 98.2246 50.4062 98.5762C50.2578 98.9238 50.1836 99.3359 50.1836 99.8125V99.8242C50.1836 100.309 50.2598 100.73 50.4121 101.09C50.5645 101.445 50.7793 101.721 51.0566 101.916C51.334 102.111 51.6602 102.209 52.0352 102.209C52.4609 102.209 52.8086 102.117 53.0781 101.934C53.3477 101.75 53.541 101.482 53.6582 101.131L53.6699 101.096L54.6777 101.09L54.666 101.154C54.5801 101.533 54.4277 101.871 54.209 102.168C53.9902 102.461 53.7012 102.691 53.3418 102.859C52.9824 103.027 52.5488 103.111 52.041 103.111ZM56.1719 103V96.6836H57.1914V97.6211H57.2852C57.4062 97.2891 57.6113 97.0312 57.9004 96.8477C58.1895 96.6641 58.5469 96.5723 58.9727 96.5723C59.0703 96.5723 59.166 96.5781 59.2598 96.5898C59.3574 96.5977 59.4316 96.6055 59.4824 96.6133V97.6035C59.377 97.584 59.2734 97.5703 59.1719 97.5625C59.0742 97.5508 58.9688 97.5449 58.8555 97.5449C58.5312 97.5449 58.2441 97.6094 57.9941 97.7383C57.7441 97.8672 57.5469 98.0469 57.4023 98.2773C57.2617 98.5078 57.1914 98.7773 57.1914 99.0859V103H56.1719ZM63.1445 103.111C62.543 103.111 62.0254 102.979 61.5918 102.713C61.1621 102.447 60.8301 102.072 60.5957 101.588C60.3652 101.1 60.25 100.525 60.25 99.8652V99.8594C60.25 99.207 60.3652 98.6348 60.5957 98.1426C60.8301 97.6504 61.1602 97.2656 61.5859 96.9883C62.0117 96.7109 62.5098 96.5723 63.0801 96.5723C63.6543 96.5723 64.1465 96.7051 64.5566 96.9707C64.9707 97.2363 65.2871 97.6074 65.5059 98.084C65.7285 98.5566 65.8398 99.1074 65.8398 99.7363V100.135H60.7773V99.3203H65.3184L64.8145 100.064V99.6602C64.8145 99.1641 64.7402 98.7559 64.5918 98.4355C64.4434 98.1152 64.2383 97.877 63.9766 97.7207C63.7148 97.5605 63.4141 97.4805 63.0742 97.4805C62.7344 97.4805 62.4297 97.5645 62.1602 97.7324C61.8945 97.8965 61.6836 98.1406 61.5273 98.4648C61.3711 98.7891 61.293 99.1875 61.293 99.6602V100.064C61.293 100.514 61.3691 100.898 61.5215 101.219C61.6738 101.535 61.8906 101.779 62.1719 101.951C62.4531 102.119 62.7852 102.203 63.168 102.203C63.4531 102.203 63.7012 102.164 63.9121 102.086C64.123 102.008 64.2969 101.908 64.4336 101.787C64.5703 101.666 64.666 101.543 64.7207 101.418L64.7441 101.365H65.7637L65.752 101.412C65.6973 101.627 65.5996 101.836 65.459 102.039C65.3223 102.238 65.1445 102.42 64.9258 102.584C64.707 102.744 64.4473 102.873 64.1465 102.971C63.8496 103.064 63.5156 103.111 63.1445 103.111ZM69.666 103.047C69.0176 103.047 68.5469 102.916 68.2539 102.654C67.9648 102.393 67.8203 101.961 67.8203 101.359V97.5273H66.8242V96.6836H67.8203V95.0488H68.875V96.6836H70.2578V97.5273H68.875V101.102C68.875 101.473 68.9453 101.74 69.0859 101.904C69.2266 102.064 69.4609 102.145 69.7891 102.145C69.8789 102.145 69.9551 102.143 70.0176 102.139C70.084 102.135 70.1641 102.129 70.2578 102.121V102.988C70.1602 103.004 70.0625 103.018 69.9648 103.029C69.8672 103.041 69.7676 103.047 69.666 103.047ZM73.832 103.111C73.3633 103.111 72.9492 103.041 72.5898 102.9C72.2305 102.756 71.9414 102.555 71.7227 102.297C71.5078 102.039 71.3809 101.736 71.3418 101.389H72.3848C72.4707 101.65 72.6387 101.861 72.8887 102.021C73.1387 102.182 73.4648 102.262 73.8672 102.262C74.1523 102.262 74.4023 102.221 74.6172 102.139C74.8359 102.053 75.0078 101.938 75.1328 101.793C75.2578 101.645 75.3203 101.475 75.3203 101.283V101.271C75.3203 101.057 75.2344 100.875 75.0625 100.727C74.8906 100.574 74.6094 100.451 74.2188 100.357L73.2402 100.123C72.8457 100.029 72.5215 99.9082 72.2676 99.7598C72.0137 99.6074 71.8262 99.4219 71.7051 99.2031C71.584 98.9805 71.5234 98.7188 71.5234 98.418V98.4121C71.5234 98.0605 71.625 97.7461 71.8281 97.4688C72.0352 97.1914 72.3164 96.9727 72.6719 96.8125C73.0273 96.6523 73.4277 96.5723 73.873 96.5723C74.3145 96.5723 74.7051 96.6426 75.0449 96.7832C75.3887 96.9199 75.6641 97.1152 75.8711 97.3691C76.082 97.623 76.2109 97.9219 76.2578 98.2656H75.2559C75.1895 98.0156 75.0371 97.8125 74.7988 97.6562C74.5605 97.5 74.25 97.4219 73.8672 97.4219C73.6172 97.4219 73.3945 97.4629 73.1992 97.5449C73.0039 97.623 72.8496 97.7324 72.7363 97.873C72.623 98.0137 72.5664 98.1777 72.5664 98.3652V98.377C72.5664 98.5176 72.6035 98.6426 72.6777 98.752C72.752 98.8613 72.8672 98.957 73.0234 99.0391C73.1797 99.1211 73.3809 99.1934 73.627 99.2559L74.5996 99.4902C75.1934 99.6348 75.6348 99.8418 75.9238 100.111C76.2168 100.381 76.3633 100.742 76.3633 101.195V101.207C76.3633 101.582 76.252 101.914 76.0293 102.203C75.8066 102.488 75.5039 102.711 75.1211 102.871C74.7422 103.031 74.3125 103.111 73.832 103.111Z" fill="black"/>
<path d="M38.4824 129.199C37.7168 129.199 37.0547 129.02 36.4961 128.66C35.9375 128.301 35.5059 127.791 35.2012 127.131C34.9004 126.471 34.75 125.688 34.75 124.781V124.77C34.75 123.859 34.9004 123.074 35.2012 122.414C35.5059 121.754 35.9355 121.244 36.4902 120.885C37.0488 120.525 37.7109 120.346 38.4766 120.346C39.0703 120.346 39.6094 120.463 40.0938 120.697C40.582 120.928 40.9844 121.25 41.3008 121.664C41.6172 122.074 41.8164 122.549 41.8984 123.088L41.8926 123.1H40.832L40.8262 123.088C40.7324 122.725 40.5742 122.412 40.3516 122.15C40.1289 121.885 39.8574 121.68 39.5371 121.535C39.2207 121.391 38.8672 121.318 38.4766 121.318C37.9375 121.318 37.4688 121.459 37.0703 121.74C36.6758 122.021 36.3711 122.42 36.1562 122.936C35.9414 123.451 35.834 124.062 35.834 124.77V124.781C35.834 125.484 35.9414 126.094 36.1562 126.609C36.3711 127.125 36.6758 127.523 37.0703 127.805C37.4688 128.086 37.9395 128.227 38.4824 128.227C38.877 128.227 39.2344 128.164 39.5547 128.039C39.875 127.91 40.1445 127.729 40.3633 127.494C40.582 127.256 40.7344 126.975 40.8203 126.65L40.832 126.639H41.8984V126.65C41.8047 127.166 41.6016 127.615 41.2891 127.998C40.9766 128.377 40.5801 128.672 40.0996 128.883C39.623 129.094 39.084 129.199 38.4824 129.199ZM46.1348 129.111C45.5371 129.111 45.0195 128.98 44.582 128.719C44.1484 128.453 43.8125 128.076 43.5742 127.588C43.3398 127.1 43.2227 126.52 43.2227 125.848V125.836C43.2227 125.16 43.3398 124.578 43.5742 124.09C43.8125 123.602 44.1484 123.227 44.582 122.965C45.0195 122.703 45.5371 122.572 46.1348 122.572C46.7363 122.572 47.2539 122.703 47.6875 122.965C48.1211 123.227 48.4551 123.602 48.6895 124.09C48.9277 124.578 49.0469 125.16 49.0469 125.836V125.848C49.0469 126.52 48.9277 127.1 48.6895 127.588C48.4551 128.076 48.1211 128.453 47.6875 128.719C47.2539 128.98 46.7363 129.111 46.1348 129.111ZM46.1348 128.209C46.5332 128.209 46.8711 128.115 47.1484 127.928C47.4258 127.74 47.6367 127.471 47.7812 127.119C47.9297 126.768 48.0039 126.344 48.0039 125.848V125.836C48.0039 125.336 47.9297 124.91 47.7812 124.559C47.6367 124.207 47.4258 123.939 47.1484 123.756C46.8711 123.568 46.5332 123.475 46.1348 123.475C45.7363 123.475 45.3984 123.568 45.1211 123.756C44.8438 123.939 44.6309 124.207 44.4824 124.559C44.3379 124.91 44.2656 125.336 44.2656 125.836V125.848C44.2656 126.344 44.3379 126.768 44.4824 127.119C44.6309 127.471 44.8438 127.74 45.1211 127.928C45.3984 128.115 45.7363 128.209 46.1348 128.209ZM50.6289 129V122.684H51.6484V123.633H51.7422C51.9023 123.297 52.1328 123.037 52.4336 122.854C52.7344 122.666 53.1172 122.572 53.582 122.572C54.293 122.572 54.8379 122.775 55.2168 123.182C55.5996 123.584 55.791 124.16 55.791 124.91V129H54.7715V125.156C54.7715 124.586 54.6504 124.164 54.4082 123.891C54.1699 123.613 53.7988 123.475 53.2949 123.475C52.959 123.475 52.668 123.547 52.4219 123.691C52.1758 123.836 51.9844 124.041 51.8477 124.307C51.7148 124.572 51.6484 124.891 51.6484 125.262V129H50.6289ZM59.8809 129.047C59.2324 129.047 58.7617 128.916 58.4688 128.654C58.1797 128.393 58.0352 127.961 58.0352 127.359V123.527H57.0391V122.684H58.0352V121.049H59.0898V122.684H60.4727V123.527H59.0898V127.102C59.0898 127.473 59.1602 127.74 59.3008 127.904C59.4414 128.064 59.6758 128.145 60.0039 128.145C60.0938 128.145 60.1699 128.143 60.2324 128.139C60.2988 128.135 60.3789 128.129 60.4727 128.121V128.988C60.375 129.004 60.2773 129.018 60.1797 129.029C60.082 129.041 59.9824 129.047 59.8809 129.047ZM63.7305 129.111C63.332 129.111 62.9727 129.035 62.6523 128.883C62.3359 128.73 62.084 128.514 61.8965 128.232C61.7129 127.951 61.6211 127.619 61.6211 127.236V127.225C61.6211 126.85 61.7109 126.529 61.8906 126.264C62.0703 125.994 62.332 125.783 62.6758 125.631C63.0195 125.479 63.4355 125.389 63.9238 125.361L66.2441 125.221V126.035L64.0469 126.176C63.5664 126.203 63.2148 126.303 62.9922 126.475C62.7734 126.646 62.6641 126.889 62.6641 127.201V127.213C62.6641 127.533 62.7852 127.783 63.0273 127.963C63.2695 128.139 63.5742 128.227 63.9414 128.227C64.2891 128.227 64.5977 128.158 64.8672 128.021C65.1367 127.881 65.3477 127.691 65.5 127.453C65.6562 127.215 65.7344 126.945 65.7344 126.645V124.676C65.7344 124.285 65.6152 123.988 65.377 123.785C65.1426 123.578 64.7891 123.475 64.3164 123.475C63.9375 123.475 63.627 123.543 63.3848 123.68C63.1426 123.812 62.9805 124.002 62.8984 124.248L62.8926 124.266H61.873L61.8789 124.23C61.9336 123.898 62.0703 123.609 62.2891 123.363C62.5117 123.113 62.7988 122.92 63.1504 122.783C63.502 122.643 63.9023 122.572 64.3516 122.572C64.8672 122.572 65.3027 122.656 65.6582 122.824C66.0176 122.992 66.2891 123.234 66.4727 123.551C66.6602 123.863 66.7539 124.238 66.7539 124.676V129H65.7344V128.068H65.6406C65.5078 128.291 65.3457 128.48 65.1543 128.637C64.9668 128.793 64.7539 128.912 64.5156 128.994C64.2773 129.072 64.0156 129.111 63.7305 129.111ZM68.6406 129V122.684H69.6602V129H68.6406ZM69.1562 121.465C68.9648 121.465 68.7988 121.396 68.6582 121.26C68.5215 121.119 68.4531 120.953 68.4531 120.762C68.4531 120.566 68.5215 120.4 68.6582 120.264C68.7988 120.127 68.9648 120.059 69.1562 120.059C69.3516 120.059 69.5176 120.127 69.6543 120.264C69.791 120.4 69.8594 120.566 69.8594 120.762C69.8594 120.953 69.791 121.119 69.6543 121.26C69.5176 121.396 69.3516 121.465 69.1562 121.465ZM71.582 129V122.684H72.6016V123.633H72.6953C72.8555 123.297 73.0859 123.037 73.3867 122.854C73.6875 122.666 74.0703 122.572 74.5352 122.572C75.2461 122.572 75.791 122.775 76.1699 123.182C76.5527 123.584 76.7441 124.16 76.7441 124.91V129H75.7246V125.156C75.7246 124.586 75.6035 124.164 75.3613 123.891C75.123 123.613 74.752 123.475 74.248 123.475C73.9121 123.475 73.6211 123.547 73.375 123.691C73.1289 123.836 72.9375 124.041 72.8008 124.307C72.668 124.572 72.6016 124.891 72.6016 125.262V129H71.582ZM81.168 129.111C80.5664 129.111 80.0488 128.979 79.6152 128.713C79.1855 128.447 78.8535 128.072 78.6191 127.588C78.3887 127.1 78.2734 126.525 78.2734 125.865V125.859C78.2734 125.207 78.3887 124.635 78.6191 124.143C78.8535 123.65 79.1836 123.266 79.6094 122.988C80.0352 122.711 80.5332 122.572 81.1035 122.572C81.6777 122.572 82.1699 122.705 82.5801 122.971C82.9941 123.236 83.3105 123.607 83.5293 124.084C83.752 124.557 83.8633 125.107 83.8633 125.736V126.135H78.8008V125.32H83.3418L82.8379 126.064V125.66C82.8379 125.164 82.7637 124.756 82.6152 124.436C82.4668 124.115 82.2617 123.877 82 123.721C81.7383 123.561 81.4375 123.48 81.0977 123.48C80.7578 123.48 80.4531 123.564 80.1836 123.732C79.918 123.896 79.707 124.141 79.5508 124.465C79.3945 124.789 79.3164 125.188 79.3164 125.66V126.064C79.3164 126.514 79.3926 126.898 79.5449 127.219C79.6973 127.535 79.9141 127.779 80.1953 127.951C80.4766 128.119 80.8086 128.203 81.1914 128.203C81.4766 128.203 81.7246 128.164 81.9355 128.086C82.1465 128.008 82.3203 127.908 82.457 127.787C82.5938 127.666 82.6895 127.543 82.7441 127.418L82.7676 127.365H83.7871L83.7754 127.412C83.7207 127.627 83.623 127.836 83.4824 128.039C83.3457 128.238 83.168 128.42 82.9492 128.584C82.7305 128.744 82.4707 128.873 82.1699 128.971C81.873 129.064 81.5391 129.111 81.168 129.111ZM85.4453 129V122.684H86.4648V123.621H86.5586C86.6797 123.289 86.8848 123.031 87.1738 122.848C87.4629 122.664 87.8203 122.572 88.2461 122.572C88.3438 122.572 88.4395 122.578 88.5332 122.59C88.6309 122.598 88.7051 122.605 88.7559 122.613V123.604C88.6504 123.584 88.5469 123.57 88.4453 123.562C88.3477 123.551 88.2422 123.545 88.1289 123.545C87.8047 123.545 87.5176 123.609 87.2676 123.738C87.0176 123.867 86.8203 124.047 86.6758 124.277C86.5352 124.508 86.4648 124.777 86.4648 125.086V129H85.4453ZM92.0664 129.111C91.5977 129.111 91.1836 129.041 90.8242 128.9C90.4648 128.756 90.1758 128.555 89.957 128.297C89.7422 128.039 89.6152 127.736 89.5762 127.389H90.6191C90.7051 127.65 90.873 127.861 91.123 128.021C91.373 128.182 91.6992 128.262 92.1016 128.262C92.3867 128.262 92.6367 128.221 92.8516 128.139C93.0703 128.053 93.2422 127.938 93.3672 127.793C93.4922 127.645 93.5547 127.475 93.5547 127.283V127.271C93.5547 127.057 93.4688 126.875 93.2969 126.727C93.125 126.574 92.8438 126.451 92.4531 126.357L91.4746 126.123C91.0801 126.029 90.7559 125.908 90.502 125.76C90.248 125.607 90.0605 125.422 89.9395 125.203C89.8184 124.98 89.7578 124.719 89.7578 124.418V124.412C89.7578 124.061 89.8594 123.746 90.0625 123.469C90.2695 123.191 90.5508 122.973 90.9062 122.812C91.2617 122.652 91.6621 122.572 92.1074 122.572C92.5488 122.572 92.9395 122.643 93.2793 122.783C93.623 122.92 93.8984 123.115 94.1055 123.369C94.3164 123.623 94.4453 123.922 94.4922 124.266H93.4902C93.4238 124.016 93.2715 123.812 93.0332 123.656C92.7949 123.5 92.4844 123.422 92.1016 123.422C91.8516 123.422 91.6289 123.463 91.4336 123.545C91.2383 123.623 91.084 123.732 90.9707 123.873C90.8574 124.014 90.8008 124.178 90.8008 124.365V124.377C90.8008 124.518 90.8379 124.643 90.9121 124.752C90.9863 124.861 91.1016 124.957 91.2578 125.039C91.4141 125.121 91.6152 125.193 91.8613 125.256L92.834 125.49C93.4277 125.635 93.8691 125.842 94.1582 126.111C94.4512 126.381 94.5977 126.742 94.5977 127.195V127.207C94.5977 127.582 94.4863 127.914 94.2637 128.203C94.041 128.488 93.7383 128.711 93.3555 128.871C92.9766 129.031 92.5469 129.111 92.0664 129.111Z" fill="black"/>
<path d="M34.4043 155L37.5215 146.545H38.3301V147.91H37.9961L35.5117 155H34.4043ZM35.8164 152.58L36.1445 151.684H39.9648L40.293 152.58H35.8164ZM40.5742 155L38.0898 147.91V146.545H38.5645L41.6816 155H40.5742ZM43.6914 151.982V151.045H46.082C46.6875 151.045 47.1562 150.889 47.4883 150.576C47.8203 150.26 47.9863 149.824 47.9863 149.27V149.258C47.9863 148.699 47.8203 148.264 47.4883 147.951C47.1562 147.639 46.6875 147.482 46.082 147.482H43.6914V146.545H46.3516C46.8828 146.545 47.3516 146.658 47.7578 146.885C48.1641 147.111 48.4824 147.428 48.7129 147.834C48.9473 148.24 49.0645 148.711 49.0645 149.246V149.258C49.0645 149.793 48.9473 150.266 48.7129 150.676C48.4824 151.086 48.1641 151.406 47.7578 151.637C47.3516 151.867 46.8828 151.982 46.3516 151.982H43.6914ZM43.1641 155V146.545H44.2188V155H43.1641ZM50.793 155V146.545H51.8477V155H50.793Z" fill="black"/>
<path d="M35.0781 181V172.545H36.1328V181H35.0781ZM39.8945 181.111C39.4961 181.111 39.1367 181.035 38.8164 180.883C38.5 180.73 38.248 180.514 38.0605 180.232C37.877 179.951 37.7852 179.619 37.7852 179.236V179.225C37.7852 178.85 37.875 178.529 38.0547 178.264C38.2344 177.994 38.4961 177.783 38.8398 177.631C39.1836 177.479 39.5996 177.389 40.0879 177.361L42.4082 177.221V178.035L40.2109 178.176C39.7305 178.203 39.3789 178.303 39.1562 178.475C38.9375 178.646 38.8281 178.889 38.8281 179.201V179.213C38.8281 179.533 38.9492 179.783 39.1914 179.963C39.4336 180.139 39.7383 180.227 40.1055 180.227C40.4531 180.227 40.7617 180.158 41.0312 180.021C41.3008 179.881 41.5117 179.691 41.6641 179.453C41.8203 179.215 41.8984 178.945 41.8984 178.645V176.676C41.8984 176.285 41.7793 175.988 41.541 175.785C41.3066 175.578 40.9531 175.475 40.4805 175.475C40.1016 175.475 39.791 175.543 39.5488 175.68C39.3066 175.812 39.1445 176.002 39.0625 176.248L39.0566 176.266H38.0371L38.043 176.23C38.0977 175.898 38.2344 175.609 38.4531 175.363C38.6758 175.113 38.9629 174.92 39.3145 174.783C39.666 174.643 40.0664 174.572 40.5156 174.572C41.0312 174.572 41.4668 174.656 41.8223 174.824C42.1816 174.992 42.4531 175.234 42.6367 175.551C42.8242 175.863 42.918 176.238 42.918 176.676V181H41.8984V180.068H41.8047C41.6719 180.291 41.5098 180.48 41.3184 180.637C41.1309 180.793 40.918 180.912 40.6797 180.994C40.4414 181.072 40.1797 181.111 39.8945 181.111ZM48.3145 181.199C47.5488 181.199 46.8867 181.02 46.3281 180.66C45.7695 180.301 45.3379 179.791 45.0332 179.131C44.7324 178.471 44.582 177.688 44.582 176.781V176.77C44.582 175.859 44.7324 175.074 45.0332 174.414C45.3379 173.754 45.7676 173.244 46.3223 172.885C46.8809 172.525 47.543 172.346 48.3086 172.346C48.9023 172.346 49.4414 172.463 49.9258 172.697C50.4141 172.928 50.8164 173.25 51.1328 173.664C51.4492 174.074 51.6484 174.549 51.7305 175.088L51.7246 175.1H50.6641L50.6582 175.088C50.5645 174.725 50.4062 174.412 50.1836 174.15C49.9609 173.885 49.6895 173.68 49.3691 173.535C49.0527 173.391 48.6992 173.318 48.3086 173.318C47.7695 173.318 47.3008 173.459 46.9023 173.74C46.5078 174.021 46.2031 174.42 45.9883 174.936C45.7734 175.451 45.666 176.062 45.666 176.77V176.781C45.666 177.484 45.7734 178.094 45.9883 178.609C46.2031 179.125 46.5078 179.523 46.9023 179.805C47.3008 180.086 47.7715 180.227 48.3145 180.227C48.709 180.227 49.0664 180.164 49.3867 180.039C49.707 179.91 49.9766 179.729 50.1953 179.494C50.4141 179.256 50.5664 178.975 50.6523 178.65L50.6641 178.639H51.7305V178.65C51.6367 179.166 51.4336 179.615 51.1211 179.998C50.8086 180.377 50.4121 180.672 49.9316 180.883C49.4551 181.094 48.916 181.199 48.3145 181.199Z" fill="black"/>
</svg>
