<svg width="220" height="205" viewBox="0 0 220 205" fill="none" xmlns="http://www.w3.org/2000/svg">
<rect x="0.5" y="0.5" width="219" height="204" rx="5.5" fill="#F7F8FA"/>
<rect x="0.5" y="0.5" width="219" height="204" rx="5.5" stroke="#181818"/>
<path d="M37.8496 25.1992C37.2324 25.1992 36.6934 25.0996 36.2324 24.9004C35.7754 24.6973 35.4121 24.4199 35.1426 24.0684C34.877 23.7129 34.7227 23.3066 34.6797 22.8496L34.6738 22.7852H35.7285L35.7344 22.8496C35.7617 23.1309 35.8691 23.375 36.0566 23.582C36.248 23.7852 36.502 23.9434 36.8184 24.0566C37.1387 24.1699 37.502 24.2266 37.9082 24.2266C38.291 24.2266 38.6309 24.166 38.9277 24.0449C39.2285 23.9199 39.4648 23.748 39.6367 23.5293C39.8086 23.3105 39.8945 23.0586 39.8945 22.7734V22.7676C39.8945 22.416 39.7656 22.1211 39.5078 21.8828C39.25 21.6406 38.8301 21.4551 38.248 21.3262L37.3105 21.1211C36.4629 20.9336 35.8457 20.6445 35.459 20.2539C35.0762 19.8594 34.8848 19.3555 34.8848 18.7422V18.7363C34.8887 18.2676 35.0156 17.8535 35.2656 17.4941C35.5195 17.1348 35.8691 16.8535 36.3145 16.6504C36.7637 16.4473 37.2793 16.3457 37.8613 16.3457C38.4238 16.3457 38.9219 16.4473 39.3555 16.6504C39.7891 16.8496 40.1328 17.1191 40.3867 17.459C40.6445 17.7988 40.7871 18.1797 40.8145 18.6016L40.8203 18.6836H39.7656L39.7539 18.6074C39.7148 18.3574 39.6133 18.1367 39.4492 17.9453C39.2852 17.75 39.0664 17.5957 38.793 17.4824C38.5195 17.3691 38.1992 17.3145 37.832 17.3184C37.4805 17.3184 37.1641 17.373 36.8828 17.4824C36.6016 17.5918 36.377 17.75 36.209 17.957C36.0449 18.1602 35.9629 18.4102 35.9629 18.707V18.7129C35.9629 19.0488 36.0879 19.332 36.3379 19.5625C36.5879 19.793 37 19.9707 37.5742 20.0957L38.5117 20.3066C39.1016 20.4355 39.5762 20.6035 39.9355 20.8105C40.2949 21.0176 40.5566 21.2715 40.7207 21.5723C40.8887 21.8691 40.9727 22.2207 40.9727 22.627V22.6328C40.9727 23.1602 40.8438 23.6152 40.5859 23.998C40.3281 24.3809 39.9648 24.6777 39.4961 24.8887C39.0273 25.0957 38.4785 25.1992 37.8496 25.1992ZM45.1973 25.1113C44.5996 25.1113 44.082 24.9805 43.6445 24.7188C43.2109 24.4531 42.875 24.0762 42.6367 23.5879C42.4023 23.0996 42.2852 22.5195 42.2852 21.8477V21.8359C42.2852 21.1602 42.4023 20.5781 42.6367 20.0898C42.875 19.6016 43.2109 19.2266 43.6445 18.9648C44.082 18.7031 44.5996 18.5723 45.1973 18.5723C45.7988 18.5723 46.3164 18.7031 46.75 18.9648C47.1836 19.2266 47.5176 19.6016 47.752 20.0898C47.9902 20.5781 48.1094 21.1602 48.1094 21.8359V21.8477C48.1094 22.5195 47.9902 23.0996 47.752 23.5879C47.5176 24.0762 47.1836 24.4531 46.75 24.7188C46.3164 24.9805 45.7988 25.1113 45.1973 25.1113ZM45.1973 24.209C45.5957 24.209 45.9336 24.1152 46.2109 23.9277C46.4883 23.7402 46.6992 23.4707 46.8438 23.1191C46.9922 22.7676 47.0664 22.3438 47.0664 21.8477V21.8359C47.0664 21.3359 46.9922 20.9102 46.8438 20.5586C46.6992 20.207 46.4883 19.9395 46.2109 19.7559C45.9336 19.5684 45.5957 19.4746 45.1973 19.4746C44.7988 19.4746 44.4609 19.5684 44.1836 19.7559C43.9062 19.9395 43.6934 20.207 43.5449 20.5586C43.4004 20.9102 43.3281 21.3359 43.3281 21.8359V21.8477C43.3281 22.3438 43.4004 22.7676 43.5449 23.1191C43.6934 23.4707 43.9062 23.7402 44.1836 23.9277C44.4609 24.1152 44.7988 24.209 45.1973 24.209ZM49.6914 25V18.6836H50.7109V19.6211H50.8047C50.9258 19.2891 51.1309 19.0312 51.4199 18.8477C51.709 18.6641 52.0664 18.5723 52.4922 18.5723C52.5898 18.5723 52.6855 18.5781 52.7793 18.5898C52.877 18.5977 52.9512 18.6055 53.002 18.6133V19.6035C52.8965 19.584 52.793 19.5703 52.6914 19.5625C52.5938 19.5508 52.4883 19.5449 52.375 19.5449C52.0508 19.5449 51.7637 19.6094 51.5137 19.7383C51.2637 19.8672 51.0664 20.0469 50.9219 20.2773C50.7812 20.5078 50.7109 20.7773 50.7109 21.0859V25H49.6914ZM56.623 25.0469C55.9746 25.0469 55.5039 24.916 55.2109 24.6543C54.9219 24.3926 54.7773 23.9609 54.7773 23.3594V19.5273H53.7812V18.6836H54.7773V17.0488H55.832V18.6836H57.2148V19.5273H55.832V23.1016C55.832 23.4727 55.9023 23.7402 56.043 23.9043C56.1836 24.0645 56.418 24.1445 56.7461 24.1445C56.8359 24.1445 56.9121 24.1426 56.9746 24.1387C57.041 24.1348 57.1211 24.1289 57.2148 24.1211V24.9883C57.1172 25.0039 57.0195 25.0176 56.9219 25.0293C56.8242 25.041 56.7246 25.0469 56.623 25.0469ZM65.2539 25.1113C64.9609 25.1113 64.6895 25.0664 64.4395 24.9766C64.1895 24.8867 63.9668 24.7598 63.7715 24.5957C63.5762 24.4277 63.4141 24.2266 63.2852 23.9922H63.1914V25H62.1719V16.1758H63.1914V19.6797H63.2852C63.4023 19.4531 63.5586 19.2578 63.7539 19.0938C63.9531 18.9297 64.1797 18.8027 64.4336 18.7129C64.6914 18.6191 64.9648 18.5723 65.2539 18.5723C65.7891 18.5723 66.2539 18.707 66.6484 18.9766C67.0469 19.2461 67.3555 19.625 67.5742 20.1133C67.793 20.6016 67.9023 21.1758 67.9023 21.8359V21.8477C67.9023 22.5039 67.793 23.0781 67.5742 23.5703C67.3555 24.0586 67.0469 24.4375 66.6484 24.707C66.2539 24.9766 65.7891 25.1113 65.2539 25.1113ZM65.0195 24.209C65.4062 24.209 65.7363 24.1152 66.0098 23.9277C66.2832 23.7363 66.4922 23.4648 66.6367 23.1133C66.7852 22.7578 66.8594 22.3359 66.8594 21.8477V21.8359C66.8594 21.3438 66.7852 20.9219 66.6367 20.5703C66.4922 20.2188 66.2832 19.9492 66.0098 19.7617C65.7363 19.5703 65.4062 19.4746 65.0195 19.4746C64.6367 19.4746 64.3066 19.5703 64.0293 19.7617C63.752 19.9531 63.5391 20.2246 63.3906 20.5762C63.2422 20.9277 63.168 21.3477 63.168 21.8359V21.8477C63.168 22.332 63.2422 22.752 63.3906 23.1074C63.5391 23.459 63.752 23.7305 64.0293 23.9219C64.3066 24.1133 64.6367 24.209 65.0195 24.209ZM69.7891 27.2148C69.7227 27.2148 69.6484 27.2109 69.5664 27.2031C69.4844 27.1992 69.4082 27.1914 69.3379 27.1797V26.3418C69.4004 26.3535 69.4688 26.3613 69.543 26.3652C69.6172 26.3691 69.6895 26.3711 69.7598 26.3711C70.0488 26.3711 70.2852 26.2969 70.4688 26.1484C70.6562 26 70.8066 25.7441 70.9199 25.3809L71.0371 25.0059L68.6992 18.6836H69.7891L71.7344 24.5195L71.3301 23.8809H71.8105L71.4062 24.5195L73.3457 18.6836H74.418L71.9512 25.3867C71.7793 25.8594 71.5977 26.2285 71.4062 26.4941C71.2148 26.7598 70.9902 26.9453 70.7324 27.0508C70.4785 27.1602 70.1641 27.2148 69.7891 27.2148Z" fill="#787C87"/>
<path d="M37.8496 51.1992C37.2324 51.1992 36.6934 51.0996 36.2324 50.9004C35.7754 50.6973 35.4121 50.4199 35.1426 50.0684C34.877 49.7129 34.7227 49.3066 34.6797 48.8496L34.6738 48.7852H35.7285L35.7344 48.8496C35.7617 49.1309 35.8691 49.375 36.0566 49.582C36.248 49.7852 36.502 49.9434 36.8184 50.0566C37.1387 50.1699 37.502 50.2266 37.9082 50.2266C38.291 50.2266 38.6309 50.166 38.9277 50.0449C39.2285 49.9199 39.4648 49.748 39.6367 49.5293C39.8086 49.3105 39.8945 49.0586 39.8945 48.7734V48.7676C39.8945 48.416 39.7656 48.1211 39.5078 47.8828C39.25 47.6406 38.8301 47.4551 38.248 47.3262L37.3105 47.1211C36.4629 46.9336 35.8457 46.6445 35.459 46.2539C35.0762 45.8594 34.8848 45.3555 34.8848 44.7422V44.7363C34.8887 44.2676 35.0156 43.8535 35.2656 43.4941C35.5195 43.1348 35.8691 42.8535 36.3145 42.6504C36.7637 42.4473 37.2793 42.3457 37.8613 42.3457C38.4238 42.3457 38.9219 42.4473 39.3555 42.6504C39.7891 42.8496 40.1328 43.1191 40.3867 43.459C40.6445 43.7988 40.7871 44.1797 40.8145 44.6016L40.8203 44.6836H39.7656L39.7539 44.6074C39.7148 44.3574 39.6133 44.1367 39.4492 43.9453C39.2852 43.75 39.0664 43.5957 38.793 43.4824C38.5195 43.3691 38.1992 43.3145 37.832 43.3184C37.4805 43.3184 37.1641 43.373 36.8828 43.4824C36.6016 43.5918 36.377 43.75 36.209 43.957C36.0449 44.1602 35.9629 44.4102 35.9629 44.707V44.7129C35.9629 45.0488 36.0879 45.332 36.3379 45.5625C36.5879 45.793 37 45.9707 37.5742 46.0957L38.5117 46.3066C39.1016 46.4355 39.5762 46.6035 39.9355 46.8105C40.2949 47.0176 40.5566 47.2715 40.7207 47.5723C40.8887 47.8691 40.9727 48.2207 40.9727 48.627V48.6328C40.9727 49.1602 40.8438 49.6152 40.5859 49.998C40.3281 50.3809 39.9648 50.6777 39.4961 50.8887C39.0273 51.0957 38.4785 51.1992 37.8496 51.1992ZM45.1797 51.1113C44.5781 51.1113 44.0605 50.9785 43.627 50.7129C43.1973 50.4473 42.8652 50.0723 42.6309 49.5879C42.4004 49.0996 42.2852 48.5254 42.2852 47.8652V47.8594C42.2852 47.207 42.4004 46.6348 42.6309 46.1426C42.8652 45.6504 43.1953 45.2656 43.6211 44.9883C44.0469 44.7109 44.5449 44.5723 45.1152 44.5723C45.6895 44.5723 46.1816 44.7051 46.5918 44.9707C47.0059 45.2363 47.3223 45.6074 47.541 46.084C47.7637 46.5566 47.875 47.1074 47.875 47.7363V48.1348H42.8125V47.3203H47.3535L46.8496 48.0645V47.6602C46.8496 47.1641 46.7754 46.7559 46.627 46.4355C46.4785 46.1152 46.2734 45.877 46.0117 45.7207C45.75 45.5605 45.4492 45.4805 45.1094 45.4805C44.7695 45.4805 44.4648 45.5645 44.1953 45.7324C43.9297 45.8965 43.7188 46.1406 43.5625 46.4648C43.4062 46.7891 43.3281 47.1875 43.3281 47.6602V48.0645C43.3281 48.5137 43.4043 48.8984 43.5566 49.2188C43.709 49.5352 43.9258 49.7793 44.207 49.9512C44.4883 50.1191 44.8203 50.2031 45.2031 50.2031C45.4883 50.2031 45.7363 50.1641 45.9473 50.0859C46.1582 50.0078 46.332 49.9082 46.4688 49.7871C46.6055 49.666 46.7012 49.543 46.7559 49.418L46.7793 49.3652H47.7988L47.7871 49.4121C47.7324 49.627 47.6348 49.8359 47.4941 50.0391C47.3574 50.2383 47.1797 50.4199 46.9609 50.584C46.7422 50.7441 46.4824 50.873 46.1816 50.9707C45.8848 51.0645 45.5508 51.1113 45.1797 51.1113ZM51.127 51L48.7891 44.6836H49.8672L51.5957 49.8867H51.6895L53.418 44.6836H54.4961L52.1582 51H51.127ZM58.1875 51.1113C57.5859 51.1113 57.0684 50.9785 56.6348 50.7129C56.2051 50.4473 55.873 50.0723 55.6387 49.5879C55.4082 49.0996 55.293 48.5254 55.293 47.8652V47.8594C55.293 47.207 55.4082 46.6348 55.6387 46.1426C55.873 45.6504 56.2031 45.2656 56.6289 44.9883C57.0547 44.7109 57.5527 44.5723 58.123 44.5723C58.6973 44.5723 59.1895 44.7051 59.5996 44.9707C60.0137 45.2363 60.3301 45.6074 60.5488 46.084C60.7715 46.5566 60.8828 47.1074 60.8828 47.7363V48.1348H55.8203V47.3203H60.3613L59.8574 48.0645V47.6602C59.8574 47.1641 59.7832 46.7559 59.6348 46.4355C59.4863 46.1152 59.2812 45.877 59.0195 45.7207C58.7578 45.5605 58.457 45.4805 58.1172 45.4805C57.7773 45.4805 57.4727 45.5645 57.2031 45.7324C56.9375 45.8965 56.7266 46.1406 56.5703 46.4648C56.4141 46.7891 56.3359 47.1875 56.3359 47.6602V48.0645C56.3359 48.5137 56.4121 48.8984 56.5645 49.2188C56.7168 49.5352 56.9336 49.7793 57.2148 49.9512C57.4961 50.1191 57.8281 50.2031 58.2109 50.2031C58.4961 50.2031 58.7441 50.1641 58.9551 50.0859C59.166 50.0078 59.3398 49.9082 59.4766 49.7871C59.6133 49.666 59.709 49.543 59.7637 49.418L59.7871 49.3652H60.8066L60.7949 49.4121C60.7402 49.627 60.6426 49.8359 60.502 50.0391C60.3652 50.2383 60.1875 50.4199 59.9688 50.584C59.75 50.7441 59.4902 50.873 59.1895 50.9707C58.8926 51.0645 58.5586 51.1113 58.1875 51.1113ZM62.4648 51V44.6836H63.4844V45.6211H63.5781C63.6992 45.2891 63.9043 45.0312 64.1934 44.8477C64.4824 44.6641 64.8398 44.5723 65.2656 44.5723C65.3633 44.5723 65.459 44.5781 65.5527 44.5898C65.6504 44.5977 65.7246 44.6055 65.7754 44.6133V45.6035C65.6699 45.584 65.5664 45.5703 65.4648 45.5625C65.3672 45.5508 65.2617 45.5449 65.1484 45.5449C64.8242 45.5449 64.5371 45.6094 64.2871 45.7383C64.0371 45.8672 63.8398 46.0469 63.6953 46.2773C63.5547 46.5078 63.4844 46.7773 63.4844 47.0859V51H62.4648ZM67.0586 51V44.6836H68.0781V51H67.0586ZM67.5742 43.4648C67.3828 43.4648 67.2168 43.3965 67.0762 43.2598C66.9395 43.1191 66.8711 42.9531 66.8711 42.7617C66.8711 42.5664 66.9395 42.4004 67.0762 42.2637C67.2168 42.127 67.3828 42.0586 67.5742 42.0586C67.7695 42.0586 67.9355 42.127 68.0723 42.2637C68.209 42.4004 68.2773 42.5664 68.2773 42.7617C68.2773 42.9531 68.209 43.1191 68.0723 43.2598C67.9355 43.3965 67.7695 43.4648 67.5742 43.4648ZM72.2441 51.0469C71.5957 51.0469 71.125 50.916 70.832 50.6543C70.543 50.3926 70.3984 49.9609 70.3984 49.3594V45.5273H69.4023V44.6836H70.3984V43.0488H71.4531V44.6836H72.8359V45.5273H71.4531V49.1016C71.4531 49.4727 71.5234 49.7402 71.6641 49.9043C71.8047 50.0645 72.0391 50.1445 72.3672 50.1445C72.457 50.1445 72.5332 50.1426 72.5957 50.1387C72.6621 50.1348 72.7422 50.1289 72.8359 50.1211V50.9883C72.7383 51.0039 72.6406 51.0176 72.543 51.0293C72.4453 51.041 72.3457 51.0469 72.2441 51.0469ZM74.8984 53.2148C74.832 53.2148 74.7578 53.2109 74.6758 53.2031C74.5938 53.1992 74.5176 53.1914 74.4473 53.1797V52.3418C74.5098 52.3535 74.5781 52.3613 74.6523 52.3652C74.7266 52.3691 74.7988 52.3711 74.8691 52.3711C75.1582 52.3711 75.3945 52.2969 75.5781 52.1484C75.7656 52 75.916 51.7441 76.0293 51.3809L76.1465 51.0059L73.8086 44.6836H74.8984L76.8438 50.5195L76.4395 49.8809H76.9199L76.5156 50.5195L78.4551 44.6836H79.5273L77.0605 51.3867C76.8887 51.8594 76.707 52.2285 76.5156 52.4941C76.3242 52.7598 76.0996 52.9453 75.8418 53.0508C75.5879 53.1602 75.2734 53.2148 74.8984 53.2148ZM81.707 51.0586C81.5 51.0586 81.3203 50.9844 81.168 50.8359C81.0195 50.6836 80.9453 50.5039 80.9453 50.2969C80.9453 50.0859 81.0195 49.9062 81.168 49.7578C81.3203 49.6094 81.5 49.5352 81.707 49.5352C81.918 49.5352 82.0977 49.6094 82.2461 49.7578C82.3945 49.9062 82.4688 50.0859 82.4688 50.2969C82.4688 50.5039 82.3945 50.6836 82.2461 50.8359C82.0977 50.9844 81.918 51.0586 81.707 51.0586ZM81.707 46.5234C81.5 46.5234 81.3203 46.4492 81.168 46.3008C81.0195 46.1484 80.9453 45.9688 80.9453 45.7617C80.9453 45.5508 81.0195 45.3711 81.168 45.2227C81.3203 45.0742 81.5 45 81.707 45C81.918 45 82.0977 45.0742 82.2461 45.2227C82.3945 45.3711 82.4688 45.5508 82.4688 45.7617C82.4688 45.9688 82.3945 46.1484 82.2461 46.3008C82.0977 46.4492 81.918 46.5234 81.707 46.5234ZM91.3457 51.1992C90.5801 51.1992 89.918 51.0195 89.3594 50.6602C88.8008 50.3008 88.3691 49.791 88.0645 49.1309C87.7637 48.4707 87.6133 47.6875 87.6133 46.7812V46.7695C87.6133 45.8594 87.7637 45.0742 88.0645 44.4141C88.3691 43.7539 88.7988 43.2441 89.3535 42.8848C89.9121 42.5254 90.5742 42.3457 91.3398 42.3457C91.9336 42.3457 92.4727 42.4629 92.957 42.6973C93.4453 42.9277 93.8477 43.25 94.1641 43.6641C94.4805 44.0742 94.6797 44.5488 94.7617 45.0879L94.7559 45.0996H93.6953L93.6895 45.0879C93.5957 44.7246 93.4375 44.4121 93.2148 44.1504C92.9922 43.8848 92.7207 43.6797 92.4004 43.5352C92.084 43.3906 91.7305 43.3184 91.3398 43.3184C90.8008 43.3184 90.332 43.459 89.9336 43.7402C89.5391 44.0215 89.2344 44.4199 89.0195 44.9355C88.8047 45.4512 88.6973 46.0625 88.6973 46.7695V46.7812C88.6973 47.4844 88.8047 48.0938 89.0195 48.6094C89.2344 49.125 89.5391 49.5234 89.9336 49.8047C90.332 50.0859 90.8027 50.2266 91.3457 50.2266C91.7402 50.2266 92.0977 50.1641 92.418 50.0391C92.7383 49.9102 93.0078 49.7285 93.2266 49.4941C93.4453 49.2559 93.5977 48.9746 93.6836 48.6504L93.6953 48.6387H94.7617V48.6504C94.668 49.166 94.4648 49.6152 94.1523 49.998C93.8398 50.377 93.4434 50.6719 92.9629 50.8828C92.4863 51.0938 91.9473 51.1992 91.3457 51.1992ZM96.4023 51V44.6836H97.4219V45.6211H97.5156C97.6367 45.2891 97.8418 45.0312 98.1309 44.8477C98.4199 44.6641 98.7773 44.5723 99.2031 44.5723C99.3008 44.5723 99.3965 44.5781 99.4902 44.5898C99.5879 44.5977 99.6621 44.6055 99.7129 44.6133V45.6035C99.6074 45.584 99.5039 45.5703 99.4023 45.5625C99.3047 45.5508 99.1992 45.5449 99.0859 45.5449C98.7617 45.5449 98.4746 45.6094 98.2246 45.7383C97.9746 45.8672 97.7773 46.0469 97.6328 46.2773C97.4922 46.5078 97.4219 46.7773 97.4219 47.0859V51H96.4023ZM100.996 51V44.6836H102.016V51H100.996ZM101.512 43.4648C101.32 43.4648 101.154 43.3965 101.014 43.2598C100.877 43.1191 100.809 42.9531 100.809 42.7617C100.809 42.5664 100.877 42.4004 101.014 42.2637C101.154 42.127 101.32 42.0586 101.512 42.0586C101.707 42.0586 101.873 42.127 102.01 42.2637C102.146 42.4004 102.215 42.5664 102.215 42.7617C102.215 42.9531 102.146 43.1191 102.01 43.2598C101.873 43.3965 101.707 43.4648 101.512 43.4648ZM106.182 51.0469C105.533 51.0469 105.062 50.916 104.77 50.6543C104.48 50.3926 104.336 49.9609 104.336 49.3594V45.5273H103.34V44.6836H104.336V43.0488H105.391V44.6836H106.773V45.5273H105.391V49.1016C105.391 49.4727 105.461 49.7402 105.602 49.9043C105.742 50.0645 105.977 50.1445 106.305 50.1445C106.395 50.1445 106.471 50.1426 106.533 50.1387C106.6 50.1348 106.68 50.1289 106.773 50.1211V50.9883C106.676 51.0039 106.578 51.0176 106.48 51.0293C106.383 51.041 106.283 51.0469 106.182 51.0469ZM108.32 51V44.6836H109.34V51H108.32ZM108.836 43.4648C108.645 43.4648 108.479 43.3965 108.338 43.2598C108.201 43.1191 108.133 42.9531 108.133 42.7617C108.133 42.5664 108.201 42.4004 108.338 42.2637C108.479 42.127 108.645 42.0586 108.836 42.0586C109.031 42.0586 109.197 42.127 109.334 42.2637C109.471 42.4004 109.539 42.5664 109.539 42.7617C109.539 42.9531 109.471 43.1191 109.334 43.2598C109.197 43.3965 109.031 43.4648 108.836 43.4648ZM113.846 51.1113C113.256 51.1113 112.744 50.9766 112.311 50.707C111.877 50.4375 111.541 50.0566 111.303 49.5645C111.064 49.0723 110.945 48.4922 110.945 47.8242V47.8125C110.945 47.1562 111.062 46.5859 111.297 46.1016C111.535 45.6172 111.871 45.2422 112.305 44.9766C112.738 44.707 113.25 44.5723 113.84 44.5723C114.352 44.5723 114.793 44.6621 115.164 44.8418C115.535 45.0215 115.832 45.2637 116.055 45.5684C116.277 45.8691 116.42 46.207 116.482 46.582L116.488 46.6172H115.475L115.469 46.5996C115.391 46.2871 115.213 46.0215 114.936 45.8027C114.658 45.584 114.293 45.4746 113.84 45.4746C113.461 45.4746 113.133 45.5703 112.855 45.7617C112.578 45.9531 112.363 46.2246 112.211 46.5762C112.062 46.9238 111.988 47.3359 111.988 47.8125V47.8242C111.988 48.3086 112.064 48.7305 112.217 49.0898C112.369 49.4453 112.584 49.7207 112.861 49.916C113.139 50.1113 113.465 50.209 113.84 50.209C114.266 50.209 114.613 50.1172 114.883 49.9336C115.152 49.75 115.346 49.4824 115.463 49.1309L115.475 49.0957L116.482 49.0898L116.471 49.1543C116.385 49.5332 116.232 49.8711 116.014 50.168C115.795 50.4609 115.506 50.6914 115.146 50.8594C114.787 51.0273 114.354 51.1113 113.846 51.1113ZM119.711 51.1113C119.312 51.1113 118.953 51.0352 118.633 50.8828C118.316 50.7305 118.064 50.5137 117.877 50.2324C117.693 49.9512 117.602 49.6191 117.602 49.2363V49.2246C117.602 48.8496 117.691 48.5293 117.871 48.2637C118.051 47.9941 118.312 47.7832 118.656 47.6309C119 47.4785 119.416 47.3887 119.904 47.3613L122.225 47.2207V48.0352L120.027 48.1758C119.547 48.2031 119.195 48.3027 118.973 48.4746C118.754 48.6465 118.645 48.8887 118.645 49.2012V49.2129C118.645 49.5332 118.766 49.7832 119.008 49.9629C119.25 50.1387 119.555 50.2266 119.922 50.2266C120.27 50.2266 120.578 50.1582 120.848 50.0215C121.117 49.8809 121.328 49.6914 121.48 49.4531C121.637 49.2148 121.715 48.9453 121.715 48.6445V46.6758C121.715 46.2852 121.596 45.9883 121.357 45.7852C121.123 45.5781 120.77 45.4746 120.297 45.4746C119.918 45.4746 119.607 45.543 119.365 45.6797C119.123 45.8125 118.961 46.002 118.879 46.248L118.873 46.2656H117.854L117.859 46.2305C117.914 45.8984 118.051 45.6094 118.27 45.3633C118.492 45.1133 118.779 44.9199 119.131 44.7832C119.482 44.6426 119.883 44.5723 120.332 44.5723C120.848 44.5723 121.283 44.6562 121.639 44.8242C121.998 44.9922 122.27 45.2344 122.453 45.5508C122.641 45.8633 122.734 46.2383 122.734 46.6758V51H121.715V50.0684H121.621C121.488 50.291 121.326 50.4805 121.135 50.6367C120.947 50.793 120.734 50.9121 120.496 50.9941C120.258 51.0723 119.996 51.1113 119.711 51.1113ZM124.656 51V42.1758H125.676V51H124.656ZM139.756 46.7695C139.756 46.9023 139.701 47.0195 139.592 47.1211L136.568 50.1387C136.467 50.2363 136.352 50.2852 136.223 50.2852C136.094 50.2852 135.984 50.2422 135.895 50.1562C135.809 50.0703 135.766 49.9609 135.766 49.8281C135.766 49.7656 135.775 49.7051 135.795 49.6465C135.818 49.5879 135.852 49.5391 135.895 49.5L136.703 48.6621L138.684 46.8809L138.789 47.1328L137.23 47.2441H131.699C131.559 47.2441 131.445 47.1992 131.359 47.1094C131.273 47.0195 131.23 46.9062 131.23 46.7695C131.23 46.6328 131.273 46.5195 131.359 46.4297C131.445 46.3398 131.559 46.2949 131.699 46.2949H137.23L138.789 46.4062L138.684 46.6641L136.703 44.877L135.895 44.0391C135.852 44 135.818 43.9512 135.795 43.8926C135.775 43.834 135.766 43.7734 135.766 43.7109C135.766 43.5781 135.809 43.4688 135.895 43.3828C135.984 43.2969 136.094 43.2539 136.223 43.2539C136.352 43.2539 136.467 43.3027 136.568 43.4004L139.592 46.418C139.701 46.5195 139.756 46.6367 139.756 46.7695ZM145.387 51V42.5449H146.441V50.0508H150.52V51H145.387ZM154.381 51.1113C153.783 51.1113 153.266 50.9805 152.828 50.7188C152.395 50.4531 152.059 50.0762 151.82 49.5879C151.586 49.0996 151.469 48.5195 151.469 47.8477V47.8359C151.469 47.1602 151.586 46.5781 151.82 46.0898C152.059 45.6016 152.395 45.2266 152.828 44.9648C153.266 44.7031 153.783 44.5723 154.381 44.5723C154.982 44.5723 155.5 44.7031 155.934 44.9648C156.367 45.2266 156.701 45.6016 156.936 46.0898C157.174 46.5781 157.293 47.1602 157.293 47.8359V47.8477C157.293 48.5195 157.174 49.0996 156.936 49.5879C156.701 50.0762 156.367 50.4531 155.934 50.7188C155.5 50.9805 154.982 51.1113 154.381 51.1113ZM154.381 50.209C154.779 50.209 155.117 50.1152 155.395 49.9277C155.672 49.7402 155.883 49.4707 156.027 49.1191C156.176 48.7676 156.25 48.3438 156.25 47.8477V47.8359C156.25 47.3359 156.176 46.9102 156.027 46.5586C155.883 46.207 155.672 45.9395 155.395 45.7559C155.117 45.5684 154.779 45.4746 154.381 45.4746C153.982 45.4746 153.645 45.5684 153.367 45.7559C153.09 45.9395 152.877 46.207 152.729 46.5586C152.584 46.9102 152.512 47.3359 152.512 47.8359V47.8477C152.512 48.3438 152.584 48.7676 152.729 49.1191C152.877 49.4707 153.09 49.7402 153.367 49.9277C153.645 50.1152 153.982 50.209 154.381 50.209ZM159.859 51L158.09 44.6836H159.109L160.352 49.7344H160.445L161.857 44.6836H162.824L164.236 49.7344H164.33L165.572 44.6836H166.586L164.816 51H163.791L162.379 46.1133H162.285L160.879 51H159.859Z" fill="black"/>
<path d="M37.8496 77.1992C37.2324 77.1992 36.6934 77.0996 36.2324 76.9004C35.7754 76.6973 35.4121 76.4199 35.1426 76.0684C34.877 75.7129 34.7227 75.3066 34.6797 74.8496L34.6738 74.7852H35.7285L35.7344 74.8496C35.7617 75.1309 35.8691 75.375 36.0566 75.582C36.248 75.7852 36.502 75.9434 36.8184 76.0566C37.1387 76.1699 37.502 76.2266 37.9082 76.2266C38.291 76.2266 38.6309 76.166 38.9277 76.0449C39.2285 75.9199 39.4648 75.748 39.6367 75.5293C39.8086 75.3105 39.8945 75.0586 39.8945 74.7734V74.7676C39.8945 74.416 39.7656 74.1211 39.5078 73.8828C39.25 73.6406 38.8301 73.4551 38.248 73.3262L37.3105 73.1211C36.4629 72.9336 35.8457 72.6445 35.459 72.2539C35.0762 71.8594 34.8848 71.3555 34.8848 70.7422V70.7363C34.8887 70.2676 35.0156 69.8535 35.2656 69.4941C35.5195 69.1348 35.8691 68.8535 36.3145 68.6504C36.7637 68.4473 37.2793 68.3457 37.8613 68.3457C38.4238 68.3457 38.9219 68.4473 39.3555 68.6504C39.7891 68.8496 40.1328 69.1191 40.3867 69.459C40.6445 69.7988 40.7871 70.1797 40.8145 70.6016L40.8203 70.6836H39.7656L39.7539 70.6074C39.7148 70.3574 39.6133 70.1367 39.4492 69.9453C39.2852 69.75 39.0664 69.5957 38.793 69.4824C38.5195 69.3691 38.1992 69.3145 37.832 69.3184C37.4805 69.3184 37.1641 69.373 36.8828 69.4824C36.6016 69.5918 36.377 69.75 36.209 69.957C36.0449 70.1602 35.9629 70.4102 35.9629 70.707V70.7129C35.9629 71.0488 36.0879 71.332 36.3379 71.5625C36.5879 71.793 37 71.9707 37.5742 72.0957L38.5117 72.3066C39.1016 72.4355 39.5762 72.6035 39.9355 72.8105C40.2949 73.0176 40.5566 73.2715 40.7207 73.5723C40.8887 73.8691 40.9727 74.2207 40.9727 74.627V74.6328C40.9727 75.1602 40.8438 75.6152 40.5859 75.998C40.3281 76.3809 39.9648 76.6777 39.4961 76.8887C39.0273 77.0957 38.4785 77.1992 37.8496 77.1992ZM45.1797 77.1113C44.5781 77.1113 44.0605 76.9785 43.627 76.7129C43.1973 76.4473 42.8652 76.0723 42.6309 75.5879C42.4004 75.0996 42.2852 74.5254 42.2852 73.8652V73.8594C42.2852 73.207 42.4004 72.6348 42.6309 72.1426C42.8652 71.6504 43.1953 71.2656 43.6211 70.9883C44.0469 70.7109 44.5449 70.5723 45.1152 70.5723C45.6895 70.5723 46.1816 70.7051 46.5918 70.9707C47.0059 71.2363 47.3223 71.6074 47.541 72.084C47.7637 72.5566 47.875 73.1074 47.875 73.7363V74.1348H42.8125V73.3203H47.3535L46.8496 74.0645V73.6602C46.8496 73.1641 46.7754 72.7559 46.627 72.4355C46.4785 72.1152 46.2734 71.877 46.0117 71.7207C45.75 71.5605 45.4492 71.4805 45.1094 71.4805C44.7695 71.4805 44.4648 71.5645 44.1953 71.7324C43.9297 71.8965 43.7188 72.1406 43.5625 72.4648C43.4062 72.7891 43.3281 73.1875 43.3281 73.6602V74.0645C43.3281 74.5137 43.4043 74.8984 43.5566 75.2188C43.709 75.5352 43.9258 75.7793 44.207 75.9512C44.4883 76.1191 44.8203 76.2031 45.2031 76.2031C45.4883 76.2031 45.7363 76.1641 45.9473 76.0859C46.1582 76.0078 46.332 75.9082 46.4688 75.7871C46.6055 75.666 46.7012 75.543 46.7559 75.418L46.7793 75.3652H47.7988L47.7871 75.4121C47.7324 75.627 47.6348 75.8359 47.4941 76.0391C47.3574 76.2383 47.1797 76.4199 46.9609 76.584C46.7422 76.7441 46.4824 76.873 46.1816 76.9707C45.8848 77.0645 45.5508 77.1113 45.1797 77.1113ZM51.127 77L48.7891 70.6836H49.8672L51.5957 75.8867H51.6895L53.418 70.6836H54.4961L52.1582 77H51.127ZM58.1875 77.1113C57.5859 77.1113 57.0684 76.9785 56.6348 76.7129C56.2051 76.4473 55.873 76.0723 55.6387 75.5879C55.4082 75.0996 55.293 74.5254 55.293 73.8652V73.8594C55.293 73.207 55.4082 72.6348 55.6387 72.1426C55.873 71.6504 56.2031 71.2656 56.6289 70.9883C57.0547 70.7109 57.5527 70.5723 58.123 70.5723C58.6973 70.5723 59.1895 70.7051 59.5996 70.9707C60.0137 71.2363 60.3301 71.6074 60.5488 72.084C60.7715 72.5566 60.8828 73.1074 60.8828 73.7363V74.1348H55.8203V73.3203H60.3613L59.8574 74.0645V73.6602C59.8574 73.1641 59.7832 72.7559 59.6348 72.4355C59.4863 72.1152 59.2812 71.877 59.0195 71.7207C58.7578 71.5605 58.457 71.4805 58.1172 71.4805C57.7773 71.4805 57.4727 71.5645 57.2031 71.7324C56.9375 71.8965 56.7266 72.1406 56.5703 72.4648C56.4141 72.7891 56.3359 73.1875 56.3359 73.6602V74.0645C56.3359 74.5137 56.4121 74.8984 56.5645 75.2188C56.7168 75.5352 56.9336 75.7793 57.2148 75.9512C57.4961 76.1191 57.8281 76.2031 58.2109 76.2031C58.4961 76.2031 58.7441 76.1641 58.9551 76.0859C59.166 76.0078 59.3398 75.9082 59.4766 75.7871C59.6133 75.666 59.709 75.543 59.7637 75.418L59.7871 75.3652H60.8066L60.7949 75.4121C60.7402 75.627 60.6426 75.8359 60.502 76.0391C60.3652 76.2383 60.1875 76.4199 59.9688 76.584C59.75 76.7441 59.4902 76.873 59.1895 76.9707C58.8926 77.0645 58.5586 77.1113 58.1875 77.1113ZM62.4648 77V70.6836H63.4844V71.6211H63.5781C63.6992 71.2891 63.9043 71.0312 64.1934 70.8477C64.4824 70.6641 64.8398 70.5723 65.2656 70.5723C65.3633 70.5723 65.459 70.5781 65.5527 70.5898C65.6504 70.5977 65.7246 70.6055 65.7754 70.6133V71.6035C65.6699 71.584 65.5664 71.5703 65.4648 71.5625C65.3672 71.5508 65.2617 71.5449 65.1484 71.5449C64.8242 71.5449 64.5371 71.6094 64.2871 71.7383C64.0371 71.8672 63.8398 72.0469 63.6953 72.2773C63.5547 72.5078 63.4844 72.7773 63.4844 73.0859V77H62.4648ZM67.0586 77V70.6836H68.0781V77H67.0586ZM67.5742 69.4648C67.3828 69.4648 67.2168 69.3965 67.0762 69.2598C66.9395 69.1191 66.8711 68.9531 66.8711 68.7617C66.8711 68.5664 66.9395 68.4004 67.0762 68.2637C67.2168 68.127 67.3828 68.0586 67.5742 68.0586C67.7695 68.0586 67.9355 68.127 68.0723 68.2637C68.209 68.4004 68.2773 68.5664 68.2773 68.7617C68.2773 68.9531 68.209 69.1191 68.0723 69.2598C67.9355 69.3965 67.7695 69.4648 67.5742 69.4648ZM72.2441 77.0469C71.5957 77.0469 71.125 76.916 70.832 76.6543C70.543 76.3926 70.3984 75.9609 70.3984 75.3594V71.5273H69.4023V70.6836H70.3984V69.0488H71.4531V70.6836H72.8359V71.5273H71.4531V75.1016C71.4531 75.4727 71.5234 75.7402 71.6641 75.9043C71.8047 76.0645 72.0391 76.1445 72.3672 76.1445C72.457 76.1445 72.5332 76.1426 72.5957 76.1387C72.6621 76.1348 72.7422 76.1289 72.8359 76.1211V76.9883C72.7383 77.0039 72.6406 77.0176 72.543 77.0293C72.4453 77.041 72.3457 77.0469 72.2441 77.0469ZM74.8984 79.2148C74.832 79.2148 74.7578 79.2109 74.6758 79.2031C74.5938 79.1992 74.5176 79.1914 74.4473 79.1797V78.3418C74.5098 78.3535 74.5781 78.3613 74.6523 78.3652C74.7266 78.3691 74.7988 78.3711 74.8691 78.3711C75.1582 78.3711 75.3945 78.2969 75.5781 78.1484C75.7656 78 75.916 77.7441 76.0293 77.3809L76.1465 77.0059L73.8086 70.6836H74.8984L76.8438 76.5195L76.4395 75.8809H76.9199L76.5156 76.5195L78.4551 70.6836H79.5273L77.0605 77.3867C76.8887 77.8594 76.707 78.2285 76.5156 78.4941C76.3242 78.7598 76.0996 78.9453 75.8418 79.0508C75.5879 79.1602 75.2734 79.2148 74.8984 79.2148ZM81.707 77.0586C81.5 77.0586 81.3203 76.9844 81.168 76.8359C81.0195 76.6836 80.9453 76.5039 80.9453 76.2969C80.9453 76.0859 81.0195 75.9062 81.168 75.7578C81.3203 75.6094 81.5 75.5352 81.707 75.5352C81.918 75.5352 82.0977 75.6094 82.2461 75.7578C82.3945 75.9062 82.4688 76.0859 82.4688 76.2969C82.4688 76.5039 82.3945 76.6836 82.2461 76.8359C82.0977 76.9844 81.918 77.0586 81.707 77.0586ZM81.707 72.5234C81.5 72.5234 81.3203 72.4492 81.168 72.3008C81.0195 72.1484 80.9453 71.9688 80.9453 71.7617C80.9453 71.5508 81.0195 71.3711 81.168 71.2227C81.3203 71.0742 81.5 71 81.707 71C81.918 71 82.0977 71.0742 82.2461 71.2227C82.3945 71.3711 82.4688 71.5508 82.4688 71.7617C82.4688 71.9688 82.3945 72.1484 82.2461 72.3008C82.0977 72.4492 81.918 72.5234 81.707 72.5234ZM87.9414 77V68.5449H88.9961V76.0508H93.0742V77H87.9414ZM96.9355 77.1113C96.3379 77.1113 95.8203 76.9805 95.3828 76.7188C94.9492 76.4531 94.6133 76.0762 94.375 75.5879C94.1406 75.0996 94.0234 74.5195 94.0234 73.8477V73.8359C94.0234 73.1602 94.1406 72.5781 94.375 72.0898C94.6133 71.6016 94.9492 71.2266 95.3828 70.9648C95.8203 70.7031 96.3379 70.5723 96.9355 70.5723C97.5371 70.5723 98.0547 70.7031 98.4883 70.9648C98.9219 71.2266 99.2559 71.6016 99.4902 72.0898C99.7285 72.5781 99.8477 73.1602 99.8477 73.8359V73.8477C99.8477 74.5195 99.7285 75.0996 99.4902 75.5879C99.2559 76.0762 98.9219 76.4531 98.4883 76.7188C98.0547 76.9805 97.5371 77.1113 96.9355 77.1113ZM96.9355 76.209C97.334 76.209 97.6719 76.1152 97.9492 75.9277C98.2266 75.7402 98.4375 75.4707 98.582 75.1191C98.7305 74.7676 98.8047 74.3438 98.8047 73.8477V73.8359C98.8047 73.3359 98.7305 72.9102 98.582 72.5586C98.4375 72.207 98.2266 71.9395 97.9492 71.7559C97.6719 71.5684 97.334 71.4746 96.9355 71.4746C96.5371 71.4746 96.1992 71.5684 95.9219 71.7559C95.6445 71.9395 95.4316 72.207 95.2832 72.5586C95.1387 72.9102 95.0664 73.3359 95.0664 73.8359V73.8477C95.0664 74.3438 95.1387 74.7676 95.2832 75.1191C95.4316 75.4707 95.6445 75.7402 95.9219 75.9277C96.1992 76.1152 96.5371 76.209 96.9355 76.209ZM102.414 77L100.645 70.6836H101.664L102.906 75.7344H103L104.412 70.6836H105.379L106.791 75.7344H106.885L108.127 70.6836H109.141L107.371 77H106.346L104.934 72.1133H104.84L103.434 77H102.414ZM122.611 72.7695C122.611 72.9023 122.557 73.0195 122.447 73.1211L119.424 76.1387C119.322 76.2363 119.207 76.2852 119.078 76.2852C118.949 76.2852 118.84 76.2422 118.75 76.1562C118.664 76.0703 118.621 75.9609 118.621 75.8281C118.621 75.7656 118.631 75.7051 118.65 75.6465C118.674 75.5879 118.707 75.5391 118.75 75.5L119.559 74.6621L121.539 72.8809L121.645 73.1328L120.086 73.2441H114.555C114.414 73.2441 114.301 73.1992 114.215 73.1094C114.129 73.0195 114.086 72.9062 114.086 72.7695C114.086 72.6328 114.129 72.5195 114.215 72.4297C114.301 72.3398 114.414 72.2949 114.555 72.2949H120.086L121.645 72.4062L121.539 72.6641L119.559 70.877L118.75 70.0391C118.707 70 118.674 69.9512 118.65 69.8926C118.631 69.834 118.621 69.7734 118.621 69.7109C118.621 69.5781 118.664 69.4688 118.75 69.3828C118.84 69.2969 118.949 69.2539 119.078 69.2539C119.207 69.2539 119.322 69.3027 119.424 69.4004L122.447 72.418C122.557 72.5195 122.611 72.6367 122.611 72.7695ZM131.646 77.1992C130.881 77.1992 130.219 77.0195 129.66 76.6602C129.102 76.3008 128.67 75.791 128.365 75.1309C128.064 74.4707 127.914 73.6875 127.914 72.7812V72.7695C127.914 71.8594 128.064 71.0742 128.365 70.4141C128.67 69.7539 129.1 69.2441 129.654 68.8848C130.213 68.5254 130.875 68.3457 131.641 68.3457C132.234 68.3457 132.773 68.4629 133.258 68.6973C133.746 68.9277 134.148 69.25 134.465 69.6641C134.781 70.0742 134.98 70.5488 135.062 71.0879L135.057 71.0996H133.996L133.99 71.0879C133.896 70.7246 133.738 70.4121 133.516 70.1504C133.293 69.8848 133.021 69.6797 132.701 69.5352C132.385 69.3906 132.031 69.3184 131.641 69.3184C131.102 69.3184 130.633 69.459 130.234 69.7402C129.84 70.0215 129.535 70.4199 129.32 70.9355C129.105 71.4512 128.998 72.0625 128.998 72.7695V72.7812C128.998 73.4844 129.105 74.0938 129.32 74.6094C129.535 75.125 129.84 75.5234 130.234 75.8047C130.633 76.0859 131.104 76.2266 131.646 76.2266C132.041 76.2266 132.398 76.1641 132.719 76.0391C133.039 75.9102 133.309 75.7285 133.527 75.4941C133.746 75.2559 133.898 74.9746 133.984 74.6504L133.996 74.6387H135.062V74.6504C134.969 75.166 134.766 75.6152 134.453 75.998C134.141 76.377 133.744 76.6719 133.264 76.8828C132.787 77.0938 132.248 77.1992 131.646 77.1992ZM136.703 77V70.6836H137.723V71.6211H137.816C137.938 71.2891 138.143 71.0312 138.432 70.8477C138.721 70.6641 139.078 70.5723 139.504 70.5723C139.602 70.5723 139.697 70.5781 139.791 70.5898C139.889 70.5977 139.963 70.6055 140.014 70.6133V71.6035C139.908 71.584 139.805 71.5703 139.703 71.5625C139.605 71.5508 139.5 71.5449 139.387 71.5449C139.062 71.5449 138.775 71.6094 138.525 71.7383C138.275 71.8672 138.078 72.0469 137.934 72.2773C137.793 72.5078 137.723 72.7773 137.723 73.0859V77H136.703ZM141.297 77V70.6836H142.316V77H141.297ZM141.812 69.4648C141.621 69.4648 141.455 69.3965 141.314 69.2598C141.178 69.1191 141.109 68.9531 141.109 68.7617C141.109 68.5664 141.178 68.4004 141.314 68.2637C141.455 68.127 141.621 68.0586 141.812 68.0586C142.008 68.0586 142.174 68.127 142.311 68.2637C142.447 68.4004 142.516 68.5664 142.516 68.7617C142.516 68.9531 142.447 69.1191 142.311 69.2598C142.174 69.3965 142.008 69.4648 141.812 69.4648ZM146.482 77.0469C145.834 77.0469 145.363 76.916 145.07 76.6543C144.781 76.3926 144.637 75.9609 144.637 75.3594V71.5273H143.641V70.6836H144.637V69.0488H145.691V70.6836H147.074V71.5273H145.691V75.1016C145.691 75.4727 145.762 75.7402 145.902 75.9043C146.043 76.0645 146.277 76.1445 146.605 76.1445C146.695 76.1445 146.771 76.1426 146.834 76.1387C146.9 76.1348 146.98 76.1289 147.074 76.1211V76.9883C146.977 77.0039 146.879 77.0176 146.781 77.0293C146.684 77.041 146.584 77.0469 146.482 77.0469ZM148.621 77V70.6836H149.641V77H148.621ZM149.137 69.4648C148.945 69.4648 148.779 69.3965 148.639 69.2598C148.502 69.1191 148.434 68.9531 148.434 68.7617C148.434 68.5664 148.502 68.4004 148.639 68.2637C148.779 68.127 148.945 68.0586 149.137 68.0586C149.332 68.0586 149.498 68.127 149.635 68.2637C149.771 68.4004 149.84 68.5664 149.84 68.7617C149.84 68.9531 149.771 69.1191 149.635 69.2598C149.498 69.3965 149.332 69.4648 149.137 69.4648ZM154.146 77.1113C153.557 77.1113 153.045 76.9766 152.611 76.707C152.178 76.4375 151.842 76.0566 151.604 75.5645C151.365 75.0723 151.246 74.4922 151.246 73.8242V73.8125C151.246 73.1562 151.363 72.5859 151.598 72.1016C151.836 71.6172 152.172 71.2422 152.605 70.9766C153.039 70.707 153.551 70.5723 154.141 70.5723C154.652 70.5723 155.094 70.6621 155.465 70.8418C155.836 71.0215 156.133 71.2637 156.355 71.5684C156.578 71.8691 156.721 72.207 156.783 72.582L156.789 72.6172H155.775L155.77 72.5996C155.691 72.2871 155.514 72.0215 155.236 71.8027C154.959 71.584 154.594 71.4746 154.141 71.4746C153.762 71.4746 153.434 71.5703 153.156 71.7617C152.879 71.9531 152.664 72.2246 152.512 72.5762C152.363 72.9238 152.289 73.3359 152.289 73.8125V73.8242C152.289 74.3086 152.365 74.7305 152.518 75.0898C152.67 75.4453 152.885 75.7207 153.162 75.916C153.439 76.1113 153.766 76.209 154.141 76.209C154.566 76.209 154.914 76.1172 155.184 75.9336C155.453 75.75 155.646 75.4824 155.764 75.1309L155.775 75.0957L156.783 75.0898L156.771 75.1543C156.686 75.5332 156.533 75.8711 156.314 76.168C156.096 76.4609 155.807 76.6914 155.447 76.8594C155.088 77.0273 154.654 77.1113 154.146 77.1113ZM160.012 77.1113C159.613 77.1113 159.254 77.0352 158.934 76.8828C158.617 76.7305 158.365 76.5137 158.178 76.2324C157.994 75.9512 157.902 75.6191 157.902 75.2363V75.2246C157.902 74.8496 157.992 74.5293 158.172 74.2637C158.352 73.9941 158.613 73.7832 158.957 73.6309C159.301 73.4785 159.717 73.3887 160.205 73.3613L162.525 73.2207V74.0352L160.328 74.1758C159.848 74.2031 159.496 74.3027 159.273 74.4746C159.055 74.6465 158.945 74.8887 158.945 75.2012V75.2129C158.945 75.5332 159.066 75.7832 159.309 75.9629C159.551 76.1387 159.855 76.2266 160.223 76.2266C160.57 76.2266 160.879 76.1582 161.148 76.0215C161.418 75.8809 161.629 75.6914 161.781 75.4531C161.938 75.2148 162.016 74.9453 162.016 74.6445V72.6758C162.016 72.2852 161.896 71.9883 161.658 71.7852C161.424 71.5781 161.07 71.4746 160.598 71.4746C160.219 71.4746 159.908 71.543 159.666 71.6797C159.424 71.8125 159.262 72.002 159.18 72.248L159.174 72.2656H158.154L158.16 72.2305C158.215 71.8984 158.352 71.6094 158.57 71.3633C158.793 71.1133 159.08 70.9199 159.432 70.7832C159.783 70.6426 160.184 70.5723 160.633 70.5723C161.148 70.5723 161.584 70.6562 161.939 70.8242C162.299 70.9922 162.57 71.2344 162.754 71.5508C162.941 71.8633 163.035 72.2383 163.035 72.6758V77H162.016V76.0684H161.922C161.789 76.291 161.627 76.4805 161.436 76.6367C161.248 76.793 161.035 76.9121 160.797 76.9941C160.559 77.0723 160.297 77.1113 160.012 77.1113ZM164.957 77V68.1758H165.977V77H164.957Z" fill="black"/>
<path fill-rule="evenodd" clip-rule="evenodd" d="M27.8243 94.375C28.0586 94.6093 28.0586 94.9892 27.8243 95.2235L20.5364 102.511C20.1849 102.863 19.6151 102.863 19.2636 102.511L16.1757 99.4235C15.9414 99.1892 15.9414 98.8093 16.1757 98.575C16.4101 98.3406 16.7899 98.3406 17.0243 98.575L19.9 101.451L26.9757 94.375C27.2101 94.1406 27.5899 94.1406 27.8243 94.375Z" fill="#606572"/>
<path d="M35.0781 103V94.5449H36.1328V102.051H40.2109V103H35.0781ZM43.5039 103.111C43.1055 103.111 42.7461 103.035 42.4258 102.883C42.1094 102.73 41.8574 102.514 41.6699 102.232C41.4863 101.951 41.3945 101.619 41.3945 101.236V101.225C41.3945 100.85 41.4844 100.529 41.6641 100.264C41.8438 99.9941 42.1055 99.7832 42.4492 99.6309C42.793 99.4785 43.209 99.3887 43.6973 99.3613L46.0176 99.2207V100.035L43.8203 100.176C43.3398 100.203 42.9883 100.303 42.7656 100.475C42.5469 100.646 42.4375 100.889 42.4375 101.201V101.213C42.4375 101.533 42.5586 101.783 42.8008 101.963C43.043 102.139 43.3477 102.227 43.7148 102.227C44.0625 102.227 44.3711 102.158 44.6406 102.021C44.9102 101.881 45.1211 101.691 45.2734 101.453C45.4297 101.215 45.5078 100.945 45.5078 100.645V98.6758C45.5078 98.2852 45.3887 97.9883 45.1504 97.7852C44.916 97.5781 44.5625 97.4746 44.0898 97.4746C43.7109 97.4746 43.4004 97.543 43.1582 97.6797C42.916 97.8125 42.7539 98.002 42.6719 98.248L42.666 98.2656H41.6465L41.6523 98.2305C41.707 97.8984 41.8438 97.6094 42.0625 97.3633C42.2852 97.1133 42.5723 96.9199 42.9238 96.7832C43.2754 96.6426 43.6758 96.5723 44.125 96.5723C44.6406 96.5723 45.0762 96.6562 45.4316 96.8242C45.791 96.9922 46.0625 97.2344 46.2461 97.5508C46.4336 97.8633 46.5273 98.2383 46.5273 98.6758V103H45.5078V102.068H45.4141C45.2812 102.291 45.1191 102.48 44.9277 102.637C44.7402 102.793 44.5273 102.912 44.2891 102.994C44.0508 103.072 43.7891 103.111 43.5039 103.111ZM50.5586 103.111C50.0898 103.111 49.6758 103.041 49.3164 102.9C48.957 102.756 48.668 102.555 48.4492 102.297C48.2344 102.039 48.1074 101.736 48.0684 101.389H49.1113C49.1973 101.65 49.3652 101.861 49.6152 102.021C49.8652 102.182 50.1914 102.262 50.5938 102.262C50.8789 102.262 51.1289 102.221 51.3438 102.139C51.5625 102.053 51.7344 101.938 51.8594 101.793C51.9844 101.645 52.0469 101.475 52.0469 101.283V101.271C52.0469 101.057 51.9609 100.875 51.7891 100.727C51.6172 100.574 51.3359 100.451 50.9453 100.357L49.9668 100.123C49.5723 100.029 49.248 99.9082 48.9941 99.7598C48.7402 99.6074 48.5527 99.4219 48.4316 99.2031C48.3105 98.9805 48.25 98.7188 48.25 98.418V98.4121C48.25 98.0605 48.3516 97.7461 48.5547 97.4688C48.7617 97.1914 49.043 96.9727 49.3984 96.8125C49.7539 96.6523 50.1543 96.5723 50.5996 96.5723C51.041 96.5723 51.4316 96.6426 51.7715 96.7832C52.1152 96.9199 52.3906 97.1152 52.5977 97.3691C52.8086 97.623 52.9375 97.9219 52.9844 98.2656H51.9824C51.916 98.0156 51.7637 97.8125 51.5254 97.6562C51.2871 97.5 50.9766 97.4219 50.5938 97.4219C50.3438 97.4219 50.1211 97.4629 49.9258 97.5449C49.7305 97.623 49.5762 97.7324 49.4629 97.873C49.3496 98.0137 49.293 98.1777 49.293 98.3652V98.377C49.293 98.5176 49.3301 98.6426 49.4043 98.752C49.4785 98.8613 49.5938 98.957 49.75 99.0391C49.9062 99.1211 50.1074 99.1934 50.3535 99.2559L51.3262 99.4902C51.9199 99.6348 52.3613 99.8418 52.6504 100.111C52.9434 100.381 53.0898 100.742 53.0898 101.195V101.207C53.0898 101.582 52.9785 101.914 52.7559 102.203C52.5332 102.488 52.2305 102.711 51.8477 102.871C51.4688 103.031 51.0391 103.111 50.5586 103.111ZM56.8574 103.047C56.209 103.047 55.7383 102.916 55.4453 102.654C55.1562 102.393 55.0117 101.961 55.0117 101.359V97.5273H54.0156V96.6836H55.0117V95.0488H56.0664V96.6836H57.4492V97.5273H56.0664V101.102C56.0664 101.473 56.1367 101.74 56.2773 101.904C56.418 102.064 56.6523 102.145 56.9805 102.145C57.0703 102.145 57.1465 102.143 57.209 102.139C57.2754 102.135 57.3555 102.129 57.4492 102.121V102.988C57.3516 103.004 57.2539 103.018 57.1562 103.029C57.0586 103.041 56.959 103.047 56.8574 103.047ZM64.4629 103.111C63.9863 103.111 63.5859 103.021 63.2617 102.842C62.9375 102.658 62.6934 102.393 62.5293 102.045C62.3691 101.693 62.2891 101.27 62.2891 100.773V96.6836H63.3086V100.527C63.3086 101.094 63.418 101.516 63.6367 101.793C63.8594 102.07 64.2227 102.209 64.7266 102.209C65.0039 102.209 65.248 102.168 65.459 102.086C65.6738 102.004 65.8535 101.887 65.998 101.734C66.1426 101.578 66.25 101.391 66.3203 101.172C66.3945 100.949 66.4316 100.699 66.4316 100.422V96.6836H67.4512V103H66.4316V102.057H66.3379C66.2363 102.279 66.0977 102.471 65.9219 102.631C65.7461 102.787 65.5352 102.906 65.2891 102.988C65.0469 103.07 64.7715 103.111 64.4629 103.111ZM69.3555 105.109V96.6836H70.375V97.6914H70.4688C70.5977 97.457 70.7598 97.2578 70.9551 97.0938C71.1504 96.9258 71.373 96.7969 71.623 96.707C71.873 96.6172 72.1445 96.5723 72.4375 96.5723C72.9727 96.5723 73.4375 96.709 73.832 96.9824C74.2305 97.252 74.5391 97.6309 74.7578 98.1191C74.9766 98.6074 75.0859 99.1797 75.0859 99.8359V99.8477C75.0859 100.508 74.9766 101.082 74.7578 101.57C74.5391 102.059 74.2305 102.438 73.832 102.707C73.4375 102.977 72.9727 103.111 72.4375 103.111C72.1484 103.111 71.875 103.066 71.6172 102.977C71.3633 102.883 71.1367 102.754 70.9375 102.59C70.7422 102.426 70.5859 102.23 70.4688 102.004H70.375V105.109H69.3555ZM72.2031 102.209C72.5898 102.209 72.9199 102.115 73.1934 101.928C73.4668 101.736 73.6758 101.465 73.8203 101.113C73.9688 100.758 74.043 100.336 74.043 99.8477V99.8359C74.043 99.3438 73.9688 98.9219 73.8203 98.5703C73.6758 98.2188 73.4668 97.9492 73.1934 97.7617C72.9199 97.5703 72.5898 97.4746 72.2031 97.4746C71.8203 97.4746 71.4902 97.5703 71.2129 97.7617C70.9355 97.9531 70.7227 98.2246 70.5742 98.5762C70.4258 98.9277 70.3516 99.3477 70.3516 99.8359V99.8477C70.3516 100.332 70.4258 100.752 70.5742 101.107C70.7227 101.459 70.9355 101.73 71.2129 101.922C71.4902 102.113 71.8203 102.209 72.2031 102.209ZM79.0117 103.111C78.4805 103.111 78.0156 102.977 77.6172 102.707C77.2188 102.438 76.9102 102.059 76.6914 101.57C76.4727 101.078 76.3633 100.504 76.3633 99.8477V99.8359C76.3633 99.1758 76.4727 98.6016 76.6914 98.1133C76.9102 97.625 77.2168 97.2461 77.6113 96.9766C78.0098 96.707 78.4766 96.5723 79.0117 96.5723C79.3008 96.5723 79.5723 96.6191 79.8262 96.7129C80.084 96.8027 80.3125 96.9297 80.5117 97.0938C80.7109 97.2578 80.8672 97.4531 80.9805 97.6797H81.0742V94.1758H82.0938V103H81.0742V101.992H80.9805C80.8516 102.227 80.6895 102.428 80.4941 102.596C80.2988 102.76 80.0762 102.887 79.8262 102.977C79.5762 103.066 79.3047 103.111 79.0117 103.111ZM79.2461 102.209C79.6289 102.209 79.959 102.113 80.2363 101.922C80.5137 101.73 80.7266 101.459 80.875 101.107C81.0234 100.752 81.0977 100.332 81.0977 99.8477V99.8359C81.0977 99.3477 81.0234 98.9277 80.875 98.5762C80.7266 98.2246 80.5137 97.9531 80.2363 97.7617C79.959 97.5703 79.6289 97.4746 79.2461 97.4746C78.8633 97.4746 78.5332 97.5703 78.2559 97.7617C77.9824 97.9492 77.7715 98.2188 77.623 98.5703C77.4785 98.9219 77.4062 99.3438 77.4062 99.8359V99.8477C77.4062 100.336 77.4785 100.758 77.623 101.113C77.7715 101.465 77.9824 101.736 78.2559 101.928C78.5332 102.115 78.8633 102.209 79.2461 102.209ZM85.7852 103.111C85.3867 103.111 85.0273 103.035 84.707 102.883C84.3906 102.73 84.1387 102.514 83.9512 102.232C83.7676 101.951 83.6758 101.619 83.6758 101.236V101.225C83.6758 100.85 83.7656 100.529 83.9453 100.264C84.125 99.9941 84.3867 99.7832 84.7305 99.6309C85.0742 99.4785 85.4902 99.3887 85.9785 99.3613L88.2988 99.2207V100.035L86.1016 100.176C85.6211 100.203 85.2695 100.303 85.0469 100.475C84.8281 100.646 84.7188 100.889 84.7188 101.201V101.213C84.7188 101.533 84.8398 101.783 85.082 101.963C85.3242 102.139 85.6289 102.227 85.9961 102.227C86.3438 102.227 86.6523 102.158 86.9219 102.021C87.1914 101.881 87.4023 101.691 87.5547 101.453C87.7109 101.215 87.7891 100.945 87.7891 100.645V98.6758C87.7891 98.2852 87.6699 97.9883 87.4316 97.7852C87.1973 97.5781 86.8438 97.4746 86.3711 97.4746C85.9922 97.4746 85.6816 97.543 85.4395 97.6797C85.1973 97.8125 85.0352 98.002 84.9531 98.248L84.9473 98.2656H83.9277L83.9336 98.2305C83.9883 97.8984 84.125 97.6094 84.3438 97.3633C84.5664 97.1133 84.8535 96.9199 85.2051 96.7832C85.5566 96.6426 85.957 96.5723 86.4062 96.5723C86.9219 96.5723 87.3574 96.6562 87.7129 96.8242C88.0723 96.9922 88.3438 97.2344 88.5273 97.5508C88.7148 97.8633 88.8086 98.2383 88.8086 98.6758V103H87.7891V102.068H87.6953C87.5625 102.291 87.4004 102.48 87.209 102.637C87.0215 102.793 86.8086 102.912 86.5703 102.994C86.332 103.072 86.0703 103.111 85.7852 103.111ZM92.916 103.047C92.2676 103.047 91.7969 102.916 91.5039 102.654C91.2148 102.393 91.0703 101.961 91.0703 101.359V97.5273H90.0742V96.6836H91.0703V95.0488H92.125V96.6836H93.5078V97.5273H92.125V101.102C92.125 101.473 92.1953 101.74 92.3359 101.904C92.4766 102.064 92.7109 102.145 93.0391 102.145C93.1289 102.145 93.2051 102.143 93.2676 102.139C93.334 102.135 93.4141 102.129 93.5078 102.121V102.988C93.4102 103.004 93.3125 103.018 93.2148 103.029C93.1172 103.041 93.0176 103.047 92.916 103.047ZM97.5273 103.111C96.9258 103.111 96.4082 102.979 95.9746 102.713C95.5449 102.447 95.2129 102.072 94.9785 101.588C94.748 101.1 94.6328 100.525 94.6328 99.8652V99.8594C94.6328 99.207 94.748 98.6348 94.9785 98.1426C95.2129 97.6504 95.543 97.2656 95.9688 96.9883C96.3945 96.7109 96.8926 96.5723 97.4629 96.5723C98.0371 96.5723 98.5293 96.7051 98.9395 96.9707C99.3535 97.2363 99.6699 97.6074 99.8887 98.084C100.111 98.5566 100.223 99.1074 100.223 99.7363V100.135H95.1602V99.3203H99.7012L99.1973 100.064V99.6602C99.1973 99.1641 99.123 98.7559 98.9746 98.4355C98.8262 98.1152 98.6211 97.877 98.3594 97.7207C98.0977 97.5605 97.7969 97.4805 97.457 97.4805C97.1172 97.4805 96.8125 97.5645 96.543 97.7324C96.2773 97.8965 96.0664 98.1406 95.9102 98.4648C95.7539 98.7891 95.6758 99.1875 95.6758 99.6602V100.064C95.6758 100.514 95.752 100.898 95.9043 101.219C96.0566 101.535 96.2734 101.779 96.5547 101.951C96.8359 102.119 97.168 102.203 97.5508 102.203C97.8359 102.203 98.084 102.164 98.2949 102.086C98.5059 102.008 98.6797 101.908 98.8164 101.787C98.9531 101.666 99.0488 101.543 99.1035 101.418L99.127 101.365H100.146L100.135 101.412C100.08 101.627 99.9824 101.836 99.8418 102.039C99.7051 102.238 99.5273 102.42 99.3086 102.584C99.0898 102.744 98.8301 102.873 98.5293 102.971C98.2324 103.064 97.8984 103.111 97.5273 103.111ZM104.137 103.111C103.605 103.111 103.141 102.977 102.742 102.707C102.344 102.438 102.035 102.059 101.816 101.57C101.598 101.078 101.488 100.504 101.488 99.8477V99.8359C101.488 99.1758 101.598 98.6016 101.816 98.1133C102.035 97.625 102.342 97.2461 102.736 96.9766C103.135 96.707 103.602 96.5723 104.137 96.5723C104.426 96.5723 104.697 96.6191 104.951 96.7129C105.209 96.8027 105.438 96.9297 105.637 97.0938C105.836 97.2578 105.992 97.4531 106.105 97.6797H106.199V94.1758H107.219V103H106.199V101.992H106.105C105.977 102.227 105.814 102.428 105.619 102.596C105.424 102.76 105.201 102.887 104.951 102.977C104.701 103.066 104.43 103.111 104.137 103.111ZM104.371 102.209C104.754 102.209 105.084 102.113 105.361 101.922C105.639 101.73 105.852 101.459 106 101.107C106.148 100.752 106.223 100.332 106.223 99.8477V99.8359C106.223 99.3477 106.148 98.9277 106 98.5762C105.852 98.2246 105.639 97.9531 105.361 97.7617C105.084 97.5703 104.754 97.4746 104.371 97.4746C103.988 97.4746 103.658 97.5703 103.381 97.7617C103.107 97.9492 102.896 98.2188 102.748 98.5703C102.604 98.9219 102.531 99.3438 102.531 99.8359V99.8477C102.531 100.336 102.604 100.758 102.748 101.113C102.896 101.465 103.107 101.736 103.381 101.928C103.658 102.115 103.988 102.209 104.371 102.209Z" fill="black"/>
<rect x="8.25" y="115.25" width="203.5" height="0.5" fill="#D9D9D9" stroke="#EBECF0" stroke-width="0.5"/>
<path d="M38.6289 136.199C37.8203 136.199 37.127 136.02 36.5488 135.66C35.9707 135.297 35.5254 134.783 35.2129 134.119C34.9043 133.455 34.75 132.674 34.75 131.775V131.764C34.75 130.857 34.9062 130.074 35.2188 129.414C35.5352 128.754 35.9824 128.244 36.5605 127.885C37.1426 127.525 37.832 127.346 38.6289 127.346C39.4297 127.346 40.1191 127.525 40.6973 127.885C41.2793 128.244 41.7266 128.756 42.0391 129.42C42.3516 130.08 42.5078 130.861 42.5078 131.764V131.775C42.5078 132.674 42.3516 133.455 42.0391 134.119C41.7305 134.779 41.2852 135.291 40.7031 135.654C40.125 136.018 39.4336 136.199 38.6289 136.199ZM38.6289 135.227C39.207 135.227 39.7051 135.084 40.123 134.799C40.541 134.514 40.8633 134.113 41.0898 133.598C41.3164 133.078 41.4297 132.471 41.4297 131.775V131.764C41.4297 131.061 41.3164 130.451 41.0898 129.936C40.8633 129.42 40.541 129.021 40.123 128.74C39.7051 128.459 39.207 128.318 38.6289 128.318C38.0547 128.318 37.5586 128.459 37.1406 128.74C36.7227 129.021 36.3984 129.42 36.168 129.936C35.9414 130.451 35.8281 131.061 35.8281 131.764V131.775C35.8281 132.471 35.9395 133.078 36.1621 133.598C36.3848 134.113 36.7051 134.514 37.123 134.799C37.541 135.084 38.043 135.227 38.6289 135.227ZM44.207 136V129.684H45.2266V130.621H45.3203C45.4414 130.289 45.6465 130.031 45.9355 129.848C46.2246 129.664 46.582 129.572 47.0078 129.572C47.1055 129.572 47.2012 129.578 47.2949 129.59C47.3926 129.598 47.4668 129.605 47.5176 129.613V130.604C47.4121 130.584 47.3086 130.57 47.207 130.562C47.1094 130.551 47.0039 130.545 46.8906 130.545C46.5664 130.545 46.2793 130.609 46.0293 130.738C45.7793 130.867 45.582 131.047 45.4375 131.277C45.2969 131.508 45.2266 131.777 45.2266 132.086V136H44.207ZM50.9336 136.111C50.4023 136.111 49.9375 135.977 49.5391 135.707C49.1406 135.438 48.832 135.059 48.6133 134.57C48.3945 134.078 48.2852 133.504 48.2852 132.848V132.836C48.2852 132.176 48.3945 131.602 48.6133 131.113C48.832 130.625 49.1387 130.246 49.5332 129.977C49.9316 129.707 50.3984 129.572 50.9336 129.572C51.2227 129.572 51.4941 129.619 51.748 129.713C52.0059 129.803 52.2344 129.93 52.4336 130.094C52.6328 130.258 52.7891 130.453 52.9023 130.68H52.9961V127.176H54.0156V136H52.9961V134.992H52.9023C52.7734 135.227 52.6113 135.428 52.416 135.596C52.2207 135.76 51.998 135.887 51.748 135.977C51.498 136.066 51.2266 136.111 50.9336 136.111ZM51.168 135.209C51.5508 135.209 51.8809 135.113 52.1582 134.922C52.4355 134.73 52.6484 134.459 52.7969 134.107C52.9453 133.752 53.0195 133.332 53.0195 132.848V132.836C53.0195 132.348 52.9453 131.928 52.7969 131.576C52.6484 131.225 52.4355 130.953 52.1582 130.762C51.8809 130.57 51.5508 130.475 51.168 130.475C50.7852 130.475 50.4551 130.57 50.1777 130.762C49.9043 130.949 49.6934 131.219 49.5449 131.57C49.4004 131.922 49.3281 132.344 49.3281 132.836V132.848C49.3281 133.336 49.4004 133.758 49.5449 134.113C49.6934 134.465 49.9043 134.736 50.1777 134.928C50.4551 135.115 50.7852 135.209 51.168 135.209ZM58.5508 136.111C57.9492 136.111 57.4316 135.979 56.998 135.713C56.5684 135.447 56.2363 135.072 56.002 134.588C55.7715 134.1 55.6562 133.525 55.6562 132.865V132.859C55.6562 132.207 55.7715 131.635 56.002 131.143C56.2363 130.65 56.5664 130.266 56.9922 129.988C57.418 129.711 57.916 129.572 58.4863 129.572C59.0605 129.572 59.5527 129.705 59.9629 129.971C60.377 130.236 60.6934 130.607 60.9121 131.084C61.1348 131.557 61.2461 132.107 61.2461 132.736V133.135H56.1836V132.32H60.7246L60.2207 133.064V132.66C60.2207 132.164 60.1465 131.756 59.998 131.436C59.8496 131.115 59.6445 130.877 59.3828 130.721C59.1211 130.561 58.8203 130.48 58.4805 130.48C58.1406 130.48 57.8359 130.564 57.5664 130.732C57.3008 130.896 57.0898 131.141 56.9336 131.465C56.7773 131.789 56.6992 132.188 56.6992 132.66V133.064C56.6992 133.514 56.7754 133.898 56.9277 134.219C57.0801 134.535 57.2969 134.779 57.5781 134.951C57.8594 135.119 58.1914 135.203 58.5742 135.203C58.8594 135.203 59.1074 135.164 59.3184 135.086C59.5293 135.008 59.7031 134.908 59.8398 134.787C59.9766 134.666 60.0723 134.543 60.127 134.418L60.1504 134.365H61.1699L61.1582 134.412C61.1035 134.627 61.0059 134.836 60.8652 135.039C60.7285 135.238 60.5508 135.42 60.332 135.584C60.1133 135.744 59.8535 135.873 59.5527 135.971C59.2559 136.064 58.9219 136.111 58.5508 136.111ZM62.8281 136V129.684H63.8477V130.621H63.9414C64.0625 130.289 64.2676 130.031 64.5566 129.848C64.8457 129.664 65.2031 129.572 65.6289 129.572C65.7266 129.572 65.8223 129.578 65.916 129.59C66.0137 129.598 66.0879 129.605 66.1387 129.613V130.604C66.0332 130.584 65.9297 130.57 65.8281 130.562C65.7305 130.551 65.625 130.545 65.5117 130.545C65.1875 130.545 64.9004 130.609 64.6504 130.738C64.4004 130.867 64.2031 131.047 64.0586 131.277C63.918 131.508 63.8477 131.777 63.8477 132.086V136H62.8281ZM73.9141 136.111C73.6211 136.111 73.3496 136.066 73.0996 135.977C72.8496 135.887 72.627 135.76 72.4316 135.596C72.2363 135.428 72.0742 135.227 71.9453 134.992H71.8516V136H70.832V127.176H71.8516V130.68H71.9453C72.0625 130.453 72.2188 130.258 72.4141 130.094C72.6133 129.93 72.8398 129.803 73.0938 129.713C73.3516 129.619 73.625 129.572 73.9141 129.572C74.4492 129.572 74.9141 129.707 75.3086 129.977C75.707 130.246 76.0156 130.625 76.2344 131.113C76.4531 131.602 76.5625 132.176 76.5625 132.836V132.848C76.5625 133.504 76.4531 134.078 76.2344 134.57C76.0156 135.059 75.707 135.438 75.3086 135.707C74.9141 135.977 74.4492 136.111 73.9141 136.111ZM73.6797 135.209C74.0664 135.209 74.3965 135.115 74.6699 134.928C74.9434 134.736 75.1523 134.465 75.2969 134.113C75.4453 133.758 75.5195 133.336 75.5195 132.848V132.836C75.5195 132.344 75.4453 131.922 75.2969 131.57C75.1523 131.219 74.9434 130.949 74.6699 130.762C74.3965 130.57 74.0664 130.475 73.6797 130.475C73.2969 130.475 72.9668 130.57 72.6895 130.762C72.4121 130.953 72.1992 131.225 72.0508 131.576C71.9023 131.928 71.8281 132.348 71.8281 132.836V132.848C71.8281 133.332 71.9023 133.752 72.0508 134.107C72.1992 134.459 72.4121 134.73 72.6895 134.922C72.9668 135.113 73.2969 135.209 73.6797 135.209ZM78.4492 138.215C78.3828 138.215 78.3086 138.211 78.2266 138.203C78.1445 138.199 78.0684 138.191 77.998 138.18V137.342C78.0605 137.354 78.1289 137.361 78.2031 137.365C78.2773 137.369 78.3496 137.371 78.4199 137.371C78.709 137.371 78.9453 137.297 79.1289 137.148C79.3164 137 79.4668 136.744 79.5801 136.381L79.6973 136.006L77.3594 129.684H78.4492L80.3945 135.52L79.9902 134.881H80.4707L80.0664 135.52L82.0059 129.684H83.0781L80.6113 136.387C80.4395 136.859 80.2578 137.229 80.0664 137.494C79.875 137.76 79.6504 137.945 79.3926 138.051C79.1387 138.16 78.8242 138.215 78.4492 138.215Z" fill="#787C87"/>
<path d="M38.6289 162.199C37.8203 162.199 37.127 162.02 36.5488 161.66C35.9707 161.297 35.5254 160.783 35.2129 160.119C34.9043 159.455 34.75 158.674 34.75 157.775V157.764C34.75 156.857 34.9062 156.074 35.2188 155.414C35.5352 154.754 35.9824 154.244 36.5605 153.885C37.1426 153.525 37.832 153.346 38.6289 153.346C39.4297 153.346 40.1191 153.525 40.6973 153.885C41.2793 154.244 41.7266 154.756 42.0391 155.42C42.3516 156.08 42.5078 156.861 42.5078 157.764V157.775C42.5078 158.674 42.3516 159.455 42.0391 160.119C41.7305 160.779 41.2852 161.291 40.7031 161.654C40.125 162.018 39.4336 162.199 38.6289 162.199ZM38.6289 161.227C39.207 161.227 39.7051 161.084 40.123 160.799C40.541 160.514 40.8633 160.113 41.0898 159.598C41.3164 159.078 41.4297 158.471 41.4297 157.775V157.764C41.4297 157.061 41.3164 156.451 41.0898 155.936C40.8633 155.42 40.541 155.021 40.123 154.74C39.7051 154.459 39.207 154.318 38.6289 154.318C38.0547 154.318 37.5586 154.459 37.1406 154.74C36.7227 155.021 36.3984 155.42 36.168 155.936C35.9414 156.451 35.8281 157.061 35.8281 157.764V157.775C35.8281 158.471 35.9395 159.078 36.1621 159.598C36.3848 160.113 36.7051 160.514 37.123 160.799C37.541 161.084 38.043 161.227 38.6289 161.227ZM44.2656 162V153.176H45.2852V162H44.2656ZM49.5742 162.111C49.043 162.111 48.5781 161.977 48.1797 161.707C47.7812 161.438 47.4727 161.059 47.2539 160.57C47.0352 160.078 46.9258 159.504 46.9258 158.848V158.836C46.9258 158.176 47.0352 157.602 47.2539 157.113C47.4727 156.625 47.7793 156.246 48.1738 155.977C48.5723 155.707 49.0391 155.572 49.5742 155.572C49.8633 155.572 50.1348 155.619 50.3887 155.713C50.6465 155.803 50.875 155.93 51.0742 156.094C51.2734 156.258 51.4297 156.453 51.543 156.68H51.6367V153.176H52.6562V162H51.6367V160.992H51.543C51.4141 161.227 51.252 161.428 51.0566 161.596C50.8613 161.76 50.6387 161.887 50.3887 161.977C50.1387 162.066 49.8672 162.111 49.5742 162.111ZM49.8086 161.209C50.1914 161.209 50.5215 161.113 50.7988 160.922C51.0762 160.73 51.2891 160.459 51.4375 160.107C51.5859 159.752 51.6602 159.332 51.6602 158.848V158.836C51.6602 158.348 51.5859 157.928 51.4375 157.576C51.2891 157.225 51.0762 156.953 50.7988 156.762C50.5215 156.57 50.1914 156.475 49.8086 156.475C49.4258 156.475 49.0957 156.57 48.8184 156.762C48.5449 156.949 48.334 157.219 48.1855 157.57C48.041 157.922 47.9688 158.344 47.9688 158.836V158.848C47.9688 159.336 48.041 159.758 48.1855 160.113C48.334 160.465 48.5449 160.736 48.8184 160.928C49.0957 161.115 49.4258 161.209 49.8086 161.209ZM57.1914 162.111C56.5898 162.111 56.0723 161.979 55.6387 161.713C55.209 161.447 54.877 161.072 54.6426 160.588C54.4121 160.1 54.2969 159.525 54.2969 158.865V158.859C54.2969 158.207 54.4121 157.635 54.6426 157.143C54.877 156.65 55.207 156.266 55.6328 155.988C56.0586 155.711 56.5566 155.572 57.127 155.572C57.7012 155.572 58.1934 155.705 58.6035 155.971C59.0176 156.236 59.334 156.607 59.5527 157.084C59.7754 157.557 59.8867 158.107 59.8867 158.736V159.135H54.8242V158.32H59.3652L58.8613 159.064V158.66C58.8613 158.164 58.7871 157.756 58.6387 157.436C58.4902 157.115 58.2852 156.877 58.0234 156.721C57.7617 156.561 57.4609 156.48 57.1211 156.48C56.7812 156.48 56.4766 156.564 56.207 156.732C55.9414 156.896 55.7305 157.141 55.5742 157.465C55.418 157.789 55.3398 158.188 55.3398 158.66V159.064C55.3398 159.514 55.416 159.898 55.5684 160.219C55.7207 160.535 55.9375 160.779 56.2188 160.951C56.5 161.119 56.832 161.203 57.2148 161.203C57.5 161.203 57.748 161.164 57.959 161.086C58.1699 161.008 58.3438 160.908 58.4805 160.787C58.6172 160.666 58.7129 160.543 58.7676 160.418L58.791 160.365H59.8105L59.7988 160.412C59.7441 160.627 59.6465 160.836 59.5059 161.039C59.3691 161.238 59.1914 161.42 58.9727 161.584C58.7539 161.744 58.4941 161.873 58.1934 161.971C57.8965 162.064 57.5625 162.111 57.1914 162.111ZM63.6367 162.111C63.168 162.111 62.7539 162.041 62.3945 161.9C62.0352 161.756 61.7461 161.555 61.5273 161.297C61.3125 161.039 61.1855 160.736 61.1465 160.389H62.1895C62.2754 160.65 62.4434 160.861 62.6934 161.021C62.9434 161.182 63.2695 161.262 63.6719 161.262C63.957 161.262 64.207 161.221 64.4219 161.139C64.6406 161.053 64.8125 160.938 64.9375 160.793C65.0625 160.645 65.125 160.475 65.125 160.283V160.271C65.125 160.057 65.0391 159.875 64.8672 159.727C64.6953 159.574 64.4141 159.451 64.0234 159.357L63.0449 159.123C62.6504 159.029 62.3262 158.908 62.0723 158.76C61.8184 158.607 61.6309 158.422 61.5098 158.203C61.3887 157.98 61.3281 157.719 61.3281 157.418V157.412C61.3281 157.061 61.4297 156.746 61.6328 156.469C61.8398 156.191 62.1211 155.973 62.4766 155.812C62.832 155.652 63.2324 155.572 63.6777 155.572C64.1191 155.572 64.5098 155.643 64.8496 155.783C65.1934 155.92 65.4688 156.115 65.6758 156.369C65.8867 156.623 66.0156 156.922 66.0625 157.266H65.0605C64.9941 157.016 64.8418 156.812 64.6035 156.656C64.3652 156.5 64.0547 156.422 63.6719 156.422C63.4219 156.422 63.1992 156.463 63.0039 156.545C62.8086 156.623 62.6543 156.732 62.541 156.873C62.4277 157.014 62.3711 157.178 62.3711 157.365V157.377C62.3711 157.518 62.4082 157.643 62.4824 157.752C62.5566 157.861 62.6719 157.957 62.8281 158.039C62.9844 158.121 63.1855 158.193 63.4316 158.256L64.4043 158.49C64.998 158.635 65.4395 158.842 65.7285 159.111C66.0215 159.381 66.168 159.742 66.168 160.195V160.207C66.168 160.582 66.0566 160.914 65.834 161.203C65.6113 161.488 65.3086 161.711 64.9258 161.871C64.5469 162.031 64.1172 162.111 63.6367 162.111ZM69.9355 162.047C69.2871 162.047 68.8164 161.916 68.5234 161.654C68.2344 161.393 68.0898 160.961 68.0898 160.359V156.527H67.0938V155.684H68.0898V154.049H69.1445V155.684H70.5273V156.527H69.1445V160.102C69.1445 160.473 69.2148 160.74 69.3555 160.904C69.4961 161.064 69.7305 161.145 70.0586 161.145C70.1484 161.145 70.2246 161.143 70.2871 161.139C70.3535 161.135 70.4336 161.129 70.5273 161.121V161.988C70.4297 162.004 70.332 162.018 70.2344 162.029C70.1367 162.041 70.0371 162.047 69.9355 162.047ZM75.8477 162V156.527H74.7988V155.684H75.8477V154.98C75.8477 154.559 75.916 154.211 76.0527 153.938C76.1934 153.66 76.4004 153.455 76.6738 153.322C76.9473 153.186 77.2832 153.117 77.6816 153.117C77.8066 153.117 77.9238 153.123 78.0332 153.135C78.1465 153.143 78.2559 153.156 78.3613 153.176V153.99C78.2988 153.979 78.2266 153.971 78.1445 153.967C78.0625 153.963 77.9766 153.961 77.8867 153.961C77.5234 153.961 77.2617 154.049 77.1016 154.225C76.9453 154.4 76.8672 154.662 76.8672 155.01V155.684H78.3027V156.527H76.8672V162H75.8477ZM79.7969 162V155.684H80.8164V162H79.7969ZM80.3125 154.465C80.1211 154.465 79.9551 154.396 79.8145 154.26C79.6777 154.119 79.6094 153.953 79.6094 153.762C79.6094 153.566 79.6777 153.4 79.8145 153.264C79.9551 153.127 80.1211 153.059 80.3125 153.059C80.5078 153.059 80.6738 153.127 80.8105 153.264C80.9473 153.4 81.0156 153.566 81.0156 153.762C81.0156 153.953 80.9473 154.119 80.8105 154.26C80.6738 154.396 80.5078 154.465 80.3125 154.465ZM82.7383 162V155.684H83.7578V156.621H83.8516C83.9727 156.289 84.1777 156.031 84.4668 155.848C84.7559 155.664 85.1133 155.572 85.5391 155.572C85.6367 155.572 85.7324 155.578 85.8262 155.59C85.9238 155.598 85.998 155.605 86.0488 155.613V156.604C85.9434 156.584 85.8398 156.57 85.7383 156.562C85.6406 156.551 85.5352 156.545 85.4219 156.545C85.0977 156.545 84.8105 156.609 84.5605 156.738C84.3105 156.867 84.1133 157.047 83.9688 157.277C83.8281 157.508 83.7578 157.777 83.7578 158.086V162H82.7383ZM89.3594 162.111C88.8906 162.111 88.4766 162.041 88.1172 161.9C87.7578 161.756 87.4688 161.555 87.25 161.297C87.0352 161.039 86.9082 160.736 86.8691 160.389H87.9121C87.998 160.65 88.166 160.861 88.416 161.021C88.666 161.182 88.9922 161.262 89.3945 161.262C89.6797 161.262 89.9297 161.221 90.1445 161.139C90.3633 161.053 90.5352 160.938 90.6602 160.793C90.7852 160.645 90.8477 160.475 90.8477 160.283V160.271C90.8477 160.057 90.7617 159.875 90.5898 159.727C90.418 159.574 90.1367 159.451 89.7461 159.357L88.7676 159.123C88.373 159.029 88.0488 158.908 87.7949 158.76C87.541 158.607 87.3535 158.422 87.2324 158.203C87.1113 157.98 87.0508 157.719 87.0508 157.418V157.412C87.0508 157.061 87.1523 156.746 87.3555 156.469C87.5625 156.191 87.8438 155.973 88.1992 155.812C88.5547 155.652 88.9551 155.572 89.4004 155.572C89.8418 155.572 90.2324 155.643 90.5723 155.783C90.916 155.92 91.1914 156.115 91.3984 156.369C91.6094 156.623 91.7383 156.922 91.7852 157.266H90.7832C90.7168 157.016 90.5645 156.812 90.3262 156.656C90.0879 156.5 89.7773 156.422 89.3945 156.422C89.1445 156.422 88.9219 156.463 88.7266 156.545C88.5312 156.623 88.377 156.732 88.2637 156.873C88.1504 157.014 88.0938 157.178 88.0938 157.365V157.377C88.0938 157.518 88.1309 157.643 88.2051 157.752C88.2793 157.861 88.3945 157.957 88.5508 158.039C88.707 158.121 88.9082 158.193 89.1543 158.256L90.127 158.49C90.7207 158.635 91.1621 158.842 91.4512 159.111C91.7441 159.381 91.8906 159.742 91.8906 160.195V160.207C91.8906 160.582 91.7793 160.914 91.5566 161.203C91.334 161.488 91.0312 161.711 90.6484 161.871C90.2695 162.031 89.8398 162.111 89.3594 162.111ZM95.6582 162.047C95.0098 162.047 94.5391 161.916 94.2461 161.654C93.957 161.393 93.8125 160.961 93.8125 160.359V156.527H92.8164V155.684H93.8125V154.049H94.8672V155.684H96.25V156.527H94.8672V160.102C94.8672 160.473 94.9375 160.74 95.0781 160.904C95.2188 161.064 95.4531 161.145 95.7812 161.145C95.8711 161.145 95.9473 161.143 96.0098 161.139C96.0762 161.135 96.1562 161.129 96.25 161.121V161.988C96.1523 162.004 96.0547 162.018 95.957 162.029C95.8594 162.041 95.7598 162.047 95.6582 162.047Z" fill="black"/>
<path fill-rule="evenodd" clip-rule="evenodd" d="M27.8243 179.375C28.0586 179.609 28.0586 179.989 27.8243 180.223L20.5364 187.511C20.1849 187.863 19.6151 187.863 19.2636 187.511L16.1757 184.423C15.9414 184.189 15.9414 183.809 16.1757 183.575C16.4101 183.341 16.7899 183.341 17.0243 183.575L19.9 186.451L26.9757 179.375C27.2101 179.141 27.5899 179.141 27.8243 179.375Z" fill="#606572"/>
<path d="M35.0781 188V179.545H36.1035L40.9492 186.494L40.2461 186.125H40.7852V179.545H41.8281V188H40.8027L35.957 181.074L36.6602 181.443H36.1211V188H35.0781ZM46.4336 188.111C45.832 188.111 45.3145 187.979 44.8809 187.713C44.4512 187.447 44.1191 187.072 43.8848 186.588C43.6543 186.1 43.5391 185.525 43.5391 184.865V184.859C43.5391 184.207 43.6543 183.635 43.8848 183.143C44.1191 182.65 44.4492 182.266 44.875 181.988C45.3008 181.711 45.7988 181.572 46.3691 181.572C46.9434 181.572 47.4355 181.705 47.8457 181.971C48.2598 182.236 48.5762 182.607 48.7949 183.084C49.0176 183.557 49.1289 184.107 49.1289 184.736V185.135H44.0664V184.32H48.6074L48.1035 185.064V184.66C48.1035 184.164 48.0293 183.756 47.8809 183.436C47.7324 183.115 47.5273 182.877 47.2656 182.721C47.0039 182.561 46.7031 182.48 46.3633 182.48C46.0234 182.48 45.7188 182.564 45.4492 182.732C45.1836 182.896 44.9727 183.141 44.8164 183.465C44.6602 183.789 44.582 184.188 44.582 184.66V185.064C44.582 185.514 44.6582 185.898 44.8105 186.219C44.9629 186.535 45.1797 186.779 45.4609 186.951C45.7422 187.119 46.0742 187.203 46.457 187.203C46.7422 187.203 46.9902 187.164 47.2012 187.086C47.4121 187.008 47.5859 186.908 47.7227 186.787C47.8594 186.666 47.9551 186.543 48.0098 186.418L48.0332 186.365H49.0527L49.041 186.412C48.9863 186.627 48.8887 186.836 48.748 187.039C48.6113 187.238 48.4336 187.42 48.2148 187.584C47.9961 187.744 47.7363 187.873 47.4355 187.971C47.1387 188.064 46.8047 188.111 46.4336 188.111ZM51.9297 188L50.1602 181.684H51.1797L52.4219 186.734H52.5156L53.9277 181.684H54.8945L56.3066 186.734H56.4004L57.6426 181.684H58.6562L56.8867 188H55.8613L54.4492 183.113H54.3555L52.9492 188H51.9297ZM62.3477 188.111C61.7461 188.111 61.2285 187.979 60.7949 187.713C60.3652 187.447 60.0332 187.072 59.7988 186.588C59.5684 186.1 59.4531 185.525 59.4531 184.865V184.859C59.4531 184.207 59.5684 183.635 59.7988 183.143C60.0332 182.65 60.3633 182.266 60.7891 181.988C61.2148 181.711 61.7129 181.572 62.2832 181.572C62.8574 181.572 63.3496 181.705 63.7598 181.971C64.1738 182.236 64.4902 182.607 64.709 183.084C64.9316 183.557 65.043 184.107 65.043 184.736V185.135H59.9805V184.32H64.5215L64.0176 185.064V184.66C64.0176 184.164 63.9434 183.756 63.7949 183.436C63.6465 183.115 63.4414 182.877 63.1797 182.721C62.918 182.561 62.6172 182.48 62.2773 182.48C61.9375 182.48 61.6328 182.564 61.3633 182.732C61.0977 182.896 60.8867 183.141 60.7305 183.465C60.5742 183.789 60.4961 184.188 60.4961 184.66V185.064C60.4961 185.514 60.5723 185.898 60.7246 186.219C60.877 186.535 61.0938 186.779 61.375 186.951C61.6562 187.119 61.9883 187.203 62.3711 187.203C62.6562 187.203 62.9043 187.164 63.1152 187.086C63.3262 187.008 63.5 186.908 63.6367 186.787C63.7734 186.666 63.8691 186.543 63.9238 186.418L63.9473 186.365H64.9668L64.9551 186.412C64.9004 186.627 64.8027 186.836 64.6621 187.039C64.5254 187.238 64.3477 187.42 64.1289 187.584C63.9102 187.744 63.6504 187.873 63.3496 187.971C63.0527 188.064 62.7188 188.111 62.3477 188.111ZM68.793 188.111C68.3242 188.111 67.9102 188.041 67.5508 187.9C67.1914 187.756 66.9023 187.555 66.6836 187.297C66.4688 187.039 66.3418 186.736 66.3027 186.389H67.3457C67.4316 186.65 67.5996 186.861 67.8496 187.021C68.0996 187.182 68.4258 187.262 68.8281 187.262C69.1133 187.262 69.3633 187.221 69.5781 187.139C69.7969 187.053 69.9688 186.938 70.0938 186.793C70.2188 186.645 70.2812 186.475 70.2812 186.283V186.271C70.2812 186.057 70.1953 185.875 70.0234 185.727C69.8516 185.574 69.5703 185.451 69.1797 185.357L68.2012 185.123C67.8066 185.029 67.4824 184.908 67.2285 184.76C66.9746 184.607 66.7871 184.422 66.666 184.203C66.5449 183.98 66.4844 183.719 66.4844 183.418V183.412C66.4844 183.061 66.5859 182.746 66.7891 182.469C66.9961 182.191 67.2773 181.973 67.6328 181.812C67.9883 181.652 68.3887 181.572 68.834 181.572C69.2754 181.572 69.666 181.643 70.0059 181.783C70.3496 181.92 70.625 182.115 70.832 182.369C71.043 182.623 71.1719 182.922 71.2188 183.266H70.2168C70.1504 183.016 69.998 182.812 69.7598 182.656C69.5215 182.5 69.2109 182.422 68.8281 182.422C68.5781 182.422 68.3555 182.463 68.1602 182.545C67.9648 182.623 67.8105 182.732 67.6973 182.873C67.584 183.014 67.5273 183.178 67.5273 183.365V183.377C67.5273 183.518 67.5645 183.643 67.6387 183.752C67.7129 183.861 67.8281 183.957 67.9844 184.039C68.1406 184.121 68.3418 184.193 68.5879 184.256L69.5605 184.49C70.1543 184.635 70.5957 184.842 70.8848 185.111C71.1777 185.381 71.3242 185.742 71.3242 186.195V186.207C71.3242 186.582 71.2129 186.914 70.9902 187.203C70.7676 187.488 70.4648 187.711 70.082 187.871C69.7031 188.031 69.2734 188.111 68.793 188.111ZM75.0918 188.047C74.4434 188.047 73.9727 187.916 73.6797 187.654C73.3906 187.393 73.2461 186.961 73.2461 186.359V182.527H72.25V181.684H73.2461V180.049H74.3008V181.684H75.6836V182.527H74.3008V186.102C74.3008 186.473 74.3711 186.74 74.5117 186.904C74.6523 187.064 74.8867 187.145 75.2148 187.145C75.3047 187.145 75.3809 187.143 75.4434 187.139C75.5098 187.135 75.5898 187.129 75.6836 187.121V187.988C75.5859 188.004 75.4883 188.018 75.3906 188.029C75.293 188.041 75.1934 188.047 75.0918 188.047ZM81.0039 188V182.527H79.9551V181.684H81.0039V180.98C81.0039 180.559 81.0723 180.211 81.209 179.938C81.3496 179.66 81.5566 179.455 81.8301 179.322C82.1035 179.186 82.4395 179.117 82.8379 179.117C82.9629 179.117 83.0801 179.123 83.1895 179.135C83.3027 179.143 83.4121 179.156 83.5176 179.176V179.99C83.4551 179.979 83.3828 179.971 83.3008 179.967C83.2188 179.963 83.1328 179.961 83.043 179.961C82.6797 179.961 82.418 180.049 82.2578 180.225C82.1016 180.4 82.0234 180.662 82.0234 181.01V181.684H83.459V182.527H82.0234V188H81.0039ZM84.9531 188V181.684H85.9727V188H84.9531ZM85.4688 180.465C85.2773 180.465 85.1113 180.396 84.9707 180.26C84.834 180.119 84.7656 179.953 84.7656 179.762C84.7656 179.566 84.834 179.4 84.9707 179.264C85.1113 179.127 85.2773 179.059 85.4688 179.059C85.6641 179.059 85.8301 179.127 85.9668 179.264C86.1035 179.4 86.1719 179.566 86.1719 179.762C86.1719 179.953 86.1035 180.119 85.9668 180.26C85.8301 180.396 85.6641 180.465 85.4688 180.465ZM87.8945 188V181.684H88.9141V182.621H89.0078C89.1289 182.289 89.334 182.031 89.623 181.848C89.9121 181.664 90.2695 181.572 90.6953 181.572C90.793 181.572 90.8887 181.578 90.9824 181.59C91.0801 181.598 91.1543 181.605 91.2051 181.613V182.604C91.0996 182.584 90.9961 182.57 90.8945 182.562C90.7969 182.551 90.6914 182.545 90.5781 182.545C90.2539 182.545 89.9668 182.609 89.7168 182.738C89.4668 182.867 89.2695 183.047 89.125 183.277C88.9844 183.508 88.9141 183.777 88.9141 184.086V188H87.8945ZM94.5156 188.111C94.0469 188.111 93.6328 188.041 93.2734 187.9C92.9141 187.756 92.625 187.555 92.4062 187.297C92.1914 187.039 92.0645 186.736 92.0254 186.389H93.0684C93.1543 186.65 93.3223 186.861 93.5723 187.021C93.8223 187.182 94.1484 187.262 94.5508 187.262C94.8359 187.262 95.0859 187.221 95.3008 187.139C95.5195 187.053 95.6914 186.938 95.8164 186.793C95.9414 186.645 96.0039 186.475 96.0039 186.283V186.271C96.0039 186.057 95.918 185.875 95.7461 185.727C95.5742 185.574 95.293 185.451 94.9023 185.357L93.9238 185.123C93.5293 185.029 93.2051 184.908 92.9512 184.76C92.6973 184.607 92.5098 184.422 92.3887 184.203C92.2676 183.98 92.207 183.719 92.207 183.418V183.412C92.207 183.061 92.3086 182.746 92.5117 182.469C92.7188 182.191 93 181.973 93.3555 181.812C93.7109 181.652 94.1113 181.572 94.5566 181.572C94.998 181.572 95.3887 181.643 95.7285 181.783C96.0723 181.92 96.3477 182.115 96.5547 182.369C96.7656 182.623 96.8945 182.922 96.9414 183.266H95.9395C95.873 183.016 95.7207 182.812 95.4824 182.656C95.2441 182.5 94.9336 182.422 94.5508 182.422C94.3008 182.422 94.0781 182.463 93.8828 182.545C93.6875 182.623 93.5332 182.732 93.4199 182.873C93.3066 183.014 93.25 183.178 93.25 183.365V183.377C93.25 183.518 93.2871 183.643 93.3613 183.752C93.4355 183.861 93.5508 183.957 93.707 184.039C93.8633 184.121 94.0645 184.193 94.3105 184.256L95.2832 184.49C95.877 184.635 96.3184 184.842 96.6074 185.111C96.9004 185.381 97.0469 185.742 97.0469 186.195V186.207C97.0469 186.582 96.9355 186.914 96.7129 187.203C96.4902 187.488 96.1875 187.711 95.8047 187.871C95.4258 188.031 94.9961 188.111 94.5156 188.111ZM100.814 188.047C100.166 188.047 99.6953 187.916 99.4023 187.654C99.1133 187.393 98.9688 186.961 98.9688 186.359V182.527H97.9727V181.684H98.9688V180.049H100.023V181.684H101.406V182.527H100.023V186.102C100.023 186.473 100.094 186.74 100.234 186.904C100.375 187.064 100.609 187.145 100.938 187.145C101.027 187.145 101.104 187.143 101.166 187.139C101.232 187.135 101.312 187.129 101.406 187.121V187.988C101.309 188.004 101.211 188.018 101.113 188.029C101.016 188.041 100.916 188.047 100.814 188.047Z" fill="black"/>
</svg>
