<svg width="24" height="24" viewBox="0 0 24 24" fill="none" xmlns="http://www.w3.org/2000/svg">
<path d="M4.36244 4.73432C6.81648 4.5522 9.23386 3.71014 11.3489 2.20813C11.7372 1.93242 12.2613 1.93242 12.6495 2.20813C14.7646 3.71014 17.182 4.5522 19.636 4.73432C20.1968 4.77593 20.654 5.23427 20.6468 5.79652C20.4823 18.7051 17.1587 20.0272 12.4121 21.9154L12.3783 21.9289C12.1354 22.0255 11.8631 22.0255 11.6202 21.9289L11.5864 21.9154C6.83974 20.0272 3.51613 18.7051 3.35165 5.79652C3.34448 5.23427 3.80169 4.77593 4.36244 4.73432Z" fill="#FF3B6C"/>
<path d="M8.52929 15.9713V7.82635H10.2513V11.1869H13.7471V7.82635H15.4652V15.9713H13.7471V12.6067H10.2513V15.9713H8.52929Z" fill="black"/>
</svg>
