<svg width="24" height="24" viewBox="0 0 24 24" fill="none" xmlns="http://www.w3.org/2000/svg">
<path fill-rule="evenodd" clip-rule="evenodd" d="M2.29289 2.29301C2.68342 1.90249 3.31676 1.90249 3.70728 2.29301L21.707 20.2927L21.7753 20.3692C22.0956 20.762 22.073 21.341 21.707 21.7071C21.3409 22.0732 20.7618 22.0957 20.3691 21.7754L20.2926 21.7071L17.511 18.9255C16.1486 20.4237 14.4092 21.1214 12.4133 21.9154L12.3792 21.9284C12.1363 22.025 11.8636 22.0251 11.6207 21.9284L11.5865 21.9154C6.84008 20.0273 3.51695 18.7038 3.35246 5.79562C3.34892 5.51198 3.46382 5.25517 3.65032 5.06482L2.29289 3.7074C1.90237 3.31688 1.90237 2.68354 2.29289 2.29301Z" fill="#9DA3B4"/>
<path d="M11.3489 2.20675C11.7371 1.93106 12.2627 1.9311 12.651 2.20675C14.7659 3.70868 17.1827 4.55228 19.6366 4.73442C20.1973 4.77603 20.6544 5.2335 20.6474 5.79562C20.5928 10.0772 20.1862 13.0828 19.4999 15.2585L17.8463 13.6032L9.70826 5.46521L8.14576 3.90271C9.26279 3.48665 10.3405 2.92283 11.3489 2.20675Z" fill="#9DA3B4"/>
</svg>
