<svg width="24" height="24" viewBox="0 0 24 24" fill="none" xmlns="http://www.w3.org/2000/svg">
<path d="M4.36244 4.7331C6.81648 4.55098 9.23386 3.70892 11.3489 2.20691C11.7372 1.93119 12.2613 1.93119 12.6495 2.20691C14.7646 3.70892 17.182 4.55098 19.636 4.7331C20.1968 4.77471 20.654 5.23305 20.6468 5.7953C20.4823 18.7038 17.1587 20.026 12.4121 21.9142L12.3783 21.9276C12.1354 22.0243 11.8631 22.0243 11.6202 21.9276L11.5864 21.9142C6.83974 20.026 3.51613 18.7038 3.35165 5.7953C3.34448 5.23305 3.80169 4.77471 4.36244 4.7331Z" fill="#D8C461"/>
<path d="M9.53 15.9701V7.82513H11.252V14.5503H14.7439V15.9701H9.53Z" fill="black"/>
</svg>
