<svg width="24" height="24" viewBox="0 0 24 24" fill="none" xmlns="http://www.w3.org/2000/svg">
<circle cx="11.9992" cy="12" r="10.2" stroke="#FE0000" stroke-width="1.2"/>
<circle cx="11.9992" cy="12" r="10.8" fill="#E70205"/>
<path fill-rule="evenodd" clip-rule="evenodd" d="M6.39688 11.6002C6.39688 8.77626 8.85487 6.40017 11.9969 6.40017C15.1389 6.40017 17.5969 8.77626 17.5969 11.6002C17.5969 12.9027 17.0809 14.099 16.2143 15.0199C16.0746 15.1683 15.9969 15.3644 15.9969 15.5682V17.6002H14.397V16.0008C14.397 15.559 14.0389 15.2008 13.597 15.2008C13.1552 15.2008 12.797 15.559 12.797 16.0008V17.6002H11.1969V16.0008C11.1969 15.559 10.8387 15.2008 10.3969 15.2008C9.95505 15.2008 9.59688 15.559 9.59688 16.0008V17.6002H7.99688V15.5682C7.99688 15.3643 7.91904 15.1681 7.77927 15.0197C6.91295 14.0998 6.39688 12.9036 6.39688 11.6002ZM8.46566 10.0688C8.76572 9.76874 9.17268 9.60017 9.59703 9.60017C10.0214 9.60017 10.4283 9.76874 10.7284 10.0688C11.0285 10.3689 11.197 10.7758 11.197 11.2002C11.197 11.6245 11.0285 12.0315 10.7284 12.3315C10.4283 12.6316 10.0214 12.8002 9.59703 12.8002C9.17268 12.8002 8.76572 12.6316 8.46566 12.3315C8.1656 12.0315 7.99703 11.6245 7.99703 11.2002C7.99703 10.7758 8.1656 10.3689 8.46566 10.0688ZM14.397 9.60017C13.9727 9.60017 13.5657 9.76874 13.2657 10.0688C12.9656 10.3689 12.797 10.7758 12.797 11.2002C12.797 11.6245 12.9656 12.0315 13.2657 12.3315C13.5657 12.6316 13.9727 12.8002 14.397 12.8002C14.8214 12.8002 15.2283 12.6316 15.5284 12.3315C15.8285 12.0315 15.997 11.6245 15.997 11.2002C15.997 10.7758 15.8285 10.3689 15.5284 10.0688C15.2283 9.76874 14.8214 9.60017 14.397 9.60017Z" fill="white"/>
</svg>
