<svg width="24" height="24" viewBox="0 0 24 24" fill="none" xmlns="http://www.w3.org/2000/svg">
<path d="M4.36244 4.73285C6.81648 4.55074 9.23386 3.70867 11.3489 2.20666C11.7372 1.93095 12.2613 1.93095 12.6495 2.20666C14.7646 3.70867 17.182 4.55074 19.636 4.73285C20.1968 4.77447 20.654 5.23281 20.6468 5.79505C20.4823 18.7036 17.1587 20.0257 12.4121 21.914L12.3783 21.9274C12.1354 22.024 11.8631 22.024 11.6202 21.9274L11.5864 21.914C6.83974 20.0257 3.51613 18.7036 3.35165 5.79505C3.34448 5.23281 3.80169 4.77447 4.36244 4.73285Z" fill="#FF7B00"/>
<path d="M7.53404 7.82489H9.65776L11.9008 13.2973H11.9962L14.2393 7.82489H16.363V15.9698H14.6927V10.6685H14.625L12.5172 15.93H11.3798L9.27199 10.6486H9.20438V15.9698H7.53404V7.82489Z" fill="black"/>
</svg>
