<svg width="24" height="24" viewBox="0 0 24 24" fill="none" xmlns="http://www.w3.org/2000/svg">
<path fill-rule="evenodd" clip-rule="evenodd" d="M11.9992 19.8864C9.76743 18.9916 8.44377 18.3649 7.44805 16.8624C6.39644 15.2756 5.55411 12.4337 5.40502 6.67189C7.71237 6.36812 9.96734 5.55201 11.9992 4.22689C14.0311 5.55201 16.2861 6.36812 18.5934 6.67189C18.4443 12.4337 17.602 15.2756 16.5504 16.8624C15.5547 18.3649 14.231 18.9916 11.9992 19.8864ZM12.4121 21.9141C17.1587 20.0259 20.4823 18.7037 20.6468 5.79518C20.654 5.23293 20.1968 4.77459 19.636 4.73298C17.182 4.55086 14.7646 3.7088 12.6495 2.20678C12.2613 1.93107 11.7372 1.93107 11.3489 2.20678C9.23386 3.7088 6.81648 4.55086 4.36244 4.73298C3.80169 4.77459 3.34448 5.23293 3.35165 5.79518C3.51613 18.7037 6.83974 20.0259 11.5864 21.9141L11.6202 21.9275C11.8631 22.0242 12.1354 22.0242 12.3783 21.9275L12.4121 21.9141Z" fill="#39A42C"/>
<path d="M16.357 9.29289C15.9665 8.90237 15.3333 8.90237 14.9428 9.29289L11.3213 12.9144L9.90644 11.4995C9.51591 11.109 8.88275 11.109 8.49222 11.4995C8.1017 11.8901 8.1017 12.5232 8.49222 12.9138L10.5901 15.0116C10.5978 15.0199 10.6057 15.0281 10.6138 15.0361C11.0043 15.4266 11.6375 15.4266 12.028 15.0361L16.357 10.7071C16.7475 10.3166 16.7475 9.68342 16.357 9.29289Z" fill="#39A42C"/>
</svg>
