<svg width="16" height="16" viewBox="0 0 16 16" fill="none" xmlns="http://www.w3.org/2000/svg">
    <path fill-rule="evenodd" clip-rule="evenodd" d="M7.47991 0.165793C5.78787 1.3674 3.85396 2.04105 1.89073 2.18675C1.44214 2.22004 1.07637 2.58671 1.0821 3.03651C1.21369 13.3633 3.87258 14.4211 7.6699 15.9316L7.69692 15.9424C7.89125 16.0197 8.10908 16.0197 8.30341 15.9424L8.33043 15.9316C12.1278 14.4211 14.7866 13.3633 14.9182 3.03651C14.924 2.58671 14.5582 2.22004 14.1096 2.18675C12.1464 2.04105 10.2125 1.3674 8.52042 0.165793C8.20982 -0.0547759 7.79051 -0.0547759 7.47991 0.165793ZM6.25313 10.898C6.72188 11.185 7.28296 11.3284 7.93636 11.3284C8.48466 11.3284 8.96193 11.229 9.36818 11.0301C9.77443 10.8284 10.0955 10.55 10.3313 10.1949C10.567 9.83694 10.7034 9.42643 10.7403 8.96336H9.26591C9.22046 9.19916 9.13665 9.39944 9.01449 9.56422C8.89233 9.72899 8.74034 9.85541 8.55852 9.94348C8.37955 10.0287 8.17642 10.0713 7.94915 10.0713C7.62813 10.0713 7.3483 9.98609 7.10966 9.81564C6.87386 9.64234 6.69063 9.3966 6.55994 9.07842C6.42926 8.7574 6.36392 8.37387 6.36392 7.92785C6.36392 7.48751 6.42926 7.10967 6.55994 6.79433C6.69347 6.47899 6.87955 6.23751 7.11818 6.0699C7.35682 5.89944 7.63381 5.81422 7.94915 5.81422C8.32131 5.81422 8.61818 5.92075 8.83977 6.13382C9.06421 6.34404 9.20625 6.60683 9.26591 6.92217H10.7403C10.7063 6.45058 10.567 6.03865 10.3227 5.68637C10.0784 5.33126 9.75029 5.05711 9.33835 4.86393C8.92926 4.66791 8.45909 4.5699 7.92784 4.5699C7.28864 4.5699 6.73466 4.71336 6.26591 5.00029C5.8 5.28439 5.4392 5.68211 5.18352 6.19348C4.92784 6.702 4.8 7.28865 4.8 7.95342C4.8 8.61535 4.925 9.20058 5.175 9.7091C5.42784 10.2148 5.78722 10.6111 6.25313 10.898Z" fill="#E81C26"/>
    <path d="M7.93636 11.3284C7.28296 11.3284 6.72188 11.185 6.25313 10.898C5.78722 10.6111 5.42784 10.2148 5.175 9.7091C4.925 9.20058 4.8 8.61535 4.8 7.95342C4.8 7.28865 4.92784 6.702 5.18352 6.19348C5.4392 5.68211 5.8 5.28439 6.26591 5.00029C6.73466 4.71336 7.28864 4.5699 7.92784 4.5699C8.45909 4.5699 8.92926 4.66791 9.33835 4.86393C9.75029 5.05711 10.0784 5.33126 10.3227 5.68637C10.567 6.03865 10.7063 6.45058 10.7403 6.92217H9.26591C9.20625 6.60683 9.06421 6.34404 8.83977 6.13382C8.61818 5.92075 8.32131 5.81422 7.94915 5.81422C7.63381 5.81422 7.35682 5.89944 7.11818 6.0699C6.87955 6.23751 6.69347 6.47899 6.55994 6.79433C6.42926 7.10967 6.36392 7.48751 6.36392 7.92785C6.36392 8.37387 6.42926 8.7574 6.55994 9.07842C6.69063 9.3966 6.87386 9.64234 7.10966 9.81564C7.3483 9.98609 7.62813 10.0713 7.94915 10.0713C8.17642 10.0713 8.37955 10.0287 8.55852 9.94348C8.74034 9.85541 8.89233 9.72899 9.01449 9.56422C9.13665 9.39944 9.22046 9.19916 9.26591 8.96336H10.7403C10.7034 9.42643 10.567 9.83694 10.3313 10.1949C10.0955 10.55 9.77443 10.8284 9.36818 11.0301C8.96193 11.229 8.48466 11.3284 7.93636 11.3284Z" fill="black"/>
</svg>
