<svg width="16" height="16" viewBox="0 0 16 16" fill="none" xmlns="http://www.w3.org/2000/svg">
    <path d="M1.89073 2.18675C3.85396 2.04105 5.78787 1.3674 7.47991 0.165793C7.79051 -0.0547759 8.20982 -0.0547759 8.52041 0.165793C10.2125 1.3674 12.1464 2.04105 14.1096 2.18675C14.5582 2.22004 14.924 2.58671 14.9182 3.03651C14.7866 13.3633 12.1278 14.4211 8.33043 15.9316L8.30341 15.9424C8.10908 16.0197 7.89125 16.0197 7.69692 15.9424L7.6699 15.9316C3.87258 14.4211 1.21369 13.3633 1.0821 3.03651C1.07637 2.58671 1.44214 2.22004 1.89073 2.18675Z" fill="#D8C461"/>
    <path d="M6.02478 11.1763V4.66038H7.40242V10.0405H10.1959V11.1763H6.02478Z" fill="black"/>
</svg>
