<svg width="16" height="16" viewBox="0 0 16 16" fill="none" xmlns="http://www.w3.org/2000/svg">
    <path d="M1.89073 2.18638C3.85396 2.04069 5.78787 1.36704 7.47991 0.165426C7.79051 -0.0551421 8.20982 -0.0551421 8.52041 0.165426C10.2125 1.36704 12.1464 2.04069 14.1096 2.18638C14.5582 2.21967 14.924 2.58635 14.9182 3.03614C14.7866 13.363 12.1278 14.4207 8.33043 15.9313L8.30341 15.942C8.10908 16.0193 7.89125 16.0193 7.69692 15.942L7.6699 15.9313C3.87258 14.4207 1.21369 13.363 1.0821 3.03614C1.07637 2.58635 1.44214 2.21967 1.89073 2.18638Z" fill="#FFA100"/>
    <path d="M4.42801 4.66001H6.12699L7.92142 9.0379H7.99778L9.7922 4.66001H11.4912V11.1759H10.1549V6.93486H10.1008L8.41457 11.1441H7.50463L5.81838 6.91895H5.76429V11.1759H4.42801V4.66001Z" fill="white"/>
</svg>
