<svg width="16" height="16" viewBox="0 0 16 16" fill="none" xmlns="http://www.w3.org/2000/svg">
    <path fill-rule="evenodd" clip-rule="evenodd" d="M7.99626 14.3091C6.21082 13.5933 5.15189 13.0919 4.35531 11.8899C3.51403 10.6205 2.84016 8.34695 2.72089 3.73751C4.56677 3.4945 6.37075 2.84161 7.99626 1.78151C9.62177 2.84161 11.4257 3.4945 13.2716 3.73751C13.1524 8.34695 12.4785 10.6205 11.6372 11.8899C10.8406 13.0919 9.7817 13.5933 7.99626 14.3091ZM8.32652 15.9313C12.1238 14.4207 14.7827 13.363 14.9143 3.03614C14.9201 2.58635 14.5543 2.21967 14.1057 2.18638C12.1425 2.04069 10.2086 1.36704 8.51651 0.165426C8.20591 -0.0551421 7.7866 -0.0551421 7.47601 0.165426C5.78396 1.36704 3.85006 2.04069 1.88683 2.18638C1.43823 2.21967 1.07246 2.58635 1.07819 3.03614C1.20978 13.363 3.86867 14.4207 7.66599 15.9313L7.69302 15.942C7.88734 16.0193 8.10517 16.0193 8.2995 15.942L8.32652 15.9313Z" fill="#39A42C"/>
    <path d="M11.4825 5.83431C11.1701 5.5219 10.6635 5.52189 10.3511 5.83431L7.45391 8.73152L6.32202 7.59964C6.0096 7.28722 5.50307 7.28722 5.19065 7.59964C4.87823 7.91206 4.87823 8.41859 5.19065 8.73101L6.86894 10.4093C6.87513 10.4159 6.88144 10.4224 6.8879 10.4289C7.20032 10.7413 7.70685 10.7413 8.01927 10.4289L11.4825 6.96568C11.7949 6.65327 11.7949 6.14673 11.4825 5.83431Z" fill="#39A42C"/>
</svg>
