<svg xmlns="http://www.w3.org/2000/svg" width="13" height="13" fill="none" style=""><rect id="backgroundrect" width="100%" height="100%" x="0" y="0" fill="none" stroke="none"/>
<mask id="mask0_4401_11229" style="mask-type:alpha" maskUnits="userSpaceOnUse" x="0" y="0" width="13" height="13">
<path d="M12.735 0.44775C12.5112 0.179772 12.1829 0.016008 11.8396 0.00112032C11.4964 -0.0137673 11.1531 0.120222 10.8994 0.373312L5.3776 6.34326C5.25821 6.46236 5.04929 6.46236 4.94482 6.35815L2.1093 3.06798L2.09437 3.05309C1.85559 2.81489 1.51234 2.6809 1.16909 2.69579C0.825845 2.71067 0.497521 2.87444 0.273664 3.14242C0.079655 3.38062 -0.0248097 3.69326 0.00503785 4.0059C0.0348854 4.31854 0.169205 4.60141 0.393062 4.82472L3.66137 7.6236C3.72106 7.68315 3.75092 7.75759 3.75092 7.84692C3.75092 7.93624 3.72107 8.01068 3.6763 8.05534L0.407982 10.8542L0.393062 10.8691C0.154281 11.1073 0.0199671 11.4348 0.0199671 11.7624C0.0199671 12.1197 0.154281 12.4323 0.393062 12.6705C0.512452 12.7747 0.646759 12.8641 0.795997 12.9236C1.07955 13.0278 1.4228 13.0278 1.70635 12.9087C1.85559 12.8492 1.9899 12.7598 2.12422 12.6259L4.95974 9.33568C5.07913 9.21658 5.27314 9.21658 5.3776 9.32079L8.21312 12.611L8.22805 12.6259C8.34744 12.745 8.48175 12.8343 8.63099 12.8938C8.78023 12.9534 8.92947 12.9832 9.09363 12.9832C9.24287 12.9832 9.39211 12.9534 9.54135 12.8938C9.69058 12.8343 9.8249 12.7598 9.94429 12.6407C10.198 12.4025 10.3323 12.0899 10.3174 11.7326C10.3174 11.4051 10.1681 11.0775 9.92936 10.8244L6.66105 8.02557C6.60136 7.96602 6.57151 7.89158 6.57151 7.80225C6.57151 7.71293 6.60135 7.63849 6.64613 7.59383L12.6156 2.08539C12.8395 1.86208 12.9738 1.57921 12.9887 1.26657C13.0335 0.998594 12.944 0.685953 12.735 0.44775Z" fill="#231F20" id="svg_1"/>
</mask>

<g class="currentLayer" style=""><title>Layer 1</title><g mask="url(#mask0_4401_11229)" id="svg_2" class="" fill="#b6b6b6" fill-opacity="1">
<path d="M2.125479996204376,11.475300073623657 H17.181909680366516 L16.21930992603302,0 L2.286870002746582,2.6202999353408813 L0.0026999711990356445,6.265899896621704 L2.125479996204376,11.475300073623657 z" fill="#b6b6b6" id="svg_3" transform="" fill-opacity="1"/>
<path d="M1.6933940052986145,17.816190004348755 L11.99211037158966,16.879289865493774 L11.140460133552551,11.442839860916138 L2.270612061023712,11.442730188369751 L0,15.789389848709106 L1.6933940052986145,17.816190004348755 z" fill="#b6b6b6" id="svg_4" transform="" fill-opacity="1"/>
</g></g></svg>