<svg width="40" height="40" viewBox="0 0 40 40" fill="none" xmlns="http://www.w3.org/2000/svg">
<path fill-rule="evenodd" clip-rule="evenodd" d="M6.66669 13.0081C6.66669 9.50584 9.47165 6.66667 12.9317 6.66667H26.4257C29.8858 6.66667 32.6908 9.50584 32.6908 13.0081C32.6908 15.0042 31.7623 16.8837 30.1848 18.0813L21.4458 24.7154C20.4571 25.466 19.0677 25.3378 18.2294 24.4186L14.374 20.1909C13.4713 19.2011 13.5323 17.658 14.5102 16.7444C15.4881 15.8307 17.0125 15.8924 17.9152 16.8822L20.2948 19.4916L27.2932 14.1789C27.6572 13.9025 27.8715 13.4688 27.8715 13.0081C27.8715 12.1999 27.2242 11.5447 26.4257 11.5447H12.9317C12.1333 11.5447 11.486 12.1999 11.486 13.0081V26.9919C11.486 27.8001 12.1333 28.4553 12.9317 28.4553H27.0683C27.8668 28.4553 28.5141 27.8001 28.5141 26.9919V25.3659C28.5141 24.0188 29.5929 22.9268 30.9237 22.9268C32.2545 22.9268 33.3334 24.0188 33.3334 25.3659V26.9919C33.3334 30.4942 30.5284 33.3333 27.0683 33.3333H12.9317C9.47165 33.3333 6.66669 30.4942 6.66669 26.9919V13.0081Z" fill="#AFB1B3"/>
</svg>
