<svg width="13" height="13" viewBox="0 0 13 13" fill="none" xmlns="http://www.w3.org/2000/svg">
    <path fill-rule="evenodd" clip-rule="evenodd" d="M 2.167969 4.226562 C 2.167969 3.089844 3.078125 2.167969 4.203125 2.167969 L 8.589844 2.167969 C 9.710938 2.167969 10.625 3.089844 10.625 4.226562 C 10.625 4.875 10.324219 5.488281 9.808594 5.875 L 6.96875 8.03125 C 6.648438 8.277344 6.195312 8.234375 5.925781 7.9375 L 4.671875 6.5625 C 4.378906 6.242188 4.398438 5.738281 4.714844 5.441406 C 5.035156 5.144531 5.527344 5.164062 5.824219 5.488281 L 6.597656 6.335938 L 8.871094 4.609375 C 8.988281 4.519531 9.058594 4.378906 9.058594 4.226562 C 9.058594 3.964844 8.847656 3.753906 8.589844 3.753906 L 4.203125 3.753906 C 3.941406 3.753906 3.734375 3.964844 3.734375 4.226562 L 3.734375 8.773438 C 3.734375 9.035156 3.941406 9.246094 4.203125 9.246094 L 8.796875 9.246094 C 9.058594 9.246094 9.265625 9.035156 9.265625 8.773438 L 9.265625 8.242188 C 9.265625 7.804688 9.617188 7.453125 10.050781 7.453125 C 10.484375 7.453125 10.832031 7.804688 10.832031 8.242188 L 10.832031 8.773438 C 10.832031 9.910156 9.921875 10.832031 8.796875 10.832031 L 4.203125 10.832031 C 3.078125 10.832031 2.167969 9.910156 2.167969 8.773438 Z M 2.167969 4.226562 " fill="#504e4c"/>
</svg>
