<svg width="80" height="80" viewBox="0 0 80 80" fill="none" xmlns="http://www.w3.org/2000/svg">
<path fill-rule="evenodd" clip-rule="evenodd" d="M13.3333 26.0163C13.3333 19.0117 18.9432 13.3333 25.8634 13.3333H52.8514C59.7716 13.3333 65.3815 19.0117 65.3815 26.0163C65.3815 30.0083 63.5246 33.7674 60.3694 36.1626L42.8915 49.4309C40.9141 50.932 38.1353 50.6755 36.4588 48.8371L28.7479 40.3819C26.9426 38.4022 27.0646 35.3161 29.0203 33.4888C30.9761 31.6614 34.025 31.7849 35.8304 33.7645L40.5896 38.9833L54.5863 28.3577C55.3144 27.805 55.7429 26.9375 55.7429 26.0163C55.7429 24.3998 54.4483 23.0894 52.8514 23.0894H25.8634C24.2665 23.0894 22.9719 24.3998 22.9719 26.0163V53.9837C22.9719 55.6002 24.2665 56.9106 25.8634 56.9106H54.1365C55.7335 56.9106 57.0281 55.6002 57.0281 53.9837V50.7317C57.0281 48.0376 59.1858 45.8537 61.8474 45.8537C64.509 45.8537 66.6666 48.0376 66.6666 50.7317V53.9837C66.6666 60.9883 61.0567 66.6667 54.1365 66.6667H25.8634C18.9432 66.6667 13.3333 60.9883 13.3333 53.9837V26.0163Z" fill="#AFB1B3"/>
</svg>
