<svg width="384" height="92" viewBox="0 0 384 92" fill="none" xmlns="http://www.w3.org/2000/svg">
<rect x="0.5" y="0.5" width="383" height="91" rx="3.5" fill="#312B21"/>
<rect x="0.5" y="0.5" width="383" height="91" rx="3.5" stroke="#885102"/>
<path fill-rule="evenodd" clip-rule="evenodd" d="M26 18C21.5817 18 18 21.5817 18 26C18 30.4183 21.5817 34 26 34C30.4183 34 34 30.4183 34 26C34 21.5817 30.4183 18 26 18Z" fill="#C37242"/>
<path fill-rule="evenodd" clip-rule="evenodd" d="M25.0812 29.4907C25.0656 30.0092 25.4817 30.4381 26.0005 30.4381C26.5195 30.4381 26.9357 30.0088 26.9197 29.49L26.8026 25.69C26.7892 25.2558 26.4334 24.9108 25.999 24.9108C25.5644 24.9108 25.2085 25.2562 25.1954 25.6906L25.0812 29.4907ZM26.7231 21.8983C26.5214 21.6994 26.2799 21.6 25.9987 21.6C25.726 21.6 25.4888 21.6994 25.2871 21.8983C25.0825 22.0972 24.9788 22.3386 24.976 22.6227C24.9788 22.9011 25.0825 23.1398 25.2871 23.3386C25.4888 23.5375 25.726 23.6369 25.9987 23.6369C26.2799 23.6369 26.5214 23.5375 26.7231 23.3386C26.9248 23.1398 27.0243 22.9011 27.0214 22.6227C27.0243 22.3386 26.9248 22.0972 26.7231 21.8983Z" fill="#C37242"/>
<path d="M25.9987 21.6C26.2799 21.6 26.5214 21.6994 26.7231 21.8983C26.9248 22.0972 27.0243 22.3386 27.0214 22.6227C27.0243 22.9011 26.9248 23.1398 26.7231 23.3386C26.5214 23.5375 26.2799 23.6369 25.9987 23.6369C25.726 23.6369 25.4888 23.5375 25.2871 23.3386C25.0825 23.1398 24.9788 22.9011 24.976 22.6227C24.9788 22.3386 25.0825 22.0972 25.2871 21.8983C25.4888 21.6994 25.726 21.6 25.9987 21.6Z" fill="white"/>
<path d="M26.0005 30.4381C25.4817 30.4381 25.0656 30.0092 25.0812 29.4907L25.1954 25.6906C25.2085 25.2562 25.5644 24.9108 25.999 24.9108C26.4334 24.9108 26.7892 25.2558 26.8026 25.69L26.9197 29.49C26.9357 30.0088 26.5195 30.4381 26.0005 30.4381Z" fill="white"/>
<path d="M47.7393 31V22.4619H44.6357V21.1357H52.374V22.4619H49.2705V31H47.7393ZM55.8809 31.1436C55.1562 31.1436 54.5296 30.9886 54.001 30.6787C53.4769 30.3688 53.0736 29.9268 52.791 29.3525C52.5085 28.7738 52.3672 28.0879 52.3672 27.2949V27.2812C52.3672 26.4837 52.5085 25.7979 52.791 25.2236C53.0781 24.6494 53.4837 24.2074 54.0078 23.8975C54.5365 23.5876 55.1608 23.4326 55.8809 23.4326C56.6055 23.4326 57.2298 23.5876 57.7539 23.8975C58.278 24.2028 58.6813 24.6449 58.9639 25.2236C59.251 25.7979 59.3945 26.4837 59.3945 27.2812V27.2949C59.3945 28.0879 59.251 28.7738 58.9639 29.3525C58.6813 29.9268 58.278 30.3688 57.7539 30.6787C57.2344 30.9886 56.61 31.1436 55.8809 31.1436ZM55.8809 29.8994C56.3047 29.8994 56.6647 29.7969 56.9609 29.5918C57.2572 29.3822 57.4827 29.0837 57.6377 28.6963C57.7926 28.3089 57.8701 27.8418 57.8701 27.2949V27.2812C57.8701 26.7298 57.7926 26.2604 57.6377 25.873C57.4827 25.4857 57.2572 25.1895 56.9609 24.9844C56.6647 24.7747 56.3047 24.6699 55.8809 24.6699C55.457 24.6699 55.097 24.7747 54.8008 24.9844C54.5046 25.1895 54.2767 25.4857 54.1172 25.873C53.9622 26.2604 53.8848 26.7298 53.8848 27.2812V27.2949C53.8848 27.8418 53.9622 28.3089 54.1172 28.6963C54.2767 29.0837 54.5046 29.3822 54.8008 29.5918C55.097 29.7969 55.457 29.8994 55.8809 29.8994ZM67.0098 31.123C66.5404 31.123 66.1188 31.0342 65.7451 30.8564C65.376 30.6742 65.0843 30.4167 64.8701 30.084C64.6559 29.7513 64.5488 29.3617 64.5488 28.915V28.9014C64.5488 28.4548 64.6559 28.0742 64.8701 27.7598C65.0889 27.4453 65.4033 27.1992 65.8135 27.0215C66.2282 26.8392 66.7295 26.7298 67.3174 26.6934L70.0586 26.5293V27.5752L67.5225 27.7393C67.012 27.7712 66.6361 27.8805 66.3945 28.0674C66.153 28.2497 66.0322 28.5072 66.0322 28.8398V28.8535C66.0322 29.1908 66.1621 29.4574 66.4219 29.6533C66.6816 29.8447 67.0098 29.9404 67.4062 29.9404C67.7754 29.9404 68.1035 29.8675 68.3906 29.7217C68.6823 29.5713 68.9102 29.3708 69.0742 29.1201C69.2383 28.8649 69.3203 28.5778 69.3203 28.2588V25.9209C69.3203 25.5107 69.1927 25.1986 68.9375 24.9844C68.6868 24.7656 68.3132 24.6562 67.8164 24.6562C67.4017 24.6562 67.0622 24.7292 66.7979 24.875C66.5381 25.0208 66.3649 25.2259 66.2783 25.4902L66.2646 25.5107H64.8359L64.8428 25.4629C64.902 25.0527 65.0638 24.6973 65.3281 24.3965C65.597 24.0911 65.9479 23.8542 66.3809 23.6855C66.8184 23.5169 67.3174 23.4326 67.8779 23.4326C68.5023 23.4326 69.0309 23.5329 69.4639 23.7334C69.9014 23.9294 70.2318 24.2142 70.4551 24.5879C70.6829 24.957 70.7969 25.4014 70.7969 25.9209V31H69.3203V29.9473H69.2109C69.0651 30.1979 68.8828 30.4121 68.6641 30.5898C68.4453 30.763 68.1969 30.8952 67.9189 30.9863C67.641 31.0775 67.3379 31.123 67.0098 31.123ZM76.0127 31.1436C75.2926 31.1436 74.6706 30.9886 74.1465 30.6787C73.627 30.3643 73.2259 29.9176 72.9434 29.3389C72.6608 28.7601 72.5195 28.0697 72.5195 27.2676V27.2539C72.5195 26.4655 72.6585 25.7865 72.9365 25.2168C73.2191 24.6471 73.6201 24.2074 74.1396 23.8975C74.6637 23.5876 75.2858 23.4326 76.0059 23.4326C76.6302 23.4326 77.1657 23.542 77.6123 23.7607C78.0635 23.9749 78.4212 24.2712 78.6855 24.6494C78.9544 25.0231 79.123 25.4492 79.1914 25.9277L79.1982 25.9619H77.7695L77.7627 25.9482C77.6807 25.5837 77.4915 25.2806 77.1953 25.0391C76.8991 24.793 76.5049 24.6699 76.0127 24.6699C75.6025 24.6699 75.2493 24.7747 74.9531 24.9844C74.6569 25.1895 74.429 25.4857 74.2695 25.873C74.1146 26.2604 74.0371 26.7207 74.0371 27.2539V27.2676C74.0371 27.8145 74.1169 28.2839 74.2764 28.6758C74.4359 29.0677 74.6637 29.3708 74.96 29.585C75.2562 29.7946 75.6071 29.8994 76.0127 29.8994C76.4775 29.8994 76.8535 29.7969 77.1406 29.5918C77.4323 29.3867 77.6374 29.0837 77.7559 28.6826L77.7695 28.6484L79.1914 28.6416L79.1777 28.7031C79.0911 29.1862 78.9157 29.61 78.6514 29.9746C78.387 30.3392 78.0339 30.6263 77.5918 30.8359C77.1543 31.041 76.6279 31.1436 76.0127 31.1436ZM83.9971 31.1436C83.277 31.1436 82.6549 30.9886 82.1309 30.6787C81.6113 30.3643 81.2103 29.9176 80.9277 29.3389C80.6452 28.7601 80.5039 28.0697 80.5039 27.2676V27.2539C80.5039 26.4655 80.6429 25.7865 80.9209 25.2168C81.2035 24.6471 81.6045 24.2074 82.124 23.8975C82.6481 23.5876 83.2702 23.4326 83.9902 23.4326C84.6146 23.4326 85.1501 23.542 85.5967 23.7607C86.0479 23.9749 86.4056 24.2712 86.6699 24.6494C86.9388 25.0231 87.1074 25.4492 87.1758 25.9277L87.1826 25.9619H85.7539L85.7471 25.9482C85.665 25.5837 85.4759 25.2806 85.1797 25.0391C84.8835 24.793 84.4893 24.6699 83.9971 24.6699C83.5869 24.6699 83.2337 24.7747 82.9375 24.9844C82.6413 25.1895 82.4134 25.4857 82.2539 25.873C82.099 26.2604 82.0215 26.7207 82.0215 27.2539V27.2676C82.0215 27.8145 82.1012 28.2839 82.2607 28.6758C82.4202 29.0677 82.6481 29.3708 82.9443 29.585C83.2406 29.7946 83.5915 29.8994 83.9971 29.8994C84.4619 29.8994 84.8379 29.7969 85.125 29.5918C85.4167 29.3867 85.6217 29.0837 85.7402 28.6826L85.7539 28.6484L87.1758 28.6416L87.1621 28.7031C87.0755 29.1862 86.9001 29.61 86.6357 29.9746C86.3714 30.3392 86.0182 30.6263 85.5762 30.8359C85.1387 31.041 84.6123 31.1436 83.9971 31.1436ZM91.9746 31.1436C91.25 31.1436 90.6279 30.9886 90.1084 30.6787C89.5889 30.3643 89.1878 29.9199 88.9053 29.3457C88.6273 28.7715 88.4883 28.0924 88.4883 27.3086V27.3018C88.4883 26.527 88.6273 25.8503 88.9053 25.2715C89.1878 24.6927 89.5843 24.2415 90.0947 23.918C90.6097 23.5944 91.2113 23.4326 91.8994 23.4326C92.5921 23.4326 93.1868 23.5876 93.6836 23.8975C94.1849 24.2074 94.57 24.6426 94.8389 25.2031C95.1077 25.7591 95.2422 26.4108 95.2422 27.1582V27.6777H89.2402V26.6182H94.5039L93.793 27.6025V27.0078C93.793 26.4792 93.7109 26.0417 93.5469 25.6953C93.3874 25.3444 93.1663 25.0824 92.8838 24.9092C92.6012 24.736 92.2754 24.6494 91.9062 24.6494C91.5371 24.6494 91.2067 24.7406 90.915 24.9229C90.6279 25.1006 90.4001 25.3649 90.2314 25.7158C90.0674 26.0667 89.9854 26.4974 89.9854 27.0078V27.6025C89.9854 28.0902 90.0674 28.5072 90.2314 28.8535C90.3955 29.1999 90.6279 29.4642 90.9287 29.6465C91.234 29.8288 91.5941 29.9199 92.0088 29.9199C92.3278 29.9199 92.6012 29.8766 92.8291 29.79C93.0615 29.6989 93.2507 29.5872 93.3965 29.4551C93.5469 29.3229 93.6494 29.193 93.7041 29.0654L93.7314 29.0107H95.167L95.1533 29.0723C95.0895 29.3184 94.9779 29.5645 94.8184 29.8105C94.6589 30.0521 94.4469 30.2731 94.1826 30.4736C93.9229 30.6742 93.6084 30.8359 93.2393 30.959C92.8747 31.082 92.4531 31.1436 91.9746 31.1436ZM99.7061 31.1436C99.109 31.1436 98.5895 31.057 98.1475 30.8838C97.7054 30.7061 97.3545 30.4622 97.0947 30.1523C96.835 29.8379 96.6823 29.4733 96.6367 29.0586V29.0449H98.127V29.0586C98.2227 29.3366 98.4049 29.5622 98.6738 29.7354C98.9427 29.9085 99.2982 29.9951 99.7402 29.9951C100.046 29.9951 100.312 29.9518 100.54 29.8652C100.772 29.7786 100.955 29.6579 101.087 29.5029C101.219 29.348 101.285 29.1702 101.285 28.9697V28.9561C101.285 28.7236 101.192 28.5277 101.005 28.3682C100.818 28.2087 100.51 28.0788 100.082 27.9785L98.8926 27.7051C98.4277 27.6003 98.0426 27.4567 97.7373 27.2744C97.432 27.0921 97.2064 26.8688 97.0605 26.6045C96.9147 26.3356 96.8418 26.0212 96.8418 25.6611V25.6543C96.8418 25.2214 96.9648 24.8385 97.2109 24.5059C97.457 24.1686 97.7965 23.9066 98.2295 23.7197C98.667 23.5283 99.166 23.4326 99.7266 23.4326C100.292 23.4326 100.784 23.5215 101.203 23.6992C101.627 23.8724 101.962 24.1139 102.208 24.4238C102.454 24.7292 102.6 25.0846 102.646 25.4902V25.4971H101.224V25.4834C101.155 25.2236 100.991 25.0072 100.731 24.834C100.476 24.6608 100.139 24.5742 99.7197 24.5742C99.4508 24.5742 99.2116 24.6175 99.002 24.7041C98.7923 24.7861 98.626 24.9023 98.5029 25.0527C98.3844 25.1986 98.3252 25.3717 98.3252 25.5723V25.5859C98.3252 25.7409 98.3639 25.8776 98.4414 25.9961C98.5234 26.11 98.651 26.2126 98.8242 26.3037C98.9974 26.3903 99.2207 26.4678 99.4941 26.5361L100.677 26.8027C101.388 26.9714 101.916 27.2152 102.263 27.5342C102.614 27.8532 102.789 28.2816 102.789 28.8193V28.833C102.789 29.2887 102.655 29.6921 102.386 30.043C102.117 30.3893 101.75 30.6605 101.285 30.8564C100.825 31.0479 100.299 31.1436 99.7061 31.1436ZM107.116 31.1436C106.519 31.1436 106 31.057 105.558 30.8838C105.116 30.7061 104.765 30.4622 104.505 30.1523C104.245 29.8379 104.092 29.4733 104.047 29.0586V29.0449H105.537V29.0586C105.633 29.3366 105.815 29.5622 106.084 29.7354C106.353 29.9085 106.708 29.9951 107.15 29.9951C107.456 29.9951 107.722 29.9518 107.95 29.8652C108.183 29.7786 108.365 29.6579 108.497 29.5029C108.629 29.348 108.695 29.1702 108.695 28.9697V28.9561C108.695 28.7236 108.602 28.5277 108.415 28.3682C108.228 28.2087 107.921 28.0788 107.492 27.9785L106.303 27.7051C105.838 27.6003 105.453 27.4567 105.147 27.2744C104.842 27.0921 104.617 26.8688 104.471 26.6045C104.325 26.3356 104.252 26.0212 104.252 25.6611V25.6543C104.252 25.2214 104.375 24.8385 104.621 24.5059C104.867 24.1686 105.207 23.9066 105.64 23.7197C106.077 23.5283 106.576 23.4326 107.137 23.4326C107.702 23.4326 108.194 23.5215 108.613 23.6992C109.037 23.8724 109.372 24.1139 109.618 24.4238C109.864 24.7292 110.01 25.0846 110.056 25.4902V25.4971H108.634V25.4834C108.565 25.2236 108.401 25.0072 108.142 24.834C107.886 24.6608 107.549 24.5742 107.13 24.5742C106.861 24.5742 106.622 24.6175 106.412 24.7041C106.202 24.7861 106.036 24.9023 105.913 25.0527C105.795 25.1986 105.735 25.3717 105.735 25.5723V25.5859C105.735 25.7409 105.774 25.8776 105.852 25.9961C105.934 26.11 106.061 26.2126 106.234 26.3037C106.408 26.3903 106.631 26.4678 106.904 26.5361L108.087 26.8027C108.798 26.9714 109.326 27.2152 109.673 27.5342C110.024 27.8532 110.199 28.2816 110.199 28.8193V28.833C110.199 29.2887 110.065 29.6921 109.796 30.043C109.527 30.3893 109.16 30.6605 108.695 30.8564C108.235 31.0479 107.709 31.1436 107.116 31.1436ZM119.995 31.2393C119.084 31.2393 118.293 31.0296 117.623 30.6104C116.958 30.1911 116.445 29.5964 116.085 28.8262C115.725 28.056 115.545 27.14 115.545 26.0781V26.0645C115.545 24.998 115.725 24.0798 116.085 23.3096C116.445 22.5394 116.958 21.9447 117.623 21.5254C118.288 21.1061 119.079 20.8965 119.995 20.8965C120.72 20.8965 121.374 21.04 121.957 21.3271C122.545 21.6097 123.026 22.0016 123.399 22.5029C123.778 23.0042 124.008 23.5807 124.09 24.2324V24.2734H122.565L122.559 24.2461C122.467 23.8405 122.301 23.4896 122.06 23.1934C121.818 22.8971 121.522 22.667 121.171 22.5029C120.82 22.3389 120.428 22.2568 119.995 22.2568C119.407 22.2568 118.897 22.4118 118.464 22.7217C118.035 23.0316 117.703 23.4714 117.466 24.041C117.233 24.6061 117.117 25.2806 117.117 26.0645V26.0781C117.117 26.8529 117.233 27.5251 117.466 28.0947C117.703 28.6644 118.035 29.1042 118.464 29.4141C118.897 29.724 119.41 29.8789 120.002 29.8789C120.435 29.8789 120.827 29.806 121.178 29.6602C121.533 29.5143 121.829 29.307 122.066 29.0381C122.303 28.7646 122.465 28.4434 122.552 28.0742L122.565 28.0469H124.097L124.09 28.0811C123.994 28.7145 123.762 29.2682 123.393 29.7422C123.023 30.2161 122.549 30.5853 121.971 30.8496C121.392 31.1094 120.733 31.2393 119.995 31.2393ZM126.004 31V20.6641H127.487V24.6973H127.604C127.786 24.3008 128.055 23.9909 128.41 23.7676C128.766 23.5443 129.215 23.4326 129.757 23.4326C130.308 23.4326 130.775 23.5397 131.158 23.7539C131.541 23.9681 131.833 24.2826 132.033 24.6973C132.234 25.1074 132.334 25.6064 132.334 26.1943V31H130.844V26.543C130.844 25.9232 130.714 25.4629 130.454 25.1621C130.199 24.8568 129.798 24.7041 129.251 24.7041C128.891 24.7041 128.579 24.7839 128.314 24.9434C128.05 25.0983 127.845 25.3216 127.699 25.6133C127.558 25.9004 127.487 26.2445 127.487 26.6455V31H126.004ZM137.516 31.1436C136.791 31.1436 136.169 30.9886 135.649 30.6787C135.13 30.3643 134.729 29.9199 134.446 29.3457C134.168 28.7715 134.029 28.0924 134.029 27.3086V27.3018C134.029 26.527 134.168 25.8503 134.446 25.2715C134.729 24.6927 135.125 24.2415 135.636 23.918C136.151 23.5944 136.752 23.4326 137.44 23.4326C138.133 23.4326 138.728 23.5876 139.225 23.8975C139.726 24.2074 140.111 24.6426 140.38 25.2031C140.649 25.7591 140.783 26.4108 140.783 27.1582V27.6777H134.781V26.6182H140.045L139.334 27.6025V27.0078C139.334 26.4792 139.252 26.0417 139.088 25.6953C138.928 25.3444 138.707 25.0824 138.425 24.9092C138.142 24.736 137.816 24.6494 137.447 24.6494C137.078 24.6494 136.748 24.7406 136.456 24.9229C136.169 25.1006 135.941 25.3649 135.772 25.7158C135.608 26.0667 135.526 26.4974 135.526 27.0078V27.6025C135.526 28.0902 135.608 28.5072 135.772 28.8535C135.937 29.1999 136.169 29.4642 136.47 29.6465C136.775 29.8288 137.135 29.9199 137.55 29.9199C137.869 29.9199 138.142 29.8766 138.37 29.79C138.603 29.6989 138.792 29.5872 138.938 29.4551C139.088 29.3229 139.19 29.193 139.245 29.0654L139.272 29.0107H140.708L140.694 29.0723C140.631 29.3184 140.519 29.5645 140.359 29.8105C140.2 30.0521 139.988 30.2731 139.724 30.4736C139.464 30.6742 139.149 30.8359 138.78 30.959C138.416 31.082 137.994 31.1436 137.516 31.1436ZM145.671 31.1436C144.951 31.1436 144.329 30.9886 143.805 30.6787C143.285 30.3643 142.884 29.9176 142.602 29.3389C142.319 28.7601 142.178 28.0697 142.178 27.2676V27.2539C142.178 26.4655 142.317 25.7865 142.595 25.2168C142.877 24.6471 143.278 24.2074 143.798 23.8975C144.322 23.5876 144.944 23.4326 145.664 23.4326C146.288 23.4326 146.824 23.542 147.271 23.7607C147.722 23.9749 148.079 24.2712 148.344 24.6494C148.613 25.0231 148.781 25.4492 148.85 25.9277L148.856 25.9619H147.428L147.421 25.9482C147.339 25.5837 147.15 25.2806 146.854 25.0391C146.557 24.793 146.163 24.6699 145.671 24.6699C145.261 24.6699 144.908 24.7747 144.611 24.9844C144.315 25.1895 144.087 25.4857 143.928 25.873C143.773 26.2604 143.695 26.7207 143.695 27.2539V27.2676C143.695 27.8145 143.775 28.2839 143.935 28.6758C144.094 29.0677 144.322 29.3708 144.618 29.585C144.914 29.7946 145.265 29.8994 145.671 29.8994C146.136 29.8994 146.512 29.7969 146.799 29.5918C147.09 29.3867 147.296 29.0837 147.414 28.6826L147.428 28.6484L148.85 28.6416L148.836 28.7031C148.749 29.1862 148.574 29.61 148.31 29.9746C148.045 30.3392 147.692 30.6263 147.25 30.8359C146.812 31.041 146.286 31.1436 145.671 31.1436ZM150.6 31V20.6641H152.083V31H150.6ZM155.275 31L152.609 27.5205L153.71 26.5977L157.087 31H155.275ZM151.939 28.4502L151.878 26.7002H152.199L155.139 23.5762H156.882L153.532 26.9668L152.958 27.4385L151.939 28.4502ZM158.434 31V23.5762H159.917V24.7178H160.033C160.197 24.3076 160.452 23.9909 160.799 23.7676C161.15 23.5443 161.569 23.4326 162.057 23.4326C162.394 23.4326 162.697 23.4873 162.966 23.5967C163.235 23.7061 163.465 23.861 163.656 24.0615C163.852 24.2575 164.005 24.4899 164.114 24.7588H164.23C164.354 24.4899 164.527 24.2575 164.75 24.0615C164.973 23.861 165.233 23.7061 165.529 23.5967C165.83 23.4873 166.149 23.4326 166.486 23.4326C166.988 23.4326 167.416 23.5306 167.771 23.7266C168.127 23.918 168.398 24.196 168.585 24.5605C168.772 24.9251 168.865 25.3649 168.865 25.8799V31H167.382V26.2354C167.382 25.8936 167.329 25.611 167.225 25.3877C167.12 25.1598 166.96 24.9889 166.746 24.875C166.536 24.7611 166.272 24.7041 165.953 24.7041C165.639 24.7041 165.363 24.777 165.126 24.9229C164.894 25.0641 164.711 25.2555 164.579 25.4971C164.451 25.734 164.388 26.0029 164.388 26.3037V31H162.904V26.085C162.904 25.8024 162.845 25.5586 162.727 25.3535C162.613 25.1439 162.449 24.9844 162.234 24.875C162.02 24.7611 161.767 24.7041 161.476 24.7041C161.179 24.7041 160.913 24.7816 160.676 24.9365C160.443 25.0915 160.259 25.3011 160.122 25.5654C159.985 25.8252 159.917 26.1169 159.917 26.4404V31H158.434ZM172.98 31.123C172.511 31.123 172.09 31.0342 171.716 30.8564C171.347 30.6742 171.055 30.4167 170.841 30.084C170.627 29.7513 170.52 29.3617 170.52 28.915V28.9014C170.52 28.4548 170.627 28.0742 170.841 27.7598C171.06 27.4453 171.374 27.1992 171.784 27.0215C172.199 26.8392 172.7 26.7298 173.288 26.6934L176.029 26.5293V27.5752L173.493 27.7393C172.983 27.7712 172.607 27.8805 172.365 28.0674C172.124 28.2497 172.003 28.5072 172.003 28.8398V28.8535C172.003 29.1908 172.133 29.4574 172.393 29.6533C172.652 29.8447 172.98 29.9404 173.377 29.9404C173.746 29.9404 174.074 29.8675 174.361 29.7217C174.653 29.5713 174.881 29.3708 175.045 29.1201C175.209 28.8649 175.291 28.5778 175.291 28.2588V25.9209C175.291 25.5107 175.163 25.1986 174.908 24.9844C174.658 24.7656 174.284 24.6562 173.787 24.6562C173.372 24.6562 173.033 24.7292 172.769 24.875C172.509 25.0208 172.336 25.2259 172.249 25.4902L172.235 25.5107H170.807L170.813 25.4629C170.873 25.0527 171.035 24.6973 171.299 24.3965C171.568 24.0911 171.919 23.8542 172.352 23.6855C172.789 23.5169 173.288 23.4326 173.849 23.4326C174.473 23.4326 175.002 23.5329 175.435 23.7334C175.872 23.9294 176.202 24.2142 176.426 24.5879C176.654 24.957 176.768 25.4014 176.768 25.9209V31H175.291V29.9473H175.182C175.036 30.1979 174.854 30.4121 174.635 30.5898C174.416 30.763 174.168 30.8952 173.89 30.9863C173.612 31.0775 173.309 31.123 172.98 31.123ZM178.859 31V23.5762H180.343V24.6973H180.459C180.591 24.3008 180.824 23.9932 181.156 23.7744C181.493 23.5557 181.908 23.4463 182.4 23.4463C182.523 23.4463 182.644 23.4531 182.763 23.4668C182.881 23.4805 182.977 23.4964 183.05 23.5146V24.8818C182.918 24.8545 182.785 24.834 182.653 24.8203C182.526 24.8066 182.391 24.7998 182.25 24.7998C181.872 24.7998 181.539 24.8727 181.252 25.0186C180.969 25.1644 180.746 25.3695 180.582 25.6338C180.423 25.8936 180.343 26.2035 180.343 26.5635V31H178.859ZM183.904 31L186.372 27.3018L183.884 23.5762H185.606L187.206 26.2285H187.322L188.901 23.5762H190.542L188.095 27.2402L190.569 31H188.881L187.261 28.3271H187.145L185.524 31H183.904ZM200.297 31.2393C199.34 31.2393 198.517 31.0296 197.829 30.6104C197.141 30.1865 196.612 29.5872 196.243 28.8125C195.874 28.0378 195.689 27.124 195.689 26.0713V26.0576C195.689 24.9958 195.876 24.0798 196.25 23.3096C196.624 22.5394 197.155 21.9447 197.843 21.5254C198.535 21.1061 199.354 20.8965 200.297 20.8965C201.245 20.8965 202.063 21.1061 202.751 21.5254C203.439 21.9447 203.968 22.5417 204.337 23.3164C204.711 24.0866 204.897 25.0003 204.897 26.0576V26.0713C204.897 27.124 204.713 28.0378 204.344 28.8125C203.975 29.5827 203.444 30.1797 202.751 30.6035C202.063 31.0273 201.245 31.2393 200.297 31.2393ZM200.297 29.8789C200.917 29.8789 201.454 29.7217 201.91 29.4072C202.366 29.0928 202.717 28.6507 202.963 28.0811C203.209 27.5068 203.332 26.8369 203.332 26.0713V26.0576C203.332 25.2829 203.209 24.6107 202.963 24.041C202.717 23.4714 202.366 23.0316 201.91 22.7217C201.454 22.4118 200.917 22.2568 200.297 22.2568C199.677 22.2568 199.139 22.4118 198.684 22.7217C198.232 23.0316 197.882 23.4714 197.631 24.041C197.38 24.6107 197.255 25.2829 197.255 26.0576V26.0713C197.255 26.8369 197.376 27.5068 197.617 28.0811C197.863 28.6507 198.212 29.0928 198.663 29.4072C199.119 29.7217 199.663 29.8789 200.297 29.8789ZM206.805 31V23.5762H208.288V24.6973H208.404C208.587 24.3008 208.855 23.9909 209.211 23.7676C209.566 23.5443 210.015 23.4326 210.558 23.4326C211.392 23.4326 212.03 23.6719 212.472 24.1504C212.914 24.6289 213.135 25.3102 213.135 26.1943V31H211.645V26.543C211.645 25.9232 211.515 25.4629 211.255 25.1621C211 24.8568 210.599 24.7041 210.052 24.7041C209.692 24.7041 209.38 24.7839 209.115 24.9434C208.851 25.0983 208.646 25.3216 208.5 25.6133C208.359 25.9004 208.288 26.2445 208.288 26.6455V31H206.805ZM218.316 31.1436C217.592 31.1436 216.97 30.9886 216.45 30.6787C215.931 30.3643 215.53 29.9199 215.247 29.3457C214.969 28.7715 214.83 28.0924 214.83 27.3086V27.3018C214.83 26.527 214.969 25.8503 215.247 25.2715C215.53 24.6927 215.926 24.2415 216.437 23.918C216.951 23.5944 217.553 23.4326 218.241 23.4326C218.934 23.4326 219.529 23.5876 220.025 23.8975C220.527 24.2074 220.912 24.6426 221.181 25.2031C221.45 25.7591 221.584 26.4108 221.584 27.1582V27.6777H215.582V26.6182H220.846L220.135 27.6025V27.0078C220.135 26.4792 220.053 26.0417 219.889 25.6953C219.729 25.3444 219.508 25.0824 219.226 24.9092C218.943 24.736 218.617 24.6494 218.248 24.6494C217.879 24.6494 217.549 24.7406 217.257 24.9229C216.97 25.1006 216.742 25.3649 216.573 25.7158C216.409 26.0667 216.327 26.4974 216.327 27.0078V27.6025C216.327 28.0902 216.409 28.5072 216.573 28.8535C216.737 29.1999 216.97 29.4642 217.271 29.6465C217.576 29.8288 217.936 29.9199 218.351 29.9199C218.67 29.9199 218.943 29.8766 219.171 29.79C219.403 29.6989 219.592 29.5872 219.738 29.4551C219.889 29.3229 219.991 29.193 220.046 29.0654L220.073 29.0107H221.509L221.495 29.0723C221.431 29.3184 221.32 29.5645 221.16 29.8105C221.001 30.0521 220.789 30.2731 220.524 30.4736C220.265 30.6742 219.95 30.8359 219.581 30.959C219.216 31.082 218.795 31.1436 218.316 31.1436ZM226.574 31L230.136 21.1357H231.373V22.8652H230.908L228.188 31H226.574ZM228.29 28.334L228.721 27.1035H233.212L233.643 28.334H228.29ZM233.738 31L231.024 22.8652V21.1357H231.797L235.352 31H233.738ZM239.433 31.1436C238.836 31.1436 238.316 31.057 237.874 30.8838C237.432 30.7061 237.081 30.4622 236.821 30.1523C236.562 29.8379 236.409 29.4733 236.363 29.0586V29.0449H237.854V29.0586C237.949 29.3366 238.132 29.5622 238.4 29.7354C238.669 29.9085 239.025 29.9951 239.467 29.9951C239.772 29.9951 240.039 29.9518 240.267 29.8652C240.499 29.7786 240.681 29.6579 240.813 29.5029C240.946 29.348 241.012 29.1702 241.012 28.9697V28.9561C241.012 28.7236 240.918 28.5277 240.731 28.3682C240.545 28.2087 240.237 28.0788 239.809 27.9785L238.619 27.7051C238.154 27.6003 237.769 27.4567 237.464 27.2744C237.159 27.0921 236.933 26.8688 236.787 26.6045C236.641 26.3356 236.568 26.0212 236.568 25.6611V25.6543C236.568 25.2214 236.691 24.8385 236.938 24.5059C237.184 24.1686 237.523 23.9066 237.956 23.7197C238.394 23.5283 238.893 23.4326 239.453 23.4326C240.018 23.4326 240.51 23.5215 240.93 23.6992C241.354 23.8724 241.688 24.1139 241.935 24.4238C242.181 24.7292 242.326 25.0846 242.372 25.4902V25.4971H240.95V25.4834C240.882 25.2236 240.718 25.0072 240.458 24.834C240.203 24.6608 239.866 24.5742 239.446 24.5742C239.177 24.5742 238.938 24.6175 238.729 24.7041C238.519 24.7861 238.353 24.9023 238.229 25.0527C238.111 25.1986 238.052 25.3717 238.052 25.5723V25.5859C238.052 25.7409 238.09 25.8776 238.168 25.9961C238.25 26.11 238.378 26.2126 238.551 26.3037C238.724 26.3903 238.947 26.4678 239.221 26.5361L240.403 26.8027C241.114 26.9714 241.643 27.2152 241.989 27.5342C242.34 27.8532 242.516 28.2816 242.516 28.8193V28.833C242.516 29.2887 242.381 29.6921 242.112 30.043C241.843 30.3893 241.477 30.6605 241.012 30.8564C240.551 31.0479 240.025 31.1436 239.433 31.1436ZM246.843 31.1436C246.246 31.1436 245.726 31.057 245.284 30.8838C244.842 30.7061 244.491 30.4622 244.231 30.1523C243.972 29.8379 243.819 29.4733 243.773 29.0586V29.0449H245.264V29.0586C245.359 29.3366 245.542 29.5622 245.811 29.7354C246.079 29.9085 246.435 29.9951 246.877 29.9951C247.182 29.9951 247.449 29.9518 247.677 29.8652C247.909 29.7786 248.091 29.6579 248.224 29.5029C248.356 29.348 248.422 29.1702 248.422 28.9697V28.9561C248.422 28.7236 248.328 28.5277 248.142 28.3682C247.955 28.2087 247.647 28.0788 247.219 27.9785L246.029 27.7051C245.564 27.6003 245.179 27.4567 244.874 27.2744C244.569 27.0921 244.343 26.8688 244.197 26.6045C244.051 26.3356 243.979 26.0212 243.979 25.6611V25.6543C243.979 25.2214 244.102 24.8385 244.348 24.5059C244.594 24.1686 244.933 23.9066 245.366 23.7197C245.804 23.5283 246.303 23.4326 246.863 23.4326C247.428 23.4326 247.921 23.5215 248.34 23.6992C248.764 23.8724 249.099 24.1139 249.345 24.4238C249.591 24.7292 249.737 25.0846 249.782 25.4902V25.4971H248.36V25.4834C248.292 25.2236 248.128 25.0072 247.868 24.834C247.613 24.6608 247.276 24.5742 246.856 24.5742C246.588 24.5742 246.348 24.6175 246.139 24.7041C245.929 24.7861 245.763 24.9023 245.64 25.0527C245.521 25.1986 245.462 25.3717 245.462 25.5723V25.5859C245.462 25.7409 245.501 25.8776 245.578 25.9961C245.66 26.11 245.788 26.2126 245.961 26.3037C246.134 26.3903 246.357 26.4678 246.631 26.5361L247.813 26.8027C248.524 26.9714 249.053 27.2152 249.399 27.5342C249.75 27.8532 249.926 28.2816 249.926 28.8193V28.833C249.926 29.2887 249.791 29.6921 249.522 30.043C249.254 30.3893 248.887 30.6605 248.422 30.8564C247.962 31.0479 247.435 31.1436 246.843 31.1436ZM251.71 31V23.5762H253.2V31H251.71ZM252.462 22.25C252.207 22.25 251.988 22.1589 251.806 21.9766C251.623 21.7943 251.532 21.5755 251.532 21.3203C251.532 21.0651 251.623 20.8486 251.806 20.6709C251.988 20.4886 252.207 20.3975 252.462 20.3975C252.717 20.3975 252.936 20.4886 253.118 20.6709C253.3 20.8486 253.392 21.0651 253.392 21.3203C253.392 21.5755 253.3 21.7943 253.118 21.9766C252.936 22.1589 252.717 22.25 252.462 22.25ZM258.054 31.1436C257.457 31.1436 256.937 31.057 256.495 30.8838C256.053 30.7061 255.702 30.4622 255.442 30.1523C255.183 29.8379 255.03 29.4733 254.984 29.0586V29.0449H256.475V29.0586C256.57 29.3366 256.753 29.5622 257.021 29.7354C257.29 29.9085 257.646 29.9951 258.088 29.9951C258.393 29.9951 258.66 29.9518 258.888 29.8652C259.12 29.7786 259.302 29.6579 259.435 29.5029C259.567 29.348 259.633 29.1702 259.633 28.9697V28.9561C259.633 28.7236 259.539 28.5277 259.353 28.3682C259.166 28.2087 258.858 28.0788 258.43 27.9785L257.24 27.7051C256.775 27.6003 256.39 27.4567 256.085 27.2744C255.78 27.0921 255.554 26.8688 255.408 26.6045C255.262 26.3356 255.189 26.0212 255.189 25.6611V25.6543C255.189 25.2214 255.312 24.8385 255.559 24.5059C255.805 24.1686 256.144 23.9066 256.577 23.7197C257.015 23.5283 257.514 23.4326 258.074 23.4326C258.639 23.4326 259.132 23.5215 259.551 23.6992C259.975 23.8724 260.31 24.1139 260.556 24.4238C260.802 24.7292 260.948 25.0846 260.993 25.4902V25.4971H259.571V25.4834C259.503 25.2236 259.339 25.0072 259.079 24.834C258.824 24.6608 258.487 24.5742 258.067 24.5742C257.799 24.5742 257.559 24.6175 257.35 24.7041C257.14 24.7861 256.974 24.9023 256.851 25.0527C256.732 25.1986 256.673 25.3717 256.673 25.5723V25.5859C256.673 25.7409 256.712 25.8776 256.789 25.9961C256.871 26.11 256.999 26.2126 257.172 26.3037C257.345 26.3903 257.568 26.4678 257.842 26.5361L259.024 26.8027C259.735 26.9714 260.264 27.2152 260.61 27.5342C260.961 27.8532 261.137 28.2816 261.137 28.8193V28.833C261.137 29.2887 261.002 29.6921 260.733 30.043C260.465 30.3893 260.098 30.6605 259.633 30.8564C259.173 31.0479 258.646 31.1436 258.054 31.1436ZM265.648 31.0479C264.837 31.0479 264.249 30.8929 263.885 30.583C263.525 30.2686 263.345 29.7559 263.345 29.0449V24.7451H262.183V23.5762H263.345V21.7031H264.862V23.5762H266.455V24.7451H264.862V28.6826C264.862 29.0837 264.942 29.373 265.102 29.5508C265.261 29.724 265.525 29.8105 265.895 29.8105C266.004 29.8105 266.097 29.8083 266.175 29.8037C266.257 29.7992 266.35 29.7923 266.455 29.7832V30.9727C266.337 30.9909 266.209 31.0068 266.072 31.0205C265.936 31.0387 265.794 31.0479 265.648 31.0479ZM272.532 31V24.7451H271.309V23.5762H272.532V22.7969C272.532 22.3001 272.614 21.89 272.778 21.5664C272.947 21.2383 273.202 20.9945 273.544 20.835C273.886 20.6755 274.316 20.5957 274.836 20.5957C275 20.5957 275.153 20.6025 275.294 20.6162C275.44 20.6253 275.579 20.6413 275.711 20.6641V21.7578C275.643 21.7441 275.558 21.735 275.458 21.7305C275.362 21.7214 275.257 21.7168 275.144 21.7168C274.733 21.7168 274.439 21.8148 274.262 22.0107C274.089 22.2067 274.002 22.4915 274.002 22.8652V23.5762H275.643V24.7451H274.016V31H272.532ZM280.141 31.1436C279.416 31.1436 278.794 30.9886 278.274 30.6787C277.755 30.3643 277.354 29.9199 277.071 29.3457C276.793 28.7715 276.654 28.0924 276.654 27.3086V27.3018C276.654 26.527 276.793 25.8503 277.071 25.2715C277.354 24.6927 277.75 24.2415 278.261 23.918C278.776 23.5944 279.377 23.4326 280.065 23.4326C280.758 23.4326 281.353 23.5876 281.85 23.8975C282.351 24.2074 282.736 24.6426 283.005 25.2031C283.274 25.7591 283.408 26.4108 283.408 27.1582V27.6777H277.406V26.6182H282.67L281.959 27.6025V27.0078C281.959 26.4792 281.877 26.0417 281.713 25.6953C281.553 25.3444 281.332 25.0824 281.05 24.9092C280.767 24.736 280.441 24.6494 280.072 24.6494C279.703 24.6494 279.373 24.7406 279.081 24.9229C278.794 25.1006 278.566 25.3649 278.397 25.7158C278.233 26.0667 278.151 26.4974 278.151 27.0078V27.6025C278.151 28.0902 278.233 28.5072 278.397 28.8535C278.562 29.1999 278.794 29.4642 279.095 29.6465C279.4 29.8288 279.76 29.9199 280.175 29.9199C280.494 29.9199 280.767 29.8766 280.995 29.79C281.228 29.6989 281.417 29.5872 281.562 29.4551C281.713 29.3229 281.815 29.193 281.87 29.0654L281.897 29.0107H283.333L283.319 29.0723C283.256 29.3184 283.144 29.5645 282.984 29.8105C282.825 30.0521 282.613 30.2731 282.349 30.4736C282.089 30.6742 281.774 30.8359 281.405 30.959C281.041 31.082 280.619 31.1436 280.141 31.1436ZM287.209 31.123C286.74 31.123 286.318 31.0342 285.944 30.8564C285.575 30.6742 285.284 30.4167 285.069 30.084C284.855 29.7513 284.748 29.3617 284.748 28.915V28.9014C284.748 28.4548 284.855 28.0742 285.069 27.7598C285.288 27.4453 285.603 27.1992 286.013 27.0215C286.427 26.8392 286.929 26.7298 287.517 26.6934L290.258 26.5293V27.5752L287.722 27.7393C287.211 27.7712 286.835 27.8805 286.594 28.0674C286.352 28.2497 286.231 28.5072 286.231 28.8398V28.8535C286.231 29.1908 286.361 29.4574 286.621 29.6533C286.881 29.8447 287.209 29.9404 287.605 29.9404C287.975 29.9404 288.303 29.8675 288.59 29.7217C288.882 29.5713 289.109 29.3708 289.273 29.1201C289.438 28.8649 289.52 28.5778 289.52 28.2588V25.9209C289.52 25.5107 289.392 25.1986 289.137 24.9844C288.886 24.7656 288.512 24.6562 288.016 24.6562C287.601 24.6562 287.261 24.7292 286.997 24.875C286.737 25.0208 286.564 25.2259 286.478 25.4902L286.464 25.5107H285.035L285.042 25.4629C285.101 25.0527 285.263 24.6973 285.527 24.3965C285.796 24.0911 286.147 23.8542 286.58 23.6855C287.018 23.5169 287.517 23.4326 288.077 23.4326C288.701 23.4326 289.23 23.5329 289.663 23.7334C290.101 23.9294 290.431 24.2142 290.654 24.5879C290.882 24.957 290.996 25.4014 290.996 25.9209V31H289.52V29.9473H289.41C289.264 30.1979 289.082 30.4121 288.863 30.5898C288.645 30.763 288.396 30.8952 288.118 30.9863C287.84 31.0775 287.537 31.123 287.209 31.123ZM295.891 31.0479C295.079 31.0479 294.492 30.8929 294.127 30.583C293.767 30.2686 293.587 29.7559 293.587 29.0449V24.7451H292.425V23.5762H293.587V21.7031H295.104V23.5762H296.697V24.7451H295.104V28.6826C295.104 29.0837 295.184 29.373 295.344 29.5508C295.503 29.724 295.768 29.8105 296.137 29.8105C296.246 29.8105 296.34 29.8083 296.417 29.8037C296.499 29.7992 296.592 29.7923 296.697 29.7832V30.9727C296.579 30.9909 296.451 31.0068 296.314 31.0205C296.178 31.0387 296.036 31.0479 295.891 31.0479ZM300.908 31.1436C300.352 31.1436 299.883 31.0365 299.5 30.8223C299.122 30.6035 298.837 30.2891 298.646 29.8789C298.459 29.4642 298.365 28.9652 298.365 28.3818V23.5762H299.849V28.0332C299.849 28.6439 299.969 29.1019 300.211 29.4072C300.452 29.7126 300.847 29.8652 301.394 29.8652C301.685 29.8652 301.945 29.8219 302.173 29.7354C302.401 29.6442 302.592 29.5143 302.747 29.3457C302.902 29.1771 303.016 28.9743 303.089 28.7373C303.166 28.5003 303.205 28.2314 303.205 27.9307V23.5762H304.695V31H303.205V29.8789H303.096C302.977 30.1432 302.815 30.3711 302.61 30.5625C302.405 30.7493 302.159 30.8929 301.872 30.9932C301.59 31.0934 301.268 31.1436 300.908 31.1436ZM306.828 31V23.5762H308.312V24.6973H308.428C308.56 24.3008 308.792 23.9932 309.125 23.7744C309.462 23.5557 309.877 23.4463 310.369 23.4463C310.492 23.4463 310.613 23.4531 310.731 23.4668C310.85 23.4805 310.946 23.4964 311.019 23.5146V24.8818C310.886 24.8545 310.754 24.834 310.622 24.8203C310.494 24.8066 310.36 24.7998 310.219 24.7998C309.84 24.7998 309.508 24.8727 309.221 25.0186C308.938 25.1644 308.715 25.3695 308.551 25.6338C308.391 25.8936 308.312 26.2035 308.312 26.5635V31H306.828ZM315.373 31.1436C314.648 31.1436 314.026 30.9886 313.507 30.6787C312.987 30.3643 312.586 29.9199 312.304 29.3457C312.026 28.7715 311.887 28.0924 311.887 27.3086V27.3018C311.887 26.527 312.026 25.8503 312.304 25.2715C312.586 24.6927 312.983 24.2415 313.493 23.918C314.008 23.5944 314.61 23.4326 315.298 23.4326C315.991 23.4326 316.585 23.5876 317.082 23.8975C317.583 24.2074 317.968 24.6426 318.237 25.2031C318.506 25.7591 318.641 26.4108 318.641 27.1582V27.6777H312.639V26.6182H317.902L317.191 27.6025V27.0078C317.191 26.4792 317.109 26.0417 316.945 25.6953C316.786 25.3444 316.565 25.0824 316.282 24.9092C316 24.736 315.674 24.6494 315.305 24.6494C314.936 24.6494 314.605 24.7406 314.313 24.9229C314.026 25.1006 313.799 25.3649 313.63 25.7158C313.466 26.0667 313.384 26.4974 313.384 27.0078V27.6025C313.384 28.0902 313.466 28.5072 313.63 28.8535C313.794 29.1999 314.026 29.4642 314.327 29.6465C314.632 29.8288 314.993 29.9199 315.407 29.9199C315.726 29.9199 316 29.8766 316.228 29.79C316.46 29.6989 316.649 29.5872 316.795 29.4551C316.945 29.3229 317.048 29.193 317.103 29.0654L317.13 29.0107H318.565L318.552 29.0723C318.488 29.3184 318.376 29.5645 318.217 29.8105C318.057 30.0521 317.845 30.2731 317.581 30.4736C317.321 30.6742 317.007 30.8359 316.638 30.959C316.273 31.082 315.852 31.1436 315.373 31.1436ZM323.104 31.1436C322.507 31.1436 321.988 31.057 321.546 30.8838C321.104 30.7061 320.753 30.4622 320.493 30.1523C320.233 29.8379 320.081 29.4733 320.035 29.0586V29.0449H321.525V29.0586C321.621 29.3366 321.803 29.5622 322.072 29.7354C322.341 29.9085 322.697 29.9951 323.139 29.9951C323.444 29.9951 323.711 29.9518 323.938 29.8652C324.171 29.7786 324.353 29.6579 324.485 29.5029C324.618 29.348 324.684 29.1702 324.684 28.9697V28.9561C324.684 28.7236 324.59 28.5277 324.403 28.3682C324.216 28.2087 323.909 28.0788 323.48 27.9785L322.291 27.7051C321.826 27.6003 321.441 27.4567 321.136 27.2744C320.83 27.0921 320.605 26.8688 320.459 26.6045C320.313 26.3356 320.24 26.0212 320.24 25.6611V25.6543C320.24 25.2214 320.363 24.8385 320.609 24.5059C320.855 24.1686 321.195 23.9066 321.628 23.7197C322.065 23.5283 322.564 23.4326 323.125 23.4326C323.69 23.4326 324.182 23.5215 324.602 23.6992C325.025 23.8724 325.36 24.1139 325.606 24.4238C325.853 24.7292 325.998 25.0846 326.044 25.4902V25.4971H324.622V25.4834C324.554 25.2236 324.39 25.0072 324.13 24.834C323.875 24.6608 323.537 24.5742 323.118 24.5742C322.849 24.5742 322.61 24.6175 322.4 24.7041C322.191 24.7861 322.024 24.9023 321.901 25.0527C321.783 25.1986 321.724 25.3717 321.724 25.5723V25.5859C321.724 25.7409 321.762 25.8776 321.84 25.9961C321.922 26.11 322.049 26.2126 322.223 26.3037C322.396 26.3903 322.619 26.4678 322.893 26.5361L324.075 26.8027C324.786 26.9714 325.315 27.2152 325.661 27.5342C326.012 27.8532 326.188 28.2816 326.188 28.8193V28.833C326.188 29.2887 326.053 29.6921 325.784 30.043C325.515 30.3893 325.148 30.6605 324.684 30.8564C324.223 31.0479 323.697 31.1436 323.104 31.1436ZM327.691 33.5635L328.293 29.5439H329.879L328.737 33.5635H327.691ZM336.906 33.6113C336.815 33.6113 336.717 33.6068 336.612 33.5977C336.507 33.5931 336.407 33.5863 336.312 33.5771V32.4082C336.384 32.4173 336.464 32.4242 336.551 32.4287C336.642 32.4333 336.729 32.4355 336.811 32.4355C337.157 32.4355 337.437 32.3535 337.651 32.1895C337.866 32.0299 338.027 31.7633 338.137 31.3896L338.246 31.0068L335.553 23.5762H337.159L339.258 30.2686L338.793 29.5029H339.36L338.902 30.2686L340.994 23.5762H342.56L339.798 31.2803C339.588 31.8727 339.356 32.3376 339.101 32.6748C338.845 33.0166 338.542 33.2581 338.191 33.3994C337.84 33.5407 337.412 33.6113 336.906 33.6113ZM346.928 31.1436C346.203 31.1436 345.576 30.9886 345.048 30.6787C344.524 30.3688 344.12 29.9268 343.838 29.3525C343.555 28.7738 343.414 28.0879 343.414 27.2949V27.2812C343.414 26.4837 343.555 25.7979 343.838 25.2236C344.125 24.6494 344.531 24.2074 345.055 23.8975C345.583 23.5876 346.208 23.4326 346.928 23.4326C347.652 23.4326 348.277 23.5876 348.801 23.8975C349.325 24.2028 349.728 24.6449 350.011 25.2236C350.298 25.7979 350.441 26.4837 350.441 27.2812V27.2949C350.441 28.0879 350.298 28.7738 350.011 29.3525C349.728 29.9268 349.325 30.3688 348.801 30.6787C348.281 30.9886 347.657 31.1436 346.928 31.1436ZM346.928 29.8994C347.352 29.8994 347.712 29.7969 348.008 29.5918C348.304 29.3822 348.53 29.0837 348.685 28.6963C348.84 28.3089 348.917 27.8418 348.917 27.2949V27.2812C348.917 26.7298 348.84 26.2604 348.685 25.873C348.53 25.4857 348.304 25.1895 348.008 24.9844C347.712 24.7747 347.352 24.6699 346.928 24.6699C346.504 24.6699 346.144 24.7747 345.848 24.9844C345.551 25.1895 345.324 25.4857 345.164 25.873C345.009 26.2604 344.932 26.7298 344.932 27.2812V27.2949C344.932 27.8418 345.009 28.3089 345.164 28.6963C345.324 29.0837 345.551 29.3822 345.848 29.5918C346.144 29.7969 346.504 29.8994 346.928 29.8994ZM354.68 31.1436C354.124 31.1436 353.654 31.0365 353.271 30.8223C352.893 30.6035 352.608 30.2891 352.417 29.8789C352.23 29.4642 352.137 28.9652 352.137 28.3818V23.5762H353.62V28.0332C353.62 28.6439 353.741 29.1019 353.982 29.4072C354.224 29.7126 354.618 29.8652 355.165 29.8652C355.457 29.8652 355.716 29.8219 355.944 29.7354C356.172 29.6442 356.364 29.5143 356.519 29.3457C356.674 29.1771 356.787 28.9743 356.86 28.7373C356.938 28.5003 356.977 28.2314 356.977 27.9307V23.5762H358.467V31H356.977V29.8789H356.867C356.749 30.1432 356.587 30.3711 356.382 30.5625C356.177 30.7493 355.931 30.8929 355.644 30.9932C355.361 31.0934 355.04 31.1436 354.68 31.1436ZM45.0664 51V43.5762H46.5498V44.6973H46.666C46.8483 44.3008 47.1172 43.9909 47.4727 43.7676C47.8281 43.5443 48.277 43.4326 48.8193 43.4326C49.6533 43.4326 50.2913 43.6719 50.7334 44.1504C51.1755 44.6289 51.3965 45.3102 51.3965 46.1943V51H49.9062V46.543C49.9062 45.9232 49.7764 45.4629 49.5166 45.1621C49.2614 44.8568 48.8604 44.7041 48.3135 44.7041C47.9535 44.7041 47.6413 44.7839 47.377 44.9434C47.1126 45.0983 46.9076 45.3216 46.7617 45.6133C46.6204 45.9004 46.5498 46.2445 46.5498 46.6455V51H45.0664ZM56.5781 51.1436C55.8535 51.1436 55.2314 50.9886 54.7119 50.6787C54.1924 50.3643 53.7913 49.9199 53.5088 49.3457C53.2308 48.7715 53.0918 48.0924 53.0918 47.3086V47.3018C53.0918 46.527 53.2308 45.8503 53.5088 45.2715C53.7913 44.6927 54.1878 44.2415 54.6982 43.918C55.2132 43.5944 55.8148 43.4326 56.5029 43.4326C57.1956 43.4326 57.7904 43.5876 58.2871 43.8975C58.7884 44.2074 59.1735 44.6426 59.4424 45.2031C59.7113 45.7591 59.8457 46.4108 59.8457 47.1582V47.6777H53.8438V46.6182H59.1074L58.3965 47.6025V47.0078C58.3965 46.4792 58.3145 46.0417 58.1504 45.6953C57.9909 45.3444 57.7699 45.0824 57.4873 44.9092C57.2048 44.736 56.8789 44.6494 56.5098 44.6494C56.1406 44.6494 55.8102 44.7406 55.5186 44.9229C55.2314 45.1006 55.0036 45.3649 54.835 45.7158C54.6709 46.0667 54.5889 46.4974 54.5889 47.0078V47.6025C54.5889 48.0902 54.6709 48.5072 54.835 48.8535C54.999 49.1999 55.2314 49.4642 55.5322 49.6465C55.8376 49.8288 56.1976 49.9199 56.6123 49.9199C56.9313 49.9199 57.2048 49.8766 57.4326 49.79C57.665 49.6989 57.8542 49.5872 58 49.4551C58.1504 49.3229 58.2529 49.193 58.3076 49.0654L58.335 49.0107H59.7705L59.7568 49.0723C59.693 49.3184 59.5814 49.5645 59.4219 49.8105C59.2624 50.0521 59.0505 50.2731 58.7861 50.4736C58.5264 50.6742 58.2119 50.8359 57.8428 50.959C57.4782 51.082 57.0566 51.1436 56.5781 51.1436ZM64.7266 51.1436C64.002 51.1436 63.3799 50.9886 62.8604 50.6787C62.3408 50.3643 61.9398 49.9199 61.6572 49.3457C61.3792 48.7715 61.2402 48.0924 61.2402 47.3086V47.3018C61.2402 46.527 61.3792 45.8503 61.6572 45.2715C61.9398 44.6927 62.3363 44.2415 62.8467 43.918C63.3617 43.5944 63.9632 43.4326 64.6514 43.4326C65.3441 43.4326 65.9388 43.5876 66.4355 43.8975C66.9368 44.2074 67.3219 44.6426 67.5908 45.2031C67.8597 45.7591 67.9941 46.4108 67.9941 47.1582V47.6777H61.9922V46.6182H67.2559L66.5449 47.6025V47.0078C66.5449 46.4792 66.4629 46.0417 66.2988 45.6953C66.1393 45.3444 65.9183 45.0824 65.6357 44.9092C65.3532 44.736 65.0273 44.6494 64.6582 44.6494C64.2891 44.6494 63.9587 44.7406 63.667 44.9229C63.3799 45.1006 63.152 45.3649 62.9834 45.7158C62.8193 46.0667 62.7373 46.4974 62.7373 47.0078V47.6025C62.7373 48.0902 62.8193 48.5072 62.9834 48.8535C63.1475 49.1999 63.3799 49.4642 63.6807 49.6465C63.986 49.8288 64.346 49.9199 64.7607 49.9199C65.0798 49.9199 65.3532 49.8766 65.5811 49.79C65.8135 49.6989 66.0026 49.5872 66.1484 49.4551C66.2988 49.3229 66.4014 49.193 66.4561 49.0654L66.4834 49.0107H67.9189L67.9053 49.0723C67.8415 49.3184 67.7298 49.5645 67.5703 49.8105C67.4108 50.0521 67.1989 50.2731 66.9346 50.4736C66.6748 50.6742 66.3604 50.8359 65.9912 50.959C65.6266 51.082 65.2051 51.1436 64.7266 51.1436ZM72.4648 51.123C71.8451 51.123 71.3027 50.9681 70.8379 50.6582C70.3776 50.3438 70.0199 49.8994 69.7646 49.3252C69.514 48.751 69.3887 48.0742 69.3887 47.2949V47.2812C69.3887 46.4974 69.514 45.8184 69.7646 45.2441C70.0153 44.6699 70.3708 44.2279 70.8311 43.918C71.2913 43.6035 71.8359 43.4463 72.4648 43.4463C72.8066 43.4463 73.1257 43.501 73.4219 43.6104C73.7181 43.7152 73.9801 43.8656 74.208 44.0615C74.4359 44.2529 74.6159 44.4831 74.748 44.752H74.8574V40.6641H76.3477V51H74.8574V49.8311H74.748C74.6022 50.0999 74.4176 50.3324 74.1943 50.5283C73.971 50.7197 73.7135 50.8678 73.4219 50.9727C73.1302 51.0729 72.8112 51.123 72.4648 51.123ZM72.8887 49.8516C73.2988 49.8516 73.6543 49.749 73.9551 49.5439C74.2559 49.3389 74.486 49.0449 74.6455 48.6621C74.805 48.2747 74.8848 47.819 74.8848 47.2949V47.2812C74.8848 46.7526 74.8027 46.2969 74.6387 45.9141C74.4792 45.5312 74.249 45.2373 73.9482 45.0322C73.652 44.8226 73.2988 44.7178 72.8887 44.7178C72.4785 44.7178 72.123 44.8226 71.8223 45.0322C71.526 45.2373 71.2982 45.5312 71.1387 45.9141C70.9837 46.2923 70.9062 46.748 70.9062 47.2812V47.2949C70.9062 47.8236 70.9837 48.2793 71.1387 48.6621C71.2982 49.0449 71.526 49.3389 71.8223 49.5439C72.123 49.749 72.4785 49.8516 72.8887 49.8516ZM85.166 51.0479C84.3548 51.0479 83.7669 50.8929 83.4023 50.583C83.0423 50.2686 82.8623 49.7559 82.8623 49.0449V44.7451H81.7002V43.5762H82.8623V41.7031H84.3799V43.5762H85.9727V44.7451H84.3799V48.6826C84.3799 49.0837 84.4596 49.373 84.6191 49.5508C84.7786 49.724 85.043 49.8105 85.4121 49.8105C85.5215 49.8105 85.6149 49.8083 85.6924 49.8037C85.7744 49.7992 85.8678 49.7923 85.9727 49.7832V50.9727C85.8542 50.9909 85.7266 51.0068 85.5898 51.0205C85.4531 51.0387 85.3118 51.0479 85.166 51.0479ZM90.7715 51.1436C90.0469 51.1436 89.4202 50.9886 88.8916 50.6787C88.3675 50.3688 87.9642 49.9268 87.6816 49.3525C87.3991 48.7738 87.2578 48.0879 87.2578 47.2949V47.2812C87.2578 46.4837 87.3991 45.7979 87.6816 45.2236C87.9688 44.6494 88.3743 44.2074 88.8984 43.8975C89.4271 43.5876 90.0514 43.4326 90.7715 43.4326C91.4961 43.4326 92.1204 43.5876 92.6445 43.8975C93.1686 44.2028 93.5719 44.6449 93.8545 45.2236C94.1416 45.7979 94.2852 46.4837 94.2852 47.2812V47.2949C94.2852 48.0879 94.1416 48.7738 93.8545 49.3525C93.5719 49.9268 93.1686 50.3688 92.6445 50.6787C92.125 50.9886 91.5007 51.1436 90.7715 51.1436ZM90.7715 49.8994C91.1953 49.8994 91.5553 49.7969 91.8516 49.5918C92.1478 49.3822 92.3734 49.0837 92.5283 48.6963C92.6833 48.3089 92.7607 47.8418 92.7607 47.2949V47.2812C92.7607 46.7298 92.6833 46.2604 92.5283 45.873C92.3734 45.4857 92.1478 45.1895 91.8516 44.9844C91.5553 44.7747 91.1953 44.6699 90.7715 44.6699C90.3477 44.6699 89.9876 44.7747 89.6914 44.9844C89.3952 45.1895 89.1673 45.4857 89.0078 45.873C88.8529 46.2604 88.7754 46.7298 88.7754 47.2812V47.2949C88.7754 47.8418 88.8529 48.3089 89.0078 48.6963C89.1673 49.0837 89.3952 49.3822 89.6914 49.5918C89.9876 49.7969 90.3477 49.8994 90.7715 49.8994ZM102.666 51.0479C101.855 51.0479 101.267 50.8929 100.902 50.583C100.542 50.2686 100.362 49.7559 100.362 49.0449V44.7451H99.2002V43.5762H100.362V41.7031H101.88V43.5762H103.473V44.7451H101.88V48.6826C101.88 49.0837 101.96 49.373 102.119 49.5508C102.279 49.724 102.543 49.8105 102.912 49.8105C103.021 49.8105 103.115 49.8083 103.192 49.8037C103.274 49.7992 103.368 49.7923 103.473 49.7832V50.9727C103.354 50.9909 103.227 51.0068 103.09 51.0205C102.953 51.0387 102.812 51.0479 102.666 51.0479ZM107.684 51.1436C107.128 51.1436 106.658 51.0365 106.275 50.8223C105.897 50.6035 105.612 50.2891 105.421 49.8789C105.234 49.4642 105.141 48.9652 105.141 48.3818V43.5762H106.624V48.0332C106.624 48.6439 106.745 49.1019 106.986 49.4072C107.228 49.7126 107.622 49.8652 108.169 49.8652C108.461 49.8652 108.72 49.8219 108.948 49.7354C109.176 49.6442 109.368 49.5143 109.522 49.3457C109.677 49.1771 109.791 48.9743 109.864 48.7373C109.942 48.5003 109.98 48.2314 109.98 47.9307V43.5762H111.471V51H109.98V49.8789H109.871C109.753 50.1432 109.591 50.3711 109.386 50.5625C109.181 50.7493 108.935 50.8929 108.647 50.9932C108.365 51.0934 108.044 51.1436 107.684 51.1436ZM113.604 51V43.5762H115.087V44.6973H115.203C115.335 44.3008 115.568 43.9932 115.9 43.7744C116.238 43.5557 116.652 43.4463 117.145 43.4463C117.268 43.4463 117.388 43.4531 117.507 43.4668C117.625 43.4805 117.721 43.4964 117.794 43.5146V44.8818C117.662 44.8545 117.53 44.834 117.397 44.8203C117.27 44.8066 117.135 44.7998 116.994 44.7998C116.616 44.7998 116.283 44.8727 115.996 45.0186C115.714 45.1644 115.49 45.3695 115.326 45.6338C115.167 45.8936 115.087 46.2035 115.087 46.5635V51H113.604ZM119.332 51V43.5762H120.815V44.6973H120.932C121.114 44.3008 121.383 43.9909 121.738 43.7676C122.094 43.5443 122.543 43.4326 123.085 43.4326C123.919 43.4326 124.557 43.6719 124.999 44.1504C125.441 44.6289 125.662 45.3102 125.662 46.1943V51H124.172V46.543C124.172 45.9232 124.042 45.4629 123.782 45.1621C123.527 44.8568 123.126 44.7041 122.579 44.7041C122.219 44.7041 121.907 44.7839 121.643 44.9434C121.378 45.0983 121.173 45.3216 121.027 45.6133C120.886 45.9004 120.815 46.2445 120.815 46.6455V51H119.332ZM134.686 51.1436C133.961 51.1436 133.334 50.9886 132.806 50.6787C132.282 50.3688 131.878 49.9268 131.596 49.3525C131.313 48.7738 131.172 48.0879 131.172 47.2949V47.2812C131.172 46.4837 131.313 45.7979 131.596 45.2236C131.883 44.6494 132.288 44.2074 132.812 43.8975C133.341 43.5876 133.965 43.4326 134.686 43.4326C135.41 43.4326 136.035 43.5876 136.559 43.8975C137.083 44.2028 137.486 44.6449 137.769 45.2236C138.056 45.7979 138.199 46.4837 138.199 47.2812V47.2949C138.199 48.0879 138.056 48.7738 137.769 49.3525C137.486 49.9268 137.083 50.3688 136.559 50.6787C136.039 50.9886 135.415 51.1436 134.686 51.1436ZM134.686 49.8994C135.109 49.8994 135.469 49.7969 135.766 49.5918C136.062 49.3822 136.287 49.0837 136.442 48.6963C136.597 48.3089 136.675 47.8418 136.675 47.2949V47.2812C136.675 46.7298 136.597 46.2604 136.442 45.873C136.287 45.4857 136.062 45.1895 135.766 44.9844C135.469 44.7747 135.109 44.6699 134.686 44.6699C134.262 44.6699 133.902 44.7747 133.605 44.9844C133.309 45.1895 133.081 45.4857 132.922 45.873C132.767 46.2604 132.689 46.7298 132.689 47.2812V47.2949C132.689 47.8418 132.767 48.3089 132.922 48.6963C133.081 49.0837 133.309 49.3822 133.605 49.5918C133.902 49.7969 134.262 49.8994 134.686 49.8994ZM139.963 51V43.5762H141.446V44.6973H141.562C141.745 44.3008 142.014 43.9909 142.369 43.7676C142.725 43.5443 143.174 43.4326 143.716 43.4326C144.55 43.4326 145.188 43.6719 145.63 44.1504C146.072 44.6289 146.293 45.3102 146.293 46.1943V51H144.803V46.543C144.803 45.9232 144.673 45.4629 144.413 45.1621C144.158 44.8568 143.757 44.7041 143.21 44.7041C142.85 44.7041 142.538 44.7839 142.273 44.9434C142.009 45.0983 141.804 45.3216 141.658 45.6133C141.517 45.9004 141.446 46.2445 141.446 46.6455V51H139.963ZM154.975 51.0479C154.163 51.0479 153.576 50.8929 153.211 50.583C152.851 50.2686 152.671 49.7559 152.671 49.0449V44.7451H151.509V43.5762H152.671V41.7031H154.188V43.5762H155.781V44.7451H154.188V48.6826C154.188 49.0837 154.268 49.373 154.428 49.5508C154.587 49.724 154.852 49.8105 155.221 49.8105C155.33 49.8105 155.424 49.8083 155.501 49.8037C155.583 49.7992 155.676 49.7923 155.781 49.7832V50.9727C155.663 50.9909 155.535 51.0068 155.398 51.0205C155.262 51.0387 155.12 51.0479 154.975 51.0479ZM157.586 51V40.6641H159.069V44.6973H159.186C159.368 44.3008 159.637 43.9909 159.992 43.7676C160.348 43.5443 160.797 43.4326 161.339 43.4326C161.89 43.4326 162.357 43.5397 162.74 43.7539C163.123 43.9681 163.415 44.2826 163.615 44.6973C163.816 45.1074 163.916 45.6064 163.916 46.1943V51H162.426V46.543C162.426 45.9232 162.296 45.4629 162.036 45.1621C161.781 44.8568 161.38 44.7041 160.833 44.7041C160.473 44.7041 160.161 44.7839 159.896 44.9434C159.632 45.0983 159.427 45.3216 159.281 45.6133C159.14 45.9004 159.069 46.2445 159.069 46.6455V51H157.586ZM169.098 51.1436C168.373 51.1436 167.751 50.9886 167.231 50.6787C166.712 50.3643 166.311 49.9199 166.028 49.3457C165.75 48.7715 165.611 48.0924 165.611 47.3086V47.3018C165.611 46.527 165.75 45.8503 166.028 45.2715C166.311 44.6927 166.707 44.2415 167.218 43.918C167.733 43.5944 168.334 43.4326 169.022 43.4326C169.715 43.4326 170.31 43.5876 170.807 43.8975C171.308 44.2074 171.693 44.6426 171.962 45.2031C172.231 45.7591 172.365 46.4108 172.365 47.1582V47.6777H166.363V46.6182H171.627L170.916 47.6025V47.0078C170.916 46.4792 170.834 46.0417 170.67 45.6953C170.51 45.3444 170.289 45.0824 170.007 44.9092C169.724 44.736 169.398 44.6494 169.029 44.6494C168.66 44.6494 168.33 44.7406 168.038 44.9229C167.751 45.1006 167.523 45.3649 167.354 45.7158C167.19 46.0667 167.108 46.4974 167.108 47.0078V47.6025C167.108 48.0902 167.19 48.5072 167.354 48.8535C167.519 49.1999 167.751 49.4642 168.052 49.6465C168.357 49.8288 168.717 49.9199 169.132 49.9199C169.451 49.9199 169.724 49.8766 169.952 49.79C170.185 49.6989 170.374 49.5872 170.52 49.4551C170.67 49.3229 170.772 49.193 170.827 49.0654L170.854 49.0107H172.29L172.276 49.0723C172.213 49.3184 172.101 49.5645 171.941 49.8105C171.782 50.0521 171.57 50.2731 171.306 50.4736C171.046 50.6742 170.731 50.8359 170.362 50.959C169.998 51.082 169.576 51.1436 169.098 51.1436ZM182.161 51.2393C181.25 51.2393 180.459 51.0296 179.789 50.6104C179.124 50.1911 178.611 49.5964 178.251 48.8262C177.891 48.056 177.711 47.14 177.711 46.0781V46.0645C177.711 44.998 177.891 44.0798 178.251 43.3096C178.611 42.5394 179.124 41.9447 179.789 41.5254C180.454 41.1061 181.245 40.8965 182.161 40.8965C182.886 40.8965 183.54 41.04 184.123 41.3271C184.711 41.6097 185.192 42.0016 185.565 42.5029C185.944 43.0042 186.174 43.5807 186.256 44.2324V44.2734H184.731L184.725 44.2461C184.633 43.8405 184.467 43.4896 184.226 43.1934C183.984 42.8971 183.688 42.667 183.337 42.5029C182.986 42.3389 182.594 42.2568 182.161 42.2568C181.573 42.2568 181.063 42.4118 180.63 42.7217C180.201 43.0316 179.869 43.4714 179.632 44.041C179.399 44.6061 179.283 45.2806 179.283 46.0645V46.0781C179.283 46.8529 179.399 47.5251 179.632 48.0947C179.869 48.6644 180.201 49.1042 180.63 49.4141C181.063 49.724 181.576 49.8789 182.168 49.8789C182.601 49.8789 182.993 49.806 183.344 49.6602C183.699 49.5143 183.995 49.307 184.232 49.0381C184.469 48.7646 184.631 48.4434 184.718 48.0742L184.731 48.0469H186.263L186.256 48.0811C186.16 48.7145 185.928 49.2682 185.559 49.7422C185.189 50.2161 184.715 50.5853 184.137 50.8496C183.558 51.1094 182.899 51.2393 182.161 51.2393ZM188.17 51V40.6641H189.653V44.6973H189.77C189.952 44.3008 190.221 43.9909 190.576 43.7676C190.932 43.5443 191.381 43.4326 191.923 43.4326C192.474 43.4326 192.941 43.5397 193.324 43.7539C193.707 43.9681 193.999 44.2826 194.199 44.6973C194.4 45.1074 194.5 45.6064 194.5 46.1943V51H193.01V46.543C193.01 45.9232 192.88 45.4629 192.62 45.1621C192.365 44.8568 191.964 44.7041 191.417 44.7041C191.057 44.7041 190.745 44.7839 190.48 44.9434C190.216 45.0983 190.011 45.3216 189.865 45.6133C189.724 45.9004 189.653 46.2445 189.653 46.6455V51H188.17ZM199.682 51.1436C198.957 51.1436 198.335 50.9886 197.815 50.6787C197.296 50.3643 196.895 49.9199 196.612 49.3457C196.334 48.7715 196.195 48.0924 196.195 47.3086V47.3018C196.195 46.527 196.334 45.8503 196.612 45.2715C196.895 44.6927 197.291 44.2415 197.802 43.918C198.317 43.5944 198.918 43.4326 199.606 43.4326C200.299 43.4326 200.894 43.5876 201.391 43.8975C201.892 44.2074 202.277 44.6426 202.546 45.2031C202.815 45.7591 202.949 46.4108 202.949 47.1582V47.6777H196.947V46.6182H202.211L201.5 47.6025V47.0078C201.5 46.4792 201.418 46.0417 201.254 45.6953C201.094 45.3444 200.873 45.0824 200.591 44.9092C200.308 44.736 199.982 44.6494 199.613 44.6494C199.244 44.6494 198.914 44.7406 198.622 44.9229C198.335 45.1006 198.107 45.3649 197.938 45.7158C197.774 46.0667 197.692 46.4974 197.692 47.0078V47.6025C197.692 48.0902 197.774 48.5072 197.938 48.8535C198.103 49.1999 198.335 49.4642 198.636 49.6465C198.941 49.8288 199.301 49.9199 199.716 49.9199C200.035 49.9199 200.308 49.8766 200.536 49.79C200.769 49.6989 200.958 49.5872 201.104 49.4551C201.254 49.3229 201.356 49.193 201.411 49.0654L201.438 49.0107H202.874L202.86 49.0723C202.797 49.3184 202.685 49.5645 202.525 49.8105C202.366 50.0521 202.154 50.2731 201.89 50.4736C201.63 50.6742 201.315 50.8359 200.946 50.959C200.582 51.082 200.16 51.1436 199.682 51.1436ZM207.837 51.1436C207.117 51.1436 206.495 50.9886 205.971 50.6787C205.451 50.3643 205.05 49.9176 204.768 49.3389C204.485 48.7601 204.344 48.0697 204.344 47.2676V47.2539C204.344 46.4655 204.483 45.7865 204.761 45.2168C205.043 44.6471 205.444 44.2074 205.964 43.8975C206.488 43.5876 207.11 43.4326 207.83 43.4326C208.454 43.4326 208.99 43.542 209.437 43.7607C209.888 43.9749 210.245 44.2712 210.51 44.6494C210.779 45.0231 210.947 45.4492 211.016 45.9277L211.022 45.9619H209.594L209.587 45.9482C209.505 45.5837 209.316 45.2806 209.02 45.0391C208.723 44.793 208.329 44.6699 207.837 44.6699C207.427 44.6699 207.074 44.7747 206.777 44.9844C206.481 45.1895 206.253 45.4857 206.094 45.873C205.939 46.2604 205.861 46.7207 205.861 47.2539V47.2676C205.861 47.8145 205.941 48.2839 206.101 48.6758C206.26 49.0677 206.488 49.3708 206.784 49.585C207.08 49.7946 207.431 49.8994 207.837 49.8994C208.302 49.8994 208.678 49.7969 208.965 49.5918C209.257 49.3867 209.462 49.0837 209.58 48.6826L209.594 48.6484L211.016 48.6416L211.002 48.7031C210.915 49.1862 210.74 49.61 210.476 49.9746C210.211 50.3392 209.858 50.6263 209.416 50.8359C208.979 51.041 208.452 51.1436 207.837 51.1436ZM212.766 51V40.6641H214.249V51H212.766ZM217.441 51L214.775 47.5205L215.876 46.5977L219.253 51H217.441ZM214.105 48.4502L214.044 46.7002H214.365L217.305 43.5762H219.048L215.698 46.9668L215.124 47.4385L214.105 48.4502ZM220.6 51V43.5762H222.083V44.7178H222.199C222.363 44.3076 222.618 43.9909 222.965 43.7676C223.316 43.5443 223.735 43.4326 224.223 43.4326C224.56 43.4326 224.863 43.4873 225.132 43.5967C225.401 43.7061 225.631 43.861 225.822 44.0615C226.018 44.2575 226.171 44.4899 226.28 44.7588H226.396C226.52 44.4899 226.693 44.2575 226.916 44.0615C227.139 43.861 227.399 43.7061 227.695 43.5967C227.996 43.4873 228.315 43.4326 228.652 43.4326C229.154 43.4326 229.582 43.5306 229.938 43.7266C230.293 43.918 230.564 44.196 230.751 44.5605C230.938 44.9251 231.031 45.3649 231.031 45.8799V51H229.548V46.2354C229.548 45.8936 229.495 45.611 229.391 45.3877C229.286 45.1598 229.126 44.9889 228.912 44.875C228.702 44.7611 228.438 44.7041 228.119 44.7041C227.805 44.7041 227.529 44.777 227.292 44.9229C227.06 45.0641 226.877 45.2555 226.745 45.4971C226.618 45.734 226.554 46.0029 226.554 46.3037V51H225.07V46.085C225.07 45.8024 225.011 45.5586 224.893 45.3535C224.779 45.1439 224.615 44.9844 224.4 44.875C224.186 44.7611 223.933 44.7041 223.642 44.7041C223.345 44.7041 223.079 44.7816 222.842 44.9365C222.609 45.0915 222.425 45.3011 222.288 45.5654C222.151 45.8252 222.083 46.1169 222.083 46.4404V51H220.6ZM235.146 51.123C234.677 51.123 234.256 51.0342 233.882 50.8564C233.513 50.6742 233.221 50.4167 233.007 50.084C232.793 49.7513 232.686 49.3617 232.686 48.915V48.9014C232.686 48.4548 232.793 48.0742 233.007 47.7598C233.226 47.4453 233.54 47.1992 233.95 47.0215C234.365 46.8392 234.866 46.7298 235.454 46.6934L238.195 46.5293V47.5752L235.659 47.7393C235.149 47.7712 234.773 47.8805 234.531 48.0674C234.29 48.2497 234.169 48.5072 234.169 48.8398V48.8535C234.169 49.1908 234.299 49.4574 234.559 49.6533C234.818 49.8447 235.146 49.9404 235.543 49.9404C235.912 49.9404 236.24 49.8675 236.527 49.7217C236.819 49.5713 237.047 49.3708 237.211 49.1201C237.375 48.8649 237.457 48.5778 237.457 48.2588V45.9209C237.457 45.5107 237.329 45.1986 237.074 44.9844C236.824 44.7656 236.45 44.6562 235.953 44.6562C235.538 44.6562 235.199 44.7292 234.935 44.875C234.675 45.0208 234.502 45.2259 234.415 45.4902L234.401 45.5107H232.973L232.979 45.4629C233.039 45.0527 233.201 44.6973 233.465 44.3965C233.734 44.0911 234.085 43.8542 234.518 43.6855C234.955 43.5169 235.454 43.4326 236.015 43.4326C236.639 43.4326 237.168 43.5329 237.601 43.7334C238.038 43.9294 238.368 44.2142 238.592 44.5879C238.82 44.957 238.934 45.4014 238.934 45.9209V51H237.457V49.9473H237.348C237.202 50.1979 237.02 50.4121 236.801 50.5898C236.582 50.763 236.334 50.8952 236.056 50.9863C235.778 51.0775 235.475 51.123 235.146 51.123ZM241.025 51V43.5762H242.509V44.6973H242.625C242.757 44.3008 242.99 43.9932 243.322 43.7744C243.66 43.5557 244.074 43.4463 244.566 43.4463C244.689 43.4463 244.81 43.4531 244.929 43.4668C245.047 43.4805 245.143 43.4964 245.216 43.5146V44.8818C245.084 44.8545 244.951 44.834 244.819 44.8203C244.692 44.8066 244.557 44.7998 244.416 44.7998C244.038 44.7998 243.705 44.8727 243.418 45.0186C243.135 45.1644 242.912 45.3695 242.748 45.6338C242.589 45.8936 242.509 46.2035 242.509 46.5635V51H241.025ZM246.07 51L248.538 47.3018L246.05 43.5762H247.772L249.372 46.2285H249.488L251.067 43.5762H252.708L250.261 47.2402L252.735 51H251.047L249.427 48.3271H249.311L247.69 51H246.07ZM258.259 51V41.1357H260.029L263.167 48.9971H263.283L266.421 41.1357H268.191V51H266.79V43.7676H266.031L267.631 41.4092L263.789 51H262.654L258.819 41.4092L260.412 43.7676H259.66V51H258.259ZM274.706 51.2393C273.795 51.2393 273.004 51.0296 272.334 50.6104C271.669 50.1911 271.156 49.5964 270.796 48.8262C270.436 48.056 270.256 47.14 270.256 46.0781V46.0645C270.256 44.998 270.436 44.0798 270.796 43.3096C271.156 42.5394 271.669 41.9447 272.334 41.5254C272.999 41.1061 273.79 40.8965 274.706 40.8965C275.431 40.8965 276.085 41.04 276.668 41.3271C277.256 41.6097 277.737 42.0016 278.11 42.5029C278.489 43.0042 278.719 43.5807 278.801 44.2324V44.2734H277.276L277.27 44.2461C277.178 43.8405 277.012 43.4896 276.771 43.1934C276.529 42.8971 276.233 42.667 275.882 42.5029C275.531 42.3389 275.139 42.2568 274.706 42.2568C274.118 42.2568 273.608 42.4118 273.175 42.7217C272.746 43.0316 272.414 43.4714 272.177 44.041C271.944 44.6061 271.828 45.2806 271.828 46.0645V46.0781C271.828 46.8529 271.944 47.5251 272.177 48.0947C272.414 48.6644 272.746 49.1042 273.175 49.4141C273.608 49.724 274.12 49.8789 274.713 49.8789C275.146 49.8789 275.538 49.806 275.889 49.6602C276.244 49.5143 276.54 49.307 276.777 49.0381C277.014 48.7646 277.176 48.4434 277.263 48.0742L277.276 48.0469H278.808L278.801 48.0811C278.705 48.7145 278.473 49.2682 278.104 49.7422C277.734 50.2161 277.26 50.5853 276.682 50.8496C276.103 51.1094 275.444 51.2393 274.706 51.2393ZM281.583 47.6299V46.3447H284.276C284.942 46.3447 285.457 46.1738 285.821 45.832C286.19 45.4857 286.375 45.0072 286.375 44.3965V44.3828C286.375 43.763 286.19 43.2822 285.821 42.9404C285.457 42.5986 284.942 42.4277 284.276 42.4277H281.583V41.1357H284.659C285.306 41.1357 285.874 41.2725 286.361 41.5459C286.854 41.8148 287.239 42.193 287.517 42.6807C287.795 43.1637 287.934 43.7266 287.934 44.3691V44.3828C287.934 45.0254 287.795 45.5928 287.517 46.085C287.239 46.5726 286.854 46.9531 286.361 47.2266C285.874 47.4954 285.306 47.6299 284.659 47.6299H281.583ZM280.817 51V41.1357H282.349V51H280.817ZM296.697 51.1436C295.973 51.1436 295.346 50.9886 294.817 50.6787C294.293 50.3688 293.89 49.9268 293.607 49.3525C293.325 48.7738 293.184 48.0879 293.184 47.2949V47.2812C293.184 46.4837 293.325 45.7979 293.607 45.2236C293.895 44.6494 294.3 44.2074 294.824 43.8975C295.353 43.5876 295.977 43.4326 296.697 43.4326C297.422 43.4326 298.046 43.5876 298.57 43.8975C299.094 44.2028 299.498 44.6449 299.78 45.2236C300.067 45.7979 300.211 46.4837 300.211 47.2812V47.2949C300.211 48.0879 300.067 48.7738 299.78 49.3525C299.498 49.9268 299.094 50.3688 298.57 50.6787C298.051 50.9886 297.426 51.1436 296.697 51.1436ZM296.697 49.8994C297.121 49.8994 297.481 49.7969 297.777 49.5918C298.074 49.3822 298.299 49.0837 298.454 48.6963C298.609 48.3089 298.687 47.8418 298.687 47.2949V47.2812C298.687 46.7298 298.609 46.2604 298.454 45.873C298.299 45.4857 298.074 45.1895 297.777 44.9844C297.481 44.7747 297.121 44.6699 296.697 44.6699C296.273 44.6699 295.913 44.7747 295.617 44.9844C295.321 45.1895 295.093 45.4857 294.934 45.873C294.779 46.2604 294.701 46.7298 294.701 47.2812V47.2949C294.701 47.8418 294.779 48.3089 294.934 48.6963C295.093 49.0837 295.321 49.3822 295.617 49.5918C295.913 49.7969 296.273 49.8994 296.697 49.8994ZM301.975 53.4746V43.5762H303.458V44.7451H303.574C303.715 44.4717 303.898 44.2393 304.121 44.0479C304.349 43.8564 304.609 43.7083 304.9 43.6035C305.192 43.4987 305.511 43.4463 305.857 43.4463C306.482 43.4463 307.024 43.6058 307.484 43.9248C307.945 44.2393 308.3 44.6836 308.551 45.2578C308.806 45.8275 308.934 46.502 308.934 47.2812V47.2949C308.934 48.0788 308.808 48.7578 308.558 49.332C308.307 49.9017 307.951 50.3438 307.491 50.6582C307.031 50.9681 306.486 51.123 305.857 51.123C305.516 51.123 305.197 51.0706 304.9 50.9658C304.604 50.8564 304.342 50.7061 304.114 50.5146C303.886 50.3232 303.706 50.0931 303.574 49.8242H303.458V53.4746H301.975ZM305.434 49.8516C305.848 49.8516 306.204 49.749 306.5 49.5439C306.796 49.3389 307.022 49.0449 307.177 48.6621C307.336 48.2793 307.416 47.8236 307.416 47.2949V47.2812C307.416 46.748 307.336 46.29 307.177 45.9072C307.022 45.5244 306.796 45.2305 306.5 45.0254C306.204 44.8203 305.848 44.7178 305.434 44.7178C305.023 44.7178 304.668 44.8226 304.367 45.0322C304.066 45.2373 303.836 45.5312 303.677 45.9141C303.517 46.2923 303.438 46.748 303.438 47.2812V47.2949C303.438 47.819 303.517 48.2725 303.677 48.6553C303.836 49.0381 304.066 49.3343 304.367 49.5439C304.668 49.749 305.023 49.8516 305.434 49.8516ZM313.514 51.0479C312.702 51.0479 312.115 50.8929 311.75 50.583C311.39 50.2686 311.21 49.7559 311.21 49.0449V44.7451H310.048V43.5762H311.21V41.7031H312.728V43.5762H314.32V44.7451H312.728V48.6826C312.728 49.0837 312.807 49.373 312.967 49.5508C313.126 49.724 313.391 49.8105 313.76 49.8105C313.869 49.8105 313.963 49.8083 314.04 49.8037C314.122 49.7992 314.215 49.7923 314.32 49.7832V50.9727C314.202 50.9909 314.074 51.0068 313.938 51.0205C313.801 51.0387 313.66 51.0479 313.514 51.0479ZM316.077 51V43.5762H317.567V51H316.077ZM316.829 42.25C316.574 42.25 316.355 42.1589 316.173 41.9766C315.991 41.7943 315.899 41.5755 315.899 41.3203C315.899 41.0651 315.991 40.8486 316.173 40.6709C316.355 40.4886 316.574 40.3975 316.829 40.3975C317.084 40.3975 317.303 40.4886 317.485 40.6709C317.668 40.8486 317.759 41.0651 317.759 41.3203C317.759 41.5755 317.668 41.7943 317.485 41.9766C317.303 42.1589 317.084 42.25 316.829 42.25ZM322.865 51.1436C322.141 51.1436 321.514 50.9886 320.985 50.6787C320.461 50.3688 320.058 49.9268 319.775 49.3525C319.493 48.7738 319.352 48.0879 319.352 47.2949V47.2812C319.352 46.4837 319.493 45.7979 319.775 45.2236C320.062 44.6494 320.468 44.2074 320.992 43.8975C321.521 43.5876 322.145 43.4326 322.865 43.4326C323.59 43.4326 324.214 43.5876 324.738 43.8975C325.262 44.2028 325.666 44.6449 325.948 45.2236C326.235 45.7979 326.379 46.4837 326.379 47.2812V47.2949C326.379 48.0879 326.235 48.7738 325.948 49.3525C325.666 49.9268 325.262 50.3688 324.738 50.6787C324.219 50.9886 323.594 51.1436 322.865 51.1436ZM322.865 49.8994C323.289 49.8994 323.649 49.7969 323.945 49.5918C324.242 49.3822 324.467 49.0837 324.622 48.6963C324.777 48.3089 324.854 47.8418 324.854 47.2949V47.2812C324.854 46.7298 324.777 46.2604 324.622 45.873C324.467 45.4857 324.242 45.1895 323.945 44.9844C323.649 44.7747 323.289 44.6699 322.865 44.6699C322.441 44.6699 322.081 44.7747 321.785 44.9844C321.489 45.1895 321.261 45.4857 321.102 45.873C320.947 46.2604 320.869 46.7298 320.869 47.2812V47.2949C320.869 47.8418 320.947 48.3089 321.102 48.6963C321.261 49.0837 321.489 49.3822 321.785 49.5918C322.081 49.7969 322.441 49.8994 322.865 49.8994ZM328.143 51V43.5762H329.626V44.6973H329.742C329.924 44.3008 330.193 43.9909 330.549 43.7676C330.904 43.5443 331.353 43.4326 331.896 43.4326C332.729 43.4326 333.368 43.6719 333.81 44.1504C334.252 44.6289 334.473 45.3102 334.473 46.1943V51H332.982V46.543C332.982 45.9232 332.853 45.4629 332.593 45.1621C332.338 44.8568 331.937 44.7041 331.39 44.7041C331.03 44.7041 330.717 44.7839 330.453 44.9434C330.189 45.0983 329.984 45.3216 329.838 45.6133C329.697 45.9004 329.626 46.2445 329.626 46.6455V51H328.143ZM340.372 51V43.5762H341.862V51H340.372ZM341.124 42.25C340.869 42.25 340.65 42.1589 340.468 41.9766C340.285 41.7943 340.194 41.5755 340.194 41.3203C340.194 41.0651 340.285 40.8486 340.468 40.6709C340.65 40.4886 340.869 40.3975 341.124 40.3975C341.379 40.3975 341.598 40.4886 341.78 40.6709C341.963 40.8486 342.054 41.0651 342.054 41.3203C342.054 41.5755 341.963 41.7943 341.78 41.9766C341.598 42.1589 341.379 42.25 341.124 42.25ZM344.016 51V43.5762H345.499V44.6973H345.615C345.798 44.3008 346.066 43.9909 346.422 43.7676C346.777 43.5443 347.226 43.4326 347.769 43.4326C348.603 43.4326 349.241 43.6719 349.683 44.1504C350.125 44.6289 350.346 45.3102 350.346 46.1943V51H348.855V46.543C348.855 45.9232 348.726 45.4629 348.466 45.1621C348.211 44.8568 347.81 44.7041 347.263 44.7041C346.903 44.7041 346.59 44.7839 346.326 44.9434C346.062 45.0983 345.857 45.3216 345.711 45.6133C345.57 45.9004 345.499 46.2445 345.499 46.6455V51H344.016ZM45.791 73.6113C45.6999 73.6113 45.6019 73.6068 45.4971 73.5977C45.3923 73.5931 45.292 73.5863 45.1963 73.5771V72.4082C45.2692 72.4173 45.349 72.4242 45.4355 72.4287C45.5267 72.4333 45.6133 72.4355 45.6953 72.4355C46.0417 72.4355 46.3219 72.3535 46.5361 72.1895C46.7503 72.0299 46.9121 71.7633 47.0215 71.3896L47.1309 71.0068L44.4375 63.5762H46.0439L48.1426 70.2686L47.6777 69.5029H48.2451L47.7871 70.2686L49.8789 63.5762H51.4443L48.6826 71.2803C48.473 71.8727 48.2406 72.3376 47.9854 72.6748C47.7301 73.0166 47.4271 73.2581 47.0762 73.3994C46.7253 73.5407 46.2969 73.6113 45.791 73.6113ZM55.8125 71.1436C55.0879 71.1436 54.4613 70.9886 53.9326 70.6787C53.4085 70.3688 53.0052 69.9268 52.7227 69.3525C52.4401 68.7738 52.2988 68.0879 52.2988 67.2949V67.2812C52.2988 66.4837 52.4401 65.7979 52.7227 65.2236C53.0098 64.6494 53.4154 64.2074 53.9395 63.8975C54.4681 63.5876 55.0924 63.4326 55.8125 63.4326C56.5371 63.4326 57.1615 63.5876 57.6855 63.8975C58.2096 64.2028 58.613 64.6449 58.8955 65.2236C59.1826 65.7979 59.3262 66.4837 59.3262 67.2812V67.2949C59.3262 68.0879 59.1826 68.7738 58.8955 69.3525C58.613 69.9268 58.2096 70.3688 57.6855 70.6787C57.166 70.9886 56.5417 71.1436 55.8125 71.1436ZM55.8125 69.8994C56.2363 69.8994 56.5964 69.7969 56.8926 69.5918C57.1888 69.3822 57.4144 69.0837 57.5693 68.6963C57.7243 68.3089 57.8018 67.8418 57.8018 67.2949V67.2812C57.8018 66.7298 57.7243 66.2604 57.5693 65.873C57.4144 65.4857 57.1888 65.1895 56.8926 64.9844C56.5964 64.7747 56.2363 64.6699 55.8125 64.6699C55.3887 64.6699 55.0286 64.7747 54.7324 64.9844C54.4362 65.1895 54.2083 65.4857 54.0488 65.873C53.8939 66.2604 53.8164 66.7298 53.8164 67.2812V67.2949C53.8164 67.8418 53.8939 68.3089 54.0488 68.6963C54.2083 69.0837 54.4362 69.3822 54.7324 69.5918C55.0286 69.7969 55.3887 69.8994 55.8125 69.8994ZM63.5645 71.1436C63.0085 71.1436 62.5391 71.0365 62.1562 70.8223C61.778 70.6035 61.4932 70.2891 61.3018 69.8789C61.1149 69.4642 61.0215 68.9652 61.0215 68.3818V63.5762H62.5049V68.0332C62.5049 68.6439 62.6257 69.1019 62.8672 69.4072C63.1087 69.7126 63.5029 69.8652 64.0498 69.8652C64.3415 69.8652 64.6012 69.8219 64.8291 69.7354C65.057 69.6442 65.2484 69.5143 65.4033 69.3457C65.5583 69.1771 65.6722 68.9743 65.7451 68.7373C65.8226 68.5003 65.8613 68.2314 65.8613 67.9307V63.5762H67.3516V71H65.8613V69.8789H65.752C65.6335 70.1432 65.4717 70.3711 65.2666 70.5625C65.0615 70.7493 64.8154 70.8929 64.5283 70.9932C64.2458 71.0934 63.9245 71.1436 63.5645 71.1436ZM69.4844 71V63.5762H70.9678V64.6973H71.084C71.2161 64.3008 71.4486 63.9932 71.7812 63.7744C72.1185 63.5557 72.5332 63.4463 73.0254 63.4463C73.1484 63.4463 73.2692 63.4531 73.3877 63.4668C73.5062 63.4805 73.6019 63.4964 73.6748 63.5146V64.8818C73.5426 64.8545 73.4105 64.834 73.2783 64.8203C73.1507 64.8066 73.0163 64.7998 72.875 64.7998C72.4967 64.7998 72.1641 64.8727 71.877 65.0186C71.5944 65.1644 71.3711 65.3695 71.207 65.6338C71.0475 65.8936 70.9678 66.2035 70.9678 66.5635V71H69.4844ZM83.1357 71.2393C82.2243 71.2393 81.4336 71.0296 80.7637 70.6104C80.0983 70.1911 79.5856 69.5964 79.2256 68.8262C78.8656 68.056 78.6855 67.14 78.6855 66.0781V66.0645C78.6855 64.998 78.8656 64.0798 79.2256 63.3096C79.5856 62.5394 80.0983 61.9447 80.7637 61.5254C81.429 61.1061 82.2197 60.8965 83.1357 60.8965C83.8604 60.8965 84.5143 61.04 85.0977 61.3271C85.6855 61.6097 86.1663 62.0016 86.54 62.5029C86.9183 63.0042 87.1484 63.5807 87.2305 64.2324V64.2734H85.7061L85.6992 64.2461C85.6081 63.8405 85.4417 63.4896 85.2002 63.1934C84.9587 62.8971 84.6624 62.667 84.3115 62.5029C83.9606 62.3389 83.5687 62.2568 83.1357 62.2568C82.5479 62.2568 82.0374 62.4118 81.6045 62.7217C81.1761 63.0316 80.8434 63.4714 80.6064 64.041C80.374 64.6061 80.2578 65.2806 80.2578 66.0645V66.0781C80.2578 66.8529 80.374 67.5251 80.6064 68.0947C80.8434 68.6644 81.1761 69.1042 81.6045 69.4141C82.0374 69.724 82.5501 69.8789 83.1426 69.8789C83.5755 69.8789 83.9674 69.806 84.3184 69.6602C84.6738 69.5143 84.9701 69.307 85.207 69.0381C85.444 68.7646 85.6058 68.4434 85.6924 68.0742L85.7061 68.0469H87.2373L87.2305 68.0811C87.1348 68.7145 86.9023 69.2682 86.5332 69.7422C86.1641 70.2161 85.6901 70.5853 85.1113 70.8496C84.5326 71.1094 83.874 71.2393 83.1357 71.2393ZM88.502 71L90.9697 67.3018L88.4814 63.5762H90.2041L91.8037 66.2285H91.9199L93.499 63.5762H95.1396L92.6924 67.2402L95.167 71H93.4785L91.8584 68.3271H91.7422L90.1221 71H88.502ZM100.943 71.2393C99.9863 71.2393 99.1637 71.0296 98.4756 70.6104C97.7874 70.1865 97.2588 69.5872 96.8896 68.8125C96.5205 68.0378 96.3359 67.124 96.3359 66.0713V66.0576C96.3359 64.9958 96.5228 64.0798 96.8965 63.3096C97.2702 62.5394 97.8011 61.9447 98.4893 61.5254C99.182 61.1061 100 60.8965 100.943 60.8965C101.891 60.8965 102.709 61.1061 103.397 61.5254C104.086 61.9447 104.614 62.5417 104.983 63.3164C105.357 64.0866 105.544 65.0003 105.544 66.0576V66.0713C105.544 67.124 105.359 68.0378 104.99 68.8125C104.621 69.5827 104.09 70.1797 103.397 70.6035C102.709 71.0273 101.891 71.2393 100.943 71.2393ZM100.943 69.8789C101.563 69.8789 102.101 69.7217 102.557 69.4072C103.012 69.0928 103.363 68.6507 103.609 68.0811C103.855 67.5068 103.979 66.8369 103.979 66.0713V66.0576C103.979 65.2829 103.855 64.6107 103.609 64.041C103.363 63.4714 103.012 63.0316 102.557 62.7217C102.101 62.4118 101.563 62.2568 100.943 62.2568C100.324 62.2568 99.7858 62.4118 99.3301 62.7217C98.8789 63.0316 98.528 63.4714 98.2773 64.041C98.0267 64.6107 97.9014 65.2829 97.9014 66.0576V66.0713C97.9014 66.8369 98.0221 67.5068 98.2637 68.0811C98.5098 68.6507 98.8584 69.0928 99.3096 69.4072C99.7653 69.7217 100.31 69.8789 100.943 69.8789ZM107.451 71V63.5762H108.935V64.6973H109.051C109.233 64.3008 109.502 63.9909 109.857 63.7676C110.213 63.5443 110.662 63.4326 111.204 63.4326C112.038 63.4326 112.676 63.6719 113.118 64.1504C113.56 64.6289 113.781 65.3102 113.781 66.1943V71H112.291V66.543C112.291 65.9232 112.161 65.4629 111.901 65.1621C111.646 64.8568 111.245 64.7041 110.698 64.7041C110.338 64.7041 110.026 64.7839 109.762 64.9434C109.497 65.0983 109.292 65.3216 109.146 65.6133C109.005 65.9004 108.935 66.2445 108.935 66.6455V71H107.451ZM118.963 71.1436C118.238 71.1436 117.616 70.9886 117.097 70.6787C116.577 70.3643 116.176 69.9199 115.894 69.3457C115.616 68.7715 115.477 68.0924 115.477 67.3086V67.3018C115.477 66.527 115.616 65.8503 115.894 65.2715C116.176 64.6927 116.573 64.2415 117.083 63.918C117.598 63.5944 118.2 63.4326 118.888 63.4326C119.58 63.4326 120.175 63.5876 120.672 63.8975C121.173 64.2074 121.558 64.6426 121.827 65.2031C122.096 65.7591 122.23 66.4108 122.23 67.1582V67.6777H116.229V66.6182H121.492L120.781 67.6025V67.0078C120.781 66.4792 120.699 66.0417 120.535 65.6953C120.376 65.3444 120.155 65.0824 119.872 64.9092C119.59 64.736 119.264 64.6494 118.895 64.6494C118.525 64.6494 118.195 64.7406 117.903 64.9229C117.616 65.1006 117.388 65.3649 117.22 65.7158C117.056 66.0667 116.974 66.4974 116.974 67.0078V67.6025C116.974 68.0902 117.056 68.5072 117.22 68.8535C117.384 69.1999 117.616 69.4642 117.917 69.6465C118.222 69.8288 118.582 69.9199 118.997 69.9199C119.316 69.9199 119.59 69.8766 119.817 69.79C120.05 69.6989 120.239 69.5872 120.385 69.4551C120.535 69.3229 120.638 69.193 120.692 69.0654L120.72 69.0107H122.155L122.142 69.0723C122.078 69.3184 121.966 69.5645 121.807 69.8105C121.647 70.0521 121.435 70.2731 121.171 70.4736C120.911 70.6742 120.597 70.8359 120.228 70.959C119.863 71.082 119.441 71.1436 118.963 71.1436ZM130.611 71.0479C129.8 71.0479 129.212 70.8929 128.848 70.583C128.488 70.2686 128.308 69.7559 128.308 69.0449V64.7451H127.146V63.5762H128.308V61.7031H129.825V63.5762H131.418V64.7451H129.825V68.6826C129.825 69.0837 129.905 69.373 130.064 69.5508C130.224 69.724 130.488 69.8105 130.857 69.8105C130.967 69.8105 131.06 69.8083 131.138 69.8037C131.22 69.7992 131.313 69.7923 131.418 69.7832V70.9727C131.299 70.9909 131.172 71.0068 131.035 71.0205C130.898 71.0387 130.757 71.0479 130.611 71.0479ZM136.189 71.1436C135.465 71.1436 134.843 70.9886 134.323 70.6787C133.804 70.3643 133.403 69.9199 133.12 69.3457C132.842 68.7715 132.703 68.0924 132.703 67.3086V67.3018C132.703 66.527 132.842 65.8503 133.12 65.2715C133.403 64.6927 133.799 64.2415 134.31 63.918C134.825 63.5944 135.426 63.4326 136.114 63.4326C136.807 63.4326 137.402 63.5876 137.898 63.8975C138.4 64.2074 138.785 64.6426 139.054 65.2031C139.323 65.7591 139.457 66.4108 139.457 67.1582V67.6777H133.455V66.6182H138.719L138.008 67.6025V67.0078C138.008 66.4792 137.926 66.0417 137.762 65.6953C137.602 65.3444 137.381 65.0824 137.099 64.9092C136.816 64.736 136.49 64.6494 136.121 64.6494C135.752 64.6494 135.422 64.7406 135.13 64.9229C134.843 65.1006 134.615 65.3649 134.446 65.7158C134.282 66.0667 134.2 66.4974 134.2 67.0078V67.6025C134.2 68.0902 134.282 68.5072 134.446 68.8535C134.61 69.1999 134.843 69.4642 135.144 69.6465C135.449 69.8288 135.809 69.9199 136.224 69.9199C136.543 69.9199 136.816 69.8766 137.044 69.79C137.276 69.6989 137.465 69.5872 137.611 69.4551C137.762 69.3229 137.864 69.193 137.919 69.0654L137.946 69.0107H139.382L139.368 69.0723C139.304 69.3184 139.193 69.5645 139.033 69.8105C138.874 70.0521 138.662 70.2731 138.397 70.4736C138.138 70.6742 137.823 70.8359 137.454 70.959C137.09 71.082 136.668 71.1436 136.189 71.1436ZM141.221 71V63.5762H142.704V64.6973H142.82C143.003 64.3008 143.271 63.9909 143.627 63.7676C143.982 63.5443 144.431 63.4326 144.974 63.4326C145.808 63.4326 146.446 63.6719 146.888 64.1504C147.33 64.6289 147.551 65.3102 147.551 66.1943V71H146.061V66.543C146.061 65.9232 145.931 65.4629 145.671 65.1621C145.416 64.8568 145.015 64.7041 144.468 64.7041C144.108 64.7041 143.796 64.7839 143.531 64.9434C143.267 65.0983 143.062 65.3216 142.916 65.6133C142.775 65.9004 142.704 66.2445 142.704 66.6455V71H141.221ZM151.652 71.123C151.183 71.123 150.761 71.0342 150.388 70.8564C150.019 70.6742 149.727 70.4167 149.513 70.084C149.299 69.7513 149.191 69.3617 149.191 68.915V68.9014C149.191 68.4548 149.299 68.0742 149.513 67.7598C149.731 67.4453 150.046 67.1992 150.456 67.0215C150.871 66.8392 151.372 66.7298 151.96 66.6934L154.701 66.5293V67.5752L152.165 67.7393C151.655 67.7712 151.279 67.8805 151.037 68.0674C150.796 68.2497 150.675 68.5072 150.675 68.8398V68.8535C150.675 69.1908 150.805 69.4574 151.064 69.6533C151.324 69.8447 151.652 69.9404 152.049 69.9404C152.418 69.9404 152.746 69.8675 153.033 69.7217C153.325 69.5713 153.553 69.3708 153.717 69.1201C153.881 68.8649 153.963 68.5778 153.963 68.2588V65.9209C153.963 65.5107 153.835 65.1986 153.58 64.9844C153.329 64.7656 152.956 64.6562 152.459 64.6562C152.044 64.6562 151.705 64.7292 151.44 64.875C151.181 65.0208 151.007 65.2259 150.921 65.4902L150.907 65.5107H149.479L149.485 65.4629C149.545 65.0527 149.706 64.6973 149.971 64.3965C150.24 64.0911 150.59 63.8542 151.023 63.6855C151.461 63.5169 151.96 63.4326 152.521 63.4326C153.145 63.4326 153.674 63.5329 154.106 63.7334C154.544 63.9294 154.874 64.2142 155.098 64.5879C155.326 64.957 155.439 65.4014 155.439 65.9209V71H153.963V69.9473H153.854C153.708 70.1979 153.525 70.4121 153.307 70.5898C153.088 70.763 152.84 70.8952 152.562 70.9863C152.284 71.0775 151.98 71.123 151.652 71.123ZM157.531 71V63.5762H159.015V64.6973H159.131C159.313 64.3008 159.582 63.9909 159.938 63.7676C160.293 63.5443 160.742 63.4326 161.284 63.4326C162.118 63.4326 162.756 63.6719 163.198 64.1504C163.64 64.6289 163.861 65.3102 163.861 66.1943V71H162.371V66.543C162.371 65.9232 162.241 65.4629 161.981 65.1621C161.726 64.8568 161.325 64.7041 160.778 64.7041C160.418 64.7041 160.106 64.7839 159.842 64.9434C159.577 65.0983 159.372 65.3216 159.227 65.6133C159.085 65.9004 159.015 66.2445 159.015 66.6455V71H157.531ZM168.729 71.0479C167.917 71.0479 167.329 70.8929 166.965 70.583C166.605 70.2686 166.425 69.7559 166.425 69.0449V64.7451H165.263V63.5762H166.425V61.7031H167.942V63.5762H169.535V64.7451H167.942V68.6826C167.942 69.0837 168.022 69.373 168.182 69.5508C168.341 69.724 168.605 69.8105 168.975 69.8105C169.084 69.8105 169.177 69.8083 169.255 69.8037C169.337 69.7992 169.43 69.7923 169.535 69.7832V70.9727C169.417 70.9909 169.289 71.0068 169.152 71.0205C169.016 71.0387 168.874 71.0479 168.729 71.0479ZM177.786 71.1436C177.189 71.1436 176.67 71.057 176.228 70.8838C175.785 70.7061 175.435 70.4622 175.175 70.1523C174.915 69.8379 174.762 69.4733 174.717 69.0586V69.0449H176.207V69.0586C176.303 69.3366 176.485 69.5622 176.754 69.7354C177.023 69.9085 177.378 69.9951 177.82 69.9951C178.126 69.9951 178.392 69.9518 178.62 69.8652C178.853 69.7786 179.035 69.6579 179.167 69.5029C179.299 69.348 179.365 69.1702 179.365 68.9697V68.9561C179.365 68.7236 179.272 68.5277 179.085 68.3682C178.898 68.2087 178.59 68.0788 178.162 67.9785L176.973 67.7051C176.508 67.6003 176.123 67.4567 175.817 67.2744C175.512 67.0921 175.286 66.8688 175.141 66.6045C174.995 66.3356 174.922 66.0212 174.922 65.6611V65.6543C174.922 65.2214 175.045 64.8385 175.291 64.5059C175.537 64.1686 175.877 63.9066 176.31 63.7197C176.747 63.5283 177.246 63.4326 177.807 63.4326C178.372 63.4326 178.864 63.5215 179.283 63.6992C179.707 63.8724 180.042 64.1139 180.288 64.4238C180.534 64.7292 180.68 65.0846 180.726 65.4902V65.4971H179.304V65.4834C179.235 65.2236 179.071 65.0072 178.812 64.834C178.556 64.6608 178.219 64.5742 177.8 64.5742C177.531 64.5742 177.292 64.6175 177.082 64.7041C176.872 64.7861 176.706 64.9023 176.583 65.0527C176.465 65.1986 176.405 65.3717 176.405 65.5723V65.5859C176.405 65.7409 176.444 65.8776 176.521 65.9961C176.604 66.11 176.731 66.2126 176.904 66.3037C177.077 66.3903 177.301 66.4678 177.574 66.5361L178.757 66.8027C179.468 66.9714 179.996 67.2152 180.343 67.5342C180.694 67.8532 180.869 68.2816 180.869 68.8193V68.833C180.869 69.2887 180.735 69.6921 180.466 70.043C180.197 70.3893 179.83 70.6605 179.365 70.8564C178.905 71.0479 178.379 71.1436 177.786 71.1436ZM185.75 71.1436C185.025 71.1436 184.403 70.9886 183.884 70.6787C183.364 70.3643 182.963 69.9199 182.681 69.3457C182.403 68.7715 182.264 68.0924 182.264 67.3086V67.3018C182.264 66.527 182.403 65.8503 182.681 65.2715C182.963 64.6927 183.36 64.2415 183.87 63.918C184.385 63.5944 184.987 63.4326 185.675 63.4326C186.368 63.4326 186.962 63.5876 187.459 63.8975C187.96 64.2074 188.345 64.6426 188.614 65.2031C188.883 65.7591 189.018 66.4108 189.018 67.1582V67.6777H183.016V66.6182H188.279L187.568 67.6025V67.0078C187.568 66.4792 187.486 66.0417 187.322 65.6953C187.163 65.3444 186.942 65.0824 186.659 64.9092C186.377 64.736 186.051 64.6494 185.682 64.6494C185.312 64.6494 184.982 64.7406 184.69 64.9229C184.403 65.1006 184.175 65.3649 184.007 65.7158C183.843 66.0667 183.761 66.4974 183.761 67.0078V67.6025C183.761 68.0902 183.843 68.5072 184.007 68.8535C184.171 69.1999 184.403 69.4642 184.704 69.6465C185.009 69.8288 185.369 69.9199 185.784 69.9199C186.103 69.9199 186.377 69.8766 186.604 69.79C186.837 69.6989 187.026 69.5872 187.172 69.4551C187.322 69.3229 187.425 69.193 187.479 69.0654L187.507 69.0107H188.942L188.929 69.0723C188.865 69.3184 188.753 69.5645 188.594 69.8105C188.434 70.0521 188.222 70.2731 187.958 70.4736C187.698 70.6742 187.384 70.8359 187.015 70.959C186.65 71.082 186.229 71.1436 185.75 71.1436ZM193.584 71.0479C192.773 71.0479 192.185 70.8929 191.82 70.583C191.46 70.2686 191.28 69.7559 191.28 69.0449V64.7451H190.118V63.5762H191.28V61.7031H192.798V63.5762H194.391V64.7451H192.798V68.6826C192.798 69.0837 192.878 69.373 193.037 69.5508C193.197 69.724 193.461 69.8105 193.83 69.8105C193.939 69.8105 194.033 69.8083 194.11 69.8037C194.192 69.7992 194.286 69.7923 194.391 69.7832V70.9727C194.272 70.9909 194.145 71.0068 194.008 71.0205C193.871 71.0387 193.73 71.0479 193.584 71.0479ZM198.957 71.0479C198.146 71.0479 197.558 70.8929 197.193 70.583C196.833 70.2686 196.653 69.7559 196.653 69.0449V64.7451H195.491V63.5762H196.653V61.7031H198.171V63.5762H199.764V64.7451H198.171V68.6826C198.171 69.0837 198.251 69.373 198.41 69.5508C198.57 69.724 198.834 69.8105 199.203 69.8105C199.312 69.8105 199.406 69.8083 199.483 69.8037C199.565 69.7992 199.659 69.7923 199.764 69.7832V70.9727C199.645 70.9909 199.518 71.0068 199.381 71.0205C199.244 71.0387 199.103 71.0479 198.957 71.0479ZM201.521 71V63.5762H203.011V71H201.521ZM202.272 62.25C202.017 62.25 201.799 62.1589 201.616 61.9766C201.434 61.7943 201.343 61.5755 201.343 61.3203C201.343 61.0651 201.434 60.8486 201.616 60.6709C201.799 60.4886 202.017 60.3975 202.272 60.3975C202.528 60.3975 202.746 60.4886 202.929 60.6709C203.111 60.8486 203.202 61.0651 203.202 61.3203C203.202 61.5755 203.111 61.7943 202.929 61.9766C202.746 62.1589 202.528 62.25 202.272 62.25ZM205.164 71V63.5762H206.647V64.6973H206.764C206.946 64.3008 207.215 63.9909 207.57 63.7676C207.926 63.5443 208.375 63.4326 208.917 63.4326C209.751 63.4326 210.389 63.6719 210.831 64.1504C211.273 64.6289 211.494 65.3102 211.494 66.1943V71H210.004V66.543C210.004 65.9232 209.874 65.4629 209.614 65.1621C209.359 64.8568 208.958 64.7041 208.411 64.7041C208.051 64.7041 207.739 64.7839 207.475 64.9434C207.21 65.0983 207.005 65.3216 206.859 65.6133C206.718 65.9004 206.647 66.2445 206.647 66.6455V71H205.164ZM216.696 73.6182C216.067 73.6182 215.521 73.5316 215.056 73.3584C214.595 73.1852 214.231 72.9437 213.962 72.6338C213.693 72.3239 213.529 71.9639 213.47 71.5537L213.477 71.54H214.98L214.987 71.5537C215.051 71.8089 215.231 72.0186 215.527 72.1826C215.824 72.3467 216.22 72.4287 216.717 72.4287C217.327 72.4287 217.804 72.2897 218.146 72.0117C218.492 71.7337 218.665 71.3441 218.665 70.8428V69.3867H218.549C218.403 69.651 218.216 69.8789 217.988 70.0703C217.76 70.2572 217.501 70.3984 217.209 70.4941C216.917 70.5898 216.601 70.6377 216.259 70.6377C215.63 70.6377 215.083 70.4873 214.618 70.1865C214.158 69.8812 213.802 69.4619 213.552 68.9287C213.306 68.391 213.183 67.7734 213.183 67.0762V67.0625C213.183 66.3561 213.308 65.7318 213.559 65.1895C213.809 64.6426 214.167 64.2165 214.632 63.9111C215.097 63.6012 215.65 63.4463 216.293 63.4463C216.639 63.4463 216.956 63.501 217.243 63.6104C217.535 63.7197 217.792 63.8747 218.016 64.0752C218.239 64.2757 218.424 64.515 218.569 64.793H218.658V63.5762H220.142V70.8496C220.142 71.4102 220 71.8978 219.718 72.3125C219.44 72.7272 219.043 73.0485 218.528 73.2764C218.013 73.5042 217.403 73.6182 216.696 73.6182ZM216.676 69.4072C217.095 69.4072 217.455 69.3092 217.756 69.1133C218.057 68.9128 218.287 68.637 218.446 68.2861C218.61 67.9352 218.692 67.5296 218.692 67.0693V67.0557C218.692 66.5999 218.61 66.1943 218.446 65.8389C218.287 65.4834 218.057 65.2054 217.756 65.0049C217.455 64.8044 217.095 64.7041 216.676 64.7041C216.257 64.7041 215.899 64.8044 215.603 65.0049C215.311 65.2054 215.088 65.4834 214.933 65.8389C214.778 66.1898 214.7 66.5954 214.7 67.0557V67.0693C214.7 67.5296 214.778 67.9352 214.933 68.2861C215.088 68.637 215.311 68.9128 215.603 69.1133C215.899 69.3092 216.257 69.4072 216.676 69.4072ZM224.981 71.1436C224.384 71.1436 223.865 71.057 223.423 70.8838C222.981 70.7061 222.63 70.4622 222.37 70.1523C222.11 69.8379 221.958 69.4733 221.912 69.0586V69.0449H223.402V69.0586C223.498 69.3366 223.68 69.5622 223.949 69.7354C224.218 69.9085 224.574 69.9951 225.016 69.9951C225.321 69.9951 225.588 69.9518 225.815 69.8652C226.048 69.7786 226.23 69.6579 226.362 69.5029C226.494 69.348 226.561 69.1702 226.561 68.9697V68.9561C226.561 68.7236 226.467 68.5277 226.28 68.3682C226.093 68.2087 225.786 68.0788 225.357 67.9785L224.168 67.7051C223.703 67.6003 223.318 67.4567 223.013 67.2744C222.707 67.0921 222.482 66.8688 222.336 66.6045C222.19 66.3356 222.117 66.0212 222.117 65.6611V65.6543C222.117 65.2214 222.24 64.8385 222.486 64.5059C222.732 64.1686 223.072 63.9066 223.505 63.7197C223.942 63.5283 224.441 63.4326 225.002 63.4326C225.567 63.4326 226.059 63.5215 226.479 63.6992C226.902 63.8724 227.237 64.1139 227.483 64.4238C227.729 64.7292 227.875 65.0846 227.921 65.4902V65.4971H226.499V65.4834C226.431 65.2236 226.267 65.0072 226.007 64.834C225.752 64.6608 225.414 64.5742 224.995 64.5742C224.726 64.5742 224.487 64.6175 224.277 64.7041C224.068 64.7861 223.901 64.9023 223.778 65.0527C223.66 65.1986 223.601 65.3717 223.601 65.5723V65.5859C223.601 65.7409 223.639 65.8776 223.717 65.9961C223.799 66.11 223.926 66.2126 224.1 66.3037C224.273 66.3903 224.496 66.4678 224.77 66.5361L225.952 66.8027C226.663 66.9714 227.192 67.2152 227.538 67.5342C227.889 67.8532 228.064 68.2816 228.064 68.8193V68.833C228.064 69.2887 227.93 69.6921 227.661 70.043C227.392 70.3893 227.025 70.6605 226.561 70.8564C226.1 71.0479 225.574 71.1436 224.981 71.1436ZM230.97 71.1094C230.687 71.1094 230.448 71.0114 230.252 70.8154C230.061 70.6195 229.965 70.3848 229.965 70.1113C229.965 69.8288 230.061 69.5918 230.252 69.4004C230.448 69.209 230.687 69.1133 230.97 69.1133C231.257 69.1133 231.496 69.209 231.688 69.4004C231.879 69.5918 231.975 69.8288 231.975 70.1113C231.975 70.3848 231.879 70.6195 231.688 70.8154C231.496 71.0114 231.257 71.1094 230.97 71.1094Z" fill="white" fill-opacity="0.7"/>
</svg>
