<svg width="384" height="89" viewBox="0 0 384 89" fill="none" xmlns="http://www.w3.org/2000/svg">
<rect x="0.5" y="0.5" width="383" height="88" rx="3.5" fill="#FAEFE0"/>
<rect x="0.5" y="0.5" width="383" height="88" rx="3.5" stroke="#F9AE4D"/>
<path fill-rule="evenodd" clip-rule="evenodd" d="M26 18C21.5817 18 18 21.5817 18 26C18 30.4183 21.5817 34 26 34C30.4183 34 34 30.4183 34 26C34 21.5817 30.4183 18 26 18Z" fill="#F9AE4D"/>
<path fill-rule="evenodd" clip-rule="evenodd" d="M25.0812 29.4907C25.0656 30.0092 25.4817 30.4381 26.0005 30.4381C26.5195 30.4381 26.9357 30.0088 26.9197 29.49L26.8026 25.69C26.7892 25.2558 26.4334 24.9108 25.999 24.9108C25.5644 24.9108 25.2085 25.2562 25.1954 25.6906L25.0812 29.4907ZM26.7231 21.8983C26.5214 21.6994 26.2799 21.6 25.9987 21.6C25.726 21.6 25.4888 21.6994 25.2871 21.8983C25.0825 22.0972 24.9788 22.3386 24.976 22.6227C24.9788 22.9011 25.0825 23.1398 25.2871 23.3386C25.4888 23.5375 25.726 23.6369 25.9987 23.6369C26.2799 23.6369 26.5214 23.5375 26.7231 23.3386C26.9248 23.1398 27.0243 22.9011 27.0214 22.6227C27.0243 22.3386 26.9248 22.0972 26.7231 21.8983Z" fill="#F9AE4D"/>
<path d="M25.9987 21.6C26.2799 21.6 26.5214 21.6994 26.7231 21.8983C26.9248 22.0972 27.0243 22.3386 27.0214 22.6227C27.0243 22.9011 26.9248 23.1398 26.7231 23.3386C26.5214 23.5375 26.2799 23.6369 25.9987 23.6369C25.726 23.6369 25.4888 23.5375 25.2871 23.3386C25.0825 23.1398 24.9788 22.9011 24.976 22.6227C24.9788 22.3386 25.0825 22.0972 25.2871 21.8983C25.4888 21.6994 25.726 21.6 25.9987 21.6Z" fill="white"/>
<path d="M26.0005 30.4381C25.4817 30.4381 25.0656 30.0092 25.0812 29.4907L25.1954 25.6906C25.2085 25.2562 25.5644 24.9108 25.999 24.9108C26.4334 24.9108 26.7892 25.2558 26.8026 25.69L26.9197 29.49C26.9357 30.0088 26.5195 30.4381 26.0005 30.4381Z" fill="white"/>
<path d="M44.5724 21.7734V20.5455H51.8896V21.7734H48.9396V30H47.5178V21.7734H44.5724ZM55.3542 30.1431C54.6895 30.1431 54.1093 29.9908 53.6138 29.6861C53.1183 29.3814 52.7336 28.9551 52.4597 28.4073C52.1858 27.8595 52.0488 27.2193 52.0488 26.4869C52.0488 25.7513 52.1858 25.1081 52.4597 24.5572C52.7336 24.0063 53.1183 23.5785 53.6138 23.2738C54.1093 22.9691 54.6895 22.8168 55.3542 22.8168C56.019 22.8168 56.5991 22.9691 57.0946 23.2738C57.5901 23.5785 57.9748 24.0063 58.2488 24.5572C58.5227 25.1081 58.6596 25.7513 58.6596 26.4869C58.6596 27.2193 58.5227 27.8595 58.2488 28.4073C57.9748 28.9551 57.5901 29.3814 57.0946 29.6861C56.5991 29.9908 56.019 30.1431 55.3542 30.1431ZM55.3588 28.9844C55.7897 28.9844 56.1467 28.8705 56.4299 28.6428C56.713 28.415 56.9223 28.1119 57.0577 27.7333C57.1962 27.3548 57.2654 26.9377 57.2654 26.4822C57.2654 26.0298 57.1962 25.6143 57.0577 25.2358C56.9223 24.8542 56.713 24.5479 56.4299 24.3171C56.1467 24.0863 55.7897 23.9709 55.3588 23.9709C54.9249 23.9709 54.5648 24.0863 54.2786 24.3171C53.9954 24.5479 53.7846 24.8542 53.6461 25.2358C53.5107 25.6143 53.443 26.0298 53.443 26.4822C53.443 26.9377 53.5107 27.3548 53.6461 27.7333C53.7846 28.1119 53.9954 28.415 54.2786 28.6428C54.5648 28.8705 54.9249 28.9844 55.3588 28.9844ZM65.7044 30.157C65.255 30.157 64.8488 30.0739 64.4856 29.9077C64.1225 29.7384 63.8347 29.4937 63.6223 29.1737C63.4131 28.8536 63.3084 28.4612 63.3084 27.9964C63.3084 27.5964 63.3854 27.267 63.5392 27.0085C63.6931 26.75 63.9009 26.5453 64.1625 26.3945C64.4241 26.2437 64.7164 26.1299 65.0396 26.0529C65.3627 25.976 65.6921 25.9175 66.0275 25.8775C66.4522 25.8282 66.7969 25.7882 67.0616 25.7575C67.3263 25.7236 67.5186 25.6697 67.6387 25.5959C67.7587 25.522 67.8187 25.402 67.8187 25.2358V25.2035C67.8187 24.8003 67.7048 24.4879 67.4771 24.2663C67.2524 24.0447 66.917 23.9339 66.4707 23.9339C66.006 23.9339 65.6397 24.037 65.372 24.2433C65.1073 24.4464 64.9242 24.6726 64.8226 24.9219L63.5254 24.6264C63.6793 24.1955 63.9039 23.8478 64.1994 23.5831C64.4979 23.3153 64.8411 23.1214 65.2289 23.0014C65.6167 22.8783 66.0244 22.8168 66.4522 22.8168C66.7354 22.8168 67.0355 22.8506 67.3525 22.9183C67.6725 22.983 67.9711 23.103 68.248 23.2784C68.5281 23.4538 68.7574 23.7047 68.9359 24.0309C69.1144 24.354 69.2037 24.7741 69.2037 25.2912V30H67.8556V29.0305H67.8002C67.711 29.209 67.5771 29.3845 67.3986 29.5568C67.2201 29.7292 66.9908 29.8723 66.7108 29.9862C66.4307 30.1 66.0952 30.157 65.7044 30.157ZM66.0044 29.049C66.3861 29.049 66.7123 28.9736 66.9831 28.8228C67.257 28.672 67.4648 28.475 67.6064 28.2319C67.751 27.9857 67.8233 27.7225 67.8233 27.4425V26.5284C67.7741 26.5777 67.6787 26.6238 67.5371 26.6669C67.3986 26.7069 67.2401 26.7423 67.0616 26.7731C66.8831 26.8008 66.7092 26.8269 66.54 26.8516C66.3707 26.8731 66.2291 26.8916 66.1152 26.907C65.8475 26.9408 65.6028 26.9978 65.3812 27.0778C65.1627 27.1578 64.9873 27.2732 64.8549 27.424C64.7257 27.5717 64.661 27.7687 64.661 28.0149C64.661 28.3565 64.7872 28.6151 65.0396 28.7905C65.292 28.9628 65.6136 29.049 66.0044 29.049ZM74.029 30.1431C73.3427 30.1431 72.7518 29.9877 72.2563 29.6768C71.7639 29.3629 71.3853 28.9305 71.1206 28.3796C70.856 27.8287 70.7236 27.1978 70.7236 26.4869C70.7236 25.7667 70.859 25.1312 71.1299 24.5803C71.4007 24.0263 71.7823 23.5939 72.2748 23.283C72.7672 22.9722 73.3473 22.8168 74.0152 22.8168C74.5538 22.8168 75.0339 22.9168 75.4555 23.1168C75.8772 23.3138 76.2172 23.5908 76.4758 23.9478C76.7374 24.3048 76.8928 24.7218 76.942 25.1989H75.5986C75.5248 24.8665 75.3555 24.5803 75.0908 24.3402C74.8292 24.1001 74.4784 23.9801 74.0383 23.9801C73.6536 23.9801 73.3166 24.0817 73.0273 24.2848C72.741 24.4848 72.5179 24.7711 72.3579 25.1435C72.1978 25.5128 72.1178 25.9498 72.1178 26.4545C72.1178 26.9716 72.1963 27.4179 72.3532 27.7933C72.5102 28.1688 72.7318 28.4596 73.018 28.6658C73.3073 28.872 73.6474 28.9751 74.0383 28.9751C74.2999 28.9751 74.5368 28.9274 74.7492 28.832C74.9646 28.7335 75.1447 28.5935 75.2893 28.4119C75.4371 28.2304 75.5402 28.0118 75.5986 27.7564H76.942C76.8928 28.215 76.7435 28.6243 76.4942 28.9844C76.2449 29.3445 75.911 29.6276 75.4925 29.8338C75.077 30.04 74.5892 30.1431 74.029 30.1431ZM81.405 30.1431C80.7187 30.1431 80.1278 29.9877 79.6323 29.6768C79.1399 29.3629 78.7613 28.9305 78.4966 28.3796C78.2319 27.8287 78.0996 27.1978 78.0996 26.4869C78.0996 25.7667 78.235 25.1312 78.5059 24.5803C78.7767 24.0263 79.1583 23.5939 79.6507 23.283C80.1432 22.9722 80.7233 22.8168 81.3912 22.8168C81.9297 22.8168 82.4099 22.9168 82.8315 23.1168C83.2531 23.3138 83.5932 23.5908 83.8517 23.9478C84.1133 24.3048 84.2688 24.7218 84.318 25.1989H82.9746C82.9007 24.8665 82.7315 24.5803 82.4668 24.3402C82.2052 24.1001 81.8543 23.9801 81.4142 23.9801C81.0295 23.9801 80.6925 24.0817 80.4032 24.2848C80.117 24.4848 79.8939 24.7711 79.7338 25.1435C79.5738 25.5128 79.4938 25.9498 79.4938 26.4545C79.4938 26.9716 79.5723 27.4179 79.7292 27.7933C79.8862 28.1688 80.1078 28.4596 80.394 28.6658C80.6833 28.872 81.0234 28.9751 81.4142 28.9751C81.6758 28.9751 81.9128 28.9274 82.1252 28.832C82.3406 28.7335 82.5207 28.5935 82.6653 28.4119C82.813 28.2304 82.9161 28.0118 82.9746 27.7564H84.318C84.2688 28.215 84.1195 28.6243 83.8702 28.9844C83.6209 29.3445 83.287 29.6276 82.8684 29.8338C82.4529 30.04 81.9651 30.1431 81.405 30.1431ZM88.8502 30.1431C88.1516 30.1431 87.5499 29.9938 87.0452 29.6953C86.5435 29.3937 86.1557 28.9705 85.8818 28.4258C85.611 27.878 85.4756 27.2363 85.4756 26.5007C85.4756 25.7744 85.611 25.1342 85.8818 24.5803C86.1557 24.0263 86.5374 23.5939 87.0267 23.283C87.5191 22.9722 88.0947 22.8168 88.7533 22.8168C89.1534 22.8168 89.5412 22.8829 89.9166 23.0153C90.2921 23.1476 90.6291 23.3554 90.9276 23.6385C91.2262 23.9216 91.4616 24.2894 91.634 24.7418C91.8063 25.1912 91.8925 25.7375 91.8925 26.3807V26.87H86.2558V25.8359H90.5399C90.5399 25.4728 90.466 25.1512 90.3183 24.8711C90.1705 24.5879 89.9628 24.3648 89.695 24.2017C89.4304 24.0386 89.1195 23.957 88.7625 23.957C88.3747 23.957 88.0362 24.0524 87.7469 24.2433C87.4607 24.431 87.2391 24.6772 87.0821 24.9819C86.9282 25.2835 86.8513 25.6113 86.8513 25.9652V26.7731C86.8513 27.247 86.9344 27.6502 87.1006 27.9826C87.2699 28.315 87.5053 28.5689 87.8069 28.7443C88.1085 28.9167 88.4609 29.0028 88.8641 29.0028C89.1257 29.0028 89.3642 28.9659 89.5796 28.892C89.7951 28.8151 89.9813 28.7012 90.1382 28.5504C90.2952 28.3996 90.4152 28.2134 90.4983 27.9918L91.8048 28.2273C91.7001 28.612 91.5124 28.949 91.2416 29.2383C90.9738 29.5245 90.6368 29.7476 90.2306 29.9077C89.8274 30.0646 89.3673 30.1431 88.8502 30.1431ZM98.7376 24.6403L97.4865 24.8619C97.4342 24.7018 97.3511 24.5495 97.2372 24.4048C97.1264 24.2602 96.9756 24.1417 96.7848 24.0494C96.594 23.957 96.3555 23.9109 96.0692 23.9109C95.6784 23.9109 95.3522 23.9986 95.0906 24.174C94.829 24.3464 94.6982 24.5695 94.6982 24.8434C94.6982 25.0804 94.7859 25.2712 94.9613 25.4158C95.1367 25.5605 95.4199 25.679 95.8107 25.7713L96.9371 26.0298C97.5896 26.1806 98.0759 26.413 98.396 26.7269C98.716 27.0408 98.8761 27.4486 98.8761 27.9503C98.8761 28.375 98.753 28.7536 98.5067 29.0859C98.2636 29.4152 97.9235 29.6738 97.4865 29.8615C97.0526 30.0492 96.5494 30.1431 95.9769 30.1431C95.1829 30.1431 94.535 29.9738 94.0334 29.6353C93.5317 29.2937 93.224 28.8089 93.1101 28.1811L94.4442 27.978C94.5273 28.3258 94.6982 28.5889 94.9567 28.7674C95.2152 28.9428 95.5522 29.0305 95.9677 29.0305C96.4201 29.0305 96.7817 28.9367 97.0526 28.7489C97.3234 28.5581 97.4588 28.3258 97.4588 28.0518C97.4588 27.8303 97.3757 27.6441 97.2095 27.4933C97.0464 27.3424 96.7956 27.2286 96.457 27.1516L95.2567 26.8885C94.5951 26.7377 94.1057 26.4976 93.7887 26.1683C93.4748 25.839 93.3178 25.422 93.3178 24.9173C93.3178 24.4987 93.4348 24.1325 93.6687 23.8185C93.9026 23.5046 94.2257 23.2599 94.6381 23.0845C95.0505 22.906 95.523 22.8168 96.0554 22.8168C96.8217 22.8168 97.425 22.983 97.8651 23.3153C98.3052 23.6446 98.596 24.0863 98.7376 24.6403ZM105.707 24.6403L104.456 24.8619C104.404 24.7018 104.321 24.5495 104.207 24.4048C104.096 24.2602 103.945 24.1417 103.755 24.0494C103.564 23.957 103.325 23.9109 103.039 23.9109C102.648 23.9109 102.322 23.9986 102.06 24.174C101.799 24.3464 101.668 24.5695 101.668 24.8434C101.668 25.0804 101.756 25.2712 101.931 25.4158C102.106 25.5605 102.39 25.679 102.78 25.7713L103.907 26.0298C104.559 26.1806 105.046 26.413 105.366 26.7269C105.686 27.0408 105.846 27.4486 105.846 27.9503C105.846 28.375 105.723 28.7536 105.476 29.0859C105.233 29.4152 104.893 29.6738 104.456 29.8615C104.022 30.0492 103.519 30.1431 102.947 30.1431C102.153 30.1431 101.505 29.9738 101.003 29.6353C100.501 29.2937 100.194 28.8089 100.08 28.1811L101.414 27.978C101.497 28.3258 101.668 28.5889 101.926 28.7674C102.185 28.9428 102.522 29.0305 102.937 29.0305C103.39 29.0305 103.751 28.9367 104.022 28.7489C104.293 28.5581 104.429 28.3258 104.429 28.0518C104.429 27.8303 104.345 27.6441 104.179 27.4933C104.016 27.3424 103.765 27.2286 103.427 27.1516L102.226 26.8885C101.565 26.7377 101.075 26.4976 100.758 26.1683C100.445 25.839 100.288 25.422 100.288 24.9173C100.288 24.4987 100.405 24.1325 100.638 23.8185C100.872 23.5046 101.195 23.2599 101.608 23.0845C102.02 22.906 102.493 22.8168 103.025 22.8168C103.791 22.8168 104.395 22.983 104.835 23.3153C105.275 23.6446 105.566 24.0863 105.707 24.6403ZM118.767 23.62H117.327C117.272 23.3123 117.168 23.0414 117.018 22.8075C116.867 22.5736 116.682 22.3751 116.464 22.212C116.245 22.0489 116.001 21.9258 115.73 21.8427C115.462 21.7596 115.177 21.718 114.876 21.718C114.331 21.718 113.843 21.855 113.412 22.1289C112.984 22.4028 112.646 22.8045 112.397 23.3338C112.15 23.8632 112.027 24.5095 112.027 25.2727C112.027 26.0421 112.15 26.6915 112.397 27.2209C112.646 27.7502 112.986 28.1503 113.417 28.4212C113.848 28.692 114.332 28.8274 114.871 28.8274C115.17 28.8274 115.453 28.7874 115.72 28.7074C115.991 28.6243 116.236 28.5027 116.454 28.3427C116.673 28.1826 116.858 27.9872 117.008 27.7564C117.162 27.5225 117.268 27.2547 117.327 26.9531L118.767 26.9577C118.69 27.4225 118.541 27.8503 118.32 28.2411C118.101 28.6289 117.819 28.9644 117.475 29.2475C117.133 29.5276 116.742 29.7446 116.302 29.8984C115.862 30.0523 115.382 30.1293 114.862 30.1293C114.043 30.1293 113.314 29.9354 112.674 29.5476C112.033 29.1567 111.529 28.5981 111.159 27.8718C110.793 27.1455 110.61 26.2791 110.61 25.2727C110.61 24.2633 110.795 23.3969 111.164 22.6737C111.533 21.9473 112.038 21.3903 112.678 21.0025C113.318 20.6116 114.046 20.4162 114.862 20.4162C115.363 20.4162 115.831 20.4885 116.265 20.6332C116.702 20.7747 117.095 20.984 117.442 21.261C117.79 21.5349 118.078 21.8704 118.306 22.2674C118.533 22.6613 118.687 23.1122 118.767 23.62ZM121.744 25.7898V30H120.363V20.5455H121.725V24.0632H121.813C121.979 23.6816 122.233 23.3784 122.575 23.1538C122.916 22.9291 123.363 22.8168 123.914 22.8168C124.4 22.8168 124.825 22.9168 125.188 23.1168C125.554 23.3169 125.837 23.6154 126.037 24.0124C126.24 24.4064 126.342 24.8988 126.342 25.4897V30H124.961V25.6559C124.961 25.1358 124.828 24.7326 124.56 24.4464C124.292 24.1571 123.92 24.0124 123.443 24.0124C123.116 24.0124 122.824 24.0817 122.566 24.2202C122.31 24.3587 122.108 24.5618 121.961 24.8295C121.816 25.0942 121.744 25.4143 121.744 25.7898ZM131.24 30.1431C130.541 30.1431 129.94 29.9938 129.435 29.6953C128.933 29.3937 128.545 28.9705 128.271 28.4258C128.001 27.878 127.865 27.2363 127.865 26.5007C127.865 25.7744 128.001 25.1342 128.271 24.5803C128.545 24.0263 128.927 23.5939 129.416 23.283C129.909 22.9722 130.484 22.8168 131.143 22.8168C131.543 22.8168 131.931 22.8829 132.306 23.0153C132.682 23.1476 133.019 23.3554 133.317 23.6385C133.616 23.9216 133.851 24.2894 134.024 24.7418C134.196 25.1912 134.282 25.7375 134.282 26.3807V26.87H128.645V25.8359H132.93C132.93 25.4728 132.856 25.1512 132.708 24.8711C132.56 24.5879 132.352 24.3648 132.085 24.2017C131.82 24.0386 131.509 23.957 131.152 23.957C130.764 23.957 130.426 24.0524 130.137 24.2433C129.85 24.431 129.629 24.6772 129.472 24.9819C129.318 25.2835 129.241 25.6113 129.241 25.9652V26.7731C129.241 27.247 129.324 27.6502 129.49 27.9826C129.66 28.315 129.895 28.5689 130.197 28.7443C130.498 28.9167 130.851 29.0028 131.254 29.0028C131.515 29.0028 131.754 28.9659 131.969 28.892C132.185 28.8151 132.371 28.7012 132.528 28.5504C132.685 28.3996 132.805 28.2134 132.888 27.9918L134.194 28.2273C134.09 28.612 133.902 28.949 133.631 29.2383C133.363 29.5245 133.026 29.7476 132.62 29.9077C132.217 30.0646 131.757 30.1431 131.24 30.1431ZM138.801 30.1431C138.114 30.1431 137.523 29.9877 137.028 29.6768C136.535 29.3629 136.157 28.9305 135.892 28.3796C135.627 27.8287 135.495 27.1978 135.495 26.4869C135.495 25.7667 135.631 25.1312 135.901 24.5803C136.172 24.0263 136.554 23.5939 137.046 23.283C137.539 22.9722 138.119 22.8168 138.787 22.8168C139.325 22.8168 139.805 22.9168 140.227 23.1168C140.649 23.3138 140.989 23.5908 141.247 23.9478C141.509 24.3048 141.664 24.7218 141.714 25.1989H140.37C140.296 24.8665 140.127 24.5803 139.862 24.3402C139.601 24.1001 139.25 23.9801 138.81 23.9801C138.425 23.9801 138.088 24.0817 137.799 24.2848C137.513 24.4848 137.289 24.7711 137.129 25.1435C136.969 25.5128 136.889 25.9498 136.889 26.4545C136.889 26.9716 136.968 27.4179 137.125 27.7933C137.282 28.1688 137.503 28.4596 137.79 28.6658C138.079 28.872 138.419 28.9751 138.81 28.9751C139.071 28.9751 139.308 28.9274 139.521 28.832C139.736 28.7335 139.916 28.5935 140.061 28.4119C140.209 28.2304 140.312 28.0118 140.37 27.7564H141.714C141.664 28.215 141.515 28.6243 141.266 28.9844C141.016 29.3445 140.682 29.6276 140.264 29.8338C139.848 30.04 139.361 30.1431 138.801 30.1431ZM144.459 27.5948L144.45 25.9098H144.69L147.515 22.9091H149.168L145.946 26.3253H145.729L144.459 27.5948ZM143.19 30V20.5455H144.57V30H143.19ZM147.668 30L145.129 26.63L146.08 25.6651L149.362 30H147.668ZM150.426 30V22.9091H151.751V24.0632H151.839C151.986 23.6723 152.228 23.3677 152.563 23.1491C152.899 22.9276 153.3 22.8168 153.768 22.8168C154.242 22.8168 154.639 22.9276 154.959 23.1491C155.282 23.3707 155.521 23.6754 155.675 24.0632H155.749C155.918 23.6847 156.187 23.383 156.557 23.1584C156.926 22.9306 157.366 22.8168 157.877 22.8168C158.52 22.8168 159.045 23.0183 159.451 23.4215C159.86 23.8247 160.065 24.4325 160.065 25.245V30H158.685V25.3743C158.685 24.8942 158.554 24.5464 158.292 24.331C158.031 24.1155 157.718 24.0078 157.355 24.0078C156.906 24.0078 156.557 24.1463 156.307 24.4233C156.058 24.6972 155.933 25.0496 155.933 25.4805V30H154.558V25.2866C154.558 24.9019 154.438 24.5926 154.198 24.3587C153.958 24.1248 153.645 24.0078 153.26 24.0078C152.999 24.0078 152.757 24.0771 152.536 24.2156C152.317 24.351 152.14 24.5402 152.005 24.7834C151.872 25.0265 151.806 25.3081 151.806 25.6282V30H150.426ZM163.979 30.157C163.529 30.157 163.123 30.0739 162.76 29.9077C162.397 29.7384 162.109 29.4937 161.897 29.1737C161.687 28.8536 161.583 28.4612 161.583 27.9964C161.583 27.5964 161.66 27.267 161.814 27.0085C161.968 26.75 162.175 26.5453 162.437 26.3945C162.698 26.2437 162.991 26.1299 163.314 26.0529C163.637 25.976 163.966 25.9175 164.302 25.8775C164.727 25.8282 165.071 25.7882 165.336 25.7575C165.601 25.7236 165.793 25.6697 165.913 25.5959C166.033 25.522 166.093 25.402 166.093 25.2358V25.2035C166.093 24.8003 165.979 24.4879 165.752 24.2663C165.527 24.0447 165.191 23.9339 164.745 23.9339C164.28 23.9339 163.914 24.037 163.646 24.2433C163.382 24.4464 163.199 24.6726 163.097 24.9219L161.8 24.6264C161.954 24.1955 162.178 23.8478 162.474 23.5831C162.772 23.3153 163.116 23.1214 163.503 23.0014C163.891 22.8783 164.299 22.8168 164.727 22.8168C165.01 22.8168 165.31 22.8506 165.627 22.9183C165.947 22.983 166.245 23.103 166.522 23.2784C166.803 23.4538 167.032 23.7047 167.21 24.0309C167.389 24.354 167.478 24.7741 167.478 25.2912V30H166.13V29.0305H166.075C165.985 29.209 165.852 29.3845 165.673 29.5568C165.495 29.7292 165.265 29.8723 164.985 29.9862C164.705 30.1 164.37 30.157 163.979 30.157ZM164.279 29.049C164.66 29.049 164.987 28.9736 165.258 28.8228C165.531 28.672 165.739 28.475 165.881 28.2319C166.025 27.9857 166.098 27.7225 166.098 27.4425V26.5284C166.049 26.5777 165.953 26.6238 165.812 26.6669C165.673 26.7069 165.515 26.7423 165.336 26.7731C165.158 26.8008 164.984 26.8269 164.814 26.8516C164.645 26.8731 164.504 26.8916 164.39 26.907C164.122 26.9408 163.877 26.9978 163.656 27.0778C163.437 27.1578 163.262 27.2732 163.129 27.424C163 27.5717 162.935 27.7687 162.935 28.0149C162.935 28.3565 163.062 28.6151 163.314 28.7905C163.566 28.9628 163.888 29.049 164.279 29.049ZM169.317 30V22.9091H170.651V24.0355H170.725C170.854 23.6539 171.082 23.3538 171.408 23.1353C171.737 22.9137 172.11 22.8029 172.525 22.8029C172.611 22.8029 172.713 22.806 172.83 22.8121C172.95 22.8183 173.044 22.826 173.111 22.8352V24.1555C173.056 24.1402 172.957 24.1232 172.816 24.1048C172.674 24.0832 172.533 24.0724 172.391 24.0724C172.065 24.0724 171.774 24.1417 171.519 24.2802C171.266 24.4156 171.066 24.6049 170.919 24.848C170.771 25.0881 170.697 25.362 170.697 25.6697V30H169.317ZM175.611 22.9091L177.176 25.6697L178.755 22.9091H180.265L178.053 26.4545L180.283 30H178.773L177.176 27.3501L175.583 30H174.069L176.276 26.4545L174.097 22.9091H175.611ZM193.446 25.2727C193.446 26.2822 193.261 27.1501 192.892 27.8764C192.522 28.5997 192.016 29.1567 191.373 29.5476C190.733 29.9354 190.005 30.1293 189.189 30.1293C188.371 30.1293 187.64 29.9354 186.997 29.5476C186.356 29.1567 185.852 28.5981 185.482 27.8718C185.113 27.1455 184.928 26.2791 184.928 25.2727C184.928 24.2633 185.113 23.3969 185.482 22.6737C185.852 21.9473 186.356 21.3903 186.997 21.0025C187.64 20.6116 188.371 20.4162 189.189 20.4162C190.005 20.4162 190.733 20.6116 191.373 21.0025C192.016 21.3903 192.522 21.9473 192.892 22.6737C193.261 23.3969 193.446 24.2633 193.446 25.2727ZM192.033 25.2727C192.033 24.5033 191.908 23.8555 191.659 23.3292C191.413 22.7998 191.074 22.3997 190.644 22.1289C190.216 21.855 189.731 21.718 189.189 21.718C188.645 21.718 188.158 21.855 187.731 22.1289C187.303 22.3997 186.964 22.7998 186.715 23.3292C186.469 23.8555 186.346 24.5033 186.346 25.2727C186.346 26.0421 186.469 26.6915 186.715 27.2209C186.964 27.7472 187.303 28.1473 187.731 28.4212C188.158 28.692 188.645 28.8274 189.189 28.8274C189.731 28.8274 190.216 28.692 190.644 28.4212C191.074 28.1473 191.413 27.7472 191.659 27.2209C191.908 26.6915 192.033 26.0421 192.033 25.2727ZM196.494 25.7898V30H195.113V22.9091H196.438V24.0632H196.526C196.689 23.6877 196.945 23.3861 197.292 23.1584C197.643 22.9306 198.085 22.8168 198.617 22.8168C199.101 22.8168 199.524 22.9183 199.887 23.1214C200.25 23.3215 200.532 23.62 200.732 24.017C200.932 24.4141 201.032 24.9049 201.032 25.4897V30H199.651V25.6559C199.651 25.1419 199.518 24.7403 199.25 24.451C198.982 24.1586 198.614 24.0124 198.146 24.0124C197.826 24.0124 197.542 24.0817 197.292 24.2202C197.046 24.3587 196.851 24.5618 196.706 24.8295C196.565 25.0942 196.494 25.4143 196.494 25.7898ZM205.939 30.1431C205.24 30.1431 204.639 29.9938 204.134 29.6953C203.632 29.3937 203.245 28.9705 202.971 28.4258C202.7 27.878 202.564 27.2363 202.564 26.5007C202.564 25.7744 202.7 25.1342 202.971 24.5803C203.245 24.0263 203.626 23.5939 204.116 23.283C204.608 22.9722 205.184 22.8168 205.842 22.8168C206.242 22.8168 206.63 22.8829 207.006 23.0153C207.381 23.1476 207.718 23.3554 208.017 23.6385C208.315 23.9216 208.55 24.2894 208.723 24.7418C208.895 25.1912 208.981 25.7375 208.981 26.3807V26.87H203.345V25.8359H207.629C207.629 25.4728 207.555 25.1512 207.407 24.8711C207.259 24.5879 207.052 24.3648 206.784 24.2017C206.519 24.0386 206.208 23.957 205.851 23.957C205.464 23.957 205.125 24.0524 204.836 24.2433C204.55 24.431 204.328 24.6772 204.171 24.9819C204.017 25.2835 203.94 25.6113 203.94 25.9652V26.7731C203.94 27.247 204.023 27.6502 204.189 27.9826C204.359 28.315 204.594 28.5689 204.896 28.7443C205.197 28.9167 205.55 29.0028 205.953 29.0028C206.215 29.0028 206.453 28.9659 206.669 28.892C206.884 28.8151 207.07 28.7012 207.227 28.5504C207.384 28.3996 207.504 28.2134 207.587 27.9918L208.894 28.2273C208.789 28.612 208.601 28.949 208.33 29.2383C208.063 29.5245 207.726 29.7476 207.319 29.9077C206.916 30.0646 206.456 30.1431 205.939 30.1431ZM214.863 30H213.349L216.751 20.5455H218.399L221.801 30H220.287L217.614 22.2628H217.54L214.863 30ZM215.117 26.2976H220.029V27.4979H215.117V26.2976ZM228.319 24.6403L227.068 24.8619C227.015 24.7018 226.932 24.5495 226.818 24.4048C226.707 24.2602 226.557 24.1417 226.366 24.0494C226.175 23.957 225.937 23.9109 225.65 23.9109C225.259 23.9109 224.933 23.9986 224.672 24.174C224.41 24.3464 224.279 24.5695 224.279 24.8434C224.279 25.0804 224.367 25.2712 224.542 25.4158C224.718 25.5605 225.001 25.679 225.392 25.7713L226.518 26.0298C227.171 26.1806 227.657 26.413 227.977 26.7269C228.297 27.0408 228.457 27.4486 228.457 27.9503C228.457 28.375 228.334 28.7536 228.088 29.0859C227.845 29.4152 227.505 29.6738 227.068 29.8615C226.634 30.0492 226.13 30.1431 225.558 30.1431C224.764 30.1431 224.116 29.9738 223.614 29.6353C223.113 29.2937 222.805 28.8089 222.691 28.1811L224.025 27.978C224.108 28.3258 224.279 28.5889 224.538 28.7674C224.796 28.9428 225.133 29.0305 225.549 29.0305C226.001 29.0305 226.363 28.9367 226.634 28.7489C226.904 28.5581 227.04 28.3258 227.04 28.0518C227.04 27.8303 226.957 27.6441 226.791 27.4933C226.627 27.3424 226.377 27.2286 226.038 27.1516L224.838 26.8885C224.176 26.7377 223.687 26.4976 223.37 26.1683C223.056 25.839 222.899 25.422 222.899 24.9173C222.899 24.4987 223.016 24.1325 223.25 23.8185C223.484 23.5046 223.807 23.2599 224.219 23.0845C224.632 22.906 225.104 22.8168 225.636 22.8168C226.403 22.8168 227.006 22.983 227.446 23.3153C227.886 23.6446 228.177 24.0863 228.319 24.6403ZM235.288 24.6403L234.037 24.8619C233.985 24.7018 233.902 24.5495 233.788 24.4048C233.677 24.2602 233.526 24.1417 233.336 24.0494C233.145 23.957 232.906 23.9109 232.62 23.9109C232.229 23.9109 231.903 23.9986 231.641 24.174C231.38 24.3464 231.249 24.5695 231.249 24.8434C231.249 25.0804 231.337 25.2712 231.512 25.4158C231.688 25.5605 231.971 25.679 232.362 25.7713L233.488 26.0298C234.14 26.1806 234.627 26.413 234.947 26.7269C235.267 27.0408 235.427 27.4486 235.427 27.9503C235.427 28.375 235.304 28.7536 235.058 29.0859C234.814 29.4152 234.474 29.6738 234.037 29.8615C233.603 30.0492 233.1 30.1431 232.528 30.1431C231.734 30.1431 231.086 29.9738 230.584 29.6353C230.083 29.2937 229.775 28.8089 229.661 28.1811L230.995 27.978C231.078 28.3258 231.249 28.5889 231.507 28.7674C231.766 28.9428 232.103 29.0305 232.518 29.0305C232.971 29.0305 233.333 28.9367 233.603 28.7489C233.874 28.5581 234.01 28.3258 234.01 28.0518C234.01 27.8303 233.926 27.6441 233.76 27.4933C233.597 27.3424 233.346 27.2286 233.008 27.1516L231.808 26.8885C231.146 26.7377 230.656 26.4976 230.339 26.1683C230.026 25.839 229.869 25.422 229.869 24.9173C229.869 24.4987 229.986 24.1325 230.219 23.8185C230.453 23.5046 230.777 23.2599 231.189 23.0845C231.601 22.906 232.074 22.8168 232.606 22.8168C233.373 22.8168 233.976 22.983 234.416 23.3153C234.856 23.6446 235.147 24.0863 235.288 24.6403ZM236.945 30V22.9091H238.325V30H236.945ZM237.642 21.815C237.402 21.815 237.195 21.735 237.023 21.5749C236.854 21.4118 236.769 21.2179 236.769 20.9933C236.769 20.7655 236.854 20.5716 237.023 20.4116C237.195 20.2485 237.402 20.1669 237.642 20.1669C237.882 20.1669 238.086 20.2485 238.256 20.4116C238.428 20.5716 238.514 20.7655 238.514 20.9933C238.514 21.2179 238.428 21.4118 238.256 21.5749C238.086 21.735 237.882 21.815 237.642 21.815ZM245.495 24.6403L244.244 24.8619C244.192 24.7018 244.109 24.5495 243.995 24.4048C243.884 24.2602 243.733 24.1417 243.543 24.0494C243.352 23.957 243.113 23.9109 242.827 23.9109C242.436 23.9109 242.11 23.9986 241.848 24.174C241.587 24.3464 241.456 24.5695 241.456 24.8434C241.456 25.0804 241.544 25.2712 241.719 25.4158C241.895 25.5605 242.178 25.679 242.569 25.7713L243.695 26.0298C244.347 26.1806 244.834 26.413 245.154 26.7269C245.474 27.0408 245.634 27.4486 245.634 27.9503C245.634 28.375 245.511 28.7536 245.265 29.0859C245.021 29.4152 244.681 29.6738 244.244 29.8615C243.81 30.0492 243.307 30.1431 242.735 30.1431C241.941 30.1431 241.293 29.9738 240.791 29.6353C240.29 29.2937 239.982 28.8089 239.868 28.1811L241.202 27.978C241.285 28.3258 241.456 28.5889 241.714 28.7674C241.973 28.9428 242.31 29.0305 242.725 29.0305C243.178 29.0305 243.54 28.9367 243.81 28.7489C244.081 28.5581 244.217 28.3258 244.217 28.0518C244.217 27.8303 244.134 27.6441 243.967 27.4933C243.804 27.3424 243.553 27.2286 243.215 27.1516L242.015 26.8885C241.353 26.7377 240.864 26.4976 240.547 26.1683C240.233 25.839 240.076 25.422 240.076 24.9173C240.076 24.4987 240.193 24.1325 240.426 23.8185C240.66 23.5046 240.984 23.2599 241.396 23.0845C241.808 22.906 242.281 22.8168 242.813 22.8168C243.58 22.8168 244.183 22.983 244.623 23.3153C245.063 23.6446 245.354 24.0863 245.495 24.6403ZM250.462 22.9091V24.017H246.588V22.9091H250.462ZM247.627 21.2102H249.007V27.918C249.007 28.1857 249.047 28.3873 249.127 28.5227C249.207 28.6551 249.311 28.7459 249.437 28.7951C249.566 28.8413 249.706 28.8643 249.857 28.8643C249.968 28.8643 250.065 28.8567 250.148 28.8413C250.231 28.8259 250.295 28.8136 250.342 28.8043L250.591 29.9446C250.511 29.9754 250.397 30.0062 250.249 30.0369C250.101 30.0708 249.917 30.0893 249.695 30.0923C249.332 30.0985 248.994 30.0339 248.68 29.8984C248.366 29.763 248.112 29.5537 247.918 29.2706C247.724 28.9875 247.627 28.632 247.627 28.2042V21.2102ZM258.804 22.9091V24.017H254.796V22.9091H258.804ZM255.895 30V22.0874C255.895 21.6442 255.992 21.2764 256.186 20.984C256.38 20.6886 256.637 20.4685 256.957 20.3239C257.277 20.1761 257.625 20.1023 258 20.1023C258.277 20.1023 258.514 20.1254 258.711 20.1715C258.908 20.2146 259.054 20.2546 259.15 20.2915L258.827 21.4087C258.762 21.3903 258.679 21.3687 258.577 21.3441C258.476 21.3164 258.353 21.3026 258.208 21.3026C257.873 21.3026 257.632 21.3857 257.488 21.5518C257.346 21.718 257.275 21.9581 257.275 22.272V30H255.895ZM263.005 30.1431C262.306 30.1431 261.704 29.9938 261.199 29.6953C260.698 29.3937 260.31 28.9705 260.036 28.4258C259.765 27.878 259.63 27.2363 259.63 26.5007C259.63 25.7744 259.765 25.1342 260.036 24.5803C260.31 24.0263 260.692 23.5939 261.181 23.283C261.673 22.9722 262.249 22.8168 262.908 22.8168C263.308 22.8168 263.695 22.8829 264.071 23.0153C264.446 23.1476 264.783 23.3554 265.082 23.6385C265.38 23.9216 265.616 24.2894 265.788 24.7418C265.961 25.1912 266.047 25.7375 266.047 26.3807V26.87H260.41V25.8359H264.694C264.694 25.4728 264.62 25.1512 264.473 24.8711C264.325 24.5879 264.117 24.3648 263.849 24.2017C263.585 24.0386 263.274 23.957 262.917 23.957C262.529 23.957 262.19 24.0524 261.901 24.2433C261.615 24.431 261.393 24.6772 261.236 24.9819C261.083 25.2835 261.006 25.6113 261.006 25.9652V26.7731C261.006 27.247 261.089 27.6502 261.255 27.9826C261.424 28.315 261.66 28.5689 261.961 28.7443C262.263 28.9167 262.615 29.0028 263.018 29.0028C263.28 29.0028 263.518 28.9659 263.734 28.892C263.949 28.8151 264.136 28.7012 264.293 28.5504C264.449 28.3996 264.57 28.2134 264.653 27.9918L265.959 28.2273C265.854 28.612 265.667 28.949 265.396 29.2383C265.128 29.5245 264.791 29.7476 264.385 29.9077C263.982 30.0646 263.522 30.1431 263.005 30.1431ZM269.642 30.157C269.193 30.157 268.786 30.0739 268.423 29.9077C268.06 29.7384 267.772 29.4937 267.56 29.1737C267.351 28.8536 267.246 28.4612 267.246 27.9964C267.246 27.5964 267.323 27.267 267.477 27.0085C267.631 26.75 267.838 26.5453 268.1 26.3945C268.362 26.2437 268.654 26.1299 268.977 26.0529C269.3 25.976 269.63 25.9175 269.965 25.8775C270.39 25.8282 270.734 25.7882 270.999 25.7575C271.264 25.7236 271.456 25.6697 271.576 25.5959C271.696 25.522 271.756 25.402 271.756 25.2358V25.2035C271.756 24.8003 271.642 24.4879 271.415 24.2663C271.19 24.0447 270.854 23.9339 270.408 23.9339C269.943 23.9339 269.577 24.037 269.309 24.2433C269.045 24.4464 268.862 24.6726 268.76 24.9219L267.463 24.6264C267.617 24.1955 267.841 23.8478 268.137 23.5831C268.435 23.3153 268.779 23.1214 269.166 23.0014C269.554 22.8783 269.962 22.8168 270.39 22.8168C270.673 22.8168 270.973 22.8506 271.29 22.9183C271.61 22.983 271.909 23.103 272.186 23.2784C272.466 23.4538 272.695 23.7047 272.873 24.0309C273.052 24.354 273.141 24.7741 273.141 25.2912V30H271.793V29.0305H271.738C271.648 29.209 271.515 29.3845 271.336 29.5568C271.158 29.7292 270.928 29.8723 270.648 29.9862C270.368 30.1 270.033 30.157 269.642 30.157ZM269.942 29.049C270.324 29.049 270.65 28.9736 270.921 28.8228C271.195 28.672 271.402 28.475 271.544 28.2319C271.689 27.9857 271.761 27.7225 271.761 27.4425V26.5284C271.712 26.5777 271.616 26.6238 271.475 26.6669C271.336 26.7069 271.178 26.7423 270.999 26.7731C270.821 26.8008 270.647 26.8269 270.477 26.8516C270.308 26.8731 270.167 26.8916 270.053 26.907C269.785 26.9408 269.54 26.9978 269.319 27.0778C269.1 27.1578 268.925 27.2732 268.792 27.424C268.663 27.5717 268.599 27.7687 268.599 28.0149C268.599 28.3565 268.725 28.6151 268.977 28.7905C269.229 28.9628 269.551 29.049 269.942 29.049ZM278.29 22.9091V24.017H274.416V22.9091H278.29ZM275.455 21.2102H276.835V27.918C276.835 28.1857 276.876 28.3873 276.956 28.5227C277.036 28.6551 277.139 28.7459 277.265 28.7951C277.394 28.8413 277.534 28.8643 277.685 28.8643C277.796 28.8643 277.893 28.8567 277.976 28.8413C278.059 28.8259 278.123 28.8136 278.17 28.8043L278.419 29.9446C278.339 29.9754 278.225 30.0062 278.077 30.0369C277.93 30.0708 277.745 30.0893 277.523 30.0923C277.16 30.0985 276.822 30.0339 276.508 29.8984C276.194 29.763 275.94 29.5537 275.746 29.2706C275.552 28.9875 275.455 28.632 275.455 28.2042V21.2102ZM284.308 27.0593V22.9091H285.693V30H284.336V28.772H284.262C284.099 29.1506 283.838 29.466 283.477 29.7184C283.12 29.9677 282.676 30.0923 282.143 30.0923C281.688 30.0923 281.285 29.9923 280.934 29.7923C280.586 29.5891 280.312 29.2891 280.112 28.892C279.915 28.495 279.817 28.0041 279.817 27.4194V22.9091H281.197V27.2532C281.197 27.7364 281.331 28.1211 281.599 28.4073C281.866 28.6935 282.214 28.8366 282.642 28.8366C282.9 28.8366 283.157 28.772 283.413 28.6428C283.671 28.5135 283.885 28.3181 284.055 28.0565C284.227 27.7949 284.311 27.4625 284.308 27.0593ZM287.548 30V22.9091H288.882V24.0355H288.956C289.085 23.6539 289.313 23.3538 289.639 23.1353C289.969 22.9137 290.341 22.8029 290.756 22.8029C290.843 22.8029 290.944 22.806 291.061 22.8121C291.181 22.8183 291.275 22.826 291.343 22.8352V24.1555C291.287 24.1402 291.189 24.1232 291.047 24.1048C290.906 24.0832 290.764 24.0724 290.623 24.0724C290.296 24.0724 290.006 24.1417 289.75 24.2802C289.498 24.4156 289.298 24.6049 289.15 24.848C289.002 25.0881 288.928 25.362 288.928 25.6697V30H287.548ZM295.339 30.1431C294.641 30.1431 294.039 29.9938 293.534 29.6953C293.033 29.3937 292.645 28.9705 292.371 28.4258C292.1 27.878 291.965 27.2363 291.965 26.5007C291.965 25.7744 292.1 25.1342 292.371 24.5803C292.645 24.0263 293.027 23.5939 293.516 23.283C294.008 22.9722 294.584 22.8168 295.243 22.8168C295.643 22.8168 296.03 22.8829 296.406 23.0153C296.781 23.1476 297.118 23.3554 297.417 23.6385C297.715 23.9216 297.951 24.2894 298.123 24.7418C298.296 25.1912 298.382 25.7375 298.382 26.3807V26.87H292.745V25.8359H297.029C297.029 25.4728 296.955 25.1512 296.808 24.8711C296.66 24.5879 296.452 24.3648 296.184 24.2017C295.92 24.0386 295.609 23.957 295.252 23.957C294.864 23.957 294.525 24.0524 294.236 24.2433C293.95 24.431 293.728 24.6772 293.571 24.9819C293.417 25.2835 293.341 25.6113 293.341 25.9652V26.7731C293.341 27.247 293.424 27.6502 293.59 27.9826C293.759 28.315 293.995 28.5689 294.296 28.7443C294.598 28.9167 294.95 29.0028 295.353 29.0028C295.615 29.0028 295.853 28.9659 296.069 28.892C296.284 28.8151 296.471 28.7012 296.627 28.5504C296.784 28.3996 296.904 28.2134 296.988 27.9918L298.294 28.2273C298.189 28.612 298.002 28.949 297.731 29.2383C297.463 29.5245 297.126 29.7476 296.72 29.9077C296.317 30.0646 295.857 30.1431 295.339 30.1431ZM305.227 24.6403L303.976 24.8619C303.923 24.7018 303.84 24.5495 303.726 24.4048C303.616 24.2602 303.465 24.1417 303.274 24.0494C303.083 23.957 302.845 23.9109 302.559 23.9109C302.168 23.9109 301.841 23.9986 301.58 24.174C301.318 24.3464 301.187 24.5695 301.187 24.8434C301.187 25.0804 301.275 25.2712 301.451 25.4158C301.626 25.5605 301.909 25.679 302.3 25.7713L303.426 26.0298C304.079 26.1806 304.565 26.413 304.885 26.7269C305.205 27.0408 305.365 27.4486 305.365 27.9503C305.365 28.375 305.242 28.7536 304.996 29.0859C304.753 29.4152 304.413 29.6738 303.976 29.8615C303.542 30.0492 303.039 30.1431 302.466 30.1431C301.672 30.1431 301.024 29.9738 300.523 29.6353C300.021 29.2937 299.713 28.8089 299.599 28.1811L300.934 27.978C301.017 28.3258 301.187 28.5889 301.446 28.7674C301.704 28.9428 302.041 29.0305 302.457 29.0305C302.909 29.0305 303.271 28.9367 303.542 28.7489C303.813 28.5581 303.948 28.3258 303.948 28.0518C303.948 27.8303 303.865 27.6441 303.699 27.4933C303.536 27.3424 303.285 27.2286 302.946 27.1516L301.746 26.8885C301.084 26.7377 300.595 26.4976 300.278 26.1683C299.964 25.839 299.807 25.422 299.807 24.9173C299.807 24.4987 299.924 24.1325 300.158 23.8185C300.392 23.5046 300.715 23.2599 301.127 23.0845C301.54 22.906 302.012 22.8168 302.545 22.8168C303.311 22.8168 303.914 22.983 304.354 23.3153C304.794 23.6446 305.085 24.0863 305.227 24.6403ZM308.679 28.7074L308.61 29.2106C308.563 29.5799 308.485 29.9646 308.374 30.3647C308.266 30.7679 308.154 31.1418 308.037 31.4865C307.923 31.8312 307.829 32.1051 307.756 32.3082H306.777C306.817 32.1174 306.872 31.8589 306.943 31.5327C307.014 31.2095 307.083 30.8479 307.151 30.4478C307.218 30.0477 307.269 29.6399 307.303 29.2244L307.349 28.7074H308.679ZM314.789 32.6591C314.583 32.6591 314.395 32.6422 314.225 32.6083C314.056 32.5775 313.93 32.5437 313.847 32.5067L314.179 31.3757C314.432 31.4434 314.656 31.4727 314.853 31.4634C315.05 31.4542 315.224 31.3803 315.375 31.2418C315.529 31.1033 315.664 30.8771 315.781 30.5632L315.952 30.0923L313.358 22.9091H314.835L316.631 28.4119H316.705L318.5 22.9091H319.982L317.06 30.9464C316.925 31.3157 316.752 31.6281 316.543 31.8835C316.334 32.142 316.084 32.3359 315.795 32.4652C315.506 32.5945 315.17 32.6591 314.789 32.6591ZM324.025 30.1431C323.36 30.1431 322.78 29.9908 322.285 29.6861C321.789 29.3814 321.405 28.9551 321.131 28.4073C320.857 27.8595 320.72 27.2193 320.72 26.4869C320.72 25.7513 320.857 25.1081 321.131 24.5572C321.405 24.0063 321.789 23.5785 322.285 23.2738C322.78 22.9691 323.36 22.8168 324.025 22.8168C324.69 22.8168 325.27 22.9691 325.766 23.2738C326.261 23.5785 326.646 24.0063 326.92 24.5572C327.194 25.1081 327.331 25.7513 327.331 26.4869C327.331 27.2193 327.194 27.8595 326.92 28.4073C326.646 28.9551 326.261 29.3814 325.766 29.6861C325.27 29.9908 324.69 30.1431 324.025 30.1431ZM324.03 28.9844C324.461 28.9844 324.818 28.8705 325.101 28.6428C325.384 28.415 325.593 28.1119 325.729 27.7333C325.867 27.3548 325.936 26.9377 325.936 26.4822C325.936 26.0298 325.867 25.6143 325.729 25.2358C325.593 24.8542 325.384 24.5479 325.101 24.3171C324.818 24.0863 324.461 23.9709 324.03 23.9709C323.596 23.9709 323.236 24.0863 322.949 24.3171C322.666 24.5479 322.456 24.8542 322.317 25.2358C322.182 25.6143 322.114 26.0298 322.114 26.4822C322.114 26.9377 322.182 27.3548 322.317 27.7333C322.456 28.1119 322.666 28.415 322.949 28.6428C323.236 28.8705 323.596 28.9844 324.03 28.9844ZM333.363 27.0593V22.9091H334.748V30H333.391V28.772H333.317C333.154 29.1506 332.892 29.466 332.532 29.7184C332.175 29.9677 331.73 30.0923 331.198 30.0923C330.742 30.0923 330.339 29.9923 329.988 29.7923C329.641 29.5891 329.367 29.2891 329.167 28.892C328.97 28.495 328.871 28.0041 328.871 27.4194V22.9091H330.252V27.2532C330.252 27.7364 330.385 28.1211 330.653 28.4073C330.921 28.6935 331.269 28.8366 331.697 28.8366C331.955 28.8366 332.212 28.772 332.468 28.6428C332.726 28.5135 332.94 28.3181 333.109 28.0565C333.282 27.7949 333.366 27.4625 333.363 27.0593ZM46.3082 44.7898V49H44.9279V41.9091H46.2528V43.0632H46.3406C46.5037 42.6877 46.7591 42.3861 47.1069 42.1584C47.4577 41.9306 47.8994 41.8168 48.4318 41.8168C48.915 41.8168 49.3382 41.9183 49.7013 42.1214C50.0645 42.3215 50.3461 42.62 50.5462 43.017C50.7462 43.4141 50.8462 43.9049 50.8462 44.4897V49H49.4659V44.6559C49.4659 44.1419 49.332 43.7403 49.0643 43.451C48.7965 43.1586 48.4287 43.0124 47.9609 43.0124C47.6409 43.0124 47.3562 43.0817 47.1069 43.2202C46.8607 43.3587 46.6652 43.5618 46.5206 43.8295C46.379 44.0942 46.3082 44.4143 46.3082 44.7898ZM55.7536 49.1431C55.0549 49.1431 54.4532 48.9938 53.9485 48.6953C53.4469 48.3937 53.0591 47.9705 52.7852 47.4258C52.5143 46.878 52.3789 46.2363 52.3789 45.5007C52.3789 44.7744 52.5143 44.1342 52.7852 43.5803C53.0591 43.0263 53.4407 42.5939 53.93 42.283C54.4225 41.9722 54.998 41.8168 55.6566 41.8168C56.0567 41.8168 56.4445 41.8829 56.82 42.0153C57.1954 42.1476 57.5324 42.3554 57.831 42.6385C58.1295 42.9216 58.3649 43.2894 58.5373 43.7418C58.7096 44.1912 58.7958 44.7375 58.7958 45.3807V45.87H53.1591V44.8359H57.4432C57.4432 44.4728 57.3693 44.1512 57.2216 43.8711C57.0739 43.5879 56.8661 43.3648 56.5984 43.2017C56.3337 43.0386 56.0228 42.957 55.6658 42.957C55.2781 42.957 54.9395 43.0524 54.6502 43.2433C54.364 43.431 54.1424 43.6772 53.9854 43.9819C53.8316 44.2835 53.7546 44.6113 53.7546 44.9652V45.7731C53.7546 46.247 53.8377 46.6502 54.0039 46.9826C54.1732 47.315 54.4086 47.5689 54.7102 47.7443C55.0118 47.9167 55.3642 48.0028 55.7674 48.0028C56.029 48.0028 56.2675 47.9659 56.483 47.892C56.6984 47.8151 56.8846 47.7012 57.0415 47.5504C57.1985 47.3996 57.3185 47.2134 57.4016 46.9918L58.7081 47.2273C58.6035 47.612 58.4157 47.949 58.1449 48.2383C57.8771 48.5245 57.5401 48.7476 57.1339 48.9077C56.7307 49.0646 56.2706 49.1431 55.7536 49.1431ZM63.3834 49.1431C62.6848 49.1431 62.0831 48.9938 61.5784 48.6953C61.0767 48.3937 60.689 47.9705 60.415 47.4258C60.1442 46.878 60.0088 46.2363 60.0088 45.5007C60.0088 44.7744 60.1442 44.1342 60.415 43.5803C60.689 43.0263 61.0706 42.5939 61.5599 42.283C62.0523 41.9722 62.6279 41.8168 63.2865 41.8168C63.6866 41.8168 64.0744 41.8829 64.4498 42.0153C64.8253 42.1476 65.1623 42.3554 65.4608 42.6385C65.7594 42.9216 65.9948 43.2894 66.1672 43.7418C66.3395 44.1912 66.4257 44.7375 66.4257 45.3807V45.87H60.789V44.8359H65.0731C65.0731 44.4728 64.9992 44.1512 64.8515 43.8711C64.7037 43.5879 64.496 43.3648 64.2282 43.2017C63.9636 43.0386 63.6527 42.957 63.2957 42.957C62.9079 42.957 62.5694 43.0524 62.2801 43.2433C61.9939 43.431 61.7723 43.6772 61.6153 43.9819C61.4614 44.2835 61.3845 44.6113 61.3845 44.9652V45.7731C61.3845 46.247 61.4676 46.6502 61.6338 46.9826C61.8031 47.315 62.0385 47.5689 62.3401 47.7443C62.6417 47.9167 62.9941 48.0028 63.3973 48.0028C63.6589 48.0028 63.8974 47.9659 64.1128 47.892C64.3283 47.8151 64.5145 47.7012 64.6714 47.5504C64.8284 47.3996 64.9484 47.2134 65.0315 46.9918L66.338 47.2273C66.2333 47.612 66.0456 47.949 65.7748 48.2383C65.507 48.5245 65.17 48.7476 64.7638 48.9077C64.3606 49.0646 63.9005 49.1431 63.3834 49.1431ZM70.6117 49.1385C70.0392 49.1385 69.5283 48.9923 69.079 48.6999C68.6328 48.4045 68.2819 47.9844 68.0265 47.4396C67.7741 46.8918 67.6479 46.2347 67.6479 45.4684C67.6479 44.7021 67.7756 44.0465 68.0311 43.5018C68.2896 42.957 68.6435 42.54 69.0929 42.2507C69.5422 41.9614 70.0516 41.8168 70.6209 41.8168C71.061 41.8168 71.415 41.8906 71.6827 42.0384C71.9535 42.183 72.1628 42.3523 72.3105 42.5462C72.4614 42.7401 72.5783 42.9109 72.6614 43.0586H72.7445V39.5455H74.1248V49H72.7768V47.8967H72.6614C72.5783 48.0475 72.4583 48.2198 72.3013 48.4137C72.1474 48.6076 71.9351 48.7769 71.6642 48.9215C71.3934 49.0662 71.0426 49.1385 70.6117 49.1385ZM70.9164 47.9613C71.3134 47.9613 71.6489 47.8567 71.9228 47.6474C72.1998 47.435 72.409 47.1411 72.5506 46.7656C72.6953 46.3902 72.7676 45.9531 72.7676 45.4545C72.7676 44.9621 72.6968 44.5312 72.5552 44.1619C72.4136 43.7926 72.2059 43.5049 71.932 43.2987C71.6581 43.0924 71.3195 42.9893 70.9164 42.9893C70.5009 42.9893 70.1547 43.0971 69.8777 43.3125C69.6007 43.5279 69.3914 43.8219 69.2498 44.1942C69.1113 44.5666 69.0421 44.9867 69.0421 45.4545C69.0421 45.9285 69.1129 46.3548 69.2544 46.7333C69.396 47.1119 69.6053 47.4119 69.8823 47.6335C70.1623 47.852 70.507 47.9613 70.9164 47.9613ZM82.8453 41.9091V43.017H78.9721V41.9091H82.8453ZM80.0108 40.2102H81.3912V46.918C81.3912 47.1857 81.4312 47.3873 81.5112 47.5227C81.5912 47.6551 81.6943 47.7459 81.8205 47.7951C81.9498 47.8413 82.0898 47.8643 82.2406 47.8643C82.3514 47.8643 82.4483 47.8567 82.5314 47.8413C82.6145 47.8259 82.6792 47.8136 82.7253 47.8043L82.9746 48.9446C82.8946 48.9754 82.7807 49.0062 82.633 49.0369C82.4853 49.0708 82.3006 49.0893 82.079 49.0923C81.7158 49.0985 81.3773 49.0339 81.0634 48.8984C80.7495 48.763 80.4956 48.5537 80.3017 48.2706C80.1078 47.9875 80.0108 47.632 80.0108 47.2042V40.2102ZM87.2829 49.1431C86.6182 49.1431 86.038 48.9908 85.5425 48.6861C85.047 48.3814 84.6623 47.9551 84.3884 47.4073C84.1145 46.8595 83.9775 46.2193 83.9775 45.4869C83.9775 44.7513 84.1145 44.1081 84.3884 43.5572C84.6623 43.0063 85.047 42.5785 85.5425 42.2738C86.038 41.9691 86.6182 41.8168 87.2829 41.8168C87.9477 41.8168 88.5278 41.9691 89.0233 42.2738C89.5189 42.5785 89.9036 43.0063 90.1775 43.5572C90.4514 44.1081 90.5883 44.7513 90.5883 45.4869C90.5883 46.2193 90.4514 46.8595 90.1775 47.4073C89.9036 47.9551 89.5189 48.3814 89.0233 48.6861C88.5278 48.9908 87.9477 49.1431 87.2829 49.1431ZM87.2876 47.9844C87.7184 47.9844 88.0754 47.8705 88.3586 47.6428C88.6417 47.415 88.851 47.1119 88.9864 46.7333C89.1249 46.3548 89.1942 45.9377 89.1942 45.4822C89.1942 45.0298 89.1249 44.6143 88.9864 44.2358C88.851 43.8542 88.6417 43.5479 88.3586 43.3171C88.0754 43.0863 87.7184 42.9709 87.2876 42.9709C86.8536 42.9709 86.4935 43.0863 86.2073 43.3171C85.9242 43.5479 85.7133 43.8542 85.5748 44.2358C85.4394 44.6143 85.3717 45.0298 85.3717 45.4822C85.3717 45.9377 85.4394 46.3548 85.5748 46.7333C85.7133 47.1119 85.9242 47.415 86.2073 47.6428C86.4935 47.8705 86.8536 47.9844 87.2876 47.9844ZM98.8795 41.9091V43.017H95.0063V41.9091H98.8795ZM96.045 40.2102H97.4253V46.918C97.4253 47.1857 97.4653 47.3873 97.5454 47.5227C97.6254 47.6551 97.7285 47.7459 97.8547 47.7951C97.9839 47.8413 98.124 47.8643 98.2748 47.8643C98.3856 47.8643 98.4825 47.8567 98.5656 47.8413C98.6487 47.8259 98.7133 47.8136 98.7595 47.8043L99.0088 48.9446C98.9288 48.9754 98.8149 49.0062 98.6672 49.0369C98.5194 49.0708 98.3348 49.0893 98.1132 49.0923C97.75 49.0985 97.4115 49.0339 97.0976 48.8984C96.7836 48.763 96.5297 48.5537 96.3358 48.2706C96.142 47.9875 96.045 47.632 96.045 47.2042V40.2102ZM104.898 46.0593V41.9091H106.283V49H104.926V47.772H104.852C104.689 48.1506 104.427 48.466 104.067 48.7184C103.71 48.9677 103.266 49.0923 102.733 49.0923C102.278 49.0923 101.874 48.9923 101.524 48.7923C101.176 48.5891 100.902 48.2891 100.702 47.892C100.505 47.495 100.406 47.0041 100.406 46.4194V41.9091H101.787V46.2532C101.787 46.7364 101.921 47.1211 102.188 47.4073C102.456 47.6935 102.804 47.8366 103.232 47.8366C103.49 47.8366 103.747 47.772 104.003 47.6428C104.261 47.5135 104.475 47.3181 104.644 47.0565C104.817 46.7949 104.901 46.4625 104.898 46.0593ZM108.138 49V41.9091H109.472V43.0355H109.546C109.675 42.6539 109.903 42.3538 110.229 42.1353C110.558 41.9137 110.931 41.8029 111.346 41.8029C111.432 41.8029 111.534 41.806 111.651 41.8121C111.771 41.8183 111.865 41.826 111.933 41.8352V43.1555C111.877 43.1402 111.779 43.1232 111.637 43.1048C111.496 43.0832 111.354 43.0724 111.212 43.0724C110.886 43.0724 110.595 43.1417 110.34 43.2802C110.088 43.4156 109.888 43.6049 109.74 43.848C109.592 44.0881 109.518 44.362 109.518 44.6697V49H108.138ZM114.507 44.7898V49H113.127V41.9091H114.452V43.0632H114.54C114.703 42.6877 114.958 42.3861 115.306 42.1584C115.657 41.9306 116.099 41.8168 116.631 41.8168C117.114 41.8168 117.537 41.9183 117.901 42.1214C118.264 42.3215 118.545 42.62 118.745 43.017C118.945 43.4141 119.045 43.9049 119.045 44.4897V49H117.665V44.6559C117.665 44.1419 117.531 43.7403 117.263 43.451C116.996 43.1586 116.628 43.0124 116.16 43.0124C115.84 43.0124 115.555 43.0817 115.306 43.2202C115.06 43.3587 114.864 43.5618 114.72 43.8295C114.578 44.0942 114.507 44.4143 114.507 44.7898ZM127.324 49.1431C126.659 49.1431 126.079 48.9908 125.584 48.6861C125.088 48.3814 124.703 47.9551 124.429 47.4073C124.156 46.8595 124.019 46.2193 124.019 45.4869C124.019 44.7513 124.156 44.1081 124.429 43.5572C124.703 43.0063 125.088 42.5785 125.584 42.2738C126.079 41.9691 126.659 41.8168 127.324 41.8168C127.989 41.8168 128.569 41.9691 129.064 42.2738C129.56 42.5785 129.945 43.0063 130.218 43.5572C130.492 44.1081 130.629 44.7513 130.629 45.4869C130.629 46.2193 130.492 46.8595 130.218 47.4073C129.945 47.9551 129.56 48.3814 129.064 48.6861C128.569 48.9908 127.989 49.1431 127.324 49.1431ZM127.329 47.9844C127.759 47.9844 128.116 47.8705 128.4 47.6428C128.683 47.415 128.892 47.1119 129.027 46.7333C129.166 46.3548 129.235 45.9377 129.235 45.4822C129.235 45.0298 129.166 44.6143 129.027 44.2358C128.892 43.8542 128.683 43.5479 128.4 43.3171C128.116 43.0863 127.759 42.9709 127.329 42.9709C126.895 42.9709 126.535 43.0863 126.248 43.3171C125.965 43.5479 125.754 43.8542 125.616 44.2358C125.48 44.6143 125.413 45.0298 125.413 45.4822C125.413 45.9377 125.48 46.3548 125.616 46.7333C125.754 47.1119 125.965 47.415 126.248 47.6428C126.535 47.8705 126.895 47.9844 127.329 47.9844ZM133.55 44.7898V49H132.17V41.9091H133.495V43.0632H133.583C133.746 42.6877 134.001 42.3861 134.349 42.1584C134.7 41.9306 135.142 41.8168 135.674 41.8168C136.157 41.8168 136.58 41.9183 136.944 42.1214C137.307 42.3215 137.588 42.62 137.788 43.017C137.988 43.4141 138.088 43.9049 138.088 44.4897V49H136.708V44.6559C136.708 44.1419 136.574 43.7403 136.306 43.451C136.039 43.1586 135.671 43.0124 135.203 43.0124C134.883 43.0124 134.598 43.0817 134.349 43.2202C134.103 43.3587 133.907 43.5618 133.763 43.8295C133.621 44.0942 133.55 44.4143 133.55 44.7898ZM146.69 41.9091V43.017H142.817V41.9091H146.69ZM143.856 40.2102H145.236V46.918C145.236 47.1857 145.276 47.3873 145.356 47.5227C145.436 47.6551 145.539 47.7459 145.665 47.7951C145.794 47.8413 145.935 47.8643 146.085 47.8643C146.196 47.8643 146.293 47.8567 146.376 47.8413C146.459 47.8259 146.524 47.8136 146.57 47.8043L146.819 48.9446C146.739 48.9754 146.625 49.0062 146.478 49.0369C146.33 49.0708 146.145 49.0893 145.924 49.0923C145.561 49.0985 145.222 49.0339 144.908 48.8984C144.594 48.763 144.34 48.5537 144.146 48.2706C143.953 47.9875 143.856 47.632 143.856 47.2042V40.2102ZM149.75 44.7898V49H148.369V39.5455H149.731V43.0632H149.819C149.985 42.6816 150.239 42.3784 150.581 42.1538C150.922 41.9291 151.368 41.8168 151.919 41.8168C152.406 41.8168 152.83 41.9168 153.194 42.1168C153.56 42.3169 153.843 42.6154 154.043 43.0124C154.246 43.4064 154.348 43.8988 154.348 44.4897V49H152.967V44.6559C152.967 44.1358 152.833 43.7326 152.566 43.4464C152.298 43.1571 151.926 43.0124 151.449 43.0124C151.122 43.0124 150.83 43.0817 150.571 43.2202C150.316 43.3587 150.114 43.5618 149.967 43.8295C149.822 44.0942 149.75 44.4143 149.75 44.7898ZM159.246 49.1431C158.547 49.1431 157.945 48.9938 157.441 48.6953C156.939 48.3937 156.551 47.9705 156.277 47.4258C156.007 46.878 155.871 46.2363 155.871 45.5007C155.871 44.7744 156.007 44.1342 156.277 43.5803C156.551 43.0263 156.933 42.5939 157.422 42.283C157.915 41.9722 158.49 41.8168 159.149 41.8168C159.549 41.8168 159.937 41.8829 160.312 42.0153C160.688 42.1476 161.025 42.3554 161.323 42.6385C161.622 42.9216 161.857 43.2894 162.029 43.7418C162.202 44.1912 162.288 44.7375 162.288 45.3807V45.87H156.651V44.8359H160.935C160.935 44.4728 160.862 44.1512 160.714 43.8711C160.566 43.5879 160.358 43.3648 160.091 43.2017C159.826 43.0386 159.515 42.957 159.158 42.957C158.77 42.957 158.432 43.0524 158.142 43.2433C157.856 43.431 157.635 43.6772 157.478 43.9819C157.324 44.2835 157.247 44.6113 157.247 44.9652V45.7731C157.247 46.247 157.33 46.6502 157.496 46.9826C157.665 47.315 157.901 47.5689 158.202 47.7443C158.504 47.9167 158.856 48.0028 159.26 48.0028C159.521 48.0028 159.76 47.9659 159.975 47.892C160.191 47.8151 160.377 47.7012 160.534 47.5504C160.691 47.3996 160.811 47.2134 160.894 46.9918L162.2 47.2273C162.096 47.612 161.908 47.949 161.637 48.2383C161.369 48.5245 161.032 48.7476 160.626 48.9077C160.223 49.0646 159.763 49.1431 159.246 49.1431ZM175.223 42.62H173.783C173.728 42.3123 173.625 42.0414 173.474 41.8075C173.323 41.5736 173.138 41.3751 172.92 41.212C172.701 41.0489 172.457 40.9258 172.186 40.8427C171.918 40.7596 171.633 40.718 171.332 40.718C170.787 40.718 170.299 40.855 169.868 41.1289C169.44 41.4028 169.102 41.8045 168.853 42.3338C168.606 42.8632 168.483 43.5095 168.483 44.2727C168.483 45.0421 168.606 45.6915 168.853 46.2209C169.102 46.7502 169.442 47.1503 169.873 47.4212C170.304 47.692 170.788 47.8274 171.327 47.8274C171.626 47.8274 171.909 47.7874 172.176 47.7074C172.447 47.6243 172.692 47.5027 172.911 47.3427C173.129 47.1826 173.314 46.9872 173.464 46.7564C173.618 46.5225 173.725 46.2547 173.783 45.9531L175.223 45.9577C175.146 46.4225 174.997 46.8503 174.776 47.2411C174.557 47.6289 174.275 47.9644 173.931 48.2475C173.589 48.5276 173.198 48.7446 172.758 48.8984C172.318 49.0523 171.838 49.1293 171.318 49.1293C170.499 49.1293 169.77 48.9354 169.13 48.5476C168.489 48.1567 167.985 47.5981 167.615 46.8718C167.249 46.1455 167.066 45.2791 167.066 44.2727C167.066 43.2633 167.251 42.3969 167.62 41.6737C167.989 40.9473 168.494 40.3903 169.134 40.0025C169.774 39.6116 170.502 39.4162 171.318 39.4162C171.819 39.4162 172.287 39.4885 172.721 39.6332C173.158 39.7747 173.551 39.984 173.898 40.261C174.246 40.5349 174.534 40.8704 174.762 41.2674C174.989 41.6613 175.143 42.1122 175.223 42.62ZM178.2 44.7898V49H176.82V39.5455H178.181V43.0632H178.269C178.435 42.6816 178.689 42.3784 179.031 42.1538C179.372 41.9291 179.819 41.8168 180.37 41.8168C180.856 41.8168 181.281 41.9168 181.644 42.1168C182.01 42.3169 182.293 42.6154 182.493 43.0124C182.696 43.4064 182.798 43.8988 182.798 44.4897V49H181.418V44.6559C181.418 44.1358 181.284 43.7326 181.016 43.4464C180.748 43.1571 180.376 43.0124 179.899 43.0124C179.572 43.0124 179.28 43.0817 179.022 43.2202C178.766 43.3587 178.565 43.5618 178.417 43.8295C178.272 44.0942 178.2 44.4143 178.2 44.7898ZM187.696 49.1431C186.997 49.1431 186.396 48.9938 185.891 48.6953C185.389 48.3937 185.001 47.9705 184.728 47.4258C184.457 46.878 184.321 46.2363 184.321 45.5007C184.321 44.7744 184.457 44.1342 184.728 43.5803C185.001 43.0263 185.383 42.5939 185.872 42.283C186.365 41.9722 186.94 41.8168 187.599 41.8168C187.999 41.8168 188.387 41.8829 188.762 42.0153C189.138 42.1476 189.475 42.3554 189.773 42.6385C190.072 42.9216 190.307 43.2894 190.48 43.7418C190.652 44.1912 190.738 44.7375 190.738 45.3807V45.87H185.101V44.8359H189.386C189.386 44.4728 189.312 44.1512 189.164 43.8711C189.016 43.5879 188.809 43.3648 188.541 43.2017C188.276 43.0386 187.965 42.957 187.608 42.957C187.22 42.957 186.882 43.0524 186.593 43.2433C186.306 43.431 186.085 43.6772 185.928 43.9819C185.774 44.2835 185.697 44.6113 185.697 44.9652V45.7731C185.697 46.247 185.78 46.6502 185.946 46.9826C186.116 47.315 186.351 47.5689 186.653 47.7443C186.954 47.9167 187.307 48.0028 187.71 48.0028C187.971 48.0028 188.21 47.9659 188.425 47.892C188.641 47.8151 188.827 47.7012 188.984 47.5504C189.141 47.3996 189.261 47.2134 189.344 46.9918L190.65 47.2273C190.546 47.612 190.358 47.949 190.087 48.2383C189.82 48.5245 189.483 48.7476 189.076 48.9077C188.673 49.0646 188.213 49.1431 187.696 49.1431ZM195.257 49.1431C194.57 49.1431 193.979 48.9877 193.484 48.6768C192.991 48.3629 192.613 47.9305 192.348 47.3796C192.084 46.8287 191.951 46.1978 191.951 45.4869C191.951 44.7667 192.087 44.1312 192.357 43.5803C192.628 43.0263 193.01 42.5939 193.502 42.283C193.995 41.9722 194.575 41.8168 195.243 41.8168C195.781 41.8168 196.261 41.9168 196.683 42.1168C197.105 42.3138 197.445 42.5908 197.703 42.9478C197.965 43.3048 198.12 43.7218 198.17 44.1989H196.826C196.752 43.8665 196.583 43.5803 196.318 43.3402C196.057 43.1001 195.706 42.9801 195.266 42.9801C194.881 42.9801 194.544 43.0817 194.255 43.2848C193.969 43.4848 193.745 43.7711 193.585 44.1435C193.425 44.5128 193.345 44.9498 193.345 45.4545C193.345 45.9716 193.424 46.4179 193.581 46.7933C193.738 47.1688 193.959 47.4596 194.246 47.6658C194.535 47.872 194.875 47.9751 195.266 47.9751C195.527 47.9751 195.764 47.9274 195.977 47.832C196.192 47.7335 196.372 47.5935 196.517 47.4119C196.665 47.2304 196.768 47.0118 196.826 46.7564H198.17C198.12 47.215 197.971 47.6243 197.722 47.9844C197.472 48.3445 197.139 48.6276 196.72 48.8338C196.305 49.04 195.817 49.1431 195.257 49.1431ZM200.915 46.5948L200.906 44.9098H201.146L203.971 41.9091H205.624L202.402 45.3253H202.185L200.915 46.5948ZM199.646 49V39.5455H201.026V49H199.646ZM204.124 49L201.585 45.63L202.536 44.6651L205.818 49H204.124ZM206.882 49V41.9091H208.207V43.0632H208.295C208.442 42.6723 208.684 42.3677 209.019 42.1491C209.355 41.9276 209.757 41.8168 210.224 41.8168C210.698 41.8168 211.095 41.9276 211.415 42.1491C211.739 42.3707 211.977 42.6754 212.131 43.0632H212.205C212.374 42.6847 212.643 42.383 213.013 42.1584C213.382 41.9306 213.822 41.8168 214.333 41.8168C214.976 41.8168 215.501 42.0183 215.907 42.4215C216.317 42.8247 216.521 43.4325 216.521 44.245V49H215.141V44.3743C215.141 43.8942 215.01 43.5464 214.748 43.331C214.487 43.1155 214.175 43.0078 213.811 43.0078C213.362 43.0078 213.013 43.1463 212.763 43.4233C212.514 43.6972 212.389 44.0496 212.389 44.4805V49H211.014V44.2866C211.014 43.9019 210.894 43.5926 210.654 43.3587C210.414 43.1248 210.101 43.0078 209.717 43.0078C209.455 43.0078 209.213 43.0771 208.992 43.2156C208.773 43.351 208.596 43.5402 208.461 43.7834C208.329 44.0265 208.262 44.3081 208.262 44.6282V49H206.882ZM220.435 49.157C219.985 49.157 219.579 49.0739 219.216 48.9077C218.853 48.7384 218.565 48.4937 218.353 48.1737C218.144 47.8536 218.039 47.4612 218.039 46.9964C218.039 46.5964 218.116 46.267 218.27 46.0085C218.424 45.75 218.631 45.5453 218.893 45.3945C219.155 45.2437 219.447 45.1299 219.77 45.0529C220.093 44.976 220.423 44.9175 220.758 44.8775C221.183 44.8282 221.527 44.7882 221.792 44.7575C222.057 44.7236 222.249 44.6697 222.369 44.5959C222.489 44.522 222.549 44.402 222.549 44.2358V44.2035C222.549 43.8003 222.435 43.4879 222.208 43.2663C221.983 43.0447 221.647 42.9339 221.201 42.9339C220.736 42.9339 220.37 43.037 220.102 43.2433C219.838 43.4464 219.655 43.6726 219.553 43.9219L218.256 43.6264C218.41 43.1955 218.634 42.8478 218.93 42.5831C219.228 42.3153 219.572 42.1214 219.959 42.0014C220.347 41.8783 220.755 41.8168 221.183 41.8168C221.466 41.8168 221.766 41.8506 222.083 41.9183C222.403 41.983 222.702 42.103 222.979 42.2784C223.259 42.4538 223.488 42.7047 223.666 43.0309C223.845 43.354 223.934 43.7741 223.934 44.2912V49H222.586V48.0305H222.531C222.441 48.209 222.308 48.3845 222.129 48.5568C221.951 48.7292 221.721 48.8723 221.441 48.9862C221.161 49.1 220.826 49.157 220.435 49.157ZM220.735 48.049C221.117 48.049 221.443 47.9736 221.714 47.8228C221.988 47.672 222.195 47.475 222.337 47.2319C222.481 46.9857 222.554 46.7225 222.554 46.4425V45.5284C222.505 45.5777 222.409 45.6238 222.268 45.6669C222.129 45.7069 221.971 45.7423 221.792 45.7731C221.614 45.8008 221.44 45.8269 221.27 45.8516C221.101 45.8731 220.96 45.8916 220.846 45.907C220.578 45.9408 220.333 45.9978 220.112 46.0778C219.893 46.1578 219.718 46.2732 219.585 46.424C219.456 46.5717 219.392 46.7687 219.392 47.0149C219.392 47.3565 219.518 47.6151 219.77 47.7905C220.022 47.9628 220.344 48.049 220.735 48.049ZM225.773 49V41.9091H227.107V43.0355H227.181C227.31 42.6539 227.538 42.3538 227.864 42.1353C228.193 41.9137 228.566 41.8029 228.981 41.8029C229.067 41.8029 229.169 41.806 229.286 41.8121C229.406 41.8183 229.5 41.826 229.567 41.8352V43.1555C229.512 43.1402 229.414 43.1232 229.272 43.1048C229.13 43.0832 228.989 43.0724 228.847 43.0724C228.521 43.0724 228.23 43.1417 227.975 43.2802C227.722 43.4156 227.522 43.6049 227.375 43.848C227.227 44.0881 227.153 44.362 227.153 44.6697V49H225.773ZM232.067 41.9091L233.632 44.6697L235.211 41.9091H236.721L234.509 45.4545L236.739 49H235.229L233.632 46.3501L232.04 49H230.525L232.732 45.4545L230.553 41.9091H232.067ZM241.689 39.5455H243.42L246.43 46.8949H246.541L249.551 39.5455H251.282V49H249.925V42.1584H249.837L247.049 48.9862H245.922L243.134 42.1538H243.046V49H241.689V39.5455ZM261.209 42.62H259.768C259.713 42.3123 259.61 42.0414 259.459 41.8075C259.308 41.5736 259.124 41.3751 258.905 41.212C258.687 41.0489 258.442 40.9258 258.171 40.8427C257.903 40.7596 257.619 40.718 257.317 40.718C256.772 40.718 256.284 40.855 255.854 41.1289C255.426 41.4028 255.087 41.8045 254.838 42.3338C254.592 42.8632 254.469 43.5095 254.469 44.2727C254.469 45.0421 254.592 45.6915 254.838 46.2209C255.087 46.7502 255.427 47.1503 255.858 47.4212C256.289 47.692 256.774 47.8274 257.312 47.8274C257.611 47.8274 257.894 47.7874 258.162 47.7074C258.433 47.6243 258.677 47.5027 258.896 47.3427C259.114 47.1826 259.299 46.9872 259.45 46.7564C259.604 46.5225 259.71 46.2547 259.768 45.9531L261.209 45.9577C261.132 46.4225 260.983 46.8503 260.761 47.2411C260.542 47.6289 260.261 47.9644 259.916 48.2475C259.574 48.5276 259.184 48.7446 258.744 48.8984C258.303 49.0523 257.823 49.1293 257.303 49.1293C256.485 49.1293 255.755 48.9354 255.115 48.5476C254.475 48.1567 253.97 47.5981 253.601 46.8718C253.235 46.1455 253.051 45.2791 253.051 44.2727C253.051 43.2633 253.236 42.3969 253.605 41.6737C253.975 40.9473 254.479 40.3903 255.12 40.0025C255.76 39.6116 256.488 39.4162 257.303 39.4162C257.805 39.4162 258.273 39.4885 258.707 39.6332C259.144 39.7747 259.536 39.984 259.884 40.261C260.232 40.5349 260.519 40.8704 260.747 41.2674C260.975 41.6613 261.129 42.1122 261.209 42.62ZM262.916 49V39.5455H266.286C267.021 39.5455 267.631 39.6793 268.114 39.9471C268.597 40.2148 268.959 40.5811 269.199 41.0458C269.439 41.5075 269.559 42.0276 269.559 42.6062C269.559 43.1879 269.437 43.7111 269.194 44.1758C268.954 44.6374 268.591 45.0037 268.105 45.2745C267.621 45.5423 267.014 45.6761 266.281 45.6761H263.964V44.4666H266.152C266.617 44.4666 266.994 44.3866 267.283 44.2266C267.572 44.0634 267.785 43.8419 267.92 43.5618C268.055 43.2817 268.123 42.9632 268.123 42.6062C268.123 42.2492 268.055 41.9322 267.92 41.6552C267.785 41.3782 267.571 41.1612 267.278 41.0043C266.989 40.8473 266.607 40.7688 266.133 40.7688H264.342V49H262.916ZM277.548 49.1431C276.883 49.1431 276.303 48.9908 275.807 48.6861C275.312 48.3814 274.927 47.9551 274.653 47.4073C274.379 46.8595 274.242 46.2193 274.242 45.4869C274.242 44.7513 274.379 44.1081 274.653 43.5572C274.927 43.0063 275.312 42.5785 275.807 42.2738C276.303 41.9691 276.883 41.8168 277.548 41.8168C278.212 41.8168 278.792 41.9691 279.288 42.2738C279.783 42.5785 280.168 43.0063 280.442 43.5572C280.716 44.1081 280.853 44.7513 280.853 45.4869C280.853 46.2193 280.716 46.8595 280.442 47.4073C280.168 47.9551 279.783 48.3814 279.288 48.6861C278.792 48.9908 278.212 49.1431 277.548 49.1431ZM277.552 47.9844C277.983 47.9844 278.34 47.8705 278.623 47.6428C278.906 47.415 279.116 47.1119 279.251 46.7333C279.39 46.3548 279.459 45.9377 279.459 45.4822C279.459 45.0298 279.39 44.6143 279.251 44.2358C279.116 43.8542 278.906 43.5479 278.623 43.3171C278.34 43.0863 277.983 42.9709 277.552 42.9709C277.118 42.9709 276.758 43.0863 276.472 43.3171C276.189 43.5479 275.978 43.8542 275.839 44.2358C275.704 44.6143 275.636 45.0298 275.636 45.4822C275.636 45.9377 275.704 46.3548 275.839 46.7333C275.978 47.1119 276.189 47.415 276.472 47.6428C276.758 47.8705 277.118 47.9844 277.552 47.9844ZM282.394 51.6591V41.9091H283.742V43.0586H283.857C283.937 42.9109 284.053 42.7401 284.203 42.5462C284.354 42.3523 284.563 42.183 284.831 42.0384C285.099 41.8906 285.453 41.8168 285.893 41.8168C286.465 41.8168 286.976 41.9614 287.426 42.2507C287.875 42.54 288.227 42.957 288.483 43.5018C288.741 44.0465 288.871 44.7021 288.871 45.4684C288.871 46.2347 288.743 46.8918 288.487 47.4396C288.232 47.9844 287.881 48.4045 287.435 48.6999C286.989 48.9923 286.479 49.1385 285.907 49.1385C285.476 49.1385 285.124 49.0662 284.85 48.9215C284.579 48.7769 284.367 48.6076 284.213 48.4137C284.059 48.2198 283.94 48.0475 283.857 47.8967H283.774V51.6591H282.394ZM283.746 45.4545C283.746 45.9531 283.819 46.3902 283.963 46.7656C284.108 47.1411 284.317 47.435 284.591 47.6474C284.865 47.8567 285.201 47.9613 285.598 47.9613C286.01 47.9613 286.355 47.852 286.632 47.6335C286.909 47.4119 287.118 47.1119 287.259 46.7333C287.404 46.3548 287.476 45.9285 287.476 45.4545C287.476 44.9867 287.406 44.5666 287.264 44.1942C287.126 43.8219 286.916 43.5279 286.636 43.3125C286.359 43.0971 286.013 42.9893 285.598 42.9893C285.197 42.9893 284.859 43.0924 284.582 43.2987C284.308 43.5049 284.1 43.7926 283.959 44.1619C283.817 44.5312 283.746 44.9621 283.746 45.4545ZM293.727 41.9091V43.017H289.854V41.9091H293.727ZM290.893 40.2102H292.273V46.918C292.273 47.1857 292.313 47.3873 292.393 47.5227C292.473 47.6551 292.576 47.7459 292.702 47.7951C292.832 47.8413 292.972 47.8643 293.122 47.8643C293.233 47.8643 293.33 47.8567 293.413 47.8413C293.496 47.8259 293.561 47.8136 293.607 47.8043L293.856 48.9446C293.776 48.9754 293.663 49.0062 293.515 49.0369C293.367 49.0708 293.182 49.0893 292.961 49.0923C292.598 49.0985 292.259 49.0339 291.945 48.8984C291.631 48.763 291.377 48.5537 291.184 48.2706C290.99 47.9875 290.893 47.632 290.893 47.2042V40.2102ZM295.254 49V41.9091H296.634V49H295.254ZM295.951 40.815C295.711 40.815 295.505 40.735 295.333 40.5749C295.163 40.4118 295.079 40.2179 295.079 39.9933C295.079 39.7655 295.163 39.5716 295.333 39.4116C295.505 39.2485 295.711 39.1669 295.951 39.1669C296.191 39.1669 296.396 39.2485 296.565 39.4116C296.738 39.5716 296.824 39.7655 296.824 39.9933C296.824 40.2179 296.738 40.4118 296.565 40.5749C296.396 40.735 296.191 40.815 295.951 40.815ZM301.478 49.1431C300.813 49.1431 300.233 48.9908 299.738 48.6861C299.242 48.3814 298.858 47.9551 298.584 47.4073C298.31 46.8595 298.173 46.2193 298.173 45.4869C298.173 44.7513 298.31 44.1081 298.584 43.5572C298.858 43.0063 299.242 42.5785 299.738 42.2738C300.233 41.9691 300.813 41.8168 301.478 41.8168C302.143 41.8168 302.723 41.9691 303.219 42.2738C303.714 42.5785 304.099 43.0063 304.373 43.5572C304.647 44.1081 304.784 44.7513 304.784 45.4869C304.784 46.2193 304.647 46.8595 304.373 47.4073C304.099 47.9551 303.714 48.3814 303.219 48.6861C302.723 48.9908 302.143 49.1431 301.478 49.1431ZM301.483 47.9844C301.914 47.9844 302.271 47.8705 302.554 47.6428C302.837 47.415 303.046 47.1119 303.182 46.7333C303.32 46.3548 303.389 45.9377 303.389 45.4822C303.389 45.0298 303.32 44.6143 303.182 44.2358C303.046 43.8542 302.837 43.5479 302.554 43.3171C302.271 43.0863 301.914 42.9709 301.483 42.9709C301.049 42.9709 300.689 43.0863 300.403 43.3171C300.119 43.5479 299.909 43.8542 299.77 44.2358C299.635 44.6143 299.567 45.0298 299.567 45.4822C299.567 45.9377 299.635 46.3548 299.77 46.7333C299.909 47.1119 300.119 47.415 300.403 47.6428C300.689 47.8705 301.049 47.9844 301.483 47.9844ZM307.705 44.7898V49H306.324V41.9091H307.649V43.0632H307.737C307.9 42.6877 308.156 42.3861 308.503 42.1584C308.854 41.9306 309.296 41.8168 309.828 41.8168C310.311 41.8168 310.735 41.9183 311.098 42.1214C311.461 42.3215 311.743 42.62 311.943 43.017C312.143 43.4141 312.243 43.9049 312.243 44.4897V49H310.862V44.6559C310.862 44.1419 310.729 43.7403 310.461 43.451C310.193 43.1586 309.825 43.0124 309.357 43.0124C309.037 43.0124 308.753 43.0817 308.503 43.2202C308.257 43.3587 308.062 43.5618 307.917 43.8295C307.776 44.0942 307.705 44.4143 307.705 44.7898ZM317.534 49V41.9091H318.915V49H317.534ZM318.231 40.815C317.991 40.815 317.785 40.735 317.613 40.5749C317.444 40.4118 317.359 40.2179 317.359 39.9933C317.359 39.7655 317.444 39.5716 317.613 39.4116C317.785 39.2485 317.991 39.1669 318.231 39.1669C318.472 39.1669 318.676 39.2485 318.845 39.4116C319.018 39.5716 319.104 39.7655 319.104 39.9933C319.104 40.2179 319.018 40.4118 318.845 40.5749C318.676 40.735 318.472 40.815 318.231 40.815ZM322.152 44.7898V49H320.772V41.9091H322.097V43.0632H322.184C322.347 42.6877 322.603 42.3861 322.951 42.1584C323.301 41.9306 323.743 41.8168 324.276 41.8168C324.759 41.8168 325.182 41.9183 325.545 42.1214C325.908 42.3215 326.19 42.62 326.39 43.017C326.59 43.4141 326.69 43.9049 326.69 44.4897V49H325.31V44.6559C325.31 44.1419 325.176 43.7403 324.908 43.451C324.64 43.1586 324.272 43.0124 323.805 43.0124C323.485 43.0124 323.2 43.0817 322.951 43.2202C322.704 43.3587 322.509 43.5618 322.364 43.8295C322.223 44.0942 322.152 44.4143 322.152 44.7898ZM332.854 51.6591C332.648 51.6591 332.46 51.6422 332.291 51.6083C332.122 51.5775 331.995 51.5437 331.912 51.5067L332.245 50.3757C332.497 50.4434 332.722 50.4727 332.919 50.4634C333.116 50.4542 333.29 50.3803 333.44 50.2418C333.594 50.1033 333.73 49.8771 333.847 49.5632L334.017 49.0923L331.423 41.9091H332.9L334.696 47.4119H334.77L336.566 41.9091H338.048L335.125 49.9464C334.99 50.3157 334.818 50.6281 334.608 50.8835C334.399 51.142 334.15 51.3359 333.861 51.4652C333.571 51.5945 333.236 51.6591 332.854 51.6591ZM342.091 49.1431C341.426 49.1431 340.846 48.9908 340.35 48.6861C339.855 48.3814 339.47 47.9551 339.196 47.4073C338.922 46.8595 338.785 46.2193 338.785 45.4869C338.785 44.7513 338.922 44.1081 339.196 43.5572C339.47 43.0063 339.855 42.5785 340.35 42.2738C340.846 41.9691 341.426 41.8168 342.091 41.8168C342.755 41.8168 343.335 41.9691 343.831 42.2738C344.326 42.5785 344.711 43.0063 344.985 43.5572C345.259 44.1081 345.396 44.7513 345.396 45.4869C345.396 46.2193 345.259 46.8595 344.985 47.4073C344.711 47.9551 344.326 48.3814 343.831 48.6861C343.335 48.9908 342.755 49.1431 342.091 49.1431ZM342.095 47.9844C342.526 47.9844 342.883 47.8705 343.166 47.6428C343.449 47.415 343.659 47.1119 343.794 46.7333C343.933 46.3548 344.002 45.9377 344.002 45.4822C344.002 45.0298 343.933 44.6143 343.794 44.2358C343.659 43.8542 343.449 43.5479 343.166 43.3171C342.883 43.0863 342.526 42.9709 342.095 42.9709C341.661 42.9709 341.301 43.0863 341.015 43.3171C340.732 43.5479 340.521 43.8542 340.382 44.2358C340.247 44.6143 340.179 45.0298 340.179 45.4822C340.179 45.9377 340.247 46.3548 340.382 46.7333C340.521 47.1119 340.732 47.415 341.015 47.6428C341.301 47.8705 341.661 47.9844 342.095 47.9844ZM351.429 46.0593V41.9091H352.813V49H351.456V47.772H351.382C351.219 48.1506 350.958 48.466 350.598 48.7184C350.241 48.9677 349.796 49.0923 349.263 49.0923C348.808 49.0923 348.405 48.9923 348.054 48.7923C347.706 48.5891 347.432 48.2891 347.232 47.892C347.035 47.495 346.937 47.0041 346.937 46.4194V41.9091H348.317V46.2532C348.317 46.7364 348.451 47.1211 348.719 47.4073C348.986 47.6935 349.334 47.8366 349.762 47.8366C350.021 47.8366 350.277 47.772 350.533 47.6428C350.791 47.5135 351.005 47.3181 351.175 47.0565C351.347 46.7949 351.432 46.4625 351.429 46.0593ZM354.668 49V41.9091H356.002V43.0355H356.076C356.205 42.6539 356.433 42.3538 356.759 42.1353C357.089 41.9137 357.461 41.8029 357.877 41.8029C357.963 41.8029 358.064 41.806 358.181 41.8121C358.301 41.8183 358.395 41.826 358.463 41.8352V43.1555C358.407 43.1402 358.309 43.1232 358.167 43.1048C358.026 43.0832 357.884 43.0724 357.743 43.0724C357.416 43.0724 357.126 43.1417 356.87 43.2802C356.618 43.4156 356.418 43.6049 356.27 43.848C356.122 44.0881 356.048 44.362 356.048 44.6697V49H354.668ZM52.8913 61.62H51.451C51.3956 61.3123 51.2925 61.0414 51.1417 60.8075C50.9909 60.5736 50.8062 60.3751 50.5877 60.212C50.3692 60.0489 50.1245 59.9258 49.8537 59.8427C49.5859 59.7596 49.3013 59.718 48.9996 59.718C48.4549 59.718 47.9671 59.855 47.5362 60.1289C47.1084 60.4028 46.7699 60.8045 46.5206 61.3338C46.2744 61.8632 46.1513 62.5095 46.1513 63.2727C46.1513 64.0421 46.2744 64.6915 46.5206 65.2209C46.7699 65.7502 47.11 66.1503 47.5408 66.4212C47.9717 66.692 48.4564 66.8274 48.995 66.8274C49.2936 66.8274 49.5767 66.7874 49.8445 66.7074C50.1153 66.6243 50.36 66.5027 50.5785 66.3427C50.797 66.1826 50.9817 65.9872 51.1325 65.7564C51.2863 65.5225 51.3925 65.2547 51.451 64.9531L52.8913 64.9577C52.8144 65.4225 52.6651 65.8503 52.4435 66.2411C52.225 66.6289 51.9434 66.9644 51.5987 67.2475C51.2571 67.5276 50.8662 67.7446 50.4261 67.8984C49.986 68.0523 49.5059 68.1293 48.9858 68.1293C48.1671 68.1293 47.4377 67.9354 46.7976 67.5476C46.1574 67.1567 45.6527 66.5981 45.2834 65.8718C44.9171 65.1455 44.734 64.2791 44.734 63.2727C44.734 62.2633 44.9187 61.3969 45.288 60.6737C45.6573 59.9473 46.1621 59.3903 46.8022 59.0025C47.4424 58.6116 48.1702 58.4162 48.9858 58.4162C49.4875 58.4162 49.9553 58.4885 50.3892 58.6332C50.8262 58.7747 51.2186 58.984 51.5664 59.261C51.9142 59.5349 52.2019 59.8704 52.4297 60.2674C52.6574 60.6613 52.8113 61.1122 52.8913 61.62ZM55.577 60.9091L57.142 63.6697L58.7208 60.9091H60.2304L58.0191 64.4545L60.2488 68H58.7393L57.142 65.3501L55.5493 68H54.0351L56.2417 64.4545L54.0628 60.9091H55.577ZM69.9711 63.2727C69.9711 64.2822 69.7865 65.1501 69.4172 65.8764C69.0479 66.5997 68.5416 67.1567 67.8983 67.5476C67.2582 67.9354 66.5303 68.1293 65.7148 68.1293C64.8961 68.1293 64.1652 67.9354 63.5219 67.5476C62.8818 67.1567 62.377 66.5981 62.0077 65.8718C61.6384 65.1455 61.4537 64.2791 61.4537 63.2727C61.4537 62.2633 61.6384 61.3969 62.0077 60.6737C62.377 59.9473 62.8818 59.3903 63.5219 59.0025C64.1652 58.6116 64.8961 58.4162 65.7148 58.4162C66.5303 58.4162 67.2582 58.6116 67.8983 59.0025C68.5416 59.3903 69.0479 59.9473 69.4172 60.6737C69.7865 61.3969 69.9711 62.2633 69.9711 63.2727ZM68.5585 63.2727C68.5585 62.5033 68.4339 61.8555 68.1846 61.3292C67.9384 60.7998 67.5998 60.3997 67.1689 60.1289C66.7412 59.855 66.2564 59.718 65.7148 59.718C65.17 59.718 64.6837 59.855 64.2559 60.1289C63.8282 60.3997 63.4896 60.7998 63.2403 61.3292C62.9941 61.8555 62.871 62.5033 62.871 63.2727C62.871 64.0421 62.9941 64.6915 63.2403 65.2209C63.4896 65.7472 63.8282 66.1473 64.2559 66.4212C64.6837 66.692 65.17 66.8274 65.7148 66.8274C66.2564 66.8274 66.7412 66.692 67.1689 66.4212C67.5998 66.1473 67.9384 65.7472 68.1846 65.2209C68.4339 64.6915 68.5585 64.0421 68.5585 63.2727ZM73.0192 63.7898V68H71.6388V60.9091H72.9638V62.0632H73.0515C73.2146 61.6877 73.4701 61.3861 73.8178 61.1584C74.1687 60.9306 74.6103 60.8168 75.1428 60.8168C75.6259 60.8168 76.0491 60.9183 76.4123 61.1214C76.7754 61.3215 77.0571 61.62 77.2571 62.017C77.4571 62.4141 77.5572 62.9049 77.5572 63.4897V68H76.1768V63.6559C76.1768 63.1419 76.043 62.7403 75.7752 62.451C75.5075 62.1586 75.1397 62.0124 74.6719 62.0124C74.3518 62.0124 74.0671 62.0817 73.8178 62.2202C73.5716 62.3587 73.3762 62.5618 73.2315 62.8295C73.09 63.0942 73.0192 63.4143 73.0192 63.7898ZM82.4645 68.1431C81.7659 68.1431 81.1642 67.9938 80.6594 67.6953C80.1578 67.3937 79.77 66.9705 79.4961 66.4258C79.2253 65.878 79.0898 65.2363 79.0898 64.5007C79.0898 63.7744 79.2253 63.1342 79.4961 62.5803C79.77 62.0263 80.1516 61.5939 80.641 61.283C81.1334 60.9722 81.7089 60.8168 82.3675 60.8168C82.7676 60.8168 83.1554 60.8829 83.5309 61.0153C83.9064 61.1476 84.2434 61.3554 84.5419 61.6385C84.8404 61.9216 85.0759 62.2894 85.2482 62.7418C85.4206 63.1912 85.5067 63.7375 85.5067 64.3807V64.87H79.87V63.8359H84.1541C84.1541 63.4728 84.0803 63.1512 83.9325 62.8711C83.7848 62.5879 83.5771 62.3648 83.3093 62.2017C83.0446 62.0386 82.7338 61.957 82.3768 61.957C81.989 61.957 81.6504 62.0524 81.3612 62.2433C81.0749 62.431 80.8533 62.6772 80.6964 62.9819C80.5425 63.2835 80.4656 63.6113 80.4656 63.9652V64.7731C80.4656 65.247 80.5487 65.6502 80.7148 65.9826C80.8841 66.315 81.1196 66.5689 81.4212 66.7443C81.7228 66.9167 82.0752 67.0028 82.4783 67.0028C82.7399 67.0028 82.9785 66.9659 83.1939 66.892C83.4093 66.8151 83.5955 66.7012 83.7525 66.5504C83.9094 66.3996 84.0295 66.2134 84.1126 65.9918L85.419 66.2273C85.3144 66.612 85.1267 66.949 84.8558 67.2383C84.5881 67.5245 84.2511 67.7476 83.8448 67.9077C83.4416 68.0646 82.9815 68.1431 82.4645 68.1431ZM93.7887 60.9091V62.017H89.9155V60.9091H93.7887ZM90.9542 59.2102H92.3345V65.918C92.3345 66.1857 92.3745 66.3873 92.4545 66.5227C92.5346 66.6551 92.6377 66.7459 92.7638 66.7951C92.8931 66.8413 93.0331 66.8643 93.1839 66.8643C93.2947 66.8643 93.3917 66.8567 93.4748 66.8413C93.5579 66.8259 93.6225 66.8136 93.6687 66.8043L93.918 67.9446C93.8379 67.9754 93.7241 68.0062 93.5763 68.0369C93.4286 68.0708 93.244 68.0893 93.0224 68.0923C92.6592 68.0985 92.3207 68.0339 92.0067 67.8984C91.6928 67.763 91.4389 67.5537 91.245 67.2706C91.0511 66.9875 90.9542 66.632 90.9542 66.2042V59.2102ZM98.2955 68.1431C97.5969 68.1431 96.9952 67.9938 96.4905 67.6953C95.9888 67.3937 95.6011 66.9705 95.3271 66.4258C95.0563 65.878 94.9209 65.2363 94.9209 64.5007C94.9209 63.7744 95.0563 63.1342 95.3271 62.5803C95.6011 62.0263 95.9827 61.5939 96.472 61.283C96.9645 60.9722 97.54 60.8168 98.1986 60.8168C98.5987 60.8168 98.9865 60.8829 99.3619 61.0153C99.7374 61.1476 100.074 61.3554 100.373 61.6385C100.671 61.9216 100.907 62.2894 101.079 62.7418C101.252 63.1912 101.338 63.7375 101.338 64.3807V64.87H95.7011V63.8359H99.9852C99.9852 63.4728 99.9113 63.1512 99.7636 62.8711C99.6159 62.5879 99.4081 62.3648 99.1404 62.2017C98.8757 62.0386 98.5648 61.957 98.2078 61.957C97.82 61.957 97.4815 62.0524 97.1922 62.2433C96.906 62.431 96.6844 62.6772 96.5274 62.9819C96.3736 63.2835 96.2966 63.6113 96.2966 63.9652V64.7731C96.2966 65.247 96.3797 65.6502 96.5459 65.9826C96.7152 66.315 96.9506 66.5689 97.2522 66.7443C97.5538 66.9167 97.9062 67.0028 98.3094 67.0028C98.571 67.0028 98.8095 66.9659 99.0249 66.892C99.2404 66.8151 99.4266 66.7012 99.5835 66.5504C99.7405 66.3996 99.8605 66.2134 99.9436 65.9918L101.25 66.2273C101.145 66.612 100.958 66.949 100.687 67.2383C100.419 67.5245 100.082 67.7476 99.6759 67.9077C99.2727 68.0646 98.8126 68.1431 98.2955 68.1431ZM104.25 63.7898V68H102.869V60.9091H104.194V62.0632H104.282C104.445 61.6877 104.701 61.3861 105.048 61.1584C105.399 60.9306 105.841 60.8168 106.373 60.8168C106.856 60.8168 107.28 60.9183 107.643 61.1214C108.006 61.3215 108.288 61.62 108.488 62.017C108.688 62.4141 108.788 62.9049 108.788 63.4897V68H107.407V63.6559C107.407 63.1419 107.273 62.7403 107.006 62.451C106.738 62.1586 106.37 62.0124 105.902 62.0124C105.582 62.0124 105.298 62.0817 105.048 62.2202C104.802 62.3587 104.607 62.5618 104.462 62.8295C104.32 63.0942 104.25 63.4143 104.25 63.7898ZM112.702 68.157C112.253 68.157 111.847 68.0739 111.484 67.9077C111.121 67.7384 110.833 67.4937 110.62 67.1737C110.411 66.8536 110.306 66.4612 110.306 65.9964C110.306 65.5964 110.383 65.267 110.537 65.0085C110.691 64.75 110.899 64.5453 111.161 64.3945C111.422 64.2437 111.714 64.1299 112.038 64.0529C112.361 63.976 112.69 63.9175 113.026 63.8775C113.45 63.8282 113.795 63.7882 114.06 63.7575C114.324 63.7236 114.517 63.6697 114.637 63.5959C114.757 63.522 114.817 63.402 114.817 63.2358V63.2035C114.817 62.8003 114.703 62.4879 114.475 62.2663C114.25 62.0447 113.915 61.9339 113.469 61.9339C113.004 61.9339 112.638 62.037 112.37 62.2433C112.105 62.4464 111.922 62.6726 111.821 62.9219L110.523 62.6264C110.677 62.1955 110.902 61.8478 111.197 61.5831C111.496 61.3153 111.839 61.1214 112.227 61.0014C112.615 60.8783 113.022 60.8168 113.45 60.8168C113.733 60.8168 114.033 60.8506 114.35 60.9183C114.671 60.983 114.969 61.103 115.246 61.2784C115.526 61.4538 115.755 61.7047 115.934 62.0309C116.112 62.354 116.202 62.7741 116.202 63.2912V68H114.854V67.0305H114.798C114.709 67.209 114.575 67.3845 114.397 67.5568C114.218 67.7292 113.989 67.8723 113.709 67.9862C113.429 68.1 113.093 68.157 112.702 68.157ZM113.002 67.049C113.384 67.049 113.71 66.9736 113.981 66.8228C114.255 66.672 114.463 66.475 114.604 66.2319C114.749 65.9857 114.821 65.7225 114.821 65.4425V64.5284C114.772 64.5777 114.677 64.6238 114.535 64.6669C114.397 64.7069 114.238 64.7423 114.06 64.7731C113.881 64.8008 113.707 64.8269 113.538 64.8516C113.369 64.8731 113.227 64.8916 113.113 64.907C112.846 64.9408 112.601 64.9978 112.379 65.0778C112.161 65.1578 111.985 65.2732 111.853 65.424C111.724 65.5717 111.659 65.7687 111.659 66.0149C111.659 66.3565 111.785 66.6151 112.038 66.7905C112.29 66.9628 112.612 67.049 113.002 67.049ZM119.421 63.7898V68H118.04V60.9091H119.365V62.0632H119.453C119.616 61.6877 119.871 61.3861 120.219 61.1584C120.57 60.9306 121.012 60.8168 121.544 60.8168C122.027 60.8168 122.45 60.9183 122.814 61.1214C123.177 61.3215 123.458 61.62 123.658 62.017C123.859 62.4141 123.959 62.9049 123.959 63.4897V68H122.578V63.6559C122.578 63.1419 122.444 62.7403 122.177 62.451C121.909 62.1586 121.541 62.0124 121.073 62.0124C120.753 62.0124 120.468 62.0817 120.219 62.2202C119.973 62.3587 119.778 62.5618 119.633 62.8295C119.491 63.0942 119.421 63.4143 119.421 63.7898ZM129.12 60.9091V62.017H125.247V60.9091H129.12ZM126.285 59.2102H127.666V65.918C127.666 66.1857 127.706 66.3873 127.786 66.5227C127.866 66.6551 127.969 66.7459 128.095 66.7951C128.224 66.8413 128.364 66.8643 128.515 66.8643C128.626 66.8643 128.723 66.8567 128.806 66.8413C128.889 66.8259 128.954 66.8136 129 66.8043L129.249 67.9446C129.169 67.9754 129.055 68.0062 128.907 68.0369C128.76 68.0708 128.575 68.0893 128.353 68.0923C127.99 68.0985 127.652 68.0339 127.338 67.8984C127.024 67.763 126.77 67.5537 126.576 67.2706C126.382 66.9875 126.285 66.632 126.285 66.2042V59.2102ZM139.401 62.6403L138.15 62.8619C138.097 62.7018 138.014 62.5495 137.9 62.4048C137.79 62.2602 137.639 62.1417 137.448 62.0494C137.257 61.957 137.019 61.9109 136.732 61.9109C136.341 61.9109 136.015 61.9986 135.754 62.174C135.492 62.3464 135.361 62.5695 135.361 62.8434C135.361 63.0804 135.449 63.2712 135.624 63.4158C135.8 63.5605 136.083 63.679 136.474 63.7713L137.6 64.0298C138.253 64.1806 138.739 64.413 139.059 64.7269C139.379 65.0408 139.539 65.4486 139.539 65.9503C139.539 66.375 139.416 66.7536 139.17 67.0859C138.927 67.4152 138.587 67.6738 138.15 67.8615C137.716 68.0492 137.212 68.1431 136.64 68.1431C135.846 68.1431 135.198 67.9738 134.696 67.6353C134.195 67.2937 133.887 66.8089 133.773 66.1811L135.107 65.978C135.19 66.3258 135.361 66.5889 135.62 66.7674C135.878 66.9428 136.215 67.0305 136.631 67.0305C137.083 67.0305 137.445 66.9367 137.716 66.7489C137.986 66.5581 138.122 66.3258 138.122 66.0518C138.122 65.8303 138.039 65.6441 137.873 65.4933C137.709 65.3424 137.459 65.2286 137.12 65.1516L135.92 64.8885C135.258 64.7377 134.769 64.4976 134.452 64.1683C134.138 63.839 133.981 63.422 133.981 62.9173C133.981 62.4987 134.098 62.1325 134.332 61.8185C134.566 61.5046 134.889 61.2599 135.301 61.0845C135.714 60.906 136.186 60.8168 136.718 60.8168C137.485 60.8168 138.088 60.983 138.528 61.3153C138.968 61.6446 139.259 62.0863 139.401 62.6403ZM144.113 68.1431C143.414 68.1431 142.813 67.9938 142.308 67.6953C141.806 67.3937 141.418 66.9705 141.145 66.4258C140.874 65.878 140.738 65.2363 140.738 64.5007C140.738 63.7744 140.874 63.1342 141.145 62.5803C141.418 62.0263 141.8 61.5939 142.289 61.283C142.782 60.9722 143.357 60.8168 144.016 60.8168C144.416 60.8168 144.804 60.8829 145.179 61.0153C145.555 61.1476 145.892 61.3554 146.19 61.6385C146.489 61.9216 146.724 62.2894 146.897 62.7418C147.069 63.1912 147.155 63.7375 147.155 64.3807V64.87H141.518V63.8359H145.803C145.803 63.4728 145.729 63.1512 145.581 62.8711C145.433 62.5879 145.225 62.3648 144.958 62.2017C144.693 62.0386 144.382 61.957 144.025 61.957C143.637 61.957 143.299 62.0524 143.01 62.2433C142.723 62.431 142.502 62.6772 142.345 62.9819C142.191 63.2835 142.114 63.6113 142.114 63.9652V64.7731C142.114 65.247 142.197 65.6502 142.363 65.9826C142.533 66.315 142.768 66.5689 143.07 66.7443C143.371 66.9167 143.724 67.0028 144.127 67.0028C144.388 67.0028 144.627 66.9659 144.842 66.892C145.058 66.8151 145.244 66.7012 145.401 66.5504C145.558 66.3996 145.678 66.2134 145.761 65.9918L147.067 66.2273C146.963 66.612 146.775 66.949 146.504 67.2383C146.237 67.5245 145.9 67.7476 145.493 67.9077C145.09 68.0646 144.63 68.1431 144.113 68.1431ZM151.997 60.9091V62.017H148.123V60.9091H151.997ZM149.162 59.2102H150.543V65.918C150.543 66.1857 150.583 66.3873 150.663 66.5227C150.743 66.6551 150.846 66.7459 150.972 66.7951C151.101 66.8413 151.241 66.8643 151.392 66.8643C151.503 66.8643 151.6 66.8567 151.683 66.8413C151.766 66.8259 151.831 66.8136 151.877 66.8043L152.126 67.9446C152.046 67.9754 151.932 68.0062 151.784 68.0369C151.637 68.0708 151.452 68.0893 151.23 68.0923C150.867 68.0985 150.529 68.0339 150.215 67.8984C149.901 67.763 149.647 67.5537 149.453 67.2706C149.259 66.9875 149.162 66.632 149.162 66.2042V59.2102ZM156.834 60.9091V62.017H152.96V60.9091H156.834ZM153.999 59.2102H155.379V65.918C155.379 66.1857 155.419 66.3873 155.499 66.5227C155.579 66.6551 155.683 66.7459 155.809 66.7951C155.938 66.8413 156.078 66.8643 156.229 66.8643C156.34 66.8643 156.437 66.8567 156.52 66.8413C156.603 66.8259 156.667 66.8136 156.714 66.8043L156.963 67.9446C156.883 67.9754 156.769 68.0062 156.621 68.0369C156.474 68.0708 156.289 68.0893 156.067 68.0923C155.704 68.0985 155.366 68.0339 155.052 67.8984C154.738 67.763 154.484 67.5537 154.29 67.2706C154.096 66.9875 153.999 66.632 153.999 66.2042V59.2102ZM158.361 68V60.9091H159.741V68H158.361ZM159.058 59.815C158.818 59.815 158.611 59.735 158.439 59.5749C158.27 59.4118 158.185 59.2179 158.185 58.9933C158.185 58.7655 158.27 58.5716 158.439 58.4116C158.611 58.2485 158.818 58.1669 159.058 58.1669C159.298 58.1669 159.502 58.2485 159.672 58.4116C159.844 58.5716 159.93 58.7655 159.93 58.9933C159.93 59.2179 159.844 59.4118 159.672 59.5749C159.502 59.735 159.298 59.815 159.058 59.815ZM162.978 63.7898V68H161.598V60.9091H162.923V62.0632H163.01C163.174 61.6877 163.429 61.3861 163.777 61.1584C164.128 60.9306 164.569 60.8168 165.102 60.8168C165.585 60.8168 166.008 60.9183 166.371 61.1214C166.734 61.3215 167.016 61.62 167.216 62.017C167.416 62.4141 167.516 62.9049 167.516 63.4897V68H166.136V63.6559C166.136 63.1419 166.002 62.7403 165.734 62.451C165.466 62.1586 165.099 62.0124 164.631 62.0124C164.311 62.0124 164.026 62.0817 163.777 62.2202C163.531 62.3587 163.335 62.5618 163.191 62.8295C163.049 63.0942 162.978 63.4143 162.978 63.7898ZM172.34 70.8068C171.777 70.8068 171.292 70.733 170.886 70.5852C170.483 70.4375 170.154 70.2421 169.898 69.9989C169.643 69.7558 169.452 69.4896 169.326 69.2003L170.512 68.7109C170.595 68.8464 170.706 68.9895 170.845 69.1403C170.986 69.2942 171.177 69.425 171.417 69.5327C171.66 69.6404 171.973 69.6942 172.354 69.6942C172.877 69.6942 173.31 69.5665 173.651 69.3111C173.993 69.0587 174.164 68.6555 174.164 68.1016V66.7074H174.076C173.993 66.8582 173.873 67.0259 173.716 67.2106C173.562 67.3952 173.35 67.5553 173.079 67.6907C172.808 67.8261 172.456 67.8938 172.022 67.8938C171.462 67.8938 170.957 67.763 170.508 67.5014C170.061 67.2367 169.707 66.8474 169.446 66.3335C169.187 65.8164 169.058 65.1809 169.058 64.4268C169.058 63.6728 169.186 63.0265 169.441 62.4879C169.7 61.9493 170.054 61.5369 170.503 61.2507C170.952 60.9614 171.462 60.8168 172.031 60.8168C172.471 60.8168 172.827 60.8906 173.097 61.0384C173.368 61.183 173.579 61.3523 173.73 61.5462C173.884 61.7401 174.002 61.9109 174.085 62.0586H174.187V60.9091H175.54V68.157C175.54 68.7663 175.398 69.2665 175.115 69.6573C174.832 70.0482 174.449 70.3375 173.965 70.5252C173.485 70.7129 172.944 70.8068 172.34 70.8068ZM172.327 66.7489C172.724 66.7489 173.059 66.6566 173.333 66.4719C173.61 66.2842 173.819 66.0165 173.961 65.6687C174.105 65.3178 174.178 64.8977 174.178 64.4084C174.178 63.9313 174.107 63.5112 173.965 63.1481C173.824 62.7849 173.616 62.5018 173.342 62.2987C173.068 62.0924 172.73 61.9893 172.327 61.9893C171.911 61.9893 171.565 62.0971 171.288 62.3125C171.011 62.5249 170.802 62.8142 170.66 63.1804C170.521 63.5466 170.452 63.956 170.452 64.4084C170.452 64.8731 170.523 65.2809 170.665 65.6317C170.806 65.9826 171.015 66.2565 171.292 66.4535C171.573 66.6504 171.917 66.7489 172.327 66.7489ZM182.704 62.6403L181.453 62.8619C181.401 62.7018 181.318 62.5495 181.204 62.4048C181.093 62.2602 180.942 62.1417 180.752 62.0494C180.561 61.957 180.322 61.9109 180.036 61.9109C179.645 61.9109 179.319 61.9986 179.057 62.174C178.796 62.3464 178.665 62.5695 178.665 62.8434C178.665 63.0804 178.753 63.2712 178.928 63.4158C179.104 63.5605 179.387 63.679 179.778 63.7713L180.904 64.0298C181.556 64.1806 182.043 64.413 182.363 64.7269C182.683 65.0408 182.843 65.4486 182.843 65.9503C182.843 66.375 182.72 66.7536 182.474 67.0859C182.23 67.4152 181.89 67.6738 181.453 67.8615C181.019 68.0492 180.516 68.1431 179.944 68.1431C179.15 68.1431 178.502 67.9738 178 67.6353C177.499 67.2937 177.191 66.8089 177.077 66.1811L178.411 65.978C178.494 66.3258 178.665 66.5889 178.923 66.7674C179.182 66.9428 179.519 67.0305 179.934 67.0305C180.387 67.0305 180.749 66.9367 181.019 66.7489C181.29 66.5581 181.426 66.3258 181.426 66.0518C181.426 65.8303 181.343 65.6441 181.176 65.4933C181.013 65.3424 180.762 65.2286 180.424 65.1516L179.224 64.8885C178.562 64.7377 178.073 64.4976 177.756 64.1683C177.442 63.839 177.285 63.422 177.285 62.9173C177.285 62.4987 177.402 62.1325 177.635 61.8185C177.869 61.5046 178.193 61.2599 178.605 61.0845C179.017 60.906 179.49 60.8168 180.022 60.8168C180.789 60.8168 181.392 60.983 181.832 61.3153C182.272 61.6446 182.563 62.0863 182.704 62.6403ZM185.27 68.0877C185.018 68.0877 184.801 67.9985 184.619 67.82C184.437 67.6384 184.347 67.4199 184.347 67.1644C184.347 66.9121 184.437 66.6966 184.619 66.5181C184.801 66.3365 185.018 66.2457 185.27 66.2457C185.522 66.2457 185.739 66.3365 185.921 66.5181C186.102 66.6966 186.193 66.9121 186.193 67.1644C186.193 67.3337 186.15 67.4891 186.064 67.6307C185.981 67.7692 185.87 67.88 185.732 67.9631C185.593 68.0462 185.439 68.0877 185.27 68.0877Z" fill="#D48446"/>
</svg>
