<svg width="16" height="16" viewBox="0 0 16 16" fill="none" xmlns="http://www.w3.org/2000/svg">
<path d="M1.89037 2.18833C3.8536 2.04264 5.7875 1.36899 7.47955 0.16738C7.79014 -0.053189 8.20945 -0.053189 8.52005 0.16738C10.2121 1.36899 12.146 2.04264 14.1092 2.18833C14.5578 2.22162 14.9236 2.5883 14.9179 3.03809C14.7863 13.3649 12.1274 14.4226 8.33006 15.9332L8.30304 15.944C8.10871 16.0213 7.89089 16.0213 7.69656 15.944L7.66953 15.9332C3.87221 14.4226 1.21332 13.3649 1.08173 3.03809C1.076 2.5883 1.44177 2.22162 1.89037 2.18833Z" fill="#FF3B6C"/>
<path d="M5.22384 11.1779V4.66196H6.60148V7.35042H9.39812V4.66196H10.7726V11.1779H9.39812V8.48626H6.60148V11.1779H5.22384Z" fill="black"/>
</svg>
