<svg width="24" height="24" viewBox="0 0 24 24" fill="none" xmlns="http://www.w3.org/2000/svg">
<path fill-rule="evenodd" clip-rule="evenodd" d="M11.3489 2.20691C9.23386 3.70892 6.81648 4.55098 4.36244 4.7331C3.80169 4.77471 3.34448 5.23305 3.35165 5.7953C3.51613 18.7038 6.83974 20.026 11.5864 21.9142L11.6202 21.9276C11.8631 22.0243 12.1354 22.0243 12.3783 21.9276L12.4121 21.9142C17.1587 20.026 20.4823 18.7038 20.6468 5.7953C20.654 5.23305 20.1968 4.77471 19.636 4.7331C17.182 4.55098 14.7646 3.70892 12.6495 2.20691C12.2613 1.93119 11.7372 1.93119 11.3489 2.20691ZM9.81543 15.6222C10.4014 15.9809 11.1027 16.1602 11.9195 16.1602C12.6048 16.1602 13.2014 16.0359 13.7093 15.7873C14.2171 15.5352 14.6183 15.1872 14.9131 14.7433C15.2078 14.2958 15.3783 13.7827 15.4244 13.2039H13.5814C13.5246 13.4986 13.4198 13.749 13.2671 13.9549C13.1144 14.1609 12.9244 14.3189 12.6972 14.429C12.4735 14.5355 12.2195 14.5888 11.9355 14.5888C11.5342 14.5888 11.1844 14.4823 10.8861 14.2692C10.5914 14.0526 10.3623 13.7454 10.199 13.3477C10.0356 12.9464 9.95392 12.467 9.95392 11.9095C9.95392 11.3591 10.0356 10.8868 10.199 10.4926C10.3659 10.0984 10.5985 9.79655 10.8968 9.58704C11.195 9.37397 11.5413 9.26743 11.9355 9.26743C12.4007 9.26743 12.7718 9.4006 13.0487 9.66694C13.3293 9.92972 13.5068 10.2582 13.5814 10.6524H15.4244C15.3818 10.0629 15.2078 9.54797 14.9024 9.10763C14.597 8.66374 14.1869 8.32106 13.672 8.07958C13.1606 7.83455 12.5729 7.71204 11.9088 7.71204C11.1098 7.71204 10.4173 7.89137 9.83141 8.25003C9.24902 8.60515 8.79803 9.10231 8.47843 9.74151C8.15882 10.3772 7.99902 11.1105 7.99902 11.9414C7.99902 12.7689 8.15527 13.5004 8.46777 14.136C8.78382 14.7681 9.23304 15.2635 9.81543 15.6222Z" fill="#DA0007"/>
<path d="M11.9195 16.1602C11.1027 16.1602 10.4014 15.9809 9.81543 15.6222C9.23304 15.2635 8.78382 14.7681 8.46777 14.136C8.15527 13.5004 7.99902 12.7689 7.99902 11.9414C7.99902 11.1105 8.15882 10.3772 8.47843 9.74151C8.79803 9.10231 9.24902 8.60515 9.83141 8.25003C10.4173 7.89137 11.1098 7.71204 11.9088 7.71204C12.5729 7.71204 13.1606 7.83455 13.672 8.07958C14.1869 8.32106 14.597 8.66374 14.9024 9.10763C15.2078 9.54797 15.3818 10.0629 15.4244 10.6524H13.5814C13.5068 10.2582 13.3293 9.92972 13.0487 9.66694C12.7718 9.4006 12.4007 9.26743 11.9355 9.26743C11.5413 9.26743 11.195 9.37397 10.8968 9.58704C10.5985 9.79655 10.3659 10.0984 10.199 10.4926C10.0356 10.8868 9.95392 11.3591 9.95392 11.9095C9.95392 12.467 10.0356 12.9464 10.199 13.3477C10.3623 13.7454 10.5914 14.0526 10.8861 14.2692C11.1844 14.4823 11.5342 14.5888 11.9355 14.5888C12.2195 14.5888 12.4735 14.5355 12.6972 14.429C12.9244 14.3189 13.1144 14.1609 13.2671 13.9549C13.4198 13.749 13.5246 13.4986 13.5814 13.2039H15.4244C15.3783 13.7827 15.2078 14.2958 14.9131 14.7433C14.6183 15.1872 14.2171 15.5352 13.7093 15.7873C13.2014 16.0359 12.6048 16.1602 11.9195 16.1602Z" fill="white"/>
</svg>
