<svg width="24" height="24" viewBox="0 0 24 24" fill="none" xmlns="http://www.w3.org/2000/svg">
<path d="M5.06166 4.73285C7.5157 4.55074 9.93308 3.70867 12.0481 2.20666C12.4364 1.93095 12.9605 1.93095 13.3488 2.20666C15.4638 3.70867 17.8812 4.55074 20.3352 4.73285C20.896 4.77447 21.3532 5.23281 21.346 5.79505C21.1815 18.7036 17.8579 20.0257 13.1113 21.914L13.0775 21.9274C12.8346 22.024 12.5623 22.024 12.3194 21.9274L12.2856 21.914C7.53896 20.0257 4.21535 18.7036 4.05086 5.79505C4.0437 5.23281 4.50091 4.77447 5.06166 4.73285Z" fill="#FFA100"/>
<path d="M8.23326 7.82489H10.357L12.6 13.2973H12.6955L14.9385 7.82489H17.0622V15.9698H15.3919V10.6685H15.3243L13.2165 15.93H12.079L9.97121 10.6486H9.9036V15.9698H8.23326V7.82489Z" fill="white"/>
</svg>
