<?xml version="1.0" encoding="UTF-8"?>
<svg version="1.1" xmlns="http://www.w3.org/2000/svg" width="512" height="512">
<path d="M0 0 C11.78309252 6.7275089 21.60390957 17.07150757 25.3125 30.3203125 C27.50402366 44.98618694 24.7299997 57.21107729 15.9375 69.2578125 C13.14273997 72.74767951 9.82018872 75.54165519 6.44873047 78.45336914 C3.07113315 81.40519619 -0.17833857 84.48904848 -3.4375 87.5703125 C-9.17564337 92.97268154 -14.94685409 98.33291164 -20.765625 103.6484375 C-23.89393985 106.50908905 -27.0111772 109.38141 -30.125 112.2578125 C-30.66535889 112.75692139 -31.20571777 113.25603027 -31.76245117 113.77026367 C-32.85714892 114.78151862 -33.95179396 115.79283062 -35.04638672 116.80419922 C-37.75927586 119.31045354 -40.47344859 121.81531696 -43.1875 124.3203125 C-44.27083957 125.32030574 -45.35417291 126.32030574 -46.4375 127.3203125 C-108.1875 184.3203125 -108.1875 184.3203125 -169.9375 241.3203125 C-170.4742334 241.8157959 -171.0109668 242.3112793 -171.56396484 242.82177734 C-172.64226548 243.81705694 -173.7207149 244.81217538 -174.79931641 245.80712891 C-177.58592092 248.37801805 -180.36951973 250.95205232 -183.1484375 253.53125 C-183.71651123 254.05750977 -184.28458496 254.58376953 -184.86987305 255.12597656 C-185.98504696 256.15992117 -187.09853578 257.19568669 -188.21020508 258.23339844 C-191.00401071 260.8276773 -193.84999628 263.25302187 -196.875 265.5703125 C-199.86734787 268.49616375 -200.78790672 270.25633892 -201.7890625 274.1953125 C-201.57944929 278.58106574 -199.30479608 281.66443542 -196.375 284.77734375 C-195.488125 285.55464844 -194.60125 286.33195312 -193.6875 287.1328125 C-192.21990234 288.42445313 -192.21990234 288.42445313 -190.72265625 289.7421875 C-186.98263682 292.91903798 -183.18956562 296.02360989 -179.37109375 299.10546875 C-176.74041443 301.27664077 -174.20807576 303.52272607 -171.6875 305.8203125 C-168.27010628 308.93489918 -164.7822765 311.9121787 -161.1875 314.8203125 C-156.72329543 318.43180384 -152.45747886 322.20691944 -148.21484375 326.07421875 C-145.61787607 328.38218848 -142.95345987 330.57587113 -140.25 332.7578125 C-135.47753797 336.61739853 -130.95640891 340.69231241 -126.44140625 344.84765625 C-122.85542716 348.06740769 -119.12048508 351.07936426 -115.37109375 354.10546875 C-111.88199084 356.98512137 -108.55753079 360.02725126 -105.21484375 363.07421875 C-102.61787607 365.38218848 -99.95345987 367.57587113 -97.25 369.7578125 C-83.20644527 381.21910115 -71.98438646 391.79791557 -69.8125 410.5078125 C-69.10914062 423.31793229 -72.59083744 433.88093259 -80.65625 443.72265625 C-86.16524943 449.72067918 -92.24476102 453.14987201 -99.6875 456.3203125 C-100.44289063 456.69414062 -101.19828125 457.06796875 -101.9765625 457.453125 C-110.29746459 460.11485449 -121.86402709 459.70664073 -129.8125 456.1953125 C-131.46175109 455.27934382 -133.08922182 454.32257725 -134.6875 453.3203125 C-135.43773437 452.90910156 -136.18796875 452.49789063 -136.9609375 452.07421875 C-146.98350645 446.14859465 -154.24651071 435.97426889 -161.44140625 427.03515625 C-163.7758059 424.21357755 -166.20740598 421.51440538 -168.6875 418.8203125 C-172.78101091 414.37304138 -176.61192499 409.77313787 -180.40625 405.0703125 C-182.75468968 402.23931672 -185.19659902 399.52647652 -187.6875 396.8203125 C-191.78101091 392.37304138 -195.61192499 387.77313787 -199.40625 383.0703125 C-201.75468968 380.23931672 -204.19659902 377.52647652 -206.6875 374.8203125 C-210.78101091 370.37304138 -214.61192499 365.77313787 -218.40625 361.0703125 C-220.75468968 358.23931672 -223.19659902 355.52647652 -225.6875 352.8203125 C-229.83104362 348.31701936 -233.72955175 343.66628313 -237.578125 338.91015625 C-242.93920694 331.23654472 -242.93920694 331.23654472 -250.67578125 327.046875 C-251.82626953 326.99660156 -251.82626953 326.99660156 -253 326.9453125 C-253.75925781 326.89632813 -254.51851562 326.84734375 -255.30078125 326.796875 C-258.85908197 327.57725519 -260.28538214 329.64060012 -262.6875 332.3203125 C-263.53828125 333.22007812 -264.3890625 334.11984375 -265.265625 335.046875 C-270.5286028 340.75612869 -275.57035657 346.55355855 -280.44140625 352.60546875 C-282.7758059 355.42704745 -285.20740598 358.12621962 -287.6875 360.8203125 C-290.98081699 364.39823713 -294.13401321 368.03570916 -297.1875 371.8203125 C-301.02469031 376.57626669 -305.08135101 381.07536051 -309.21875 385.5703125 C-311.63128104 388.25768884 -313.9200621 391.00996694 -316.1875 393.8203125 C-320.02469031 398.57626669 -324.08135101 403.07536051 -328.21875 407.5703125 C-330.63128104 410.25768884 -332.9200621 413.00996694 -335.1875 415.8203125 C-339.02243608 420.57347271 -343.07368996 425.07181044 -347.21484375 429.55859375 C-349.66954532 432.30025885 -351.96365847 435.12503405 -354.25 438.0078125 C-360.98452111 446.29009197 -367.83881131 452.1134223 -377.6875 456.3203125 C-378.79544922 456.86558594 -378.79544922 456.86558594 -379.92578125 457.421875 C-390.46004427 460.84886297 -402.88567478 459.05013985 -412.6015625 454.21484375 C-422.83150496 447.93443604 -432.23417518 438.27901321 -435.25 426.34765625 C-437.44822118 411.13675078 -435.34172746 398.8497298 -426.7265625 385.9453125 C-423.23377305 381.44884793 -419.08524129 377.90675744 -414.6875 374.3203125 C-413.35138672 373.22783203 -413.35138672 373.22783203 -411.98828125 372.11328125 C-410.15237982 370.61784656 -408.3138028 369.125691 -406.47265625 367.63671875 C-403.63218638 365.27430832 -400.90574101 362.82202222 -398.1875 360.3203125 C-393.7176488 356.20652341 -389.09705107 352.34943953 -384.37109375 348.53515625 C-381.74041443 346.36398423 -379.20807576 344.11789893 -376.6875 341.8203125 C-373.29151318 338.72476054 -369.82578469 335.76880043 -366.25 332.8828125 C-362.44662497 329.80694662 -358.78667348 326.63278084 -355.1875 323.3203125 C-350.7176488 319.20652341 -346.09705107 315.34943953 -341.37109375 311.53515625 C-337.88056571 308.65432743 -334.55475932 305.61096847 -331.2109375 302.5625 C-328.63667642 300.27515346 -325.99460511 298.10482979 -323.3125 295.9453125 C-321.43414037 294.40774097 -319.55932485 292.86583275 -317.6875 291.3203125 C-317.14673828 290.87896973 -316.60597656 290.43762695 -316.04882812 289.98291016 C-314.3670521 288.59617403 -312.71330838 287.18119595 -311.0625 285.7578125 C-310.05960937 284.91089844 -309.05671875 284.06398438 -308.0234375 283.19140625 C-304.9055433 279.35921188 -304.79695357 277.21587221 -304.6875 272.3203125 C-307.10862457 266.63066976 -311.9976557 263.44476482 -316.7578125 259.67578125 C-319.49504259 257.47504825 -322.09742155 255.19110316 -324.6875 252.8203125 C-328.08348682 249.72476054 -331.54921531 246.76880043 -335.125 243.8828125 C-339.89746203 240.02322647 -344.41859109 235.94831259 -348.93359375 231.79296875 C-352.51957284 228.57321731 -356.25451492 225.56126074 -360.00390625 222.53515625 C-363.49300916 219.65550363 -366.81746921 216.61337374 -370.16015625 213.56640625 C-372.75712393 211.25843652 -375.42154013 209.06475387 -378.125 206.8828125 C-382.89746203 203.02322647 -387.41859109 198.94831259 -391.93359375 194.79296875 C-395.51605982 191.57637156 -399.24757592 188.56746272 -402.9921875 185.54296875 C-406.54319863 182.61467117 -409.94784442 179.54324909 -413.34375 176.4375 C-415.4795401 174.50816961 -417.66575325 172.66418382 -419.875 170.8203125 C-427.95631942 163.73487285 -434.86969261 154.22302588 -435.88037109 143.22070312 C-436.41745157 128.26057052 -435.00920172 117.35188118 -424.9140625 105.57421875 C-415.62292866 96.16898327 -405.26040709 91.97165757 -392.1875 91.8203125 C-379.50389917 91.97936611 -370.20978017 95.80316191 -360.6875 104.3203125 C-356.96496191 108.17758052 -353.58335453 112.32506637 -350.19921875 116.47802734 C-347.76400972 119.4457417 -345.25547959 122.34943138 -342.75 125.2578125 C-341.74991926 126.42440995 -340.74991989 127.59107718 -339.75 128.7578125 C-334.41927735 134.96556921 -329.05152342 141.14133953 -323.6875 147.3203125 C-316.83684251 155.21178204 -309.99905551 163.11329555 -303.20458984 171.05322266 C-297.39663347 177.83583445 -291.54123906 184.57722199 -285.6875 191.3203125 C-284.04386267 193.21366565 -282.40037225 195.10714433 -280.75756836 197.0012207 C-279.67589524 198.24788659 -278.59338576 199.49382733 -277.51000977 200.73901367 C-274.77078143 203.8925581 -272.05655795 207.06346852 -269.37890625 210.26953125 C-268.84273682 210.90753662 -268.30656738 211.54554199 -267.75415039 212.20288086 C-266.74074078 213.41085501 -265.73300446 214.62362136 -264.73217773 215.84204102 C-262.01637649 219.06977103 -259.55466089 221.56820077 -255.6875 223.3203125 C-251.89318686 223.51489266 -248.27674988 222.51672913 -244.6875 221.3203125 C-244.00474964 219.99514302 -243.34082932 218.66023154 -242.6875 217.3203125 C-241.3386558 215.85883569 -239.93686232 214.4453477 -238.5 213.0703125 C-234.962735 209.67552928 -231.73089464 206.1136601 -228.52368164 202.41259766 C-225.59621141 199.0768152 -222.5481256 195.8580377 -219.5 192.6328125 C-218.17669194 191.2269308 -216.85378028 189.82067589 -215.53125 188.4140625 C-214.8815625 187.723125 -214.231875 187.0321875 -213.5625 186.3203125 C-209.3926521 181.87247474 -205.26766591 177.38314253 -201.13916016 172.89697266 C-198.658036 170.2022031 -196.17254209 167.51146857 -193.6875 164.8203125 C-190.70954045 161.59503498 -187.73213117 158.36926084 -184.7578125 155.140625 C-178.80615783 148.68253071 -172.82646718 142.2516351 -166.82861328 135.83642578 C-162.36465779 131.05722268 -157.9432427 126.24130157 -153.53125 121.4140625 C-150.27385206 117.86053747 -146.98042446 114.34088716 -143.6875 110.8203125 C-138.55753656 105.33493076 -133.4623995 99.82009277 -128.39453125 94.27734375 C-124.01262121 89.4858795 -119.60130545 84.72148839 -115.19482422 79.95263672 C-113.71339866 78.34835889 -112.23341008 76.74276884 -110.75390625 75.13671875 C-104.8037913 68.67970548 -98.82521112 62.25029164 -92.82861328 55.83642578 C-88.36465779 51.05722268 -83.9432427 46.24130157 -79.53125 41.4140625 C-75.68176679 37.21462627 -71.78531989 33.05887978 -67.88989258 28.90209961 C-64.64247628 25.43244704 -61.42862365 21.93725721 -58.25 18.40454102 C-43.19885557 1.74726417 -22.77765199 -10.17876323 0 0 Z " fill="#121185" transform="translate(471.6875,18.6796875)"/>
</svg>
